<svg width="16" height="16" viewBox="0 0 16 16" fill="none" xmlns="http://www.w3.org/2000/svg">
<rect x="4.28516" y="8.00098" width="1.14286" height="1.14286" fill="#10141A"/>
<rect x="6.38086" y="8.00098" width="1.14286" height="1.14286" fill="#10141A"/>
<rect x="8.47559" y="8.00098" width="1.14286" height="1.14286" fill="#10141A"/>
<rect x="10.5703" y="8.00098" width="1.14286" height="1.14286" fill="#10141A"/>
<rect x="4.28516" y="10.394" width="1.14286" height="1.14286" fill="#10141A"/>
<rect x="6.38086" y="10.394" width="1.14286" height="1.14286" fill="#10141A"/>
<rect x="8.47559" y="10.394" width="1.14286" height="1.14286" fill="#10141A"/>
<rect x="10.5713" y="10.394" width="1.14286" height="1.14286" fill="#10141A"/>
<path d="M2.66602 6.47656H13.3327V11.4289C13.3327 12.2705 12.6504 12.9528 11.8089 12.9528H4.18983C3.34825 12.9528 2.66602 12.2705 2.66602 11.4289V6.47656Z" stroke="#10141A" stroke-width="0.8"/>
<path d="M2.66602 5.33436C2.66602 4.49278 3.34825 3.81055 4.18983 3.81055H11.8089C12.6504 3.81055 13.3327 4.49278 13.3327 5.33436V6.47721H2.66602V5.33436Z" stroke="#10141A" stroke-width="0.8"/>
<path d="M5.33301 4.57264V3.04883" stroke="#10141A" stroke-width="0.8" stroke-linecap="round"/>
<path d="M10.666 4.57264V3.04883" stroke="#10141A" stroke-width="0.8" stroke-linecap="round"/>
</svg>
