<svg width="13" height="14" viewBox="0 0 13 14" fill="none" xmlns="http://www.w3.org/2000/svg">
<path d="M10.7565 3.31055H4.80259C4.25362 3.31055 3.80859 3.75557 3.80859 4.30454V12.2565C3.80859 12.8054 4.25362 13.2505 4.80259 13.2505H10.7565C11.3055 13.2505 11.7505 12.8054 11.7505 12.2565V4.30454C11.7505 3.75557 11.3055 3.31055 10.7565 3.31055Z" stroke="#3284FF" stroke-width="1.25" stroke-miterlimit="10"/>
<path d="M5.90234 5.71973H9.65234" stroke="#3284FF" stroke-width="1.25"/>
<path d="M5.90234 8.21973H9.65234" stroke="#3284FF" stroke-width="1.25"/>
<path d="M5.90234 10.7197H9.65234" stroke="#3284FF" stroke-width="1.25"/>
<path d="M9.19189 2.17768V1.74594C9.19189 1.19373 8.75012 0.751953 8.1979 0.751953H2.24399C1.69177 0.751953 1.25 1.19373 1.25 1.74594V9.69788C1.25 10.2501 1.69177 10.6919 2.24399 10.6919H2.67573" stroke="#3284FF" stroke-width="1.25" stroke-miterlimit="10"/>
</svg>
