<svg width="14" height="14" viewBox="0 0 14 14" fill="none" xmlns="http://www.w3.org/2000/svg">
<path d="M9.96119 4.43848H5.79345C5.40917 4.43848 5.09766 4.74999 5.09766 5.13427V10.7006C5.09766 11.0849 5.40917 11.3964 5.79345 11.3964H9.96119C10.3455 11.3964 10.657 11.0849 10.657 10.7006V5.13427C10.657 4.74999 10.3455 4.43848 9.96119 4.43848Z" stroke="#3284FF" stroke-width="0.875" stroke-miterlimit="10"/>
<path d="M6.5625 6.125H9.1875" stroke="#3284FF" stroke-width="0.875"/>
<path d="M6.5625 7.875H9.1875" stroke="#3284FF" stroke-width="0.875"/>
<path d="M6.5625 9.625H9.1875" stroke="#3284FF" stroke-width="0.875"/>
<path d="M8.86596 3.64449V3.34228C8.86596 2.95573 8.55672 2.64648 8.17017 2.64648H4.00243C3.61588 2.64648 3.30664 2.95573 3.30664 3.34228V8.90863C3.30664 9.29518 3.61588 9.60442 4.00243 9.60442H4.30465" stroke="#3284FF" stroke-width="0.875" stroke-miterlimit="10"/>
</svg>
