<svg width="20" height="20" viewBox="0 0 20 20" fill="none" xmlns="http://www.w3.org/2000/svg">
<path d="M10.1578 3.76502L12.1017 7.69874C12.117 7.72425 12.1426 7.74466 12.1732 7.74976L16.5151 8.38242C16.6579 8.40283 16.7191 8.5814 16.612 8.68344L13.4691 11.7447C13.4691 11.7447 13.4385 11.7957 13.4436 11.8263L14.1834 16.1529C14.2089 16.2958 14.0558 16.408 13.9283 16.3366L10.0456 14.2958C10.0201 14.2804 9.98437 14.2804 9.95886 14.2958L6.07616 16.3366C5.94861 16.4029 5.79554 16.2958 5.82105 16.1529L6.56086 11.8263C6.56596 11.7957 6.56086 11.7651 6.53535 11.7447L3.38735 8.68344C3.28021 8.5814 3.34143 8.40283 3.48429 8.38242L7.82618 7.74976C7.85679 7.74976 7.8823 7.72425 7.89761 7.69874L9.84151 3.76502C9.90784 3.63236 10.0915 3.63236 10.1578 3.76502Z" fill="#D2D6DC"/>
</svg>
