<svg width="162" height="22" viewBox="0 0 162 22" fill="none" xmlns="http://www.w3.org/2000/svg">
<path d="M25.8174 4.14578C22.0677 2.5719 17.5703 1.77513 13.4783 1.77513C9.38619 1.77513 4.88688 2.5719 1.13909 4.14578C0.895141 4.26775 0.7771 4.37399 0.7771 4.65139V17.3486C0.7771 17.626 0.895141 17.7322 1.13909 17.8542C4.88884 19.4281 9.38619 20.2268 13.4783 20.2268C17.5703 20.2268 22.0677 19.4281 25.8174 17.8542C26.0614 17.7322 26.1794 17.626 26.1794 17.3486V4.65139C26.1794 4.37399 26.0614 4.26579 25.8174 4.14578ZM22.1169 4.34842C22.2428 3.89593 22.6225 3.66181 23.0415 3.77789C23.1576 3.80936 23.25 3.85855 23.3268 3.92741L23.3327 3.93134L23.252 4.15365L23.2402 4.13988C23.1733 4.06315 23.0907 4.012 22.9943 3.98446C22.8605 3.94708 22.7307 3.96085 22.6166 4.02577C22.4848 4.10053 22.3844 4.23825 22.3352 4.41334C22.2861 4.58647 22.3018 4.75566 22.3785 4.88944C22.4415 5.00158 22.5457 5.08224 22.6697 5.11568C22.7562 5.13929 22.892 5.15109 22.9727 5.12355L22.9884 5.11765L22.9372 5.3498H22.9313C22.8428 5.36554 22.7385 5.35569 22.6107 5.32028C22.1778 5.20027 21.985 4.81664 22.1169 4.34448V4.34842ZM20.3226 3.16211V3.15227L20.5371 3.19555L20.2321 4.71631L20.0177 4.67499L20.3226 3.16211ZM17.8005 2.7588V2.74897L18.0169 2.77651C18.0169 2.77651 17.8438 4.08479 17.8418 4.10447C17.8615 4.10643 18.4143 4.17923 18.4143 4.17923L18.3868 4.38973L17.5998 4.28546L17.8025 2.75684L17.8005 2.7588ZM14.5918 3.27425C14.6055 3.01456 14.696 2.79815 14.8475 2.66044C14.9695 2.55027 15.1289 2.49715 15.3079 2.50502C15.7092 2.52666 15.963 2.8611 15.9394 3.34114C15.9256 3.60279 15.8371 3.82117 15.6876 3.95495C15.5656 4.06512 15.4063 4.11824 15.2253 4.1084C15.0443 4.09857 14.8908 4.02971 14.7806 3.90773C14.6469 3.75821 14.58 3.53394 14.5937 3.27228L14.5918 3.27425ZM11.9182 2.51486C11.9182 2.51486 11.9378 3.13653 11.9398 3.15621C11.9595 3.15621 12.5595 3.13457 12.5792 3.13457C12.5792 3.11489 12.5575 2.49321 12.5575 2.49321L12.7661 2.48535H12.7759L12.8271 4.03561L12.6087 4.04348C12.6087 4.04348 12.5871 3.36475 12.5871 3.34507C12.5674 3.34507 11.9673 3.36671 11.9477 3.36671C11.9477 3.38639 11.9713 4.06512 11.9713 4.06512L11.7529 4.07299L11.7017 2.52076L11.9201 2.51289L11.9182 2.51486ZM11.503 4.66123C12.1995 4.61991 12.8684 4.59827 13.4842 4.59827C16.4253 4.59827 20.6079 5.07043 23.1891 5.98328H11.503V4.65926V4.66123ZM11.503 6.69349H23.793C23.793 6.723 23.797 6.75054 23.797 6.77612V7.12631H12.8487V10.1206H17.8871V10.5554H11.503V6.69349ZM13.555 9.41236V8.97758H23.797V9.41236H13.555ZM23.797 10.1206V10.5554H18.5953V10.1206H23.797ZM13.555 8.2713V7.83651H23.797V8.2713H13.555ZM17.8871 11.2636V13.9825H9.16191V13.5477H16.3742V11.6964H9.16191V5.97738H3.795C5.65611 5.32225 8.34153 4.89534 10.7948 4.70647V11.2617H17.8871V11.2636ZM9.93704 2.6506H9.94688L9.97049 2.8611C9.97049 2.8611 9.56325 2.90635 9.54554 2.91029C9.54751 2.92996 9.69506 4.24021 9.69506 4.24021L9.47865 4.26382C9.47865 4.26382 9.3311 2.9516 9.32913 2.93193C9.30946 2.93193 8.90222 2.98111 8.90222 2.98111L8.87861 2.76864L9.93704 2.64863V2.6506ZM6.65158 3.1326L6.86209 3.09325H6.86799L7.73952 4.50581L7.50738 4.55106C7.50738 4.55106 7.30277 4.2107 7.29687 4.1989C7.2831 4.20087 6.65945 4.32088 6.64568 4.32284C6.64371 4.33662 6.58076 4.72812 6.58076 4.72812L6.35648 4.7714L6.64962 3.13457L6.65158 3.1326ZM3.71631 4.02577C3.80877 3.86052 3.96223 3.74444 4.15699 3.68936C4.27307 3.65591 4.37734 3.65001 4.47767 3.66772H4.48554L4.53276 3.90183L4.51702 3.89593C4.42062 3.86445 4.32225 3.86445 4.22585 3.89003C4.09404 3.92741 3.98977 4.00807 3.92485 4.12021C3.85009 4.25399 3.83632 4.42318 3.8855 4.59827C3.97797 4.92682 4.25143 5.10781 4.53669 5.02715C4.62325 5.00354 4.74523 4.94255 4.80031 4.87763L4.81212 4.86386L4.88884 5.08814L4.88294 5.09208C4.81605 5.14913 4.71769 5.19634 4.59178 5.23175C4.39307 5.28881 4.20224 5.2711 4.04289 5.17863C3.86386 5.0783 3.73205 4.89534 3.66319 4.65139C3.59827 4.42317 3.61794 4.1989 3.71828 4.02184L3.71631 4.02577ZM3.17136 6.77612C3.17136 6.74858 3.17136 6.71906 3.17529 6.68562H8.4517V11.6964H3.16939V6.77415L3.17136 6.77612ZM3.17136 12.4067H15.664V12.8414H8.45367V14.6927H18.5953V11.2656H23.797V14.8855C23.793 15.0311 23.7753 15.2554 23.675 15.3852C23.5924 15.4954 23.4763 15.5623 23.4015 15.5977C22.1129 16.0816 20.3817 16.4476 18.5953 16.6935V15.1255H3.193C3.17726 15.039 3.17332 14.9524 3.17136 14.8835V12.4047V12.4067ZM17.8871 15.8338V16.784C16.3407 16.9689 14.7905 17.0614 13.4842 17.0614C10.7181 17.0614 6.86406 16.6423 4.26126 15.8338H17.8871ZM3.08086 17.8464C2.93331 17.7952 2.83101 17.7106 2.77395 17.5926C2.70313 17.447 2.7051 17.2581 2.78182 17.0338L3.07299 16.1859L3.07692 16.1761L3.28349 16.2469L2.99823 17.0791C2.93331 17.266 2.92544 17.4037 2.97462 17.5021C3.00807 17.569 3.06512 17.6162 3.15168 17.6457C3.23628 17.6752 3.313 17.6732 3.37793 17.6417C3.47629 17.5945 3.55499 17.4804 3.61794 17.2935L3.90321 16.4613L4.10781 16.5322L3.81271 17.3919C3.67303 17.8011 3.41137 17.9624 3.07889 17.8483L3.08086 17.8464ZM4.80622 18.3579C4.80622 18.3579 4.57407 17.0614 4.56227 17.0004C4.54456 17.0634 4.21798 18.1887 4.21798 18.1887L4.00944 18.1277L4.44029 16.6463L4.44423 16.6364L4.71769 16.7171C4.71769 16.7171 4.94196 17.9801 4.95377 18.0431C4.97147 17.9801 5.29215 16.8824 5.29215 16.8824L5.50069 16.9433L5.06787 18.4346L4.81015 18.3598L4.80622 18.3579ZM5.70726 18.5959L5.49675 18.5428L5.87448 17.0476V17.0378L6.08696 17.0909L5.70529 18.5959H5.70726ZM6.48042 18.7789L6.29943 17.1637V17.1499L6.53551 17.2011C6.53551 17.2011 6.65749 18.5369 6.66339 18.5841C6.687 18.5428 7.3677 17.384 7.3677 17.384L7.59197 17.4332L6.73815 18.8359L6.48239 18.7808L6.48042 18.7789ZM8.54417 17.8149C8.54417 17.8149 7.99724 17.7185 7.97757 17.7165C7.97364 17.7342 7.90675 18.1198 7.90281 18.1375C7.92249 18.1415 8.41826 18.228 8.41826 18.228L8.38088 18.4385C8.38088 18.4385 7.88314 18.35 7.86543 18.348C7.8615 18.3677 7.78477 18.8084 7.78084 18.8261C7.80051 18.83 8.34743 18.9264 8.34743 18.9264L8.31005 19.1369L7.52902 18.9992L7.79658 17.4804V17.4706L8.57761 17.6083L8.54023 17.8188L8.54417 17.8149ZM9.7108 18.1946C9.68719 18.3677 9.55931 18.4897 9.39012 18.5054C9.43931 18.5389 9.46488 18.5802 9.49242 18.6726L9.67342 19.3278L9.42947 19.2943L9.28979 18.7336C9.25044 18.5841 9.19339 18.5762 9.08912 18.5625C9.08912 18.5625 8.99862 18.5507 8.98092 18.5487C8.97895 18.5684 8.88845 19.2235 8.88845 19.2235L8.67204 19.194L8.88058 17.6654V17.6555L9.22683 17.7027C9.38422 17.7244 9.55538 17.7618 9.64785 17.8837C9.69309 17.9428 9.71473 18.0175 9.71473 18.108C9.71473 18.1355 9.71277 18.1651 9.70883 18.1965L9.7108 18.1946ZM10.4269 18.472C10.5863 18.5782 10.7673 18.7002 10.7378 18.9913C10.7082 19.2864 10.5056 19.436 10.181 19.4045C10.0807 19.3947 9.9882 19.3533 9.90163 19.312L9.89573 19.3081L9.94098 19.0858L9.95278 19.0917C9.9882 19.1133 10.1141 19.1822 10.2262 19.194C10.2833 19.1999 10.3679 19.1881 10.4289 19.1369C10.4761 19.0995 10.5017 19.0464 10.5095 18.9815C10.5253 18.83 10.4131 18.7572 10.2833 18.6726C10.1338 18.5743 9.96459 18.4641 9.99016 18.2005C10.0157 17.9427 10.2085 17.7932 10.482 17.8208C10.5804 17.8306 10.6866 17.8621 10.7732 17.9054L10.781 17.9093L10.7279 18.1277L10.7161 18.1218C10.6217 18.0687 10.5686 18.0431 10.4682 18.0333C10.423 18.0293 10.3403 18.0273 10.2813 18.0765C10.2459 18.106 10.2243 18.1493 10.2203 18.2044C10.2085 18.3244 10.3089 18.3933 10.4269 18.472ZM11.2414 19.4714L11.025 19.4556L11.1371 17.9172V17.9073L11.3555 17.9231L11.2414 19.4714ZM12.6618 18.2044C12.6618 18.2044 12.2526 18.1867 12.2329 18.1847C12.2329 18.2044 12.1719 19.5225 12.1719 19.5225L11.9555 19.5127C11.9555 19.5127 12.0146 18.1946 12.0146 18.1749C11.9949 18.1749 11.5857 18.1552 11.5857 18.1552L11.5955 17.9526V17.9427L12.6697 17.99L12.6598 18.2024L12.6618 18.2044ZM14.1255 18.0136C14.1255 18.0136 13.5884 18.9008 13.5884 18.8989V19.5501H13.3701C13.3701 19.5501 13.3701 18.9067 13.3701 18.9008C13.3661 18.8969 12.833 18.0116 12.833 18.0116L12.8231 17.9959H13.0769C13.0769 17.9959 13.4645 18.6471 13.4802 18.6746C13.496 18.6471 13.8776 17.9978 13.8776 17.9978H14.1314L14.1235 18.0136H14.1255ZM15.9374 19.314C15.8292 19.436 15.6758 19.5068 15.4948 19.5186C15.0856 19.5442 14.8042 19.2451 14.7747 18.7572C14.7472 18.2772 14.997 17.9388 15.4004 17.9152C15.8017 17.8916 16.0929 18.1965 16.1204 18.6766C16.1361 18.9382 16.0712 19.1645 15.9374 19.314ZM16.7126 19.3966L16.4962 19.4183L16.3407 17.8739L17.0805 17.7991H17.0903L17.1119 18.0096C17.1119 18.0096 16.5985 18.0608 16.5788 18.0647C16.5808 18.0824 16.6201 18.472 16.6221 18.4897C16.6417 18.4877 17.1316 18.4385 17.1316 18.4385L17.1533 18.649C17.1533 18.649 16.6634 18.6982 16.6437 18.7002C16.6457 18.7199 16.7145 19.3946 16.7145 19.3946L16.7126 19.3966ZM19.1717 19.0681C19.1717 19.0681 18.8865 19.1133 18.8786 19.1094C18.8786 19.1094 18.2156 18.5152 18.1763 18.4798C18.1841 18.531 18.2884 19.2038 18.2884 19.2038L18.074 19.2373L17.8359 17.7027L18.0504 17.6693C18.0504 17.6693 18.1428 18.2693 18.1507 18.3185C18.2196 18.2103 18.615 17.5847 18.6209 17.5788L18.8806 17.5394L18.9022 17.5355C18.9022 17.5355 18.375 18.348 18.3651 18.3618C18.3769 18.3736 19.1914 19.0622 19.1914 19.0622H19.1698L19.1717 19.0681ZM19.9193 18.9481C19.518 19.0287 19.1973 18.771 19.1009 18.2929C19.0065 17.8227 19.2091 17.4529 19.6046 17.3742C20 17.2955 20.3285 17.5591 20.423 18.0293C20.5194 18.5074 20.3207 18.8674 19.9193 18.9481ZM21.6427 18.5271L21.3063 18.0569C21.2158 17.9329 21.1588 17.9467 21.0565 17.9723C21.0565 17.9723 20.9679 17.9939 20.9502 17.9978C20.9561 18.0175 21.1155 18.6589 21.1155 18.6589L20.903 18.712L20.5292 17.205L20.8676 17.1204C21.021 17.083 21.1961 17.0535 21.326 17.1322C21.4106 17.1834 21.4657 17.2699 21.4991 17.3998C21.507 17.4312 21.5109 17.4647 21.5109 17.4942C21.5109 17.626 21.4381 17.744 21.3181 17.807C21.3752 17.8208 21.4145 17.8483 21.4735 17.9231L21.8827 18.4641L21.6427 18.5231V18.5271ZM22.1818 18.3834L21.749 16.8922L22.5005 16.6738H22.5103L22.5693 16.8765C22.5693 16.8765 22.0362 17.0319 22.0165 17.0378C22.0224 17.0555 22.1306 17.4312 22.1365 17.4489C22.1542 17.443 22.6402 17.3034 22.6402 17.3034L22.6992 17.508C22.6992 17.508 22.2152 17.6476 22.1956 17.6535C22.2015 17.6713 22.3254 18.1021 22.3313 18.1198C22.349 18.1139 22.8841 17.9605 22.8841 17.9605L22.9431 18.1651L22.1818 18.3854V18.3834ZM24.2495 17.7322C24.2495 17.7322 24.0016 17.4214 23.9937 17.4116C23.9819 17.4155 23.3799 17.6181 23.3661 17.6221C23.3661 17.6358 23.3563 18.0333 23.3563 18.0333L23.1399 18.106L23.2107 16.4436L23.4133 16.3748H23.4192L24.4737 17.6555L24.2495 17.7303V17.7322ZM15.2351 3.89593C15.3472 3.90183 15.4456 3.86839 15.5223 3.79953C15.6305 3.70116 15.6974 3.53 15.7073 3.3313C15.7171 3.1326 15.6659 2.95554 15.5656 2.84537C15.4948 2.76667 15.4023 2.72536 15.2941 2.71946C15.1859 2.71355 15.0895 2.74503 15.0108 2.81586C14.8987 2.91619 14.8298 3.08538 14.82 3.28605C14.8062 3.55754 14.9065 3.88019 15.2331 3.8979L15.2351 3.89593ZM23.3701 17.4116C23.3956 17.4037 23.8383 17.2542 23.8639 17.2443C23.8481 17.2247 23.4192 16.6856 23.3878 16.6443C23.3878 16.6955 23.372 17.384 23.372 17.4116H23.3701ZM26.805 3.88609C26.6831 3.70116 26.5119 3.59689 26.4155 3.54771C22.6146 1.91088 17.8851 1 13.4822 1C9.07928 1 4.34979 1.91088 0.548888 3.54771C0.452489 3.59689 0.279363 3.70313 0.159355 3.88609C0.0275428 4.08479 0.00393468 4.42711 0 4.64745V17.3525C0.00393468 17.5729 0.0275428 17.9132 0.159355 18.1139C0.269526 18.2811 0.421011 18.3834 0.521346 18.4385C4.33012 20.0852 9.06945 21 13.4842 21C17.8989 21 22.6362 20.0852 26.445 18.4385C26.5434 18.3834 26.6968 18.2811 26.807 18.1139C26.9388 17.9132 26.9624 17.5729 26.9664 17.3525V4.64745C26.9624 4.42711 26.9388 4.08479 26.807 3.88609H26.805ZM26.4489 17.3584C26.4489 17.628 26.4175 17.6988 26.3781 17.7932C26.3191 17.931 26.1558 18.0175 26.1558 18.0175C22.3943 19.676 17.6962 20.5003 13.4802 20.5003C9.26421 20.5003 4.5662 19.674 0.804643 18.0175C0.804643 18.0175 0.641353 17.931 0.582333 17.7932C0.542986 17.6988 0.511509 17.628 0.511509 17.3584V4.65532C0.511509 4.3858 0.542986 4.31497 0.582333 4.22054C0.641353 4.08282 0.804643 3.99823 0.804643 3.99823C4.5662 2.33976 9.26421 1.51348 13.4802 1.51348C17.6962 1.51348 22.3923 2.33976 26.1558 3.99823C26.1558 3.99823 26.3191 4.08282 26.3781 4.22054C26.4194 4.31497 26.4489 4.3858 26.4489 4.65532V17.3584ZM15.6974 18.2221C15.6187 18.1513 15.5223 18.1218 15.4122 18.1277C15.304 18.1336 15.2115 18.1769 15.1426 18.2556C15.0443 18.3677 14.9931 18.5448 15.0049 18.7435C15.0167 18.9441 15.0856 19.1133 15.1958 19.2097C15.2744 19.2786 15.3708 19.3101 15.485 19.3042C15.5971 19.2963 15.6896 19.255 15.7604 19.1763C15.8568 19.0681 15.906 18.891 15.8942 18.6903C15.8824 18.4916 15.8115 18.3205 15.6994 18.2221H15.6974ZM9.24651 17.9172C9.24651 17.9172 9.08715 17.8955 9.06945 17.8936C9.06748 17.9132 9.01239 18.3165 9.00846 18.3362C9.02617 18.3362 9.16585 18.3579 9.16585 18.3579C9.26421 18.3716 9.34684 18.3559 9.40389 18.3126C9.44718 18.2792 9.47472 18.232 9.48259 18.169C9.48259 18.1572 9.48456 18.1454 9.48456 18.1336C9.48456 18.0175 9.39996 17.9388 9.24651 17.9191V17.9172ZM19.941 17.6378C19.8524 17.5808 19.7541 17.5611 19.6459 17.5847C19.5377 17.6044 19.455 17.6595 19.396 17.748C19.3134 17.8719 19.2878 18.0549 19.3272 18.2497C19.3803 18.5152 19.5573 18.8044 19.88 18.7395C19.9902 18.7159 20.0767 18.6608 20.1338 18.5743C20.2144 18.4523 20.238 18.2713 20.1987 18.0746C20.1594 17.8798 20.0669 17.7204 19.941 17.6378ZM20.966 17.3152C20.966 17.3152 20.8086 17.3545 20.7909 17.3584C20.7948 17.3762 20.8932 17.7736 20.8991 17.7913C20.9247 17.7854 21.0525 17.7539 21.0525 17.7539C21.202 17.7165 21.2847 17.6319 21.2847 17.5217C21.2847 17.5021 21.2827 17.4824 21.2768 17.4627C21.2434 17.3289 21.1293 17.2758 20.966 17.3171V17.3152ZM6.8011 3.35491C6.79323 3.40606 6.68503 4.08479 6.68109 4.11037C6.70667 4.10447 7.16703 4.0179 7.1926 4.012C7.17883 3.98839 6.82668 3.39819 6.8011 3.35294V3.35491Z" fill="#3284FF"/>
<path d="M66.0684 5.25684C69.0672 5.25684 71.0877 7.06766 71.5322 9.38379L71.5508 9.48242H68.9521L68.9375 9.41895C68.6976 8.43446 67.6413 7.63086 66.1211 7.63086C64.2101 7.63099 62.792 9.03524 62.792 11C62.7921 12.9516 64.2104 14.368 66.1211 14.3682C66.8767 14.3682 67.5642 14.1195 68.085 13.752C68.6071 13.3834 68.9545 12.9014 69.042 12.4395L69.0547 12.3721H71.6523L71.6387 12.4668C71.3014 14.6796 69.094 16.7422 66.0684 16.7422C62.7051 16.7421 60.2198 14.3134 60.2197 11C60.2197 7.68651 62.705 5.25689 66.0684 5.25684Z" fill="#3284FF" stroke="#3284FF" stroke-width="0.165302"/>
<path d="M49.5742 5.53516L49.5986 5.5752L53.2441 11.4912L56.8896 5.5752L56.9141 5.53516H58.96V16.4785H56.3877V10.7812L54.042 14.667L54.0176 14.7061H52.4697L52.4453 14.667L50.0996 10.7812V16.4785H47.5273V5.53516H49.5742Z" fill="#3284FF" stroke="#3284FF" stroke-width="0.165302"/>
<path d="M40.7324 5.25684C43.7313 5.25684 45.7518 7.06766 46.1963 9.38379L46.2148 9.48242H43.6162L43.6016 9.41895C43.3617 8.43446 42.3054 7.63086 40.7852 7.63086C38.8742 7.63099 37.4561 9.03524 37.4561 11C37.4562 12.9516 38.8745 14.368 40.7852 14.3682C41.5407 14.3682 42.2283 14.1195 42.749 13.752C43.2711 13.3834 43.6185 12.9014 43.7061 12.4395L43.7188 12.3721H46.3164L46.3027 12.4668C45.9654 14.6796 43.7581 16.7422 40.7324 16.7422C37.3692 16.7421 34.8839 14.3134 34.8838 11C34.8838 7.68651 37.3691 5.25688 40.7324 5.25684Z" fill="#3284FF" stroke="#3284FF" stroke-width="0.165302"/>
<path d="M156.141 5.43555C157.436 5.43555 158.556 5.74681 159.363 6.25977C160.17 6.77259 160.672 7.49369 160.702 8.30762L160.707 8.42285H159.689L159.685 8.31738C159.659 7.7936 159.284 7.31024 158.639 6.95312C157.996 6.59725 157.101 6.37793 156.084 6.37793C155.095 6.37793 154.245 6.59764 153.646 6.95215C153.046 7.307 152.711 7.78708 152.711 8.31152C152.711 8.59513 152.75 8.85076 152.853 9.08105C152.955 9.31014 153.123 9.52117 153.393 9.71191C153.937 10.0973 154.889 10.3979 156.514 10.5869C158.149 10.7771 159.265 11.1353 159.975 11.6465C160.692 12.1634 160.986 12.8327 160.986 13.6143C160.986 14.6258 160.449 15.4252 159.588 15.9668C158.73 16.5065 157.547 16.7939 156.235 16.7939C153.289 16.7939 151.665 15.3913 151.485 13.7783L151.472 13.6543H152.51L152.521 13.7529C152.625 14.676 153.669 15.8515 156.292 15.8516C157.357 15.8516 158.283 15.6178 158.938 15.2236C159.593 14.8299 159.969 14.2835 159.969 13.6523C159.969 13.3629 159.917 13.1138 159.797 12.8955C159.677 12.6774 159.485 12.4821 159.191 12.3066C158.674 11.9969 157.853 11.7557 156.598 11.5674L156.032 11.4902C154.425 11.2905 153.341 10.9274 152.657 10.4053C151.965 9.87712 151.692 9.19372 151.692 8.3877C151.692 7.48098 152.173 6.7386 152.968 6.22754C153.76 5.71814 154.867 5.43557 156.141 5.43555Z" fill="#3284FF" stroke="#3284FF" stroke-width="0.222799"/>
<path d="M140.303 5.7002V11.9473C140.303 13.2259 140.639 14.1954 141.226 14.8438C141.811 15.4903 142.659 15.8319 143.713 15.832C144.848 15.832 145.866 15.2552 146.603 14.4004C147.339 13.5452 147.787 12.4202 147.787 11.3418V5.7002H148.806V16.5283H147.787V14.3574C147.565 14.7775 147.199 15.2553 146.693 15.6738C145.945 16.2941 144.888 16.793 143.543 16.793C142.302 16.793 141.234 16.327 140.478 15.5C139.722 14.6737 139.284 13.4948 139.284 12.0801V5.7002H140.303Z" fill="#3284FF" stroke="#3284FF" stroke-width="0.222799"/>
<path d="M136.332 0.888672V16.5273H135.313V0.888672H136.332Z" fill="#3284FF" stroke="#3284FF" stroke-width="0.222799"/>
<path d="M127.357 5.43555C130.401 5.43555 132.62 7.91849 132.62 11.1143C132.62 14.3102 130.401 16.7939 127.357 16.7939C125.109 16.7939 123.548 15.5356 122.905 14.3916V21.1113H121.887V5.7002H122.905V7.83691C123.549 6.69312 125.11 5.43557 127.357 5.43555ZM127.301 6.39648C124.719 6.39648 122.886 8.44039 122.886 11.1143C122.886 13.7883 124.719 15.832 127.301 15.832C129.879 15.832 131.602 13.7922 131.602 11.1143C131.601 8.43647 129.879 6.39654 127.301 6.39648Z" fill="#3284FF" stroke="#3284FF" stroke-width="0.222799"/>
<path d="M113.987 5.43555C117.03 5.43568 119.25 7.89938 119.25 11.1143C119.25 11.2231 119.25 11.388 119.229 11.4961L119.211 11.5859H109.771C109.965 14.0352 111.633 15.832 113.987 15.832C115.847 15.8319 117.236 14.904 117.689 13.708L117.717 13.6357H118.821L118.77 13.7832C118.164 15.5205 116.337 16.7939 113.987 16.7939C110.944 16.7939 108.725 14.3294 108.725 11.1143C108.725 7.8993 110.944 5.43555 113.987 5.43555ZM113.987 6.39648C111.633 6.39648 109.965 8.17618 109.771 10.624H118.203C118.009 8.17625 116.342 6.39661 113.987 6.39648Z" fill="#3284FF" stroke="#3284FF" stroke-width="0.222799"/>
<path d="M108.104 6.68066L107.949 6.61523C107.609 6.47199 107.133 6.39649 106.496 6.39648C103.99 6.39648 102.101 8.72472 102.101 10.8877V16.5283H101.082V5.7002H102.101V7.91797C102.691 6.84617 104.195 5.43555 106.534 5.43555C107.242 5.43557 107.692 5.51165 108.029 5.63086L108.104 5.65723V6.68066Z" fill="#3284FF" stroke="#3284FF" stroke-width="0.222799"/>
<path d="M92.3496 5.43555C94.5982 5.43564 96.1591 6.69468 96.8018 7.83887V5.7002H97.8203V16.5283H96.8018V14.3896C96.1593 15.534 94.5986 16.7939 92.3496 16.7939C89.3059 16.7939 87.0869 14.3102 87.0869 11.1143C87.0871 7.91849 89.3061 5.43555 92.3496 5.43555ZM92.4062 6.39648C89.8284 6.39648 88.1056 8.43643 88.1055 11.1143C88.1055 13.7923 89.8282 15.832 92.4062 15.832C94.9878 15.832 96.8213 13.7883 96.8213 11.1143C96.8211 8.44041 94.9877 6.39652 92.4062 6.39648Z" fill="#3284FF" stroke="#3284FF" stroke-width="0.222799"/>
<path d="M80.1084 5.43555C82.4517 5.43567 84.3492 6.94813 84.9873 9.15234L85.0283 9.29395H83.9854L83.96 9.21777C83.4059 7.53731 81.9698 6.3966 80.1084 6.39648C77.5477 6.39648 75.7697 8.41947 75.7695 11.1143C75.7695 13.8092 77.5475 15.832 80.1084 15.832C81.9891 15.8319 83.4621 14.654 83.9785 12.9756L84.0029 12.8975H85.0449L85.0068 13.0371C84.4072 15.2615 82.509 16.7939 80.165 16.7939C77.0489 16.7939 74.751 14.3327 74.751 11.1143C74.7512 7.89708 77.0293 5.43555 80.1084 5.43555Z" fill="#3284FF" stroke="#3284FF" stroke-width="0.222799"/>
</svg>
