<svg width="12" height="12" viewBox="0 0 12 12" fill="none" xmlns="http://www.w3.org/2000/svg">
<path d="M5.99995 11.5259C9.05205 11.5259 11.5263 9.05171 11.5263 5.99961C11.5263 2.94751 9.05205 0.473297 5.99995 0.473297C2.94785 0.473297 0.473633 2.94751 0.473633 5.99961C0.473633 9.05171 2.94785 11.5259 5.99995 11.5259Z" fill="#E55151"/>
<path d="M6.56848 5.33667H5.43164V8.98088H6.56848V5.33667Z" fill="white"/>
<path d="M6.74489 3.92506C6.74489 3.51172 6.40981 3.17664 5.99647 3.17664C5.58313 3.17664 5.24805 3.51172 5.24805 3.92506C5.24805 4.3384 5.58313 4.67348 5.99647 4.67348C6.40981 4.67348 6.74489 4.3384 6.74489 3.92506Z" fill="white"/>
</svg>
