<svg width="24" height="24" viewBox="0 0 24 24" fill="none" xmlns="http://www.w3.org/2000/svg">
<rect width="24" height="24" rx="12" fill="white"/>
<path d="M9.24985 14.0122C7.84688 14.4544 6.63452 15.2398 5.75766 16.2387C5.1553 16.9173 5.68141 18 6.58877 18H17.378C18.2853 18 18.8114 16.9249 18.2091 16.2387C17.3246 15.2398 16.1199 14.4544 14.7169 14.0122C14.2213 13.8521 14.1069 13.2345 14.511 12.899C15.5404 12.0373 16.1122 10.6725 15.8377 9.1704C15.5632 7.6683 14.3509 6.41019 12.8412 6.08995C10.2945 5.55621 8.06037 7.47005 8.06037 9.91763C8.06037 11.1147 8.60174 12.1822 9.45572 12.899C9.85984 13.2345 9.74547 13.8597 9.24985 14.0122Z" stroke="#4C5258" stroke-width="1.2" stroke-linecap="round" stroke-linejoin="round"/>
</svg>
