<svg width="20" height="20" viewBox="0 0 20 20" fill="none" xmlns="http://www.w3.org/2000/svg">
<path d="M7.24985 12.0122C5.84688 12.4544 4.63452 13.2398 3.75766 14.2387C3.1553 14.9173 3.68141 16 4.58877 16H15.378C16.2853 16 16.8114 14.9249 16.2091 14.2387C15.3246 13.2398 14.1199 12.4544 12.7169 12.0122C12.2213 11.8521 12.1069 11.2345 12.511 10.899C13.5404 10.0373 14.1122 8.6725 13.8377 7.1704C13.5632 5.6683 12.3509 4.41019 10.8412 4.08995C8.29446 3.55621 6.06037 5.47005 6.06037 7.91763C6.06037 9.11474 6.60174 10.1822 7.45572 10.899C7.85984 11.2345 7.74547 11.8597 7.24985 12.0122Z" stroke="#3284FF" stroke-linecap="round" stroke-linejoin="round"/>
</svg>
