<svg width="16" height="16" viewBox="0 0 16 16" fill="none" xmlns="http://www.w3.org/2000/svg">
<path d="M12.4681 6.11069L10.2344 3.87695L6.57945 7.53188L8.81319 9.76561L12.4681 6.11069Z" fill="#3284FF" stroke="#3284FF" stroke-width="1.14355" stroke-linecap="round" stroke-linejoin="round"/>
<path d="M13.2323 6.36585L12.4605 6.10075L10.231 3.87133L9.96593 3.0995L10.2031 2.8623L13.4695 6.12866L13.2323 6.36585Z" fill="#3284FF" stroke="#3284FF" stroke-width="1.14355" stroke-linecap="round" stroke-linejoin="round"/>
<path d="M5.3664 7.28888L6.5731 7.52525L8.80251 9.75466L9.03888 10.9614L8.5645 11.4358L4.89201 7.76326L5.3664 7.28888Z" fill="#3284FF" stroke="#3284FF" stroke-width="1.14355" stroke-linecap="round" stroke-linejoin="round"/>
<path d="M3.37923 13.7342L2.35396 14.1306C2.23093 14.1807 2.1079 14.0577 2.15802 13.9347L2.55446 12.9094C2.58636 12.8228 2.63648 12.7454 2.70027 12.6816L5.92188 9.45996L6.82866 10.3667L3.60706 13.5883C3.54327 13.6521 3.4658 13.7023 3.37923 13.7342Z" fill="#3284FF"/>
</svg>
