<svg width="12" height="12" viewBox="0 0 12 12" fill="none" xmlns="http://www.w3.org/2000/svg">
<path d="M5.99995 11.5258C9.05205 11.5258 11.5263 9.05156 11.5263 5.99946C11.5263 2.94736 9.05205 0.473145 5.99995 0.473145C2.94785 0.473145 0.473633 2.94736 0.473633 5.99946C0.473633 9.05156 2.94785 11.5258 5.99995 11.5258Z" fill="#3284FF"/>
<path d="M5.61495 7.28669V7.21313C5.61495 6.86637 5.64647 6.58791 5.70952 6.38301C5.76731 6.17811 5.85138 6.00998 5.96171 5.88389C6.07204 5.75779 6.20339 5.6422 6.36101 5.53713C6.47134 5.46357 6.56591 5.38476 6.64997 5.29544C6.73404 5.20613 6.80234 5.11156 6.85488 5.00122C6.90216 4.89089 6.92843 4.77005 6.92843 4.6387C6.92843 4.48634 6.89691 4.35499 6.82861 4.24466C6.76031 4.13432 6.67624 4.04501 6.56591 3.98721C6.45558 3.92417 6.32948 3.89264 6.19288 3.89264C6.06679 3.89264 5.94595 3.92417 5.83561 3.98196C5.72528 4.03975 5.63071 4.12907 5.55716 4.24991C5.4836 4.3655 5.44157 4.51786 5.43106 4.6965H4.48535C4.49586 4.32872 4.57467 4.02399 4.73229 3.77706C4.8899 3.53012 5.09481 3.34623 5.347 3.22539C5.60444 3.10455 5.88815 3.0415 6.19814 3.0415C6.53439 3.0415 6.83386 3.10455 7.09131 3.2359C7.34875 3.36725 7.5484 3.54588 7.69551 3.78756C7.84262 4.02924 7.91092 4.3077 7.91092 4.63345C7.91092 4.85411 7.8794 5.04851 7.8111 5.22189C7.74279 5.39527 7.65348 5.54763 7.53789 5.68424C7.41705 5.82084 7.28045 5.94168 7.11758 6.04676C6.97572 6.14133 6.85488 6.24115 6.76556 6.34623C6.67624 6.45131 6.60794 6.57215 6.56591 6.70875C6.52388 6.85061 6.49761 7.01874 6.49761 7.22364V7.2972H5.60969L5.61495 7.28669ZM6.0773 9.03625C5.90917 9.03625 5.76206 8.97846 5.64122 8.85762C5.52038 8.73678 5.45733 8.58966 5.45733 8.41629C5.45733 8.2429 5.52038 8.10105 5.64122 7.98021C5.76206 7.85937 5.90917 7.80157 6.0773 7.80157C6.24542 7.80157 6.38728 7.85937 6.51337 7.98021C6.63421 8.10105 6.69726 8.2429 6.69726 8.41629C6.69726 8.53187 6.67099 8.63695 6.6132 8.73152C6.5554 8.82609 6.48185 8.89965 6.38728 8.95744C6.29271 9.01523 6.19288 9.0415 6.0773 9.0415V9.03625Z" fill="white"/>
</svg>
