<svg width="17" height="16" viewBox="0 0 17 16" fill="none" xmlns="http://www.w3.org/2000/svg">
<path fill-rule="evenodd" clip-rule="evenodd" d="M8.5002 3.3223C6.81633 3.3223 5.3411 4.20894 4.5173 5.54626C4.37827 5.77197 4.08258 5.84224 3.85687 5.7032C3.63116 5.56416 3.5609 5.26848 3.69994 5.04277C4.69172 3.43273 6.47039 2.3623 8.5002 2.3623C11.6125 2.3623 14.1381 4.88794 14.1381 8.0002C14.1381 11.1125 11.6125 13.6381 8.5002 13.6381C5.38794 13.6381 2.8623 11.1125 2.8623 8.0002C2.8623 7.7351 3.07721 7.5202 3.3423 7.5202C3.6074 7.5202 3.8223 7.7351 3.8223 8.0002C3.8223 10.5823 5.91814 12.6781 8.5002 12.6781C11.0823 12.6781 13.1781 10.5823 13.1781 8.0002C13.1781 5.41814 11.0823 3.3223 8.5002 3.3223Z" fill="#3284FF"/>
<path fill-rule="evenodd" clip-rule="evenodd" d="M4.10891 2.62793C4.374 2.62793 4.58891 2.84283 4.58891 3.10793V4.81488H6.29585C6.56095 4.81488 6.77585 5.02978 6.77585 5.29488C6.77585 5.55997 6.56095 5.77488 6.29585 5.77488H4.10891C3.84381 5.77488 3.62891 5.55997 3.62891 5.29488V3.10793C3.62891 2.84283 3.84381 2.62793 4.10891 2.62793Z" fill="#3284FF"/>
</svg>
