<svg width="20" height="20" viewBox="0 0 20 20" fill="none" xmlns="http://www.w3.org/2000/svg">
<path fill-rule="evenodd" clip-rule="evenodd" d="M3.54995 9.40039C3.88132 9.40039 4.14995 9.66902 4.14995 10.0004C4.14995 13.2294 6.77092 15.8504 9.99995 15.8504C12.079 15.8504 13.904 14.7682 14.941 13.1359C15.1187 12.8562 15.4894 12.7735 15.7692 12.9511C16.0489 13.1288 16.1316 13.4996 15.9539 13.7793C14.7057 15.7442 12.5059 17.0504 9.99995 17.0504C6.10818 17.0504 2.94995 13.8922 2.94995 10.0004C2.94995 9.66902 3.21858 9.40039 3.54995 9.40039Z" fill="#3284FF"/>
<path fill-rule="evenodd" clip-rule="evenodd" d="M10 4.1502C7.89421 4.1502 6.04935 5.25898 5.01914 6.9314C4.84535 7.21353 4.47574 7.30136 4.1936 7.12756C3.91146 6.95377 3.82364 6.58416 3.99743 6.30202C5.23763 4.28872 7.46179 2.9502 10 2.9502C13.8918 2.9502 17.05 6.10842 17.05 10.0002C17.05 10.3316 16.7814 10.6002 16.45 10.6002C16.1186 10.6002 15.85 10.3316 15.85 10.0002C15.85 6.77117 13.229 4.1502 10 4.1502Z" fill="#3284FF"/>
<path fill-rule="evenodd" clip-rule="evenodd" d="M4.5082 3.28174C4.83957 3.28174 5.1082 3.55037 5.1082 3.88174V6.01654H7.243C7.57437 6.01654 7.843 6.28517 7.843 6.61654C7.843 6.94791 7.57437 7.21654 7.243 7.21654H4.5082C4.17683 7.21654 3.9082 6.94791 3.9082 6.61654V3.88174C3.9082 3.55037 4.17683 3.28174 4.5082 3.28174Z" fill="#3284FF"/>
<path fill-rule="evenodd" clip-rule="evenodd" d="M12.1125 13.4501C12.1125 13.1187 12.3812 12.8501 12.7125 12.8501H15.4473C15.7787 12.8501 16.0473 13.1187 16.0473 13.4501V16.1775C16.0473 16.5089 15.7787 16.7775 15.4473 16.7775C15.116 16.7775 14.8473 16.5089 14.8473 16.1775V14.0501H12.7125C12.3812 14.0501 12.1125 13.7815 12.1125 13.4501Z" fill="#3284FF"/>
</svg>
