<svg width="22" height="22" viewBox="0 0 22 22" fill="none" xmlns="http://www.w3.org/2000/svg">
<path d="M9.86328 2.75C13.7918 2.75 16.9765 5.93472 16.9766 9.86328C16.9766 11.5799 16.3679 13.1539 15.3555 14.3828L19.1768 18.2051C19.4451 18.4736 19.4452 18.9083 19.1768 19.1768C18.9083 19.4452 18.4736 19.4451 18.2051 19.1768L14.3828 15.3555C13.1539 16.3679 11.5799 16.9766 9.86328 16.9766C5.93472 16.9765 2.75 13.7918 2.75 9.86328C2.75003 5.93474 5.93474 2.75003 9.86328 2.75ZM9.86328 4.125C6.69413 4.12503 4.12503 6.69413 4.125 9.86328C4.125 13.0325 6.69411 15.6015 9.86328 15.6016C13.0325 15.6016 15.6016 13.0325 15.6016 9.86328C15.6015 6.69411 13.0325 4.125 9.86328 4.125Z" fill="#3284FF"/>
</svg>
