<svg width="16" height="16" viewBox="0 0 16 16" fill="none" xmlns="http://www.w3.org/2000/svg">
<path d="M6.01172 8.59766L9.92072 11.0094" stroke="#4C5258" stroke-width="1.00019" stroke-linecap="round" stroke-linejoin="round"/>
<path d="M9.92072 4.98438L6.01172 7.39607" stroke="#4C5258" stroke-width="1.00019" stroke-linecap="round" stroke-linejoin="round"/>
<path d="M4.84988 9.30132C5.56951 9.30132 6.15288 8.71794 6.15288 7.99831C6.15288 7.27869 5.56951 6.69531 4.84988 6.69531C4.13025 6.69531 3.54688 7.27869 3.54688 7.99831C3.54688 8.71794 4.13025 9.30132 4.84988 9.30132Z" stroke="#4C5258" stroke-width="1.00019" stroke-linecap="round" stroke-linejoin="round"/>
<path d="M11.0335 5.6021C11.7531 5.6021 12.3365 5.01872 12.3365 4.2991C12.3365 3.57947 11.7531 2.99609 11.0335 2.99609C10.3138 2.99609 9.73047 3.57947 9.73047 4.2991C9.73047 5.01872 10.3138 5.6021 11.0335 5.6021Z" stroke="#4C5258" stroke-width="1.00019" stroke-linecap="round" stroke-linejoin="round"/>
<path d="M11.0335 12.9966C11.7531 12.9966 12.3365 12.4133 12.3365 11.6936C12.3365 10.974 11.7531 10.3906 11.0335 10.3906C10.3138 10.3906 9.73047 10.974 9.73047 11.6936C9.73047 12.4133 10.3138 12.9966 11.0335 12.9966Z" stroke="#4C5258" stroke-width="1.00019" stroke-linecap="round" stroke-linejoin="round"/>
</svg>
