<svg width="8" height="3" viewBox="0 0 8 3" fill="none" xmlns="http://www.w3.org/2000/svg">
<path d="M0.9375 0.939453C1.15625 0.684245 1.40007 0.49056 1.66895 0.358398C1.93783 0.226237 2.22266 0.160156 2.52344 0.160156C2.7513 0.160156 2.97461 0.194336 3.19336 0.262695C3.41211 0.326497 3.69466 0.424479 4.04102 0.556641C4.35547 0.688802 4.62207 0.789062 4.84082 0.857422C5.06413 0.921224 5.28516 0.953125 5.50391 0.953125C5.80924 0.953125 6.09408 0.880208 6.3584 0.734375C6.62272 0.588542 6.85742 0.374349 7.0625 0.0917969V1.22656C6.61133 1.74609 6.08268 2.00586 5.47656 2.00586C5.2487 2.00586 5.02539 1.97396 4.80664 1.91016C4.58789 1.8418 4.30534 1.74154 3.95898 1.60938C3.64453 1.47721 3.37565 1.37923 3.15234 1.31543C2.93359 1.24707 2.71029 1.21289 2.48242 1.21289C2.18164 1.21289 1.89909 1.28581 1.63477 1.43164C1.375 1.57747 1.14258 1.79167 0.9375 2.07422V0.939453Z" fill="#10141A"/>
</svg>
