<svg width="104" height="41" viewBox="0 0 104 41" fill="none" xmlns="http://www.w3.org/2000/svg">
<path d="M10.5434 4.35171C10.2127 4.1377 9.78726 4.1377 9.45662 4.35171L4.45662 7.58808C4.1719 7.77237 4 8.08841 4 8.42757V16H8.4V12.1091C8.4 11.2291 9.11273 10.5091 10 10.5091C10.8873 10.5091 11.6 11.2218 11.6 12.1091V16H16V8.42757C16 8.08841 15.8281 7.77237 15.5434 7.58808L10.5434 4.35171Z" stroke="#10141A" stroke-linecap="round" stroke-linejoin="round"/>
<path d="M10.5434 25.3517C10.2127 25.1377 9.78726 25.1377 9.45662 25.3517L4.45662 28.5881C4.1719 28.7724 4 29.0884 4 29.4276V37H8.4V33.1091C8.4 32.2291 9.11273 31.5091 10 31.5091C10.8873 31.5091 11.6 32.2218 11.6 33.1091V37H16V29.4276C16 29.0884 15.8281 28.7724 15.5434 28.5881L10.5434 25.3517Z" stroke="#3284FF" stroke-linecap="round" stroke-linejoin="round"/>
<path d="M40.7943 3H35.2686C34.4083 3 33.7109 3.6974 33.7109 4.55769V15.4423C33.7109 16.3026 34.4083 17 35.2686 17H40.7943C41.6546 17 42.352 16.3026 42.352 15.4423V4.55769C42.352 3.6974 41.6546 3 40.7943 3Z" stroke="#10141A" stroke-linecap="round" stroke-linejoin="round"/>
<path d="M37.2227 4.51343H38.8445" stroke="#10141A" stroke-linecap="round" stroke-linejoin="round"/>
<path d="M40.7943 24H35.2686C34.4083 24 33.7109 24.6974 33.7109 25.5577V36.4423C33.7109 37.3026 34.4083 38 35.2686 38H40.7943C41.6546 38 42.352 37.3026 42.352 36.4423V25.5577C42.352 24.6974 41.6546 24 40.7943 24Z" stroke="#3284FF" stroke-linecap="round" stroke-linejoin="round"/>
<path d="M37.2227 25.5134H38.8445" stroke="#3284FF" stroke-linecap="round" stroke-linejoin="round"/>
<path d="M70.9965 4.40405H61.0074C60.1253 4.40405 59.4102 5.11916 59.4102 6.0013V12.3497C59.4102 13.2319 60.1253 13.947 61.0074 13.947H70.9965C71.8787 13.947 72.5938 13.2319 72.5938 12.3497V6.0013C72.5938 5.11916 71.8787 4.40405 70.9965 4.40405Z" stroke="#10141A" stroke-linecap="round" stroke-linejoin="round"/>
<path d="M67.5536 15.8282H64.4453L64.6177 13.947H67.366L67.5536 15.8282Z" stroke="#10141A" stroke-linecap="round" stroke-linejoin="round"/>
<path d="M63.082 15.8287H68.9183" stroke="#10141A" stroke-linecap="round" stroke-linejoin="round"/>
<path d="M70.9965 4.40405H61.0074C60.1253 4.40405 59.4102 5.11916 59.4102 6.0013V12.3497C59.4102 13.2319 60.1253 13.947 61.0074 13.947H70.9965C71.8787 13.947 72.5938 13.2319 72.5938 12.3497V6.0013C72.5938 5.11916 71.8787 4.40405 70.9965 4.40405Z" stroke="#10141A" stroke-linecap="round" stroke-linejoin="round"/>
<path d="M59.4102 11.8754H72.5938" stroke="#10141A" stroke-linecap="round" stroke-linejoin="round"/>
<path d="M70.9965 25.4041H61.0074C60.1253 25.4041 59.4102 26.1192 59.4102 27.0013V33.3497C59.4102 34.2319 60.1253 34.947 61.0074 34.947H70.9965C71.8787 34.947 72.5938 34.2319 72.5938 33.3497V27.0013C72.5938 26.1192 71.8787 25.4041 70.9965 25.4041Z" stroke="#3284FF" stroke-linecap="round" stroke-linejoin="round"/>
<path d="M67.5536 36.8282H64.4453L64.6177 34.947H67.366L67.5536 36.8282Z" stroke="#3284FF" stroke-linecap="round" stroke-linejoin="round"/>
<path d="M63.082 36.8287H68.9183" stroke="#3284FF" stroke-linecap="round" stroke-linejoin="round"/>
<path d="M70.9965 25.4041H61.0074C60.1253 25.4041 59.4102 26.1192 59.4102 27.0013V33.3497C59.4102 34.2319 60.1253 34.947 61.0074 34.947H70.9965C71.8787 34.947 72.5938 34.2319 72.5938 33.3497V27.0013C72.5938 26.1192 71.8787 25.4041 70.9965 25.4041Z" stroke="#3284FF" stroke-linecap="round" stroke-linejoin="round"/>
<path d="M59.4102 32.8754H72.5938" stroke="#3284FF" stroke-linecap="round" stroke-linejoin="round"/>
<path d="M95.4685 13.8342C95.449 13.711 95.4361 13.5879 95.4361 13.4583C95.4361 13.3287 95.449 13.2056 95.4685 13.0824L94.8464 12.6159C94.6844 12.4927 94.639 12.2724 94.7427 12.0974L95.1185 11.4494C95.2158 11.2744 95.4361 11.2031 95.6175 11.2809L96.3304 11.5855C96.3304 11.5855 96.3822 11.5531 96.4081 11.5336C95.9286 11.2355 95.4037 10.9893 94.8334 10.8078C94.4122 10.6717 94.315 10.1468 94.6584 9.8617C95.5333 9.12942 96.0193 7.96944 95.786 6.6928C95.5463 5.40321 94.5224 4.34691 93.2392 4.07474C91.0748 3.62111 89.1761 5.24768 89.1761 7.32788C89.1761 8.3453 89.6362 9.25255 90.362 9.8617C90.7054 10.1468 90.6082 10.6782 90.187 10.8078C88.9946 11.1837 87.9642 11.8512 87.219 12.7001C86.707 13.2769 87.1542 14.1971 87.9253 14.1971H94.9889L95.4685 13.8342Z" stroke="#10141A" stroke-linecap="round" stroke-linejoin="round"/>
<path d="M100.251 13.4573C100.251 13.3277 100.238 13.2046 100.219 13.0815L100.841 12.6149C101.003 12.4917 101.048 12.2714 100.945 12.0964L100.569 11.4484C100.472 11.2734 100.251 11.2021 100.07 11.2799L99.3571 11.5845C99.1627 11.4225 98.9423 11.2994 98.7025 11.2086L98.6118 10.4375C98.5859 10.2366 98.4174 10.0875 98.2165 10.0875H97.4713C97.2704 10.0875 97.1019 10.2366 97.076 10.4375L96.9852 11.2086C96.7455 11.2994 96.5251 11.429 96.3307 11.5845L95.6179 11.2799C95.4364 11.2021 95.2161 11.2734 95.1189 11.4484L94.743 12.0964C94.6458 12.2714 94.6847 12.4917 94.8467 12.6149L95.4688 13.0815C95.4494 13.2046 95.4364 13.3277 95.4364 13.4573C95.4364 13.5869 95.4494 13.71 95.4688 13.8332L94.8467 14.2998C94.6847 14.4229 94.6394 14.6432 94.743 14.8182L95.1189 15.4662C95.2161 15.6412 95.4364 15.7125 95.6179 15.6347L96.3307 15.3301C96.5251 15.4921 96.7455 15.6153 96.9852 15.706L97.076 16.4772C97.1019 16.6781 97.2704 16.8271 97.4713 16.8271H98.2165C98.4174 16.8271 98.5859 16.6781 98.6118 16.4772L98.7025 15.706C98.9423 15.6153 99.1627 15.4857 99.3571 15.3301L100.07 15.6347C100.251 15.7125 100.472 15.6412 100.569 15.4662L100.945 14.8182C101.042 14.6432 101.003 14.4229 100.841 14.2998L100.219 13.8332C100.238 13.71 100.251 13.5869 100.251 13.4573Z" stroke="#10141A" stroke-linecap="round" stroke-linejoin="round"/>
<path d="M97.8468 14.4873C98.4158 14.4873 98.8772 14.026 98.8772 13.4569C98.8772 12.8878 98.4158 12.4265 97.8468 12.4265C97.2777 12.4265 96.8164 12.8878 96.8164 13.4569C96.8164 14.026 97.2777 14.4873 97.8468 14.4873Z" stroke="#10141A" stroke-linecap="round" stroke-linejoin="round"/>
<path d="M95.4685 34.8342C95.449 34.711 95.4361 34.5879 95.4361 34.4583C95.4361 34.3287 95.449 34.2056 95.4685 34.0824L94.8464 33.6159C94.6844 33.4927 94.639 33.2724 94.7427 33.0974L95.1185 32.4494C95.2158 32.2744 95.4361 32.2031 95.6175 32.2809L96.3304 32.5855C96.3304 32.5855 96.3822 32.5531 96.4081 32.5336C95.9286 32.2355 95.4037 31.9893 94.8334 31.8078C94.4122 31.6717 94.315 31.1468 94.6584 30.8617C95.5333 30.1294 96.0193 28.9694 95.786 27.6928C95.5463 26.4032 94.5224 25.3469 93.2392 25.0747C91.0748 24.6211 89.1761 26.2477 89.1761 28.3279C89.1761 29.3453 89.6362 30.2525 90.362 30.8617C90.7054 31.1468 90.6082 31.6782 90.187 31.8078C88.9946 32.1837 87.9642 32.8512 87.219 33.7001C86.707 34.2769 87.1542 35.1971 87.9253 35.1971H94.9889L95.4685 34.8342Z" stroke="#3284FF" stroke-linecap="round" stroke-linejoin="round"/>
<path d="M100.251 34.4573C100.251 34.3277 100.238 34.2046 100.219 34.0815L100.841 33.6149C101.003 33.4917 101.048 33.2714 100.945 33.0964L100.569 32.4484C100.472 32.2734 100.251 32.2021 100.07 32.2799L99.3571 32.5845C99.1627 32.4225 98.9423 32.2994 98.7025 32.2086L98.6118 31.4375C98.5859 31.2366 98.4174 31.0875 98.2165 31.0875H97.4713C97.2704 31.0875 97.1019 31.2366 97.076 31.4375L96.9852 32.2086C96.7455 32.2994 96.5251 32.429 96.3307 32.5845L95.6179 32.2799C95.4364 32.2021 95.2161 32.2734 95.1189 32.4484L94.743 33.0964C94.6458 33.2714 94.6847 33.4917 94.8467 33.6149L95.4688 34.0815C95.4494 34.2046 95.4364 34.3277 95.4364 34.4573C95.4364 34.5869 95.4494 34.71 95.4688 34.8332L94.8467 35.2998C94.6847 35.4229 94.6394 35.6432 94.743 35.8182L95.1189 36.4662C95.2161 36.6412 95.4364 36.7125 95.6179 36.6347L96.3307 36.3301C96.5251 36.4921 96.7455 36.6153 96.9852 36.706L97.076 37.4772C97.1019 37.6781 97.2704 37.8271 97.4713 37.8271H98.2165C98.4174 37.8271 98.5859 37.6781 98.6118 37.4772L98.7025 36.706C98.9423 36.6153 99.1627 36.4857 99.3571 36.3301L100.07 36.6347C100.251 36.7125 100.472 36.6412 100.569 36.4662L100.945 35.8182C101.042 35.6432 101.003 35.4229 100.841 35.2998L100.219 34.8332C100.238 34.71 100.251 34.5869 100.251 34.4573Z" stroke="#3284FF" stroke-linecap="round" stroke-linejoin="round"/>
<path d="M97.8468 35.4873C98.4158 35.4873 98.8772 35.026 98.8772 34.4569C98.8772 33.8878 98.4158 33.4265 97.8468 33.4265C97.2777 33.4265 96.8164 33.8878 96.8164 34.4569C96.8164 35.026 97.2777 35.4873 97.8468 35.4873Z" stroke="#3284FF" stroke-linecap="round" stroke-linejoin="round"/>
</svg>
