<svg width="301" height="39" viewBox="0 0 301 39" fill="none" xmlns="http://www.w3.org/2000/svg">
<path d="M48.1443 6.86637C41.1518 3.93141 32.7651 2.44559 25.1343 2.44559C17.5034 2.44559 9.11305 3.93141 2.12418 6.86637C1.66926 7.09383 1.44914 7.29194 1.44914 7.80923V31.487C1.44914 32.0043 1.66926 32.2024 2.12418 32.4299C9.11672 35.3648 17.5034 36.8543 25.1343 36.8543C32.7651 36.8543 41.1518 35.3648 48.1443 32.4299C48.5992 32.2024 48.8194 32.0043 48.8194 31.487V7.80923C48.8194 7.29194 48.5992 7.09016 48.1443 6.86637ZM41.2435 7.24425C41.4783 6.40045 42.1864 5.96387 42.9678 6.18032C43.1843 6.23902 43.3567 6.33074 43.4998 6.45915L43.5108 6.46648L43.3603 6.88105L43.3383 6.85536C43.2136 6.71228 43.0595 6.6169 42.8798 6.56554C42.6303 6.49584 42.3881 6.52152 42.1754 6.64258C41.9296 6.78199 41.7425 7.0388 41.6507 7.36532C41.559 7.68816 41.5884 8.00368 41.7314 8.25315C41.8488 8.46226 42.0433 8.61268 42.2744 8.67505C42.4358 8.71907 42.689 8.74107 42.8394 8.68971L42.8687 8.67871L42.7734 9.11162H42.7624C42.5973 9.14097 42.4028 9.12262 42.1644 9.05658C41.3572 8.83279 40.9977 8.1174 41.2435 7.23691V7.24425ZM37.8977 5.03202V5.01368L38.2975 5.09439L37.7289 7.9303L37.329 7.85325L37.8977 5.03202ZM33.1944 4.27994V4.2616L33.5979 4.31296C33.5979 4.31296 33.2751 6.75264 33.2714 6.78933C33.3081 6.793 34.339 6.92874 34.339 6.92874L34.2877 7.32129L32.8202 7.12685L33.1981 4.27627L33.1944 4.27994ZM27.2107 5.24114C27.2364 4.75687 27.4052 4.35331 27.6877 4.0965C27.9151 3.89106 28.2123 3.792 28.5461 3.80667C29.2946 3.84703 29.7678 4.47071 29.7238 5.36587C29.6981 5.85381 29.533 6.26104 29.2542 6.51052C29.0267 6.71596 28.7296 6.81502 28.3921 6.79667C28.0545 6.77833 27.7684 6.64992 27.5629 6.42246C27.3135 6.14364 27.1887 5.72541 27.2144 5.23748L27.2107 5.24114ZM22.225 3.82502C22.225 3.82502 22.2617 4.98433 22.2653 5.02101C22.302 5.02101 23.421 4.98066 23.4577 4.98066C23.4577 4.94398 23.4173 3.78466 23.4173 3.78466L23.8062 3.77H23.8245L23.9199 6.66092L23.5127 6.6756C23.5127 6.6756 23.4723 5.4099 23.4723 5.37322C23.4356 5.37322 22.3167 5.41357 22.28 5.41357C22.28 5.45025 22.324 6.71596 22.324 6.71596L21.9168 6.73063L21.8214 3.83603L22.2286 3.82135L22.225 3.82502ZM21.4509 7.82758C22.7496 7.75053 23.997 7.71018 25.1453 7.71018C30.63 7.71018 38.4296 8.59067 43.243 10.2929H21.4509V7.8239V7.82758ZM21.4509 11.6173H44.3692C44.3692 11.6724 44.3766 11.7237 44.3766 11.7714V12.4245H23.9603V18.0082H33.3558V18.819H21.4509V11.6173ZM25.2773 16.6875V15.8767H44.3766V16.6875H25.2773ZM44.3766 18.0082V18.819H34.6765V18.0082H44.3766ZM25.2773 14.5596V13.7489H44.3766V14.5596H25.2773ZM33.3558 20.1397V25.2099H17.0851V24.3991H30.5346V20.9468H17.0851V10.2819H7.07692C10.5475 9.06026 15.5553 8.26414 20.1301 7.91195V20.1361H33.3558V20.1397ZM18.5306 4.07817H18.5489L18.593 4.47071C18.593 4.47071 17.8335 4.55509 17.8005 4.56243C17.8042 4.59911 18.0793 7.04247 18.0793 7.04247L17.6758 7.08649C17.6758 7.08649 17.4006 4.63947 17.397 4.60279C17.3603 4.60279 16.6009 4.6945 16.6009 4.6945L16.5568 4.29828L18.5306 4.07449V4.07817ZM12.4039 4.97699L12.7964 4.90362H12.8074L14.4327 7.53775L13.9998 7.62213C13.9998 7.62213 13.6182 6.98744 13.6072 6.96543C13.5815 6.9691 12.4185 7.19289 12.3929 7.19656C12.3892 7.22224 12.2718 7.95231 12.2718 7.95231L11.8536 8.03302L12.4002 4.98066L12.4039 4.97699ZM6.93017 6.64258C7.1026 6.33441 7.38876 6.11796 7.75196 6.01524C7.96841 5.95287 8.16285 5.94186 8.34996 5.97488H8.36463L8.45268 6.41145L8.42333 6.40045C8.24357 6.34175 8.06013 6.34175 7.88036 6.38944C7.63456 6.45915 7.44012 6.60957 7.31905 6.81868C7.17964 7.06816 7.15396 7.38366 7.24568 7.71018C7.41811 8.32285 7.92806 8.66037 8.46002 8.50995C8.62144 8.46592 8.8489 8.35219 8.95162 8.23112L8.97364 8.20545L9.11672 8.62368L9.10571 8.63102C8.98097 8.73741 8.79754 8.82546 8.56274 8.8915C8.1922 8.99789 7.83634 8.96486 7.53918 8.79243C7.20532 8.60533 6.95952 8.26415 6.83112 7.80923C6.71005 7.38366 6.74674 6.96543 6.93384 6.63525L6.93017 6.64258ZM5.91394 11.7714C5.91394 11.7201 5.91394 11.665 5.92128 11.6027H15.7607V20.9468H5.91027V11.7678L5.91394 11.7714ZM5.91394 22.2712H29.2102V23.082H15.7644V26.5343H34.6765V20.1434H44.3766V26.8938C44.3692 27.1653 44.3362 27.5835 44.1491 27.8256C43.995 28.0311 43.7786 28.1558 43.6392 28.2219C41.2362 29.1244 38.0077 29.8068 34.6765 30.2653V27.3414H5.9543C5.92495 27.18 5.91761 27.0185 5.91394 26.8901V22.2676V22.2712ZM33.3558 28.6621V30.4341C30.4722 30.779 27.5813 30.9514 25.1453 30.9514C19.9871 30.9514 12.8001 30.1699 7.9464 28.6621H33.3558ZM5.74518 32.4152C5.47003 32.3198 5.27926 32.162 5.17286 31.9419C5.04079 31.6704 5.04446 31.3182 5.18754 30.9L5.73051 29.3188L5.73784 29.3005L6.12306 29.4325L5.5911 30.9844C5.47003 31.3329 5.45535 31.5897 5.54707 31.7732C5.60944 31.8979 5.71583 31.986 5.87726 32.041C6.03501 32.096 6.17809 32.0923 6.29916 32.0336C6.48259 31.9456 6.62934 31.7328 6.74674 31.3843L7.2787 29.8324L7.66024 29.9645L7.10994 31.5677C6.84946 32.3308 6.36152 32.6316 5.74151 32.4189L5.74518 32.4152ZM8.96263 33.3691C8.96263 33.3691 8.52972 30.9514 8.50771 30.8377C8.47469 30.9551 7.86569 33.0535 7.86569 33.0535L7.47681 32.9398L8.28025 30.1773L8.28759 30.1589L8.79754 30.3094C8.79754 30.3094 9.21577 32.6647 9.23778 32.7821C9.2708 32.6647 9.8688 30.6175 9.8688 30.6175L10.2577 30.7313L9.45057 33.5121L8.96997 33.3727L8.96263 33.3691ZM10.6429 33.813L10.2503 33.7139L10.9547 30.9257V30.9074L11.351 31.0064L10.6392 33.813H10.6429ZM12.0847 34.1542L11.7472 31.1422V31.1165L12.1874 31.2119C12.1874 31.2119 12.4149 33.7029 12.4259 33.791C12.4699 33.7139 13.7393 31.553 13.7393 31.553L14.1575 31.6448L12.5653 34.2605L12.0884 34.1578L12.0847 34.1542ZM15.9332 32.3565C15.9332 32.3565 14.9133 32.1767 14.8766 32.1731C14.8692 32.2061 14.7445 32.9251 14.7372 32.9582C14.7738 32.9655 15.6984 33.1269 15.6984 33.1269L15.6287 33.5195C15.6287 33.5195 14.7005 33.3544 14.6675 33.3507C14.6601 33.3874 14.517 34.2092 14.5097 34.2422C14.5464 34.2495 15.5663 34.4293 15.5663 34.4293L15.4966 34.8219L14.0401 34.565L14.5391 31.7328V31.7145L15.9955 31.9713L15.9258 32.3638L15.9332 32.3565ZM18.1087 33.0645C18.0647 33.3874 17.8262 33.6149 17.5107 33.6442C17.6024 33.7066 17.6501 33.7836 17.7015 33.9561L18.039 35.1777L17.5841 35.1154L17.3236 34.0698C17.2502 33.791 17.1438 33.7763 16.9494 33.7506C16.9494 33.7506 16.7806 33.7286 16.7476 33.7249C16.7439 33.7616 16.5752 34.9833 16.5752 34.9833L16.1716 34.9283L16.5605 32.0777V32.0593L17.2062 32.1474C17.4997 32.1877 17.8189 32.2574 17.9913 32.4849C18.0757 32.595 18.116 32.7344 18.116 32.9031C18.116 32.9545 18.1124 33.0095 18.105 33.0682L18.1087 33.0645ZM19.4441 33.5818C19.7413 33.7799 20.0788 34.0074 20.0238 34.5504C19.9687 35.1007 19.5909 35.3795 18.9855 35.3208C18.7984 35.3025 18.626 35.2254 18.4646 35.1484L18.4536 35.141L18.5379 34.7265L18.5599 34.7375C18.626 34.7778 18.8608 34.9062 19.0699 34.9283C19.1763 34.9393 19.334 34.9172 19.4478 34.8219C19.5358 34.7522 19.5835 34.6531 19.5982 34.532C19.6275 34.2495 19.4184 34.1138 19.1763 33.9561C18.8975 33.7726 18.582 33.5672 18.6296 33.0756C18.6773 32.595 19.0369 32.3161 19.5468 32.3675C19.7303 32.3858 19.9284 32.4445 20.0898 32.5252L20.1045 32.5326L20.0054 32.9398L19.9834 32.9288C19.8073 32.8298 19.7082 32.7821 19.5211 32.7637C19.4368 32.7564 19.2827 32.7527 19.1726 32.8444C19.1066 32.8995 19.0662 32.9802 19.0589 33.0829C19.0369 33.3067 19.224 33.4351 19.4441 33.5818ZM20.9629 35.4455L20.5594 35.4162L20.7685 32.5473V32.5289L21.1757 32.5583L20.9629 35.4455ZM23.6117 33.0829C23.6117 33.0829 22.8487 33.0499 22.812 33.0462C22.812 33.0829 22.6982 35.5409 22.6982 35.5409L22.2947 35.5226C22.2947 35.5226 22.4047 33.0646 22.4047 33.0279C22.3681 33.0279 21.605 32.9912 21.605 32.9912L21.6233 32.6133V32.595L23.6264 32.683L23.6081 33.0792L23.6117 33.0829ZM26.3413 32.727C26.3413 32.727 25.3397 34.3816 25.3397 34.3779V35.5923H24.9325C24.9325 35.5923 24.9325 34.3926 24.9325 34.3816C24.9251 34.3743 23.9309 32.7234 23.9309 32.7234L23.9126 32.694H24.3858C24.3858 32.694 25.1086 33.9083 25.1379 33.9597C25.1673 33.9083 25.879 32.6977 25.879 32.6977H26.3523L26.3376 32.727H26.3413ZM29.7201 35.152C29.5183 35.3795 29.2322 35.5116 28.8947 35.5336C28.1316 35.5813 27.607 35.0236 27.5519 34.1138C27.5006 33.2186 27.9665 32.5876 28.7186 32.5436C29.467 32.4996 30.01 33.0682 30.0613 33.9634C30.0907 34.4513 29.9696 34.8732 29.7201 35.152ZM31.1656 35.3061L30.762 35.3465L30.4722 32.4666L31.8516 32.3271H31.87L31.9103 32.7197C31.9103 32.7197 30.9528 32.8151 30.9161 32.8224C30.9198 32.8554 30.9932 33.5818 30.9968 33.6149C31.0335 33.6112 31.947 33.5195 31.947 33.5195L31.9874 33.912C31.9874 33.912 31.0739 34.0037 31.0372 34.0074C31.0409 34.0441 31.1693 35.3025 31.1693 35.3025L31.1656 35.3061ZM35.7515 34.6934C35.7515 34.6934 35.2195 34.7778 35.2048 34.7705C35.2048 34.7705 33.9685 33.6625 33.8951 33.5965C33.9098 33.6919 34.1042 34.9466 34.1042 34.9466L33.7043 35.009L33.2604 32.1474L33.6603 32.085C33.6603 32.085 33.8327 33.204 33.8474 33.2957C33.9758 33.0939 34.7132 31.9273 34.7242 31.9163L35.2085 31.8429L35.2489 31.8355C35.2489 31.8355 34.2656 33.3507 34.2473 33.3764C34.2693 33.3984 35.7882 34.6824 35.7882 34.6824H35.7478L35.7515 34.6934ZM37.1456 34.4697C36.3972 34.6201 35.7992 34.1395 35.6194 33.248C35.4433 32.3712 35.8212 31.6815 36.5586 31.5347C37.296 31.388 37.9087 31.8796 38.0848 32.7564C38.2645 33.6479 37.894 34.3192 37.1456 34.4697ZM40.3594 33.6846L39.732 32.8077C39.5632 32.5766 39.4569 32.6023 39.2661 32.65C39.2661 32.65 39.101 32.6903 39.068 32.6977C39.079 32.7344 39.3761 33.9304 39.3761 33.9304L38.9799 34.0294L38.2829 31.2192L38.9139 31.0614C39.2 30.9917 39.5266 30.9367 39.7687 31.0835C39.9264 31.1788 40.0292 31.3403 40.0915 31.5824C40.1062 31.6411 40.1136 31.7035 40.1136 31.7585C40.1136 32.0043 39.9778 32.2244 39.754 32.3418C39.8604 32.3675 39.9338 32.4189 40.0438 32.5583L40.8069 33.5672L40.3594 33.6772V33.6846ZM41.3646 33.4167L40.5575 30.6359L41.9589 30.2286H41.9773L42.0873 30.6065C42.0873 30.6065 41.0931 30.8964 41.0564 30.9074C41.0674 30.9404 41.2692 31.6411 41.2802 31.6741C41.3132 31.6631 42.2194 31.4026 42.2194 31.4026L42.3294 31.7842C42.3294 31.7842 41.4269 32.0446 41.3903 32.0557C41.4013 32.0887 41.6324 32.8921 41.6434 32.9251C41.6764 32.9141 42.6743 32.628 42.6743 32.628L42.7844 33.0095L41.3646 33.4204V33.4167ZM45.2204 32.2024C45.2204 32.2024 44.7581 31.6228 44.7435 31.6044C44.7214 31.6117 43.5988 31.9896 43.5731 31.997C43.5731 32.0226 43.5548 32.7637 43.5548 32.7637L43.1512 32.8995L43.2833 29.7994L43.6612 29.671H43.6722L45.6386 32.0593L45.2204 32.1987V32.2024ZM28.4104 6.40045C28.6195 6.41145 28.803 6.34909 28.946 6.22068C29.1478 6.03725 29.2725 5.71807 29.2909 5.34753C29.3092 4.97699 29.2138 4.64681 29.0267 4.44136C28.8947 4.29462 28.7222 4.21757 28.5205 4.20656C28.3187 4.19556 28.1389 4.25426 27.9922 4.38634C27.7831 4.57344 27.6546 4.88894 27.6363 5.26315C27.6106 5.76943 27.7977 6.3711 28.4067 6.40412L28.4104 6.40045ZM43.5805 31.6044C43.6282 31.5897 44.4536 31.3109 44.5013 31.2926C44.472 31.2559 43.6722 30.2507 43.6135 30.1736C43.6135 30.269 43.5841 31.5531 43.5841 31.6044H43.5805ZM49.986 6.38211C49.7586 6.03725 49.4394 5.84281 49.2596 5.75109C42.1717 2.69873 33.3521 1.00012 25.1416 1.00012C16.931 1.00012 8.11149 2.69873 1.02357 5.75109C0.843801 5.84281 0.520955 6.04092 0.297165 6.38211C0.0513618 6.75265 0.0073374 7.391 0 7.80189V31.4943C0.0073374 31.9052 0.0513618 32.5399 0.297165 32.9141C0.502612 33.226 0.785102 33.4168 0.972205 33.5195C8.07481 36.5902 16.9127 38.2961 25.1453 38.2961C33.3778 38.2961 42.212 36.5902 49.3146 33.5195C49.4981 33.4168 49.7842 33.226 49.9897 32.9141C50.2355 32.5399 50.2795 31.9052 50.2868 31.4943V7.80189C50.2795 7.391 50.2355 6.75265 49.9897 6.38211H49.986ZM49.322 31.5054C49.322 32.008 49.2633 32.14 49.1899 32.3161C49.0799 32.573 48.7753 32.7344 48.7753 32.7344C41.7608 35.8271 32.9999 37.3643 25.1379 37.3643C17.2759 37.3643 8.51505 35.8234 1.5005 32.7344C1.5005 32.7344 1.196 32.573 1.08593 32.3161C1.01256 32.14 0.953862 32.008 0.953862 31.5054V7.81657C0.953862 7.31396 1.01256 7.18188 1.08593 7.00578C1.196 6.74897 1.5005 6.59122 1.5005 6.59122C8.51505 3.4985 17.2759 1.95766 25.1379 1.95766C32.9999 1.95766 41.7571 3.4985 48.7753 6.59122C48.7753 6.59122 49.0799 6.74897 49.1899 7.00578C49.267 7.18188 49.322 7.31396 49.322 7.81657V31.5054ZM29.2725 33.1159C29.1258 32.9838 28.946 32.9288 28.7406 32.9398C28.5388 32.9508 28.3664 33.0315 28.238 33.1783C28.0545 33.3874 27.9592 33.7176 27.9812 34.0881C28.0032 34.4623 28.1316 34.7778 28.337 34.9576C28.4838 35.086 28.6635 35.1447 28.8763 35.1337C29.0854 35.119 29.2579 35.042 29.3899 34.8952C29.5697 34.6935 29.6614 34.3633 29.6394 33.9891C29.6174 33.6185 29.4853 33.2994 29.2762 33.1159H29.2725ZM17.2429 32.5473C17.2429 32.5473 16.9457 32.5069 16.9127 32.5032C16.909 32.5399 16.8063 33.292 16.799 33.3287C16.832 33.3287 17.0925 33.3691 17.0925 33.3691C17.2759 33.3947 17.43 33.3654 17.5364 33.2847C17.6171 33.2223 17.6685 33.1343 17.6831 33.0169C17.6831 32.9949 17.6868 32.9728 17.6868 32.9508C17.6868 32.7344 17.529 32.5876 17.2429 32.5509V32.5473ZM37.1859 32.0263C37.0208 31.9199 36.8374 31.8832 36.6356 31.9273C36.4338 31.9639 36.2798 32.0667 36.1697 32.2318C36.0156 32.4629 35.9679 32.8041 36.0413 33.1673C36.1404 33.6625 36.4705 34.2019 37.0722 34.0808C37.2776 34.0368 37.4391 33.934 37.5455 33.7726C37.6959 33.5452 37.7399 33.2076 37.6665 32.8408C37.5932 32.4776 37.4207 32.1804 37.1859 32.0263ZM39.0973 31.4246C39.0973 31.4246 38.8038 31.498 38.7708 31.5054C38.7781 31.5384 38.9616 32.2795 38.9726 32.3125C39.0203 32.3015 39.2587 32.2428 39.2587 32.2428C39.5376 32.1731 39.6917 32.0153 39.6917 31.8099C39.6917 31.7732 39.688 31.7365 39.677 31.6998C39.6146 31.4503 39.4018 31.3513 39.0973 31.4283V31.4246ZM12.6827 5.39155C12.668 5.48694 12.4662 6.75264 12.4589 6.80033C12.5066 6.78933 13.3651 6.62791 13.4128 6.6169C13.3871 6.57287 12.7304 5.47226 12.6827 5.38788V5.39155Z" fill="#3284FF"/>
<path d="M123.205 8.93909C128.798 8.9391 132.565 12.3161 133.394 16.6354L133.429 16.818H128.583L128.555 16.7008C128.107 14.8648 126.139 13.3659 123.304 13.3658C119.74 13.3658 117.096 15.984 117.096 19.6481C117.096 23.2878 119.74 25.9303 123.304 25.9303C124.713 25.9303 125.995 25.4662 126.966 24.7809C127.94 24.0934 128.587 23.1934 128.75 22.3317L128.773 22.2067H133.618L133.592 22.3834C132.963 26.5098 128.847 30.357 123.205 30.3571C116.933 30.3571 112.299 25.8271 112.299 19.6481C112.299 13.469 116.933 8.93909 123.205 8.93909Z" fill="#3284FF" stroke="#3284FF" stroke-width="0.308255"/>
<path d="M92.4473 9.45789L92.4922 9.53113L99.29 20.5624L106.089 9.53113L106.134 9.45789H109.95V29.8641H105.153V19.2401L100.778 26.4852L100.733 26.5604H97.8477L97.8018 26.4852L93.4277 19.2401V29.8641H88.6309V9.45789H92.4473Z" fill="#3284FF" stroke="#3284FF" stroke-width="0.308255"/>
<path d="M75.959 8.93903C81.5515 8.93904 85.3188 12.316 86.1475 16.6353L86.1826 16.8179H81.3369L81.3086 16.7007C80.8614 14.8647 78.8927 13.3658 76.0576 13.3658C72.4938 13.3658 69.8496 15.984 69.8496 19.648C69.8496 23.2878 72.4942 25.9302 76.0576 25.9302C77.4666 25.9302 78.7487 25.4662 79.7197 24.7808C80.6936 24.0934 81.3409 23.1933 81.5039 22.3316L81.5273 22.2066H86.3721L86.3457 22.3834C85.7167 26.5098 81.6013 30.357 75.959 30.357C69.687 30.357 65.0528 25.827 65.0527 19.648C65.0527 13.469 69.687 8.93903 75.959 8.93903Z" fill="#3284FF" stroke="#3284FF" stroke-width="0.308255"/>
<path d="M291.175 9.27063C293.59 9.27063 295.678 9.8522 297.184 10.8087C298.688 11.7651 299.625 13.1092 299.682 14.6271L299.689 14.8429H297.793L297.783 14.6447C297.735 13.668 297.036 12.7676 295.833 12.1017C294.634 11.438 292.967 11.0285 291.069 11.0284C289.226 11.0284 287.639 11.4377 286.521 12.0988C285.403 12.7606 284.778 13.6567 284.778 14.6349C284.778 15.1638 284.851 15.64 285.043 16.0695C285.234 16.4969 285.548 16.8904 286.051 17.2462C287.065 17.9648 288.84 18.5257 291.87 18.8781C294.92 19.2327 297.001 19.9003 298.324 20.8536C299.662 21.8175 300.212 23.0651 300.212 24.5226C300.212 26.4091 299.208 27.9003 297.603 28.9103C296.002 29.9168 293.797 30.4523 291.352 30.4523C285.856 30.4523 282.827 27.8363 282.493 24.8282L282.467 24.5978H284.403L284.424 24.7823C284.619 26.5036 286.566 28.6943 291.457 28.6945C293.443 28.6945 295.169 28.2586 296.392 27.5236C297.612 26.7894 298.312 25.7708 298.312 24.5939C298.312 24.054 298.216 23.5889 297.992 23.1818C297.769 22.7753 297.411 22.4102 296.864 22.0831C295.899 21.5055 294.367 21.0573 292.026 20.7062L290.973 20.5616C287.976 20.1893 285.954 19.5128 284.679 18.5392C283.389 17.5542 282.88 16.2788 282.88 14.7755C282.88 13.0849 283.776 11.7001 285.258 10.7472C286.735 9.79735 288.799 9.27065 291.175 9.27063Z" fill="#3284FF" stroke="#3284FF" stroke-width="0.415476"/>
<path d="M261.641 9.76379V21.4142C261.641 23.7985 262.267 25.6056 263.361 26.8146C264.453 28.0209 266.035 28.6583 268.001 28.6583C270.117 28.6583 272.015 27.5825 273.389 25.9884C274.763 24.3936 275.598 22.2955 275.598 20.2843V9.76379H277.497V29.9562H275.598V25.9181C275.183 26.6995 274.498 27.5855 273.559 28.3634C272.162 29.5201 270.192 30.4502 267.684 30.4503C265.369 30.4503 263.378 29.5814 261.968 28.0392C260.559 26.4982 259.741 24.2998 259.741 21.6613V9.76379H261.641Z" fill="#3284FF" stroke="#3284FF" stroke-width="0.415476"/>
<path d="M254.234 0.791626V29.9537H252.335V0.791626H254.234Z" fill="#3284FF" stroke="#3284FF" stroke-width="0.415476"/>
<path d="M237.498 9.27063C243.174 9.27063 247.312 13.9016 247.312 19.8615C247.311 25.8212 243.174 30.4523 237.498 30.4523C233.304 30.4522 230.393 28.1028 229.195 25.9689V38.504H227.296V9.76575H229.195V13.7521C230.394 11.6185 233.305 9.27068 237.498 9.27063ZM237.393 11.0636C232.578 11.0636 229.159 14.8749 229.159 19.8615C229.159 24.848 232.578 28.6593 237.393 28.6593C242.2 28.6591 245.413 24.8553 245.413 19.8615C245.413 14.8676 242.2 11.0638 237.393 11.0636Z" fill="#3284FF" stroke="#3284FF" stroke-width="0.415476"/>
<path d="M212.566 9.27063C218.242 9.27063 222.38 13.8659 222.38 19.8615C222.38 20.0645 222.381 20.3718 222.341 20.5734L222.308 20.7404H204.704C205.066 25.3076 208.176 28.6591 212.566 28.6593C216.034 28.6593 218.626 26.9272 219.471 24.6964L219.521 24.5626H221.582L221.485 24.839C220.357 28.0786 216.948 30.4523 212.566 30.4523C206.891 30.4521 202.753 25.8569 202.753 19.8615C202.753 13.866 206.891 9.27081 212.566 9.27063ZM212.566 11.0636C208.175 11.0638 205.065 14.3823 204.704 18.9474H220.429C220.067 14.3822 216.958 11.0636 212.566 11.0636Z" fill="#3284FF" stroke="#3284FF" stroke-width="0.415476"/>
<path d="M201.593 11.5929L201.305 11.4708C200.67 11.2037 199.784 11.0636 198.596 11.0636C193.923 11.0636 190.398 15.4041 190.398 19.4376V29.9572H188.499V9.76575H190.398V13.8976C191.5 11.8991 194.304 9.27063 198.666 9.27063C199.987 9.27063 200.824 9.41359 201.454 9.63586L201.593 9.68469V11.5929Z" fill="#3284FF" stroke="#3284FF" stroke-width="0.415476"/>
<path d="M172.215 9.27063C176.409 9.27063 179.32 11.62 180.519 13.754V9.76575H182.417V29.9572H180.519V25.9669C179.321 28.1014 176.41 30.4523 172.215 30.4523C166.539 30.4521 162.401 25.8211 162.401 19.8615C162.401 13.9018 166.539 9.27081 172.215 9.27063ZM172.321 11.0636C167.514 11.0636 164.301 14.8675 164.301 19.8615C164.301 24.8554 167.514 28.6593 172.321 28.6593C177.135 28.6592 180.554 24.8479 180.554 19.8615C180.554 14.8749 177.135 11.0637 172.321 11.0636Z" fill="#3284FF" stroke="#3284FF" stroke-width="0.415476"/>
<path d="M149.388 9.27063C153.758 9.27063 157.297 12.0907 158.487 16.2013L158.563 16.4669H156.618L156.571 16.3243C155.538 13.1903 152.859 11.0636 149.388 11.0636C144.612 11.0637 141.297 14.8359 141.297 19.8615C141.297 24.887 144.612 28.6592 149.388 28.6593C152.895 28.6593 155.642 26.4621 156.605 23.3322L156.65 23.1857H158.594L158.523 23.4474C157.405 27.5952 153.865 30.4521 149.494 30.4523C143.683 30.4523 139.397 25.8632 139.397 19.8615C139.397 13.8618 143.646 9.27072 149.388 9.27063Z" fill="#3284FF" stroke="#3284FF" stroke-width="0.415476"/>
</svg>
