<svg width="52" height="52" viewBox="0 0 52 52" fill="none" xmlns="http://www.w3.org/2000/svg">
<path d="M8 14.8654V41.1093C8 43.5612 9.98734 45.5485 12.4392 45.5485H35.5608C38.0127 45.5485 40 43.5612 40 41.1093V9.43927C40 6.98738 38.0127 5 35.5608 5H17.8653L8 14.8654Z" fill="#E2E6EC"/>
<path d="M8.00192 14.8654H14.6173C16.4124 14.8654 17.8672 13.4106 17.8672 11.6155V5L8.00192 14.8654Z" fill="#D2D6DC"/>
<path d="M13.6279 18.2852H34.3614" stroke="#4C5258" stroke-width="1.88487"/>
<path d="M13.6279 22.9975H34.3614" stroke="#4C5258" stroke-width="1.88487"/>
<path d="M13.6279 27.7095H26.8219" stroke="#4C5258" stroke-width="1.88487"/>
<rect x="29" y="29" width="20" height="20" rx="10" fill="#C4C8CE"/>
<path d="M35.5 42.5002L42.5 35.5003" stroke="#82868C" stroke-width="1.75" stroke-linecap="square" stroke-linejoin="round"/>
<path d="M35.5 35.5L42.5 42.4999" stroke="#82868C" stroke-width="1.75" stroke-linecap="square" stroke-linejoin="round"/>
</svg>
