<svg width="24" height="24" viewBox="0 0 24 24" fill="none" xmlns="http://www.w3.org/2000/svg">
<path d="M19.2687 19.3993H4.72869C4.20869 19.3993 3.74869 19.1093 3.52869 18.6393C3.30869 18.1693 3.36869 17.6293 3.69869 17.2293L5.07869 15.5393C5.21869 15.3693 5.28869 15.1593 5.29869 14.9493L5.47869 9.9293C5.53869 8.0993 6.38869 6.3593 7.78869 5.1793C9.20869 3.9793 11.0187 3.4493 12.8787 3.6893C15.9887 4.0993 18.4187 6.8593 18.5387 10.1293L18.7087 14.9493C18.7087 15.1593 18.7987 15.3793 18.9287 15.5393L20.3087 17.2293C20.6387 17.6293 20.6987 18.1693 20.4787 18.6393C20.2587 19.1093 19.7987 19.3993 19.2787 19.3993H19.2687ZM11.9887 4.8393C10.7287 4.8393 9.52869 5.2793 8.54869 6.0993C7.40869 7.0693 6.71869 8.4793 6.66869 9.9793L6.48869 14.9993C6.46869 15.4693 6.29869 15.9393 5.99869 16.3093L4.61869 17.9993C4.61869 17.9993 4.57869 18.0893 4.59869 18.1293C4.61869 18.1793 4.65869 18.1993 4.70869 18.1993H19.2487C19.2987 18.1993 19.3387 18.1793 19.3587 18.1293C19.3787 18.0793 19.3787 18.0393 19.3387 17.9993L17.9587 16.3093C17.6587 15.9393 17.4787 15.4793 17.4687 14.9993L17.2987 10.1793C17.2087 7.4993 15.2187 5.2193 12.6887 4.8893C12.4487 4.8593 12.1987 4.8393 11.9587 4.8393H11.9887Z" fill="#10141A"/>
<path d="M11.9972 22.1675C10.1672 22.1675 8.61719 20.6175 8.61719 18.7875C8.61719 18.4575 8.88719 18.1875 9.21719 18.1875C9.54719 18.1875 9.81719 18.4575 9.81719 18.7875C9.81719 19.9675 10.8172 20.9675 11.9972 20.9675C13.1772 20.9675 14.1672 19.9675 14.1672 18.7875C14.1672 18.4575 14.4372 18.1875 14.7672 18.1875C15.0972 18.1875 15.3672 18.4575 15.3672 18.7875C15.3672 20.6175 13.8172 22.1675 11.9872 22.1675H11.9972Z" fill="#10141A"/>
<path d="M11.9984 4.84C11.6684 4.84 11.3984 4.57 11.3984 4.24V2.1C11.3984 1.77 11.6684 1.5 11.9984 1.5C12.3284 1.5 12.5984 1.77 12.5984 2.1V4.24C12.5984 4.57 12.3284 4.84 11.9984 4.84Z" fill="#10141A"/>
</svg>
