<svg width="16" height="16" viewBox="0 0 16 16" fill="none" xmlns="http://www.w3.org/2000/svg">
<path d="M5.31986 5.20514H7.5061C7.72367 5.20514 7.90409 5.02473 7.90409 4.80716C7.90409 4.5896 7.72367 4.40918 7.5061 4.40918H5.31986C5.10229 4.40918 4.92188 4.5896 4.92188 4.80716C4.92188 5.02473 5.10229 5.20514 5.31986 5.20514Z" fill="#3284FF"/>
<path d="M10.1434 6.60013C10.1434 6.38257 9.96298 6.20215 9.74542 6.20215H5.31986C5.10229 6.20215 4.92188 6.38257 4.92188 6.60013C4.92188 6.81769 5.10229 6.99811 5.31986 6.99811H9.75072C9.96829 6.99811 10.1487 6.81769 10.1487 6.60013H10.1434Z" fill="#3284FF"/>
<path d="M4.92188 8.39408C4.92188 8.61164 5.10229 8.79206 5.31986 8.79206H6.9277C7.13465 8.4949 7.38406 8.22427 7.6653 7.99609H5.31986C5.10229 7.99609 4.92188 8.17651 4.92188 8.39408Z" fill="#3284FF"/>
<path d="M14.2039 14.5389L12.4793 12.8143C12.8773 12.2943 13.1214 11.6469 13.1214 10.9464C13.1214 9.25369 11.7417 7.87402 10.049 7.87402C8.35623 7.87402 6.97656 9.25369 6.97656 10.9464C6.97656 12.6392 8.35623 14.0189 10.049 14.0189C10.7547 14.0189 11.4021 13.7801 11.9168 13.3768L13.6414 15.1014C13.721 15.181 13.8219 15.2181 13.9227 15.2181C14.0235 15.2181 14.1243 15.181 14.2039 15.1014C14.3578 14.9475 14.3578 14.6928 14.2039 14.5389ZM7.76722 10.9411C7.76722 9.68351 8.79136 8.66468 10.0437 8.66468C11.296 8.66468 12.3201 9.68882 12.3201 10.9411C12.3201 12.1935 11.296 13.2176 10.0437 13.2176C8.79136 13.2176 7.76722 12.1935 7.76722 10.9411Z" fill="#3284FF"/>
<path d="M3.91315 12.4383V2.64264H8.97548V4.80767C8.97548 5.02523 9.1559 5.20565 9.37346 5.20565H11.5385V7.46619C11.825 7.58823 12.0904 7.74743 12.3345 7.93315V4.80767C12.3345 4.80767 12.3345 4.79175 12.3345 4.78113C12.3345 4.74399 12.3238 4.71215 12.3132 4.68031C12.3132 4.6697 12.3079 4.65378 12.2973 4.64317C12.2761 4.60071 12.2549 4.55826 12.2177 4.52643L9.65471 1.96342C9.62287 1.93158 9.58042 1.90505 9.53796 1.88382C9.52735 1.87852 9.51143 1.87321 9.50082 1.86791C9.46898 1.85729 9.43184 1.85199 9.4 1.84668C9.38938 1.84668 9.38408 1.84668 9.37346 1.84668H3.51517C3.29761 1.84668 3.11719 2.0271 3.11719 2.24466V12.8363C3.11719 13.0539 3.29761 13.2343 3.51517 13.2343H7.03333C6.84761 12.9902 6.68841 12.7249 6.56637 12.4383H3.91315ZM10.976 4.40968H9.77145V3.20512L10.976 4.40968Z" fill="#3284FF"/>
</svg>
