<svg width="32" height="32" viewBox="0 0 32 32" fill="none" xmlns="http://www.w3.org/2000/svg">
<path d="M2.96981 14.7642L3.86219 13.5481C4.11591 13.1982 4.21215 12.7695 4.13341 12.3408L3.85345 10.8535C3.73096 10.1885 4.05467 9.51488 4.6496 9.19992L5.98818 8.49126C6.36438 8.29004 6.64435 7.94008 6.75808 7.52888L7.15178 6.06781C7.32676 5.41165 7.91294 4.94795 8.5866 4.92171L10.1002 4.86047C10.5289 4.84297 10.9313 4.65049 11.2113 4.32678L12.1999 3.18067C12.6461 2.66449 13.3635 2.49826 13.9934 2.76948L15.3845 3.37315C15.7782 3.54813 16.2244 3.54813 16.6181 3.37315L18.0092 2.76948C18.6303 2.49826 19.3565 2.66449 19.8027 3.18067L20.7913 4.32678C21.0713 4.65049 21.4737 4.84297 21.9024 4.86047L23.416 4.92171C24.0897 4.94795 24.6758 5.41165 24.8508 6.06781L25.2445 7.52888C25.3583 7.94008 25.6382 8.29004 26.0144 8.49126L27.353 9.19992C27.9479 9.51488 28.2716 10.1885 28.1492 10.8535L27.8692 12.3408C27.7905 12.7607 27.8867 13.1982 28.1404 13.5481L29.0328 14.7642C29.4352 15.3067 29.4352 16.0503 29.0328 16.6015L28.1404 17.8176C27.8867 18.1676 27.7905 18.5963 27.8692 19.0249L28.1492 20.5123C28.2716 21.1772 27.9479 21.8508 27.353 22.1658L26.0144 22.8745C25.6382 23.0757 25.3583 23.4256 25.2445 23.8368L24.8508 25.2979C24.6758 25.9541 24.0897 26.4178 23.416 26.444L21.9024 26.5053C21.4737 26.5228 21.0713 26.7152 20.7913 27.0389L19.8027 28.1851C19.3565 28.7012 18.6391 28.8675 18.0092 28.5963L16.6181 27.9926C16.2244 27.8176 15.7782 27.8176 15.3845 27.9926L13.9934 28.5963C13.3723 28.8675 12.6461 28.7012 12.1999 28.1851L11.2113 27.0389C10.9313 26.7152 10.5289 26.5228 10.1002 26.5053L8.5866 26.444C7.91294 26.4178 7.32676 25.9541 7.15178 25.2979L6.75808 23.8368C6.64435 23.4256 6.36438 23.0757 5.98818 22.8745L4.6496 22.1658C4.05467 21.8508 3.73096 21.1772 3.85345 20.5123L4.13341 19.0249C4.21215 18.605 4.11591 18.1676 3.86219 17.8176L2.96981 16.6015C2.56736 16.0591 2.56736 15.3154 2.96981 14.7642Z" fill="#EA7070"/>
<path d="M12.1831 12.2725C13.1084 12.2725 13.8585 11.5224 13.8585 10.5972C13.8585 9.67194 13.1084 8.92188 12.1831 8.92188C11.2579 8.92188 10.5078 9.67194 10.5078 10.5972C10.5078 11.5224 11.2579 12.2725 12.1831 12.2725Z" fill="#D74343"/>
<path d="M21.5069 16.7443C22.7922 16.7443 23.8341 15.7023 23.8341 14.4171C23.8341 13.1318 22.7922 12.0898 21.5069 12.0898C20.2216 12.0898 19.1797 13.1318 19.1797 14.4171C19.1797 15.7023 20.2216 16.7443 21.5069 16.7443Z" fill="#F09797"/>
<path d="M13.5462 23.6783C15.2178 23.6783 16.5729 22.3232 16.5729 20.6517C16.5729 18.9801 15.2178 17.625 13.5462 17.625C11.8746 17.625 10.5195 18.9801 10.5195 20.6517C10.5195 22.3232 11.8746 23.6783 13.5462 23.6783Z" fill="#DC5050"/>
</svg>
