<svg width="32" height="32" viewBox="0 0 32 32" fill="none" xmlns="http://www.w3.org/2000/svg">
<path d="M2.96981 14.7681L3.86219 13.552C4.11591 13.2021 4.21215 12.7734 4.13341 12.3447L3.85345 10.8574C3.73096 10.1925 4.05467 9.51879 4.6496 9.20383L5.98818 8.49517C6.36438 8.29394 6.64435 7.94399 6.75808 7.53279L7.15178 6.07172C7.32676 5.41555 7.91294 4.95186 8.5866 4.92561L10.1002 4.86437C10.5289 4.84687 10.9313 4.6544 11.2113 4.33069L12.1999 3.18458C12.6461 2.6684 13.3635 2.50217 13.9934 2.77338L15.3845 3.37706C15.7782 3.55204 16.2244 3.55204 16.6181 3.37706L18.0092 2.77338C18.6303 2.50217 19.3565 2.6684 19.8027 3.18458L20.7913 4.33069C21.0713 4.6544 21.4737 4.84687 21.9024 4.86437L23.416 4.92561C24.0897 4.95186 24.6758 5.41555 24.8508 6.07172L25.2445 7.53279C25.3583 7.94399 25.6382 8.29394 26.0144 8.49517L27.353 9.20383C27.9479 9.51879 28.2716 10.1925 28.1492 10.8574L27.8692 12.3447C27.7905 12.7646 27.8867 13.2021 28.1404 13.552L29.0328 14.7681C29.4352 15.3106 29.4352 16.0542 29.0328 16.6054L28.1404 17.8215C27.8867 18.1715 27.7905 18.6002 27.8692 19.0289L28.1492 20.5162C28.2716 21.1811 27.9479 21.8548 27.353 22.1697L26.0144 22.8784C25.6382 23.0796 25.3583 23.4296 25.2445 23.8408L24.8508 25.3018C24.6758 25.958 24.0897 26.4217 23.416 26.4479L21.9024 26.5092C21.4737 26.5267 21.0713 26.7191 20.7913 27.0429L19.8027 28.189C19.3565 28.7051 18.6391 28.8714 18.0092 28.6002L16.6181 27.9965C16.2244 27.8215 15.7782 27.8215 15.3845 27.9965L13.9934 28.6002C13.3723 28.8714 12.6461 28.7051 12.1999 28.189L11.2113 27.0429C10.9313 26.7191 10.5289 26.5267 10.1002 26.5092L8.5866 26.4479C7.91294 26.4217 7.32676 25.958 7.15178 25.3018L6.75808 23.8408C6.64435 23.4296 6.36438 23.0796 5.98818 22.8784L4.6496 22.1697C4.05467 21.8548 3.73096 21.1811 3.85345 20.5162L4.13341 19.0289C4.21215 18.6089 4.11591 18.1715 3.86219 17.8215L2.96981 16.6054C2.56736 16.063 2.56736 15.3193 2.96981 14.7681Z" fill="#C4C8CE"/>
<path d="M12.1831 12.2764C13.1084 12.2764 13.8585 11.5264 13.8585 10.6011C13.8585 9.67585 13.1084 8.92578 12.1831 8.92578C11.2579 8.92578 10.5078 9.67585 10.5078 10.6011C10.5078 11.5264 11.2579 12.2764 12.1831 12.2764Z" fill="#B4B8BE"/>
<path d="M21.5069 16.7482C22.7922 16.7482 23.8341 15.7062 23.8341 14.421C23.8341 13.1357 22.7922 12.0938 21.5069 12.0938C20.2216 12.0938 19.1797 13.1357 19.1797 14.421C19.1797 15.7062 20.2216 16.7482 21.5069 16.7482Z" fill="#D2D6DC"/>
<path d="M13.5462 23.6822C15.2178 23.6822 16.5729 22.3272 16.5729 20.6556C16.5729 18.984 15.2178 17.6289 13.5462 17.6289C11.8746 17.6289 10.5195 18.984 10.5195 20.6556C10.5195 22.3272 11.8746 23.6822 13.5462 23.6822Z" fill="#B4B8BE"/>
</svg>
