<svg width="20" height="20" viewBox="0 0 20 20" fill="none" xmlns="http://www.w3.org/2000/svg">
<path fill-rule="evenodd" clip-rule="evenodd" d="M6.56055 2.70898C6.83669 2.70898 7.06055 2.93287 7.06055 3.20904V5.00925C7.06055 5.28543 6.83669 5.50931 6.56055 5.50931C6.2844 5.50931 6.06055 5.28543 6.06055 5.00925V3.20904C6.06055 2.93287 6.2844 2.70898 6.56055 2.70898Z" fill="#2E3238"/>
<path fill-rule="evenodd" clip-rule="evenodd" d="M13.4395 2.71289C13.7156 2.71289 13.9395 2.93677 13.9395 3.21295V5.01316C13.9395 5.28934 13.7156 5.51322 13.4395 5.51322C13.1633 5.51322 12.9395 5.28934 12.9395 5.01316V3.21295C12.9395 2.93677 13.1633 2.71289 13.4395 2.71289Z" fill="#2E3238"/>
<path d="M15.2057 3.87109H4.79425C3.80331 3.87109 3 4.73937 3 5.81045V13.9331C3 15.0042 3.80331 15.8725 4.79425 15.8725H15.2057C16.1967 15.8725 17 15.0042 17 13.9331V5.81045C17 4.73937 16.1967 3.87109 15.2057 3.87109Z" fill="#ADCEFF"/>
<path d="M4.79425 3.87109H15.2057C16.1954 3.87109 17 4.74076 17 5.81045V6.87145H3V5.81045C3 4.74076 3.8046 3.87109 4.79425 3.87109Z" fill="#3284FF"/>
<path fill-rule="evenodd" clip-rule="evenodd" d="M6.5625 2.70898C6.83864 2.70898 7.0625 2.93287 7.0625 3.20904V5.00925C7.0625 5.28543 6.83864 5.50931 6.5625 5.50931C6.28636 5.50931 6.0625 5.28543 6.0625 5.00925V3.20904C6.0625 2.93287 6.28636 2.70898 6.5625 2.70898Z" fill="#2E3238"/>
<path fill-rule="evenodd" clip-rule="evenodd" d="M13.4395 2.70898C13.7156 2.70898 13.9395 2.93287 13.9395 3.20904V5.00925C13.9395 5.28543 13.7156 5.50931 13.4395 5.50931C13.1633 5.50931 12.9395 5.28543 12.9395 5.00925V3.20904C12.9395 2.93287 13.1633 2.70898 13.4395 2.70898Z" fill="#2E3238"/>
<g opacity="0.6">
<rect x="5.17383" y="8.41406" width="2.24379" height="2.24402" rx="0.560977" fill="#3284FF"/>
<rect x="8.88086" y="8.41406" width="2.24379" height="2.24402" rx="0.560977" fill="#3284FF"/>
<rect x="12.5879" y="8.41406" width="2.24379" height="2.24402" rx="0.560977" fill="#3284FF"/>
<rect x="5.17383" y="11.7578" width="2.24379" height="2.24402" rx="0.560977" fill="#3284FF"/>
<rect x="8.88086" y="11.7578" width="2.24379" height="2.24402" rx="0.560977" fill="#3284FF"/>
<rect x="12.5859" y="11.7598" width="2.24379" height="2.24402" rx="0.560977" fill="#3284FF"/>
</g>
</svg>
