<svg width="32" height="32" viewBox="0 0 32 32" fill="none" xmlns="http://www.w3.org/2000/svg">
<path d="M24.1597 22.3506C27.7536 22.3506 30.667 19.4372 30.667 15.8433C30.667 12.2494 27.7536 9.33594 24.1597 9.33594C20.5658 9.33594 17.6523 12.2494 17.6523 15.8433C17.6523 19.4372 20.5658 22.3506 24.1597 22.3506Z" fill="#B4B8BE"/>
<path d="M24.1585 9.33594H7.83984V22.3506H24.1585V9.33594Z" fill="#B4B8BE"/>
<path d="M7.83935 22.3506C11.4333 22.3506 14.3467 19.4372 14.3467 15.8433C14.3467 12.2494 11.4333 9.33594 7.83935 9.33594C4.24546 9.33594 1.33203 12.2494 1.33203 15.8433C1.33203 19.4372 4.24546 22.3506 7.83935 22.3506Z" fill="#D2D6DC"/>
<path d="M7.84088 20.6232C10.4799 20.6232 12.6193 18.4838 12.6193 15.8448C12.6193 13.2058 10.4799 11.0664 7.84088 11.0664C5.20185 11.0664 3.0625 13.2058 3.0625 15.8448C3.0625 18.4838 5.20185 20.6232 7.84088 20.6232Z" fill="#B4B8BE"/>
<path d="M7.84088 11.9057C10.0119 11.9057 11.78 13.6738 11.78 15.8448C11.78 18.0158 10.0119 19.7839 7.84088 19.7839C5.66991 19.7839 3.90179 18.0158 3.90179 15.8448C3.90179 13.6738 5.66991 11.9057 7.84088 11.9057ZM7.84088 11.0664C5.2027 11.0664 3.0625 13.2066 3.0625 15.8448C3.0625 18.483 5.2027 20.6232 7.84088 20.6232C10.4791 20.6232 12.6193 18.483 12.6193 15.8448C12.6193 13.2066 10.4791 11.0664 7.84088 11.0664Z" fill="#F4F6FA"/>
<path d="M7.83758 11.9085C10.0086 11.9085 11.7767 13.6766 11.7767 15.8476C11.7767 16.4463 11.6452 17.0198 11.3878 17.5569C11.2311 17.8787 10.9038 18.0801 10.5261 18.0801C10.3387 18.0801 10.1568 18.0269 9.99736 17.929L9.26717 17.4786C8.83634 17.2128 8.34395 17.073 7.83758 17.073C7.3312 17.073 6.83882 17.2128 6.40798 17.4786L5.6778 17.929C5.51833 18.0269 5.33648 18.0801 5.15184 18.0801C4.77416 18.0801 4.44124 17.8759 4.28457 17.5486C3.96004 16.8715 3.83974 16.1134 3.93206 15.3524C4.14748 13.5731 5.59946 12.1379 7.38156 11.9393C7.53263 11.9225 7.6865 11.9141 7.83758 11.9141M7.83758 11.0692C7.65573 11.0692 7.47388 11.0804 7.28644 11.1C5.11827 11.3434 3.35855 13.0807 3.09557 15.2461C2.97807 16.2057 3.14593 17.1149 3.52361 17.9066C3.83415 18.5529 4.4804 18.9166 5.14904 18.9166C5.47916 18.9166 5.81488 18.8271 6.11703 18.6396L6.84721 18.1892C7.14936 18.0018 7.49347 17.9094 7.83478 17.9094C8.17609 17.9094 8.5202 18.0018 8.82235 18.1892L9.55253 18.6396C9.85468 18.8271 10.1932 18.9166 10.5233 18.9166C11.1864 18.9166 11.8298 18.5613 12.1404 17.9178C12.4425 17.2912 12.6132 16.589 12.6132 15.8448C12.6132 13.2066 10.473 11.0664 7.83478 11.0664L7.83758 11.0692Z" fill="#F4F6FA"/>
<path d="M10.9794 18.5986L10.0114 18.4476L7.7761 17.3984L5.59673 18.4476L4.6875 18.6546C4.6875 18.6546 5.76459 20.1401 7.68378 20.2101C9.60296 20.28 10.9794 18.5958 10.9794 18.5958V18.5986Z" fill="#F4F6FA"/>
<path d="M8.78678 13.9759C9.00773 13.9759 9.18685 13.7968 9.18685 13.5758C9.18685 13.3549 9.00773 13.1758 8.78678 13.1758C8.56583 13.1758 8.38672 13.3549 8.38672 13.5758C8.38672 13.7968 8.56583 13.9759 8.78678 13.9759Z" fill="#F4F6FA"/>
<path d="M5.612 15.6967C5.92411 15.6967 6.17712 15.4436 6.17712 15.1315C6.17712 14.8194 5.92411 14.5664 5.612 14.5664C5.29989 14.5664 5.04688 14.8194 5.04688 15.1315C5.04688 15.4436 5.29989 15.6967 5.612 15.6967Z" fill="#F4F6FA"/>
<path d="M9.60715 16.5619C9.83891 16.5619 10.0268 16.3741 10.0268 16.1423C10.0268 15.9105 9.83891 15.7227 9.60715 15.7227C9.37538 15.7227 9.1875 15.9105 9.1875 16.1423C9.1875 16.3741 9.37538 16.5619 9.60715 16.5619Z" fill="#F4F6FA"/>
<path d="M10.5047 15.2828C10.6669 15.2828 10.7984 15.1513 10.7984 14.9891C10.7984 14.8268 10.6669 14.6953 10.5047 14.6953C10.3425 14.6953 10.2109 14.8268 10.2109 14.9891C10.2109 15.1513 10.3425 15.2828 10.5047 15.2828Z" fill="#F4F6FA"/>
<path d="M7.39532 15.9898C7.55755 15.9898 7.68907 15.8583 7.68907 15.6961C7.68907 15.5339 7.55755 15.4023 7.39532 15.4023C7.23308 15.4023 7.10156 15.5339 7.10156 15.6961C7.10156 15.8583 7.23308 15.9898 7.39532 15.9898Z" fill="#F4F6FA"/>
<path d="M5.17303 17.0062C5.29664 17.0062 5.39684 16.906 5.39684 16.7824C5.39684 16.6588 5.29664 16.5586 5.17303 16.5586C5.04942 16.5586 4.94922 16.6588 4.94922 16.7824C4.94922 16.906 5.04942 17.0062 5.17303 17.0062Z" fill="#F4F6FA"/>
<path d="M6.37225 13.85C6.49586 13.85 6.59606 13.7498 6.59606 13.6262C6.59606 13.5025 6.49586 13.4023 6.37225 13.4023C6.24864 13.4023 6.14844 13.5025 6.14844 13.6262C6.14844 13.7498 6.24864 13.85 6.37225 13.85Z" fill="#F4F6FA"/>
</svg>
