<svg width="48" height="48" viewBox="0 0 48 48" fill="none" xmlns="http://www.w3.org/2000/svg">
<rect width="48" height="48" rx="24" fill="#10141A"/>
<path d="M28.3803 16.3121C28.6031 16.3121 28.9827 16.3475 29.5193 16.4184C30.0559 16.4892 30.6431 16.6917 31.2809 17.0258C31.9289 17.3498 32.5161 17.8915 33.0425 18.6508C33.0122 18.6811 32.8654 18.7925 32.6021 18.9849C32.3389 19.1671 32.0453 19.4405 31.7213 19.8049C31.3974 20.1593 31.1139 20.6149 30.8709 21.1717C30.6279 21.7184 30.5064 22.3714 30.5064 23.1307C30.5064 24.0014 30.6583 24.7405 30.962 25.348C31.2759 25.9554 31.6353 26.4464 32.0402 26.821C32.4553 27.1855 32.8198 27.4538 33.1337 27.6259C33.4576 27.798 33.6298 27.8891 33.65 27.8993C33.6399 27.9398 33.5083 28.2992 33.2552 28.9775C33.0122 29.6558 32.6072 30.4101 32.0402 31.2403C31.5442 31.9591 31.0076 32.6222 30.4305 33.2297C29.8635 33.8371 29.1801 34.1409 28.3803 34.1409C27.8437 34.1409 27.4033 34.0649 27.0591 33.9131C26.7149 33.7511 26.3605 33.5942 25.9961 33.4423C25.6316 33.2803 25.1406 33.1993 24.523 33.1993C23.9257 33.1993 23.4245 33.2803 23.0195 33.4423C22.6247 33.6043 22.245 33.7663 21.8806 33.9283C21.5262 34.0902 21.1061 34.1712 20.6201 34.1712C19.881 34.1712 19.2331 33.8776 18.6762 33.2904C18.1194 32.7032 17.5474 31.9996 16.9602 31.1795C16.2819 30.2076 15.6997 29.0231 15.2138 27.6259C14.7379 26.2186 14.5 24.8012 14.5 23.3737C14.5 21.845 14.7885 20.5643 15.3656 19.5316C15.9427 18.4888 16.6818 17.7042 17.5828 17.1777C18.494 16.6411 19.4356 16.3728 20.4075 16.3728C20.9238 16.3728 21.4098 16.4589 21.8654 16.631C22.321 16.793 22.7462 16.96 23.141 17.1321C23.546 17.3042 23.9105 17.3903 24.2345 17.3903C24.5483 17.3903 24.9128 17.2992 25.3279 17.117C25.743 16.9347 26.2087 16.7575 26.725 16.5854C27.2414 16.4032 27.7931 16.3121 28.3803 16.3121ZM27.5451 14.3834C27.1502 14.8592 26.6541 15.2592 26.0568 15.5831C25.4595 15.897 24.8925 16.0539 24.3559 16.0539C24.2446 16.0539 24.1383 16.0438 24.037 16.0235C24.0269 15.9932 24.0168 15.9375 24.0067 15.8565C23.9965 15.7755 23.9915 15.6894 23.9915 15.5983C23.9915 14.9909 24.1231 14.4037 24.3863 13.8367C24.6495 13.2596 24.9482 12.7838 25.2823 12.4092C25.7075 11.903 26.2441 11.4828 26.8921 11.1487C27.54 10.8146 28.1576 10.6374 28.7448 10.6172C28.7752 10.7488 28.7904 10.9057 28.7904 11.088C28.7904 11.6954 28.6739 12.2877 28.4411 12.8648C28.2082 13.4317 27.9096 13.9379 27.5451 14.3834Z" fill="white"/>
</svg>
