<svg width="154" height="24" viewBox="0 0 154 24" fill="none" xmlns="http://www.w3.org/2000/svg">
<path d="M30.9809 3.77493C26.4812 1.88629 21.0844 0.93016 16.1739 0.93016C11.2634 0.93016 5.86425 1.88629 1.36691 3.77493C1.07417 3.9213 0.93252 4.04879 0.93252 4.38166V19.6183C0.93252 19.9512 1.07417 20.0787 1.36691 20.2251C5.86661 22.1137 11.2634 23.0722 16.1739 23.0722C21.0844 23.0722 26.4812 22.1137 30.9809 20.2251C31.2737 20.0787 31.4153 19.9512 31.4153 19.6183V4.38166C31.4153 4.04879 31.2737 3.91894 30.9809 3.77493ZM26.5402 4.0181C26.6913 3.47512 27.147 3.19418 27.6498 3.33346C27.7891 3.37124 27.9001 3.43026 27.9921 3.51289L27.9992 3.51761L27.9024 3.78438L27.8883 3.76785C27.808 3.67578 27.7088 3.6144 27.5932 3.58135C27.4326 3.5365 27.2768 3.55302 27.1399 3.63093C26.9817 3.72064 26.8613 3.8859 26.8023 4.09601C26.7433 4.30376 26.7621 4.50679 26.8542 4.66733C26.9298 4.80189 27.0549 4.89868 27.2036 4.93882C27.3075 4.96715 27.4704 4.98131 27.5672 4.94826L27.5861 4.94117L27.5247 5.21976H27.5176C27.4114 5.23864 27.2862 5.22683 27.1328 5.18434C26.6134 5.04033 26.3821 4.57997 26.5402 4.01338V4.0181ZM24.3872 2.59453V2.58273L24.6445 2.63467L24.2786 4.45957L24.0212 4.40999L24.3872 2.59453ZM21.3606 2.11057V2.09876L21.6203 2.13181C21.6203 2.13181 21.4126 3.70175 21.4102 3.72536C21.4338 3.72772 22.0972 3.81507 22.0972 3.81507L22.0641 4.06768L21.1198 3.94256L21.363 2.1082L21.3606 2.11057ZM17.5101 2.7291C17.5267 2.41747 17.6353 2.15778 17.817 1.99252C17.9634 1.86032 18.1546 1.79658 18.3695 1.80602C18.8511 1.83199 19.1556 2.23333 19.1273 2.80936C19.1108 3.12335 19.0045 3.38541 18.8251 3.54594C18.6787 3.67815 18.4875 3.74189 18.2703 3.73008C18.0531 3.71828 17.869 3.63565 17.7368 3.48928C17.5762 3.30986 17.496 3.04073 17.5125 2.72674L17.5101 2.7291ZM14.3018 1.81783C14.3018 1.81783 14.3254 2.56384 14.3278 2.58745C14.3514 2.58745 15.0714 2.56148 15.095 2.56148C15.095 2.53787 15.0691 1.79185 15.0691 1.79185L15.3193 1.78242H15.3311L15.3925 3.64273L15.1304 3.65217C15.1304 3.65217 15.1045 2.8377 15.1045 2.81409C15.0809 2.81409 14.3608 2.84005 14.3372 2.84005C14.3372 2.86366 14.3655 3.67815 14.3655 3.67815L14.1035 3.68758L14.0421 1.82491L14.3042 1.81546L14.3018 1.81783ZM13.8037 4.39347C14.6394 4.3439 15.4421 4.31792 16.181 4.31792C19.7104 4.31792 24.7295 4.88452 27.8269 5.97994H13.8037V4.39111V4.39347ZM13.8037 6.83219H28.5516C28.5516 6.8676 28.5564 6.90065 28.5564 6.93134V7.35157H15.4185V10.9447H21.4645V11.4665H13.8037V6.83219ZM16.266 10.0948V9.57309H28.5564V10.0948H16.266ZM28.5564 10.9447V11.4665H22.3144V10.9447H28.5564ZM16.266 8.72555V8.20382H28.5564V8.72555H16.266ZM21.4645 12.3164V15.579H10.9943V15.0572H19.649V12.8357H10.9943V5.97285H4.554C6.78733 5.1867 10.0098 4.6744 12.9538 4.44777V12.314H21.4645V12.3164ZM11.9245 1.98072H11.9363L11.9646 2.23332C11.9646 2.23332 11.4759 2.28762 11.4547 2.29234C11.457 2.31595 11.6341 3.88826 11.6341 3.88826L11.3744 3.91658C11.3744 3.91658 11.1973 2.34193 11.195 2.31832C11.1714 2.31832 10.6827 2.37734 10.6827 2.37734L10.6543 2.12237L11.9245 1.97836V1.98072ZM7.9819 2.55912L8.23451 2.51191H8.24159L9.28743 4.20697L9.00885 4.26127C9.00885 4.26127 8.76333 3.85285 8.75625 3.83868C8.73972 3.84104 7.99134 3.98505 7.97482 3.98741C7.97246 4.00394 7.89691 4.47374 7.89691 4.47374L7.62778 4.52568L7.97954 2.56148L7.9819 2.55912ZM4.45957 3.63093C4.57053 3.43262 4.75467 3.29333 4.98839 3.22723C5.12768 3.1871 5.2528 3.18001 5.3732 3.20126H5.38265L5.43931 3.4822L5.42042 3.47511C5.30474 3.43734 5.1867 3.43734 5.07102 3.46803C4.91285 3.51289 4.78772 3.60968 4.70982 3.74425C4.62011 3.90478 4.60358 4.10781 4.6626 4.31792C4.77356 4.71218 5.10171 4.92937 5.44403 4.83258C5.5479 4.80425 5.69427 4.73106 5.76038 4.65316L5.77454 4.63664L5.86661 4.90576L5.85953 4.91049C5.77926 4.97895 5.66122 5.03561 5.51013 5.07811C5.27169 5.14657 5.04269 5.12532 4.85147 5.01436C4.63663 4.89396 4.47846 4.6744 4.39583 4.38166C4.31792 4.10781 4.34153 3.83868 4.46193 3.62621L4.45957 3.63093ZM3.80563 6.93134C3.80563 6.89829 3.80563 6.86287 3.81035 6.82274H10.142V12.8357H3.80327V6.92898L3.80563 6.93134ZM3.80563 13.688H18.7968V14.2097H10.1444V16.4312H22.3144V12.3187H28.5564V16.6626C28.5516 16.8373 28.5304 17.1064 28.41 17.2622C28.3108 17.3945 28.1716 17.4747 28.0818 17.5172C26.5355 18.098 24.458 18.5371 22.3144 18.8322V16.9506H3.8316C3.81271 16.8467 3.80799 16.7429 3.80563 16.6602V13.6856V13.688ZM21.4645 17.8005V18.9408C19.6089 19.1627 17.7486 19.2737 16.181 19.2737C12.8617 19.2737 8.23687 18.7708 5.11352 17.8005H21.4645ZM3.69703 20.2156C3.51997 20.1542 3.39721 20.0527 3.32874 19.9111C3.24375 19.7364 3.24611 19.5097 3.33819 19.2406L3.68759 18.2231L3.69231 18.2113L3.94019 18.2963L3.59788 19.2949C3.51997 19.5192 3.51053 19.6844 3.56955 19.8025C3.60968 19.8827 3.67814 19.9394 3.78202 19.9748C3.88353 20.0102 3.9756 20.0079 4.05351 19.9701C4.17155 19.9134 4.26598 19.7765 4.34153 19.5522L4.68385 18.5536L4.92937 18.6386L4.57525 19.6703C4.40763 20.1613 4.09365 20.3549 3.69467 20.218L3.69703 20.2156ZM5.76746 20.8294C5.76746 20.8294 5.48888 19.2737 5.47472 19.2005C5.45347 19.276 5.06158 20.6264 5.06158 20.6264L4.81133 20.5532L5.32835 18.7755L5.33307 18.7637L5.66122 18.8605C5.66122 18.8605 5.93036 20.3762 5.94452 20.4517C5.96577 20.3762 6.35058 19.0588 6.35058 19.0588L6.60083 19.132L6.08145 20.9215L5.77218 20.8318L5.76746 20.8294ZM6.84871 21.1151L6.5961 21.0514L7.04938 19.2571V19.2453L7.30435 19.3091L6.84635 21.1151H6.84871ZM7.77651 21.3346L7.55932 19.3964V19.3799L7.84261 19.4413C7.84261 19.4413 7.98898 21.0443 7.99606 21.1009C8.02439 21.0513 8.84124 19.6608 8.84124 19.6608L9.11037 19.7198L8.08578 21.4031L7.77887 21.337L7.77651 21.3346ZM10.253 20.1778C10.253 20.1778 9.59669 20.0622 9.57309 20.0598C9.56836 20.0811 9.4881 20.5438 9.48338 20.565C9.50698 20.5697 10.1019 20.6736 10.1019 20.6736L10.0571 20.9262C10.0571 20.9262 9.45977 20.82 9.43852 20.8176C9.4338 20.8412 9.34173 21.3701 9.33701 21.3913C9.36061 21.396 10.0169 21.5117 10.0169 21.5117L9.97206 21.7643L9.03482 21.5991L9.35589 19.7765V19.7647L10.2931 19.93L10.2483 20.1826L10.253 20.1778ZM11.653 20.6335C11.6246 20.8412 11.4712 20.9876 11.2681 21.0065C11.3272 21.0466 11.3579 21.0962 11.3909 21.2072L11.6081 21.9933L11.3154 21.9532L11.1477 21.2803C11.1005 21.1009 11.0321 21.0915 10.9069 21.075C10.9069 21.075 10.7983 21.0608 10.7771 21.0584C10.7747 21.082 10.6661 21.8682 10.6661 21.8682L10.4065 21.8328L10.6567 19.9984V19.9866L11.0722 20.0433C11.2611 20.0692 11.4665 20.1141 11.5774 20.2605C11.6317 20.3313 11.6577 20.421 11.6577 20.5296C11.6577 20.5627 11.6553 20.5981 11.6506 20.6358L11.653 20.6335ZM12.5123 20.9664C12.7035 21.0938 12.9207 21.2402 12.8853 21.5896C12.8499 21.9437 12.6067 22.1232 12.2172 22.0854C12.0968 22.0736 11.9858 22.024 11.882 21.9744L11.8749 21.9697L11.9292 21.7029L11.9433 21.71C11.9858 21.736 12.1369 21.8186 12.2715 21.8328C12.34 21.8399 12.4415 21.8257 12.5147 21.7643C12.5713 21.7195 12.602 21.6557 12.6114 21.5778C12.6303 21.396 12.4958 21.3087 12.34 21.2072C12.1605 21.0891 11.9575 20.9569 11.9882 20.6406C12.0189 20.3313 12.2502 20.1519 12.5784 20.1849C12.6964 20.1967 12.8239 20.2345 12.9278 20.2864L12.9372 20.2912L12.8735 20.5532L12.8593 20.5461C12.746 20.4824 12.6823 20.4517 12.5619 20.4399C12.5076 20.4352 12.4084 20.4328 12.3376 20.4918C12.2951 20.5273 12.2691 20.5792 12.2644 20.6453C12.2502 20.7893 12.3706 20.8719 12.5123 20.9664ZM13.4897 22.1657L13.23 22.1468L13.3645 20.3006V20.2888L13.6266 20.3077L13.4897 22.1657ZM15.1942 20.6453C15.1942 20.6453 14.7031 20.624 14.6795 20.6217C14.6795 20.6453 14.6063 22.227 14.6063 22.227L14.3466 22.2152C14.3466 22.2152 14.4175 20.6335 14.4175 20.6099C14.3939 20.6099 13.9028 20.5863 13.9028 20.5863L13.9146 20.3431V20.3313L15.2036 20.388L15.1918 20.6429L15.1942 20.6453ZM16.9506 20.4163C16.9506 20.4163 16.3061 21.481 16.3061 21.4787V22.2601H16.0441C16.0441 22.2601 16.0441 21.4881 16.0441 21.481C16.0393 21.4763 15.3996 20.4139 15.3996 20.4139L15.3878 20.395H15.6923C15.6923 20.395 16.1574 21.1765 16.1763 21.2095C16.1952 21.1765 16.6532 20.3974 16.6532 20.3974H16.9577L16.9483 20.4163H16.9506ZM19.1249 21.9768C18.9951 22.1232 18.8109 22.2081 18.5937 22.2223C18.1027 22.253 17.7651 21.8942 17.7297 21.3087C17.6966 20.7326 17.9965 20.3266 18.4804 20.2983C18.962 20.2699 19.3114 20.6358 19.3445 21.2119C19.3634 21.5259 19.2855 21.7974 19.1249 21.9768ZM20.0551 22.0759L19.7954 22.1019L19.6089 20.2487L20.4966 20.159H20.5084L20.5343 20.4116C20.5343 20.4116 19.9182 20.4729 19.8946 20.4777C19.8969 20.4989 19.9441 20.9664 19.9465 20.9876C19.9701 20.9852 20.5579 20.9262 20.5579 20.9262L20.5839 21.1788C20.5839 21.1788 19.9961 21.2379 19.9725 21.2402C19.9748 21.2638 20.0574 22.0736 20.0574 22.0736L20.0551 22.0759ZM23.0061 21.6817C23.0061 21.6817 22.6638 21.736 22.6543 21.7313C22.6543 21.7313 21.8587 21.0183 21.8115 20.9758C21.821 21.0372 21.9461 21.8446 21.9461 21.8446L21.6888 21.8847L21.4031 20.0433L21.6604 20.0031C21.6604 20.0031 21.7714 20.7232 21.7808 20.7822C21.8635 20.6524 22.338 19.9016 22.3451 19.8946L22.6567 19.8473L22.6827 19.8426C22.6827 19.8426 22.05 20.8176 22.0382 20.8342C22.0523 20.8483 23.0297 21.6746 23.0297 21.6746H23.0037L23.0061 21.6817ZM23.9032 21.5377C23.4216 21.6345 23.0368 21.3252 22.9211 20.7515C22.8078 20.1873 23.051 19.7435 23.5255 19.649C24 19.5546 24.3943 19.8709 24.5076 20.4352C24.6233 21.0089 24.3848 21.4409 23.9032 21.5377ZM25.9713 21.0325L25.5676 20.4682C25.459 20.3195 25.3905 20.336 25.2678 20.3667C25.2678 20.3667 25.1615 20.3927 25.1403 20.3974C25.1474 20.421 25.3386 21.1906 25.3386 21.1906L25.0836 21.2544L24.6351 19.446L25.0411 19.3445C25.2253 19.2996 25.4354 19.2642 25.5912 19.3586C25.6927 19.42 25.7588 19.5239 25.7989 19.6797C25.8084 19.7175 25.8131 19.7576 25.8131 19.793C25.8131 19.9512 25.7258 20.0929 25.5817 20.1684C25.6502 20.1849 25.6974 20.218 25.7682 20.3077L26.2593 20.9569L25.9713 21.0277V21.0325ZM26.6181 20.8601L26.0988 19.0706L27.0006 18.8086H27.0124L27.0832 19.0517C27.0832 19.0517 26.4434 19.2382 26.4198 19.2453C26.4269 19.2666 26.5568 19.7175 26.5638 19.7387C26.5851 19.7317 27.1682 19.564 27.1682 19.564L27.239 19.8096C27.239 19.8096 26.6583 19.9772 26.6347 19.9843C26.6417 20.0055 26.7905 20.5225 26.7976 20.5438C26.8188 20.5367 27.4609 20.3525 27.4609 20.3525L27.5318 20.5981L26.6181 20.8625V20.8601ZM29.0994 20.0787C29.0994 20.0787 28.8019 19.7057 28.7924 19.6939C28.7783 19.6986 28.0559 19.9418 28.0393 19.9465C28.0393 19.963 28.0275 20.4399 28.0275 20.4399L27.7679 20.5273L27.8528 18.5324L28.096 18.4497H28.1031L29.3685 19.9866L29.0994 20.0763V20.0787ZM18.2821 3.47511C18.4167 3.4822 18.5347 3.44206 18.6268 3.35944C18.7566 3.2414 18.8369 3.036 18.8487 2.79756C18.8605 2.55912 18.7991 2.34665 18.6787 2.21444C18.5937 2.12001 18.4828 2.07043 18.3529 2.06335C18.2231 2.05626 18.1074 2.09404 18.013 2.17903C17.8784 2.29943 17.7958 2.50246 17.784 2.74326C17.7675 3.06905 17.8879 3.45623 18.2798 3.47748L18.2821 3.47511ZM28.0441 19.6939C28.0748 19.6844 28.6059 19.505 28.6366 19.4932C28.6177 19.4696 28.1031 18.8227 28.0653 18.7732C28.0653 18.8346 28.0464 19.6608 28.0464 19.6939H28.0441ZM32.166 3.46331C32.0197 3.2414 31.8143 3.11627 31.6986 3.05725C27.1375 1.09306 21.4621 0 16.1786 0C10.8951 0 5.21975 1.09306 0.658666 3.05725C0.542986 3.11627 0.335235 3.24376 0.191226 3.46331C0.0330513 3.70175 0.00472162 4.11253 0 4.37694V19.6231C0.00472162 19.8875 0.0330513 20.2959 0.191226 20.5367C0.323431 20.7374 0.505213 20.8601 0.625615 20.9262C5.19614 22.9022 10.8833 24 16.181 24C21.4787 24 27.1635 22.9022 31.734 20.9262C31.8521 20.8601 32.0362 20.7374 32.1684 20.5367C32.3266 20.2959 32.3549 19.8875 32.3596 19.6231V4.37694C32.3549 4.11253 32.3266 3.70175 32.1684 3.46331H32.166ZM31.7387 19.6301C31.7387 19.9536 31.701 20.0386 31.6537 20.1519C31.5829 20.3171 31.387 20.421 31.387 20.421C26.8731 22.4112 21.2355 23.4004 16.1763 23.4004C11.1171 23.4004 5.47944 22.4088 0.965572 20.421C0.965572 20.421 0.769624 20.3171 0.6988 20.1519C0.651584 20.0386 0.613811 19.9536 0.613811 19.6301V4.38639C0.613811 4.06296 0.651584 3.97796 0.6988 3.86465C0.769624 3.69939 0.965572 3.59787 0.965572 3.59787C5.47944 1.60771 11.1171 0.616175 16.1763 0.616175C21.2355 0.616175 26.8707 1.60771 31.387 3.59787C31.387 3.59787 31.5829 3.69939 31.6537 3.86465C31.7033 3.97796 31.7387 4.06296 31.7387 4.38639V19.6301ZM18.8369 20.6665C18.7425 20.5815 18.6268 20.5461 18.4946 20.5532C18.3647 20.5603 18.2538 20.6122 18.1712 20.7067C18.0531 20.8412 17.9917 21.0537 18.0059 21.2922C18.0201 21.533 18.1027 21.736 18.2349 21.8517C18.3293 21.9343 18.445 21.9721 18.5819 21.965C18.7165 21.9555 18.8275 21.906 18.9125 21.8115C19.0281 21.6817 19.0872 21.4692 19.073 21.2284C19.0588 20.99 18.9738 20.7846 18.8393 20.6665H18.8369ZM11.0958 20.3006C11.0958 20.3006 10.9046 20.2746 10.8833 20.2723C10.881 20.2959 10.8149 20.7799 10.8102 20.8035C10.8314 20.8035 10.999 20.8294 10.999 20.8294C11.1171 20.846 11.2162 20.8271 11.2847 20.7751C11.3366 20.735 11.3697 20.6783 11.3791 20.6028C11.3791 20.5886 11.3815 20.5745 11.3815 20.5603C11.3815 20.421 11.28 20.3266 11.0958 20.303V20.3006ZM23.9292 19.9654C23.8229 19.8969 23.7049 19.8733 23.5751 19.9016C23.4452 19.9252 23.3461 19.9913 23.2752 20.0976C23.1761 20.2463 23.1454 20.4659 23.1926 20.6996C23.2563 21.0183 23.4688 21.3653 23.856 21.2874C23.9882 21.2591 24.0921 21.193 24.1605 21.0891C24.2573 20.9428 24.2857 20.7256 24.2384 20.4895C24.1912 20.2558 24.0803 20.0645 23.9292 19.9654ZM25.1592 19.5782C25.1592 19.5782 24.9703 19.6254 24.949 19.6301C24.9538 19.6514 25.0718 20.1283 25.0789 20.1495C25.1096 20.1424 25.263 20.1047 25.263 20.1047C25.4425 20.0598 25.5416 19.9583 25.5416 19.8261C25.5416 19.8025 25.5392 19.7789 25.5322 19.7553C25.492 19.5947 25.3551 19.531 25.1592 19.5806V19.5782ZM8.16132 2.82589C8.15188 2.88727 8.02203 3.70175 8.01731 3.73244C8.048 3.72536 8.60043 3.62148 8.63112 3.6144C8.6146 3.58607 8.19201 2.87783 8.16132 2.82353V2.82589Z" fill="#C4C8CE"/>
<path d="M73.1992 10.6342H73.2892L73.2723 10.5458C72.8723 8.46101 71.0541 6.83129 68.3548 6.83129C65.3276 6.83129 63.0909 9.01761 63.0909 12C63.0909 14.9824 65.3276 17.1687 68.3548 17.1687C71.0782 17.1687 73.0644 15.3122 73.368 13.3205L73.381 13.2349H73.2944H71.1043H71.0427L71.0312 13.2955C70.9526 13.7114 70.6403 14.1457 70.1702 14.4775C69.7015 14.8083 69.0826 15.0322 68.4024 15.0322C66.6825 15.0322 65.406 13.7568 65.406 12C65.406 10.2315 66.6823 8.96782 68.4024 8.96782C69.7708 8.96782 70.721 9.69122 70.9368 10.5774L70.9507 10.6342H71.0091H73.1992Z" fill="#C4C8CE" stroke="#C4C8CE" stroke-width="0.148783"/>
<path d="M51.6634 16.8563V16.9307H51.7378H53.9041H53.9785V16.8563V11.803L56.09 15.2998L56.1117 15.3358H56.1537H57.463H57.5049L57.5266 15.2998L59.6382 11.803V16.8563V16.9307H59.7126H61.8788H61.9532V16.8563V7.15567V7.08128H61.8788H60.153H60.1114L60.0896 7.11664L56.8083 12.4415L53.527 7.11664L53.5052 7.08128H53.4637H51.7378H51.6634V7.15567V16.8563Z" fill="#C4C8CE" stroke="#C4C8CE" stroke-width="0.148783"/>
<path d="M50.3935 10.6342H50.4836L50.4666 10.5458C50.0666 8.46101 48.2485 6.8313 45.5492 6.8313C42.5219 6.8313 40.2852 9.01762 40.2852 12C40.2852 14.9824 42.5219 17.1687 45.5492 17.1687C48.2725 17.1687 50.2587 15.3122 50.5623 13.3205L50.5753 13.2349H50.4888H48.2987H48.237L48.2256 13.2955C48.1469 13.7114 47.8346 14.1457 47.3646 14.4775C46.8959 14.8083 46.2769 15.0322 45.5968 15.0322C43.8768 15.0322 42.6003 13.7568 42.6003 12C42.6003 10.2315 43.8767 8.96782 45.5968 8.96782C46.9652 8.96782 47.9153 9.69123 48.1312 10.5774L48.145 10.6342H48.2035H50.3935Z" fill="#C4C8CE" stroke="#C4C8CE" stroke-width="0.148783"/>
<path d="M153.43 9.67981H153.534L153.53 9.57583C153.503 8.84321 153.051 8.19445 152.325 7.73285C151.598 7.27113 150.59 6.99064 149.424 6.99064C148.278 6.99064 147.281 7.2448 146.568 7.70331C145.853 8.1633 145.421 8.83162 145.421 9.64773C145.421 10.3733 145.666 10.9885 146.289 11.4639C146.905 11.9339 147.88 12.2607 149.327 12.4404C150.749 12.6192 151.638 12.8561 152.17 13.1748C152.434 13.3328 152.607 13.5088 152.715 13.7051C152.823 13.9016 152.87 14.1258 152.87 14.3864C152.87 14.9545 152.532 15.446 151.942 15.8004C151.352 16.1552 150.519 16.3656 149.561 16.3656C147.2 16.3656 146.26 15.3082 146.166 14.4774L146.156 14.3884H146.066H145.333H145.221L145.234 14.4997C145.395 15.9516 146.857 17.2139 149.51 17.2139C150.69 17.2139 151.754 16.9556 152.527 16.4698C153.302 15.9824 153.786 15.2628 153.786 14.3523C153.786 13.6487 153.521 13.0466 152.875 12.5813C152.237 12.1211 151.232 11.7988 149.76 11.6277C148.297 11.4576 147.441 11.1869 146.951 10.8401C146.709 10.6683 146.557 10.4784 146.465 10.2721C146.372 10.0648 146.337 9.8349 146.337 9.57955C146.337 9.10735 146.639 8.67494 147.179 8.35547C147.718 8.03639 148.483 7.83891 149.373 7.83891C150.289 7.83891 151.094 8.03654 151.673 8.3569C152.253 8.67833 152.591 9.11303 152.614 9.58447L152.619 9.67981H152.714H153.43Z" fill="#C4C8CE" stroke="#C4C8CE" stroke-width="0.200535"/>
<path d="M134.353 7.22925H134.253V7.32951V12.9716C134.253 14.2451 134.647 15.3061 135.328 16.0499C136.008 16.7943 136.969 17.2139 138.086 17.2139C139.297 17.2139 140.248 16.7648 140.922 16.2064C141.375 15.8311 141.706 15.4038 141.906 15.0267V16.875V16.9752H142.007H142.723H142.823V16.875V7.32951V7.22925H142.723H142.007H141.906V7.32951V12.3068C141.906 13.2776 141.503 14.2904 140.84 15.0602C140.177 15.8296 139.261 16.3486 138.24 16.3486C137.291 16.3486 136.527 16.0412 136 15.4589C135.472 14.8754 135.169 14.0031 135.169 12.8522V7.32951V7.22925H135.069H134.353Z" fill="#C4C8CE" stroke="#C4C8CE" stroke-width="0.200535"/>
<path d="M131.597 3V2.89973H131.496H130.781H130.68V3V16.875V16.9753H130.781H131.496H131.597V16.875V3Z" fill="#C4C8CE" stroke="#C4C8CE" stroke-width="0.200535"/>
<path d="M118.595 21V21.1003H118.696H119.411H119.512V21V15.0505C120.09 16.0804 121.495 17.2139 123.519 17.2139C126.259 17.2139 128.256 14.9788 128.256 12.1023C128.256 9.2257 126.259 6.99064 123.519 6.99064C121.495 6.99064 120.09 8.12414 119.512 9.15409V7.32955V7.22928H119.411H118.696H118.595V7.32955V21ZM127.34 12.1023C127.34 14.5127 125.789 16.3486 123.468 16.3486C121.145 16.3486 119.495 14.5091 119.495 12.1023C119.495 9.69544 121.145 7.85595 123.468 7.85595C125.789 7.85595 127.34 9.69188 127.34 12.1023Z" fill="#C4C8CE" stroke="#C4C8CE" stroke-width="0.200535"/>
<path d="M116.104 12.5264H116.186L116.202 12.4458C116.221 12.3507 116.221 12.2069 116.221 12.109V12.1023C116.221 9.20842 114.224 6.99064 111.485 6.99064C108.745 6.99064 106.748 9.20842 106.748 12.1023C106.748 14.9961 108.745 17.2139 111.485 17.2139C113.599 17.2139 115.245 16.0683 115.789 14.5046L115.836 14.3713H115.695H114.911H114.841L114.817 14.4361C114.409 15.5128 113.158 16.3486 111.485 16.3486C109.365 16.3486 107.863 14.731 107.689 12.5264H116.104ZM115.28 11.6611H107.689C107.863 9.4576 109.365 7.85595 111.485 7.85595C113.604 7.85595 115.106 9.4576 115.28 11.6611Z" fill="#C4C8CE" stroke="#C4C8CE" stroke-width="0.200535"/>
<path d="M99.8685 16.875V16.9753H99.9688H100.685H100.785V16.875V11.8977C100.785 9.9509 102.486 7.85595 104.741 7.85595C105.315 7.85595 105.743 7.9237 106.049 8.05264L106.188 8.11124V7.96023V7.26137V7.19043L106.121 7.16682C105.817 7.0595 105.413 6.99064 104.776 6.99064C102.671 6.99064 101.317 8.25847 100.785 9.22299V7.32955V7.22928H100.685H99.9688H99.8685V7.32955V16.875Z" fill="#C4C8CE" stroke="#C4C8CE" stroke-width="0.200535"/>
<path d="M96.1171 7.22928H96.0168V7.32955V9.15409C95.4385 8.12414 94.0334 6.99064 92.0092 6.99064C89.2697 6.99064 87.2725 9.2257 87.2725 12.1023C87.2725 14.9788 89.2697 17.2139 92.0092 17.2139C94.0334 17.2139 95.4385 16.0804 96.0168 15.0505V16.875V16.9753H96.1171H96.833H96.9333V16.875V7.32955V7.22928H96.833H96.1171ZM96.0339 12.1023C96.0339 14.5091 94.3839 16.3486 92.0603 16.3486C89.7399 16.3486 88.189 14.5127 88.189 12.1023C88.189 9.69188 89.7399 7.85595 92.0603 7.85595C94.3839 7.85595 96.0339 9.69544 96.0339 12.1023Z" fill="#C4C8CE" stroke="#C4C8CE" stroke-width="0.200535"/>
<path d="M85.4007 13.8329L85.4347 13.7065H85.3039H84.5709H84.4968L84.4751 13.7773C84.0102 15.2881 82.6842 16.3486 80.9914 16.3486C78.6864 16.3486 77.086 14.5279 77.086 12.1023C77.086 9.67661 78.6864 7.85595 80.9914 7.85595C82.6669 7.85595 83.9599 8.88234 84.4586 10.395L84.4813 10.4639H84.5539H85.2868H85.4202L85.3831 10.3358C84.8088 8.35173 83.1006 6.99064 80.9914 6.99064C78.2198 6.99064 76.1695 9.20642 76.1695 12.1023C76.1695 14.9991 78.2378 17.2139 81.0425 17.2139C83.1522 17.2139 84.861 15.835 85.4007 13.8329Z" fill="#C4C8CE" stroke="#C4C8CE" stroke-width="0.200535"/>
</svg>
