<svg width="18" height="18" viewBox="0 0 18 18" fill="none" xmlns="http://www.w3.org/2000/svg">
<path fill-rule="evenodd" clip-rule="evenodd" d="M2.75 13V5H4.05V13H2.75Z" fill="#10141A"/>
<path fill-rule="evenodd" clip-rule="evenodd" d="M5.55005 12V5H6.85005V12H5.55005Z" fill="#10141A"/>
<path fill-rule="evenodd" clip-rule="evenodd" d="M8.3501 13V5H9.6501V13H8.3501Z" fill="#10141A"/>
<path fill-rule="evenodd" clip-rule="evenodd" d="M11.1499 12V5H12.4499V12H11.1499Z" fill="#10141A"/>
<path fill-rule="evenodd" clip-rule="evenodd" d="M13.95 13V5H15.25V13H13.95Z" fill="#10141A"/>
<path fill-rule="evenodd" clip-rule="evenodd" d="M0 2C0 0.895431 0.895431 0 2 0H4.5V1H2C1.44772 1 1 1.44772 1 2V4.5H0V2Z" fill="black"/>
<path fill-rule="evenodd" clip-rule="evenodd" d="M18 2C18 0.895431 17.1046 0 16 0H13.5V1H16C16.5523 1 17 1.44772 17 2V4.5H18V2Z" fill="black"/>
<path fill-rule="evenodd" clip-rule="evenodd" d="M18 16C18 17.1046 17.1046 18 16 18L13.5 18L13.5 17L16 17C16.5523 17 17 16.5523 17 16L17 13.5L18 13.5L18 16Z" fill="black"/>
<path fill-rule="evenodd" clip-rule="evenodd" d="M-1.74846e-07 16C-7.8281e-08 17.1046 0.895431 18 2 18L4.5 18L4.5 17L2 17C1.44772 17 1 16.5523 1 16L1 13.5L-3.93402e-07 13.5L-1.74846e-07 16Z" fill="black"/>
</svg>
