<svg width="24" height="24" viewBox="0 0 24 24" fill="none" xmlns="http://www.w3.org/2000/svg">
<g clip-path="url(#clip0_149_568)">
<path d="M20.3301 16.6744L18.8638 14.8788C18.6301 14.5919 18.5026 14.2413 18.4813 13.8694L18.3007 8.74815C18.1944 5.63503 15.9313 2.91503 12.8501 2.51128C9.07819 2.02253 5.83756 4.87003 5.69944 8.53565L5.50819 13.8694C5.49756 14.2413 5.35944 14.5919 5.12569 14.8788L3.65944 16.6744C3.24506 17.1738 3.60631 17.9388 4.25444 17.9388H19.7032C20.3513 17.9388 20.7126 17.1844 20.2982 16.6744H20.3301Z" fill="#B4B8BE"/>
<path d="M9.04614 17.9281C9.04614 19.5219 10.3955 20.8819 11.9999 20.8819C13.6043 20.8819 14.9536 19.5325 14.9536 17.9281" fill="#B4B8BE"/>
</g>
<defs>
<clipPath id="clip0_149_568">
<rect width="17" height="18.4237" fill="white" transform="translate(3.5 2.45813)"/>
</clipPath>
</defs>
</svg>
