<svg width="29" height="28" viewBox="0 0 29 28" fill="none" xmlns="http://www.w3.org/2000/svg">
<rect x="0.5" width="28" height="28" rx="14" fill="#4BC457"/>
<path d="M19.9229 17.9153C19.85 17.8344 19.5345 17.4784 19.4617 17.3975C19.1624 17.082 19.1462 17.0578 18.8064 16.7261C18.3777 16.3054 17.7305 16.2164 17.237 16.5562L16.6464 16.9607C16.4118 17.1225 16.0963 17.1144 15.8779 16.9364C15.0446 16.2569 14.3165 15.4236 13.6613 14.2991C13.0141 13.1746 12.6581 12.1229 12.4801 11.0631C12.4316 10.78 12.5853 10.5049 12.8442 10.3836L13.4914 10.0762C13.9282 9.86583 14.2033 9.40471 14.179 8.91931C14.1628 8.63617 14.0091 8.14268 13.9282 7.87572C13.8231 7.53594 13.7826 7.41459 13.6613 7.05863C13.4671 6.50852 12.9493 6.14447 12.3669 6.2011C11.8815 6.24964 11.6145 6.282 11.1615 6.37099C10.8379 6.43571 10.4496 6.5247 10.1745 6.80785C8.71833 8.31257 9.09855 12.0825 11.1938 15.7148C13.281 19.331 16.339 21.5477 18.3696 21.0623C18.6527 20.9976 18.9035 20.8277 19.0977 20.6173C19.3242 20.3665 19.4698 20.2047 19.6802 19.9378C19.8662 19.7032 20.117 19.3634 20.1979 19.0641C20.2626 18.8133 20.2545 18.5463 20.1575 18.3036C20.1008 18.158 20.0118 18.0286 19.9067 17.9153H19.9229Z" fill="white"/>
</svg>
