<svg width="16" height="16" viewBox="0 0 16 16" fill="none" xmlns="http://www.w3.org/2000/svg">
<path d="M8.05004 12.0218C10.2443 12.0218 12.0232 10.243 12.0232 8.04866C12.0232 5.85436 10.2443 4.07553 8.05004 4.07553C5.85574 4.07553 4.0769 5.85436 4.0769 8.04866C4.0769 10.243 5.85574 12.0218 8.05004 12.0218Z" fill="#FFAC2E"/>
<path d="M8.04992 3.24877C8.30345 3.24877 8.55351 3.27308 8.79662 3.31129L8.04992 1.05035L7.30322 3.31129C7.54633 3.27308 7.79639 3.24877 8.04992 3.24877Z" fill="#FFAC2E" fill-opacity="0.5"/>
<path d="M10.8733 4.1725C11.2796 4.46771 11.6339 4.82543 11.9291 5.2283L12.9988 3.10281L10.8733 4.1725Z" fill="#FFAC2E" fill-opacity="0.5"/>
<path d="M15.0478 8.04785L12.7869 7.30115C12.8251 7.54426 12.8494 7.79432 12.8494 8.04785C12.8494 8.30138 12.8251 8.55143 12.7869 8.79454L15.0478 8.04785Z" fill="#FFAC2E" fill-opacity="0.5"/>
<path d="M11.9291 10.8707C11.6339 11.2771 11.2762 11.6313 10.8733 11.9265L12.9988 12.9962L11.9291 10.8707Z" fill="#FFAC2E" fill-opacity="0.5"/>
<path d="M8.04992 12.8513C7.79639 12.8513 7.54633 12.827 7.30322 12.7888L8.04992 15.0498L8.79662 12.7888C8.55351 12.827 8.30345 12.8513 8.04992 12.8513Z" fill="#FFAC2E" fill-opacity="0.5"/>
<path d="M4.17394 10.8707L3.10425 12.9962L5.22973 11.9265C4.82339 11.6313 4.46914 11.2736 4.17394 10.8707Z" fill="#FFAC2E" fill-opacity="0.5"/>
<path d="M3.25018 8.04785C3.25018 7.79432 3.27449 7.54426 3.31269 7.30115L1.05176 8.04785L3.31269 8.79454C3.27449 8.55143 3.25018 8.30138 3.25018 8.04785Z" fill="#FFAC2E" fill-opacity="0.5"/>
<path d="M5.22973 4.1725L3.10425 3.10281L4.17394 5.2283C4.46914 4.82196 4.82686 4.46771 5.22973 4.1725Z" fill="#FFAC2E" fill-opacity="0.5"/>
</svg>
