<svg width="16" height="16" viewBox="0 0 16 16" fill="none" xmlns="http://www.w3.org/2000/svg">
<path d="M8.05004 12.0218C10.2443 12.0218 12.0232 10.243 12.0232 8.04869C12.0232 5.85439 10.2443 4.07556 8.05004 4.07556C5.85574 4.07556 4.0769 5.85439 4.0769 8.04869C4.0769 10.243 5.85574 12.0218 8.05004 12.0218Z" fill="#E55151"/>
<path d="M8.04992 3.24883C8.30345 3.24883 8.55351 3.27315 8.79662 3.31135L8.04992 1.05042L7.30322 3.31135C7.54633 3.27315 7.79639 3.24883 8.04992 3.24883Z" fill="#E55151"/>
<path d="M10.8733 4.17253C11.2796 4.46774 11.6339 4.82546 11.9291 5.22833L12.9988 3.10284L10.8733 4.17253Z" fill="#E55151"/>
<path d="M15.0478 8.04785L12.7869 7.30115C12.8251 7.54426 12.8494 7.79432 12.8494 8.04785C12.8494 8.30138 12.8251 8.55143 12.7869 8.79454L15.0478 8.04785Z" fill="#E55151"/>
<path d="M11.9291 10.8708C11.6339 11.2771 11.2762 11.6314 10.8733 11.9266L12.9988 12.9963L11.9291 10.8708Z" fill="#E55151"/>
<path d="M8.04992 12.8513C7.79639 12.8513 7.54633 12.827 7.30322 12.7888L8.04992 15.0498L8.79662 12.7888C8.55351 12.827 8.30345 12.8513 8.04992 12.8513Z" fill="#E55151"/>
<path d="M4.17394 10.8708L3.10425 12.9963L5.22973 11.9266C4.82339 11.6314 4.46914 11.2737 4.17394 10.8708Z" fill="#E55151"/>
<path d="M3.25018 8.04785C3.25018 7.79432 3.27449 7.54426 3.31269 7.30115L1.05176 8.04785L3.31269 8.79454C3.27449 8.55143 3.25018 8.30138 3.25018 8.04785Z" fill="#E55151"/>
<path d="M5.22973 4.17253L3.10425 3.10284L4.17394 5.22833C4.46914 4.82199 4.82686 4.46774 5.22973 4.17253Z" fill="#E55151"/>
</svg>
