<svg width="20" height="20" viewBox="0 0 20 20" fill="none" xmlns="http://www.w3.org/2000/svg">
<path d="M10 18C14.4183 18 18 14.4183 18 10C18 5.58172 14.4183 2 10 2C5.58172 2 2 5.58172 2 10C2 14.4183 5.58172 18 10 18Z" stroke="#3284FF" stroke-width="1.2" stroke-linecap="round" stroke-linejoin="round"/>
<path d="M9.99853 18C12.2629 18 14.0986 14.4183 14.0986 10C14.0986 5.58172 12.2629 2 9.99853 2C7.73411 2 5.89844 5.58172 5.89844 10C5.89844 14.4183 7.73411 18 9.99853 18Z" stroke="#3284FF" stroke-width="1.2" stroke-linecap="round" stroke-linejoin="round"/>
<path d="M10 2V17.9975" stroke="#3284FF" stroke-width="1.2" stroke-linecap="round" stroke-linejoin="round"/>
<path d="M17.9975 10H2" stroke="#3284FF" stroke-width="1.2" stroke-linecap="round" stroke-linejoin="round"/>
<path d="M3.92188 5.08203C5.3899 5.96186 7.56723 6.51793 10.0016 6.51793C12.4359 6.51793 14.6133 5.95939 16.0813 5.08203" stroke="#3284FF" stroke-width="1.2" stroke-linecap="round" stroke-linejoin="round"/>
<path d="M16.0774 14.9164C14.6093 14.0365 12.432 13.4805 9.99767 13.4805C7.56332 13.4805 5.38599 14.039 3.91797 14.9164" stroke="#3284FF" stroke-width="1.2" stroke-linecap="round" stroke-linejoin="round"/>
</svg>
