<svg width="24" height="24" viewBox="0 0 24 24" fill="none" xmlns="http://www.w3.org/2000/svg">
<path fill-rule="evenodd" clip-rule="evenodd" d="M21.7497 12.2206C21.7497 11.529 21.6859 10.8649 21.5688 10.2266H12.1992V13.998H17.5537C17.3231 15.2168 16.622 16.2492 15.5686 16.9409V19.3869H18.7842C20.6653 17.6895 21.7506 15.1902 21.7506 12.2206H21.7497Z" fill="#4285F4"/>
<path fill-rule="evenodd" clip-rule="evenodd" d="M12.1953 21.7489C14.8814 21.7489 17.1336 20.8754 18.7794 19.3865L15.5637 16.9405C14.6724 17.5256 13.5337 17.871 12.1944 17.871C9.60292 17.871 7.40978 16.1561 6.62719 13.8516H3.30469V16.3775C4.94204 19.5638 8.30578 21.7489 12.1953 21.7489Z" fill="#34A853"/>
<path fill-rule="evenodd" clip-rule="evenodd" d="M6.63158 13.8523C6.43289 13.2672 6.31948 12.6426 6.31948 11.9996C6.31948 11.3567 6.43289 10.7321 6.63158 10.147V7.62109H3.30814C2.63427 8.93732 2.25 10.4262 2.25 11.9996C2.25 13.573 2.63427 15.0619 3.30814 16.3782L6.63158 13.8523Z" fill="#FBBC05"/>
<path fill-rule="evenodd" clip-rule="evenodd" d="M12.1953 6.12795C13.6555 6.12795 14.9677 6.62027 15.9986 7.58563L18.8525 4.78876C17.1289 3.21627 14.8767 2.25 12.1953 2.25C8.30578 2.25 4.94204 4.43514 3.30469 7.62145L6.62813 10.1474C7.41072 7.84281 9.60386 6.12795 12.1953 6.12795Z" fill="#EA4335"/>
</svg>
