<svg width="24" height="24" viewBox="0 0 24 24" fill="none" xmlns="http://www.w3.org/2000/svg">
<path fill-rule="evenodd" clip-rule="evenodd" d="M8.0342 4.41801C8.44474 3.7086 9.19068 3.28125 10.0082 3.28125H13.9865C14.7905 3.28125 15.5487 3.70627 15.9606 4.41817C15.9608 4.41859 15.9611 4.41901 15.9613 4.41943L16.3568 5.09747H19.2946C21.1842 5.09747 22.7173 6.63063 22.7173 8.52017V16.9742C22.7173 18.8638 21.1842 20.3969 19.2946 20.3969H4.70005C2.81051 20.3969 1.27734 18.8638 1.27734 16.9742V8.52017C1.27734 6.63063 2.81051 5.09747 4.70005 5.09747H7.63785L8.03338 4.41943C8.03365 4.41896 8.03392 4.41849 8.0342 4.41801ZM10.0082 4.72125C9.70185 4.72125 9.43201 4.87712 9.28023 5.13983L9.27873 5.14242L9.27872 5.14242L8.67332 6.18025C8.54429 6.40145 8.30748 6.53747 8.0514 6.53747H4.70005C3.6058 6.53747 2.71734 7.42592 2.71734 8.52017V16.9742C2.71734 18.0685 3.6058 18.9569 4.70005 18.9569H19.2946C20.3889 18.9569 21.2773 18.0685 21.2773 16.9742V8.52017C21.2773 7.42592 20.3889 6.53747 19.2946 6.53747H15.9433C15.6872 6.53747 15.4504 6.40145 15.3214 6.18025L14.716 5.14242L14.7145 5.13983C14.5641 4.87951 14.2848 4.72125 13.9865 4.72125H10.0082Z" fill="#82868C"/>
<path d="M11.9974 16.4244C14.1468 16.4244 15.8893 14.6819 15.8893 12.5325C15.8893 10.3831 14.1468 8.64062 11.9974 8.64062C9.84793 8.64062 8.10547 10.3831 8.10547 12.5325C8.10547 14.6819 9.84793 16.4244 11.9974 16.4244Z" fill="#82868C"/>
<path fill-rule="evenodd" clip-rule="evenodd" d="M11.9986 9.35797C10.2468 9.35797 8.82672 10.7781 8.82672 12.5299C8.82672 14.2816 10.2468 15.7018 11.9986 15.7018C13.7504 15.7018 15.1705 14.2816 15.1705 12.5299C15.1705 10.7781 13.7504 9.35797 11.9986 9.35797ZM7.38672 12.5299C7.38672 9.98278 9.45153 7.91797 11.9986 7.91797C14.5457 7.91797 16.6105 9.98278 16.6105 12.5299C16.6105 15.0769 14.5457 17.1418 11.9986 17.1418C9.45153 17.1418 7.38672 15.0769 7.38672 12.5299Z" fill="#82868C"/>
<path d="M18.7737 9.98875C19.3886 9.98875 19.8872 9.49021 19.8872 8.87523C19.8872 8.26026 19.3886 7.76172 18.7737 7.76172C18.1587 7.76172 17.6602 8.26026 17.6602 8.87523C17.6602 9.49021 18.1587 9.98875 18.7737 9.98875Z" fill="#82868C"/>
<path d="M6.78554 4.57422H4.41797V5.82827H6.78554V4.57422Z" fill="#82868C"/>
<path fill-rule="evenodd" clip-rule="evenodd" d="M3.69922 4.57156C3.69922 4.17392 4.02157 3.85156 4.41922 3.85156H6.78679C7.18443 3.85156 7.50679 4.17392 7.50679 4.57156V5.82562C7.50679 6.22326 7.18443 6.54562 6.78679 6.54562H4.41922C4.02157 6.54562 3.69922 6.22326 3.69922 5.82562V4.57156Z" fill="#82868C"/>
</svg>
