<svg width="29" height="28" viewBox="0 0 29 28" fill="none" xmlns="http://www.w3.org/2000/svg">
<path d="M28.5 14C28.5 21.7316 22.2316 28 14.5 28C6.76844 28 0.5 21.7316 0.5 14C0.5 6.26844 6.76844 0 14.5 0C22.2316 0 28.5 6.26844 28.5 14Z" fill="#FFDA00"/>
<path d="M14.4981 7.89062C10.2065 7.89062 6.73438 10.6406 6.73438 14.0225C6.73438 16.203 8.17185 18.1126 10.3385 19.2029L9.60932 21.939C9.58154 22.0223 9.60932 22.1056 9.66487 22.1681C9.70654 22.2098 9.76209 22.2306 9.82459 22.2306C9.8732 22.2306 9.92181 22.2167 9.96348 22.182L13.1093 20.0571C13.5606 20.1196 14.0259 20.1543 14.5051 20.1543C18.7966 20.1543 22.2688 17.4113 22.2688 14.0225C22.2688 10.6336 18.7897 7.89062 14.5051 7.89062H14.4981Z" fill="#1C1C1B"/>
</svg>
