<svg width="20" height="21" viewBox="0 0 20 21" fill="none" xmlns="http://www.w3.org/2000/svg">
<path d="M9.9975 14.8769C6.6575 14.8769 3.5975 13.3369 1.5975 10.6669C1.4575 10.4869 1.4575 10.2769 1.5975 10.0969C2.4275 8.98687 3.4475 8.08687 4.5875 7.39687L3.4875 6.29688C2.3175 7.05687 1.2675 8.02688 0.3975 9.19688C-0.1325 9.90688 -0.1325 10.8569 0.3975 11.5669C2.6875 14.6269 6.1875 16.3869 9.9975 16.3869C11.0775 16.3869 12.1275 16.2269 13.1375 15.9569L11.8775 14.6969C11.2575 14.8069 10.6375 14.8869 9.9875 14.8869L9.9975 14.8769Z" fill="#A2A6AC"/>
<path d="M19.5984 9.19594C17.3084 6.13594 13.8084 4.37594 9.99844 4.37594C8.72844 4.37594 7.49844 4.58594 6.33844 4.96594L4.23844 2.86594C3.94844 2.57594 3.46844 2.57594 3.17844 2.86594C2.88844 3.15594 2.88844 3.63594 3.17844 3.92594L17.1184 17.8659C17.2684 18.0159 17.4584 18.0859 17.6484 18.0859C17.8384 18.0859 18.0284 18.0159 18.1784 17.8659C18.4684 17.5759 18.4684 17.0959 18.1784 16.8059L16.0784 14.7059C17.4184 13.9159 18.6184 12.8659 19.5984 11.5559C20.1284 10.8459 20.1284 9.89594 19.5984 9.18594V9.19594ZM12.7184 11.3459L11.5584 10.1859C11.5884 10.0559 11.6184 9.91594 11.6184 9.77594C11.6184 8.88594 10.8884 8.15594 9.99844 8.15594C9.85844 8.15594 9.71844 8.18594 9.58844 8.21594L8.42844 7.05594C8.88844 6.78594 9.42844 6.62594 9.99844 6.62594C11.7384 6.62594 13.1484 8.03594 13.1484 9.77594C13.1484 10.3459 12.9884 10.8859 12.7184 11.3459ZM18.3984 10.6559C17.4684 11.9059 16.2984 12.8959 14.9884 13.6059L13.7984 12.4159C14.3284 11.6659 14.6484 10.7559 14.6484 9.76594C14.6484 8.41594 14.0684 7.21594 13.1484 6.36594C15.2184 7.01594 17.0484 8.28594 18.3984 10.0859C18.5384 10.2659 18.5384 10.4759 18.3984 10.6559Z" fill="#A2A6AC"/>
<path d="M5.57375 8.38672C5.43375 8.82672 5.34375 9.28672 5.34375 9.77672C5.34375 12.3367 7.43375 14.4267 9.99375 14.4267C10.4837 14.4267 10.9437 14.3267 11.3837 14.1967L10.1037 12.9167C10.1037 12.9167 10.0337 12.9267 9.99375 12.9267C8.25375 12.9267 6.84375 11.5167 6.84375 9.77672C6.84375 9.73672 6.84375 9.70672 6.85375 9.66672L5.57375 8.38672Z" fill="#A2A6AC"/>
</svg>
