<svg width="20" height="21" viewBox="0 0 20 21" fill="none" xmlns="http://www.w3.org/2000/svg">
<path d="M19.5975 9.31219C17.3075 6.25219 13.8075 4.49219 9.9975 4.49219C6.1875 4.49219 2.6875 6.25219 0.3975 9.31219C-0.1325 10.0222 -0.1325 10.9722 0.3975 11.6822C2.6875 14.7422 6.1875 16.5022 9.9975 16.5022C13.8075 16.5022 17.3075 14.7422 19.5975 11.6822C20.1275 10.9722 20.1275 10.0222 19.5975 9.31219ZM9.9975 6.74219C11.7375 6.74219 13.1475 8.15219 13.1475 9.89219C13.1475 11.6322 11.7375 13.0422 9.9975 13.0422C8.2575 13.0422 6.8475 11.6322 6.8475 9.89219C6.8475 8.15219 8.2575 6.74219 9.9975 6.74219ZM18.3975 10.7822C16.3975 13.4622 13.3375 14.9922 9.9975 14.9922C6.6575 14.9922 3.5975 13.4622 1.5975 10.7822C1.4575 10.6022 1.4575 10.3922 1.5975 10.2122C2.9475 8.40219 4.7875 7.13219 6.8575 6.49219C5.9375 7.34219 5.3475 8.55219 5.3475 9.89219C5.3475 12.4522 7.4275 14.5422 9.9975 14.5422C12.5675 14.5422 14.6475 12.4622 14.6475 9.89219C14.6475 8.54219 14.0575 7.34219 13.1375 6.49219C15.2075 7.14219 17.0475 8.41219 18.3975 10.2122C18.5375 10.3922 18.5375 10.6022 18.3975 10.7822Z" fill="#A2A6AC"/>
<path d="M9.995 11.5095C10.885 11.5095 11.615 10.7795 11.615 9.88953C11.615 8.99953 10.885 8.26953 9.995 8.26953C9.105 8.26953 8.375 8.99953 8.375 9.88953C8.375 10.7795 9.105 11.5095 9.995 11.5095Z" fill="#A2A6AC"/>
</svg>
