<svg width="16" height="16" viewBox="0 0 16 16" fill="none" xmlns="http://www.w3.org/2000/svg">
<path d="M8.20204 9.14923L6.95612 9.37974C6.76893 9.41419 6.60133 9.26119 6.62299 9.07526L6.77512 7.76664C6.79471 7.59793 6.87207 7.44087 6.99377 7.3213L12.2128 2.16149C12.4319 1.94617 12.7867 1.94617 13.0059 2.16149L13.8413 2.98222C14.0605 3.19754 14.0605 3.5461 13.8413 3.76141L8.60067 8.94202C8.49186 9.04891 8.35314 9.12136 8.20204 9.14923Z" fill="#82868C"/>
<path d="M13.5769 9.3061V11.7983C13.5769 12.7365 12.8146 13.4988 11.8764 13.4988H4.20053C3.26231 13.4988 2.5 12.7365 2.5 11.7983V4.12241C2.5 3.18418 3.26231 2.42188 4.20053 2.42188H6.69269" stroke="#82868C" stroke-width="1.2" stroke-linecap="round" stroke-linejoin="round"/>
</svg>
