<svg width="43" height="18" viewBox="0 0 43 18" fill="none" xmlns="http://www.w3.org/2000/svg">
<g clip-path="url(#clip0_43_10)">
<mask id="mask0_43_10" style="mask-type:luminance" maskUnits="userSpaceOnUse" x="0" y="0" width="43" height="18">
<path d="M42.3276 17.3274L42.3276 0.192383L0.807636 0.192381L0.807636 17.3274L42.3276 17.3274Z" fill="white"/>
</mask>
<g mask="url(#mask0_43_10)">
<path d="M4.53471 10.4305L2.68071 9.19546L13.4407 9.19546C13.6817 9.19546 13.8767 9.00046 13.8767 8.75946C13.8767 8.51846 13.6827 8.32446 13.4407 8.32446L2.67971 8.32446L4.53371 7.08846C4.73271 6.95446 4.78771 6.68446 4.65471 6.48446C4.51971 6.28546 4.25071 6.23146 4.05071 6.36446L1.00071 8.39746C0.879709 8.47846 0.807709 8.61446 0.807709 8.75946C0.807709 8.90446 0.879709 9.04046 1.00071 9.12146L4.05071 11.1545C4.25071 11.2875 4.52071 11.2325 4.65471 11.0335C4.78771 10.8345 4.73371 10.5635 4.53471 10.4305Z" fill="black"/>
</g>
<mask id="mask1_43_10" style="mask-type:luminance" maskUnits="userSpaceOnUse" x="0" y="0" width="43" height="18">
<path d="M42.3276 17.3274L42.3276 0.192383L0.807636 0.192381L0.807636 17.3274L42.3276 17.3274Z" fill="white"/>
</mask>
<g mask="url(#mask1_43_10)">
<path d="M38.6136 7.08841L40.4676 8.32441L29.7056 8.32441C29.4656 8.32441 29.2706 8.51941 29.2706 8.76041C29.2706 9.00141 29.4656 9.19541 29.7056 9.19541L40.4676 9.19541L38.6136 10.4314C38.4876 10.5154 38.4196 10.6534 38.4196 10.7944C38.4196 10.8774 38.4436 10.9604 38.4926 11.0344C38.6266 11.2334 38.8966 11.2874 39.0956 11.1544L42.1456 9.12241C42.3876 8.96141 42.3876 8.55941 42.1456 8.39741L39.0956 6.36441C38.8966 6.23141 38.6266 6.28541 38.4926 6.48541C38.3606 6.68441 38.4136 6.95541 38.6136 7.08841Z" fill="black"/>
</g>
<mask id="mask2_43_10" style="mask-type:luminance" maskUnits="userSpaceOnUse" x="0" y="0" width="43" height="18">
<path d="M42.3276 17.3274L42.3276 0.192383L0.807636 0.192381L0.807636 17.3274L42.3276 17.3274Z" fill="white"/>
</mask>
<g mask="url(#mask2_43_10)">
<path d="M26.0757 8.7593C26.0757 6.2773 24.0557 4.2583 21.5737 4.2583C19.0927 4.2583 17.0727 6.2773 17.0727 8.7593C17.0727 11.2403 19.0927 13.2603 21.5737 13.2603C24.0557 13.2603 26.0757 11.2413 26.0757 8.7593ZM17.9427 8.7593C17.9427 6.7573 19.5717 5.1283 21.5737 5.1283C23.5767 5.1283 25.2057 6.7573 25.2057 8.7593C25.2057 10.7613 23.5767 12.3903 21.5737 12.3903C19.5717 12.3903 17.9427 10.7613 17.9427 8.7593Z" fill="black"/>
</g>
<mask id="mask3_43_10" style="mask-type:luminance" maskUnits="userSpaceOnUse" x="0" y="0" width="43" height="18">
<path d="M42.3276 17.3274L42.3276 0.192383L0.807636 0.192381L0.807636 17.3274L42.3276 17.3274Z" fill="white"/>
</mask>
<g mask="url(#mask3_43_10)">
<path d="M27.6315 3.31738C27.8015 3.14738 27.8015 2.87238 27.6315 2.70238C26.0135 1.08438 23.8615 0.192383 21.5735 0.192383C19.2855 0.192382 17.1335 1.08338 15.5155 2.70138C15.4305 2.78638 15.3875 2.89738 15.3875 3.00938C15.3875 3.12038 15.4305 3.23138 15.5155 3.31638C15.6855 3.48638 15.9605 3.48638 16.1305 3.31638C17.5845 1.86238 19.5175 1.06238 21.5735 1.06238C23.6295 1.06238 25.5625 1.86238 27.0165 3.31638C27.1865 3.48638 27.4615 3.48638 27.6315 3.31738Z" fill="black"/>
</g>
<mask id="mask4_43_10" style="mask-type:luminance" maskUnits="userSpaceOnUse" x="0" y="0" width="43" height="18">
<path d="M42.3276 17.3274L42.3276 0.192383L0.807636 0.192381L0.807636 17.3274L42.3276 17.3274Z" fill="white"/>
</mask>
<g mask="url(#mask4_43_10)">
<path d="M27.6315 14.2025C27.4615 14.0325 27.1865 14.0325 27.0165 14.2025C25.5625 15.6565 23.6295 16.4585 21.5735 16.4585C19.5175 16.4585 17.5845 15.6565 16.1305 14.2025C15.9605 14.0325 15.6855 14.0325 15.5155 14.2025C15.4305 14.2875 15.3875 14.3985 15.3875 14.5115C15.3875 14.6225 15.4305 14.7335 15.5155 14.8185C17.1335 16.4365 19.2865 17.3285 21.5735 17.3285C23.8615 17.3285 26.0135 16.4365 27.6315 14.8185C27.8015 14.6475 27.8015 14.3735 27.6315 14.2025Z" fill="black"/>
</g>
</g>
<defs>
<clipPath id="clip0_43_10">
<rect width="17.135" height="41.52" fill="white" transform="translate(42.3276 0.192383) rotate(90)"/>
</clipPath>
</defs>
</svg>
