<svg width="24" height="24" viewBox="0 0 24 24" fill="none" xmlns="http://www.w3.org/2000/svg">
<path fill-rule="evenodd" clip-rule="evenodd" d="M9.29863 3.63112C9.39471 2.77131 10.1277 2.14062 10.9746 2.14062H13.0246C13.8819 2.14062 14.5923 2.78045 14.6998 3.62487L14.7001 3.62759L14.9178 5.40216C15.3897 5.6126 15.835 5.86624 16.2519 6.17044L17.8961 5.46576C18.6789 5.14343 19.5796 5.43558 20.0129 6.1783L20.0139 6.18012L21.0476 7.96645C21.4609 8.70123 21.2824 9.64481 20.5946 10.1606L19.1657 11.2302C19.1945 11.478 19.2146 11.7371 19.2146 12.0006C19.2146 12.2702 19.1946 12.5265 19.1659 12.7712L20.6015 13.8458C21.269 14.3616 21.4812 15.2904 21.0434 16.042C21.0432 16.0423 21.0431 16.0426 21.0429 16.0429L20.0156 17.8182C19.5939 18.5639 18.6772 18.8722 17.8874 18.5317C17.8872 18.5317 17.8875 18.5318 17.8874 18.5317L16.2524 17.831C15.8381 18.1351 15.393 18.3936 14.9173 18.6027L14.7006 20.3701C14.6045 21.2299 13.8715 21.8606 13.0246 21.8606H10.9746C10.1173 21.8606 9.40688 21.2208 9.2994 20.3764L9.29907 20.3737L9.08143 18.5991C8.60947 18.3886 8.16419 18.135 7.74734 17.8308L6.10308 18.5355C5.32028 18.8578 4.41959 18.5657 3.98634 17.8229L3.98528 17.8211L2.95162 16.0348C2.5383 15.3 2.71685 14.3564 3.4046 13.8406L4.83329 12.7712C4.80464 12.5265 4.7846 12.2702 4.7846 12.0006C4.7846 11.7311 4.80464 11.4748 4.83329 11.2301L3.39769 10.1555C2.7302 9.63966 2.51797 8.71088 2.95578 7.95926C2.95596 7.95894 2.95615 7.95862 2.95634 7.9583L3.98364 6.18295C4.40533 5.43743 5.32183 5.12914 6.11156 5.4694C6.11133 5.4693 6.11179 5.4695 6.11156 5.4694L7.74677 6.1702C8.16106 5.86615 8.60624 5.60763 9.08187 5.39859L9.29863 3.63112ZM10.9746 3.34063C10.723 3.34063 10.517 3.52777 10.4911 3.76569L10.4902 3.77367L10.2301 5.89366C10.203 6.11485 10.0555 6.30278 9.84714 6.38172C9.24898 6.6083 8.70494 6.92542 8.21361 7.32577C8.04053 7.46679 7.80346 7.50006 7.59825 7.41211L5.63825 6.57211L5.63695 6.57155C5.40808 6.47282 5.14664 6.56307 5.02755 6.77478L5.02396 6.78115L3.99393 8.56113L3.99287 8.56295C3.87198 8.77018 3.9188 9.03931 4.12848 9.20353L5.83415 10.4803C6.01041 10.6122 6.10025 10.8301 6.06822 11.0479C6.01968 11.378 5.9846 11.6842 5.9846 12.0006C5.9846 12.317 6.01968 12.6233 6.06822 12.9533C6.10025 13.1712 6.01041 13.389 5.83415 13.521L4.1246 14.8006C3.93345 14.9444 3.87143 15.2193 3.9961 15.4439L5.02287 17.2183C5.02273 17.2181 5.02301 17.2186 5.02287 17.2183C5.14919 17.434 5.40686 17.5226 5.64291 17.4271L7.59825 16.5891C7.80346 16.5012 8.04053 16.5345 8.21361 16.6755C8.701 17.0726 9.24612 17.3827 9.85452 17.6224C10.0592 17.703 10.2034 17.8892 10.2301 18.1076L10.4898 20.2249C10.4899 20.2253 10.4899 20.2256 10.49 20.226C10.523 20.481 10.7323 20.6606 10.9746 20.6606H13.0246C13.2762 20.6606 13.4822 20.4735 13.5081 20.2356L13.509 20.2276L13.7691 18.1076C13.7962 17.8864 13.9437 17.6985 14.1521 17.6195C14.7502 17.393 15.2943 17.0758 15.7856 16.6755C15.9587 16.5345 16.1957 16.5012 16.401 16.5891L18.3623 17.4297C18.5911 17.5284 18.8526 17.4382 18.9717 17.2265L18.9752 17.2201L20.0053 15.4401L20.0063 15.4383C20.1272 15.2311 20.0804 14.962 19.8707 14.7977L18.1651 13.521C17.9888 13.389 17.899 13.1712 17.931 12.9533C17.9795 12.6233 18.0146 12.317 18.0146 12.0006C18.0146 11.6938 17.9794 11.3773 17.931 11.0479C17.899 10.8301 17.9888 10.6122 18.1651 10.4803L19.8746 9.20062C20.0661 9.05699 20.1279 8.78209 20.0031 8.55735L18.9763 6.78295C18.9762 6.78271 18.9765 6.78318 18.9763 6.78295C18.85 6.56718 18.5924 6.47867 18.3563 6.57411L16.401 7.41211C16.1957 7.50006 15.9587 7.46679 15.7856 7.32577C15.2982 6.92863 14.7531 6.61854 14.1447 6.37887C13.94 6.29823 13.7958 6.11203 13.7691 5.89366L13.5094 3.77638C13.5094 3.776 13.5093 3.77561 13.5093 3.77523C13.4762 3.52026 13.2669 3.34063 13.0246 3.34063H10.9746Z" fill="#10141A"/>
<path fill-rule="evenodd" clip-rule="evenodd" d="M11.9964 9.77031C10.7648 9.77031 9.76641 10.7687 9.76641 12.0003C9.76641 13.2319 10.7648 14.2303 11.9964 14.2303C13.228 14.2303 14.2264 13.2319 14.2264 12.0003C14.2264 10.7687 13.228 9.77031 11.9964 9.77031ZM8.56641 12.0003C8.56641 10.106 10.1021 8.57031 11.9964 8.57031C13.8907 8.57031 15.4264 10.106 15.4264 12.0003C15.4264 13.8946 13.8907 15.4303 11.9964 15.4303C10.1021 15.4303 8.56641 13.8946 8.56641 12.0003Z" fill="#10141A"/>
</svg>
