<svg width="22" height="22" viewBox="0 0 22 22" fill="none" xmlns="http://www.w3.org/2000/svg">
<path fill-rule="evenodd" clip-rule="evenodd" d="M4.125 9.86333C4.125 6.69414 6.69414 4.125 9.86333 4.125C13.0325 4.125 15.6017 6.69414 15.6017 9.86333C15.6017 13.0325 13.0325 15.6017 9.86333 15.6017C6.69414 15.6017 4.125 13.0325 4.125 9.86333ZM9.86333 2.75C5.93475 2.75 2.75 5.93475 2.75 9.86333C2.75 13.7919 5.93475 16.9767 9.86333 16.9767C11.5801 16.9767 13.1547 16.3685 14.3837 15.3559L18.2047 19.1769C18.4732 19.4454 18.9085 19.4454 19.177 19.1769C19.4455 18.9085 19.4455 18.4732 19.177 18.2047L15.356 14.3837C16.3685 13.1547 16.9767 11.58 16.9767 9.86333C16.9767 5.93475 13.7919 2.75 9.86333 2.75Z" fill="#3284FF"/>
</svg>
