<svg width="16" height="16" viewBox="0 0 16 16" fill="none" xmlns="http://www.w3.org/2000/svg">
<path d="M12.6693 8.00069C12.6693 7.73353 12.6388 7.46637 12.6006 7.20684L13.9059 6.2298C14.2418 5.9779 14.3334 5.51228 14.1273 5.14589L13.3411 3.78718C13.1273 3.42079 12.6846 3.27576 12.2953 3.43605L10.7992 4.07724C10.387 3.74138 9.92904 3.48185 9.42525 3.28339L9.22678 1.66516C9.17335 1.24533 8.82223 0.932373 8.4024 0.932373H6.8376C6.41777 0.932373 6.05902 1.24533 6.01322 1.66516L5.81475 3.28339C5.31096 3.47422 4.85297 3.74138 4.44078 4.07724L2.94468 3.43605C2.55539 3.26813 2.10503 3.42079 1.89893 3.78718L1.11272 5.14589C0.898988 5.51228 0.99822 5.97027 1.33408 6.2298L2.63935 7.20684C2.60119 7.46637 2.57065 7.7259 2.57065 8.00069C2.57065 8.27549 2.60119 8.53502 2.63935 8.79454L1.33408 9.77159C0.99822 10.0235 0.906622 10.4891 1.11272 10.8555L1.89893 12.2142C2.11266 12.5806 2.55539 12.7256 2.94468 12.5653L4.44078 11.9241C4.85297 12.26 5.31096 12.5195 5.81475 12.718L6.01322 14.3362C6.06665 14.7561 6.41777 15.069 6.8376 15.069H8.4024C8.82223 15.069 9.18098 14.7561 9.22678 14.3362L9.42525 12.718C9.92904 12.5272 10.387 12.26 10.7992 11.9241L12.2953 12.5653C12.6846 12.7333 13.135 12.5806 13.3411 12.2142L14.1273 10.8555C14.341 10.4891 14.2418 10.0311 13.9059 9.77159L12.6006 8.79454C12.6388 8.53502 12.6693 8.27549 12.6693 8.00069Z" fill="#C4C8CE"/>
<path d="M7.61674 10.3355C8.90632 10.3355 9.95174 9.29005 9.95174 8.00047C9.95174 6.71088 8.90632 5.66547 7.61674 5.66547C6.32715 5.66547 5.28174 6.71088 5.28174 8.00047C5.28174 9.29005 6.32715 10.3355 7.61674 10.3355Z" fill="#82868C"/>
</svg>
