<svg width="20" height="20" viewBox="0 0 20 20" fill="none" xmlns="http://www.w3.org/2000/svg">
<path fill-rule="evenodd" clip-rule="evenodd" d="M7.75016 3.02529C7.83022 2.30877 8.44103 1.7832 9.1468 1.7832H10.8551C11.5696 1.7832 12.1616 2.31639 12.2511 3.02008L12.2514 3.02234L12.4328 4.50115C12.8261 4.67652 13.1971 4.88788 13.5445 5.14139L14.9147 4.55415C15.5671 4.28554 16.3176 4.529 16.6787 5.14793L16.6796 5.14945L17.541 6.63805C17.8854 7.25037 17.7366 8.03669 17.1635 8.46654L15.9727 9.35787C15.9967 9.56436 16.0135 9.7803 16.0135 9.99987C16.0135 10.2245 15.9968 10.4381 15.9729 10.642L17.1692 11.5375C17.7255 11.9673 17.9023 12.7413 17.5375 13.3677C17.5373 13.3679 17.5372 13.3682 17.537 13.3685L16.681 14.8479C16.3295 15.4693 15.5656 15.7262 14.9074 15.4425C14.9073 15.4424 14.9076 15.4425 14.9074 15.4425L13.545 14.8586C13.1998 15.1119 12.8288 15.3274 12.4324 15.5016L12.2518 16.9745C12.1717 17.691 11.5609 18.2165 10.8551 18.2165H9.1468C8.43236 18.2165 7.84037 17.6833 7.75081 16.9797L7.75052 16.9774L7.56916 15.4986C7.17586 15.3232 6.8048 15.1119 6.45741 14.8584L5.0872 15.4456C4.43487 15.7142 3.6843 15.4707 3.32325 14.8518L3.32237 14.8503L2.46098 13.3617C2.11655 12.7494 2.26534 11.9631 2.83847 11.5332L4.02904 10.642C4.00517 10.4381 3.98847 10.2245 3.98847 9.99987C3.98847 9.77523 4.00517 9.56168 4.02904 9.35773L2.83271 8.46223C2.27647 8.0324 2.09961 7.25841 2.46445 6.63207C2.46461 6.6318 2.46476 6.63153 2.46492 6.63127L3.32101 5.1518C3.67241 4.53054 4.43616 4.27364 5.09427 4.55718C5.09446 4.55726 5.09407 4.5571 5.09427 4.55718L6.45694 5.14118C6.80219 4.88781 7.17317 4.67237 7.56952 4.49818L7.75016 3.02529ZM9.1468 2.7832C8.93712 2.7832 8.76549 2.93916 8.74386 3.13743L8.74313 3.14407L8.52642 4.91073C8.50381 5.09506 8.38091 5.25167 8.20725 5.31745C7.70878 5.50626 7.25542 5.77053 6.84597 6.10415C6.70174 6.22168 6.50419 6.2494 6.33318 6.17611L4.69984 5.47611L4.69876 5.47564C4.50803 5.39337 4.29016 5.46857 4.19093 5.645L4.18794 5.65031L3.32957 7.13363L3.32869 7.13514C3.22796 7.30783 3.26697 7.53211 3.4417 7.66896L4.8631 8.73292C5.00998 8.84287 5.08484 9.02443 5.05815 9.20595C5.0177 9.48101 4.98847 9.7362 4.98847 9.99987C4.98847 10.2635 5.0177 10.5187 5.05815 10.7938C5.08484 10.9753 5.00998 11.1569 4.8631 11.2668L3.43847 12.3332C3.27917 12.453 3.2275 12.6821 3.33139 12.8693L4.18703 14.3479C4.18715 14.3481 4.18691 14.3477 4.18703 14.3479C4.2923 14.5277 4.50702 14.6015 4.70373 14.522L6.33318 13.8236C6.50419 13.7503 6.70174 13.7781 6.84597 13.8956C7.25214 14.2265 7.7064 14.4849 8.2134 14.6847C8.38398 14.7519 8.5041 14.907 8.52642 15.089L8.7428 16.8534C8.74284 16.8537 8.74289 16.8541 8.74293 16.8544C8.77044 17.0668 8.94489 17.2165 9.1468 17.2165H10.8551C11.0648 17.2165 11.2365 17.0606 11.2581 16.8623L11.2588 16.8557L11.4755 15.089C11.4981 14.9047 11.621 14.7481 11.7947 14.6823C12.2932 14.4935 12.7465 14.2292 13.156 13.8956C13.3002 13.7781 13.4978 13.7503 13.6688 13.8236L15.3032 14.5241C15.4939 14.6064 15.7118 14.5312 15.811 14.3547L15.814 14.3494L16.6724 12.8661L16.6732 12.8646C16.774 12.6919 16.735 12.4676 16.5603 12.3308L15.1388 11.2668C14.992 11.1569 14.9171 10.9753 14.9438 10.7938C14.9842 10.5187 15.0135 10.2635 15.0135 9.99987C15.0135 9.74421 14.9842 9.48044 14.9438 9.20595C14.9171 9.02443 14.992 8.84287 15.1388 8.73292L16.5635 7.66654C16.7231 7.54684 16.7745 7.31776 16.6705 7.13047L15.8149 5.65181C15.8148 5.65161 15.815 5.652 15.8149 5.65181C15.7097 5.472 15.4949 5.39824 15.2982 5.47777L13.6688 6.17611C13.4978 6.2494 13.3002 6.22168 13.156 6.10415C12.7498 5.77321 12.2955 5.5148 11.7885 5.31507C11.618 5.24788 11.4978 5.09271 11.4755 4.91073L11.2591 3.14633C11.2591 3.14601 11.2591 3.14569 11.259 3.14538C11.2315 2.9329 11.0571 2.7832 10.8551 2.7832H9.1468Z" fill="#B4B8BE"/>
<path fill-rule="evenodd" clip-rule="evenodd" d="M9.99896 8.14209C8.97263 8.14209 8.14063 8.97409 8.14063 10.0004C8.14063 11.0268 8.97263 11.8588 9.99896 11.8588C11.0253 11.8588 11.8573 11.0268 11.8573 10.0004C11.8573 8.97409 11.0253 8.14209 9.99896 8.14209ZM7.14062 10.0004C7.14062 8.42181 8.42034 7.14209 9.99896 7.14209C11.5776 7.14209 12.8573 8.42181 12.8573 10.0004C12.8573 11.579 11.5776 12.8588 9.99896 12.8588C8.42034 12.8588 7.14062 11.579 7.14062 10.0004Z" fill="#B4B8BE"/>
</svg>
