<svg width="177" height="30" viewBox="0 0 177 30" fill="none" xmlns="http://www.w3.org/2000/svg">
<path d="M51.4275 12.9284H51.5675L51.5411 12.7908C50.9189 9.54811 48.0909 7.0132 43.8923 7.0132C39.1836 7.0132 35.7046 10.4139 35.7046 15.0528C35.7046 19.6917 39.1836 23.0924 43.8923 23.0924C48.1283 23.0924 51.2177 20.2047 51.6899 17.1068L51.7102 16.9736H51.5756H48.169H48.0731L48.0553 17.0678C47.9329 17.7147 47.4472 18.3902 46.7161 18.9063C45.987 19.421 45.0243 19.7692 43.9664 19.7692C41.2911 19.7692 39.3055 17.7854 39.3055 15.0528C39.3055 12.302 41.2908 10.3364 43.9664 10.3364C46.0948 10.3364 47.5727 11.4616 47.9085 12.84L47.93 12.9284H48.0209H51.4275Z" fill="#3284FF" stroke="#3284FF" stroke-width="0.231422"/>
<path d="M17.939 22.6083V22.724H18.0547H21.4242H21.5399V22.6083V14.7481L24.8243 20.1872L24.858 20.2431H24.9233H26.9598H27.0251L27.0589 20.1872L30.3432 14.7481V22.6083V22.724H30.4589H33.8284H33.9442V22.6083V7.51953V7.40382H33.8284H31.1439H31.0793L31.0454 7.45883L25.9416 15.7413L20.8377 7.45883L20.8038 7.40382H20.7392H18.0547H17.939V7.51953V22.6083Z" fill="#3284FF" stroke="#3284FF" stroke-width="0.231422"/>
<path d="M15.9587 12.9284H16.0987L16.0723 12.7908C15.4502 9.54811 12.6222 7.0132 8.42358 7.0132C3.71485 7.0132 0.235851 10.4139 0.235851 15.0528C0.235851 19.6917 3.71485 23.0924 8.42358 23.0924C12.6595 23.0924 15.749 20.2047 16.2212 17.1068L16.2415 16.9736H16.1068H12.7003H12.6044L12.5866 17.0678C12.4642 17.7147 11.9785 18.3902 11.2473 18.9063C10.5183 19.421 9.55552 19.7692 8.49763 19.7692C5.82238 19.7692 3.83679 17.7854 3.83679 15.0528C3.83679 12.302 5.82209 10.3364 8.49763 10.3364C10.6261 10.3364 12.104 11.4616 12.4397 12.84L12.4612 12.9284H12.5522H15.9587Z" fill="#3284FF" stroke="#3284FF" stroke-width="0.231422"/>
<path d="M176.223 11.4488H176.384L176.378 11.287C176.336 10.1475 175.633 9.13835 174.503 8.42037C173.373 7.70219 171.805 7.26592 169.992 7.26592C168.208 7.26592 166.659 7.66123 165.55 8.37442C164.437 9.08991 163.765 10.1294 163.765 11.3988C163.765 12.5274 164.147 13.4844 165.115 14.2238C166.073 14.9548 167.59 15.4631 169.84 15.7427C172.052 16.0208 173.435 16.3893 174.263 16.885C174.674 17.1307 174.943 17.4045 175.11 17.7099C175.278 18.0155 175.351 18.3642 175.351 18.7695C175.351 19.6532 174.825 20.4178 173.909 20.969C172.991 21.5209 171.695 21.8481 170.204 21.8481C166.532 21.8481 165.07 20.2033 164.924 18.911L164.908 18.7726H164.769H163.629H163.455L163.474 18.9458C163.725 21.2041 165.999 23.1675 170.125 23.1675C171.961 23.1675 173.616 22.7658 174.818 22.0102C176.023 21.252 176.776 20.1327 176.776 18.7165C176.776 17.6221 176.364 16.6855 175.359 15.9618C174.366 15.246 172.803 14.7448 170.514 14.4785C168.239 14.214 166.907 13.7929 166.145 13.2534C165.768 12.9863 165.532 12.691 165.389 12.3701C165.245 12.0476 165.19 11.69 165.19 11.2928C165.19 10.5583 165.659 9.88573 166.499 9.38882C167.338 8.89251 168.528 8.58533 169.913 8.58533C171.337 8.58533 172.589 8.89274 173.489 9.39104C174.392 9.89101 174.917 10.5671 174.953 11.3005L174.961 11.4488H175.109H176.223Z" fill="#3284FF" stroke="#3284FF" stroke-width="0.311919"/>
<path d="M146.547 7.6331H146.391V7.78906V16.5649C146.391 18.5458 147.004 20.1961 148.062 21.353C149.121 22.5109 150.616 23.1636 152.353 23.1636C154.237 23.1636 155.716 22.4651 156.764 21.5966C157.469 21.0127 157.984 20.3481 158.295 19.7616V22.6364V22.7924H158.451H159.565H159.721V22.6364V7.78906V7.6331H159.565H158.451H158.295V7.78906V15.5309C158.295 17.041 157.668 18.6163 156.636 19.8137C155.605 21.0104 154.18 21.8176 152.592 21.8176C151.116 21.8176 149.928 21.3396 149.108 20.4339C148.287 19.5262 147.816 18.1694 147.816 16.3793V7.78906V7.6331H147.66H146.547Z" fill="#3284FF" stroke="#3284FF" stroke-width="0.311919"/>
<path d="M142.262 1.05469V0.898728H142.106H140.992H140.836V1.05469V22.6364V22.7923H140.992H142.106H142.262V22.6364V1.05469Z" fill="#3284FF" stroke="#3284FF" stroke-width="0.311919"/>
<path d="M122.035 29.0566V29.2125H122.191H123.305H123.461V29.0566V19.8024C124.361 21.4045 126.546 23.1676 129.695 23.1676C133.956 23.1676 137.062 19.6911 137.062 15.2167C137.062 10.7424 133.956 7.26592 129.695 7.26592C126.546 7.26592 124.361 9.02899 123.461 10.631V7.79306V7.6371H123.305H122.191H122.035V7.79306V29.0566ZM135.637 15.2167C135.637 18.9659 133.224 21.8216 129.615 21.8216C126.001 21.8216 123.434 18.9604 123.434 15.2167C123.434 11.4731 126.001 8.61185 129.615 8.61185C133.224 8.61185 135.637 11.4675 135.637 15.2167Z" fill="#3284FF" stroke="#3284FF" stroke-width="0.311919"/>
<path d="M118.162 15.8764H118.29L118.315 15.7511C118.345 15.6031 118.345 15.3795 118.345 15.2271V15.2167C118.345 10.7155 115.238 7.26592 110.977 7.26592C106.716 7.26592 103.61 10.7155 103.61 15.2167C103.61 19.7179 106.716 23.1675 110.977 23.1675C114.267 23.1675 116.826 21.3857 117.673 18.9534L117.745 18.7461H117.526H116.306H116.199L116.16 18.8468C115.526 20.5215 113.581 21.8216 110.977 21.8216C107.681 21.8216 105.344 19.3055 105.073 15.8764H118.162ZM116.882 14.5305H105.073C105.344 11.1031 107.68 8.61185 110.977 8.61185C114.274 8.61185 116.61 11.1031 116.882 14.5305Z" fill="#3284FF" stroke="#3284FF" stroke-width="0.311919"/>
<path d="M92.9065 22.6404V22.7964H93.0625H94.1761H94.332V22.6404V14.8986C94.332 11.8704 96.9783 8.61185 100.486 8.61185C101.378 8.61185 102.044 8.71723 102.52 8.91778L102.737 9.00893V8.77405V7.68701V7.57666L102.633 7.53994C102.16 7.37302 101.531 7.26592 100.539 7.26592C97.2653 7.26592 95.1594 9.23795 94.332 10.7382V7.79306V7.6371H94.1761H93.0625H92.9065V7.79306V22.6404Z" fill="#3284FF" stroke="#3284FF" stroke-width="0.311919"/>
<path d="M87.07 7.6371H86.914V7.79306V10.631C86.0144 9.02899 83.8289 7.26592 80.6803 7.26592C76.4192 7.26592 73.3128 10.7424 73.3128 15.2167C73.3128 19.6911 76.4192 23.1675 80.6803 23.1675C83.8289 23.1675 86.0144 21.4045 86.914 19.8024V22.6404V22.7964H87.07H88.1835H88.3395V22.6404V7.79306V7.6371H88.1835H87.07ZM86.9405 15.2167C86.9405 18.9604 84.3741 21.8216 80.7599 21.8216C77.1506 21.8216 74.7383 18.9659 74.7383 15.2167C74.7383 11.4675 77.1506 8.61185 80.7599 8.61185C84.3741 8.61185 86.9405 11.4731 86.9405 15.2167Z" fill="#3284FF" stroke="#3284FF" stroke-width="0.311919"/>
<path d="M70.4057 17.9086L70.4586 17.7121H70.2551H69.115H68.9998L68.966 17.8222C68.2429 20.1721 66.1804 21.8216 63.5473 21.8216C59.9621 21.8216 57.4726 18.9897 57.4726 15.2167C57.4726 11.4438 59.9621 8.61185 63.5473 8.61185C66.1535 8.61185 68.1647 10.2083 68.9404 12.5612L68.9757 12.6684H69.0885H70.2286H70.4361L70.3784 12.469C69.4851 9.383 66.828 7.26592 63.5473 7.26592C59.2363 7.26592 56.0472 10.7124 56.0472 15.2167C56.0472 19.7226 59.2643 23.1675 63.6268 23.1675C66.9084 23.1675 69.5662 21.0228 70.4057 17.9086Z" fill="#3284FF" stroke="#3284FF" stroke-width="0.311919"/>
</svg>
