<svg width="77" height="18" viewBox="0 0 77 18" fill="none" xmlns="http://www.w3.org/2000/svg">
<path d="M10.24 10.564C9.76 12.74 7.936 14.164 5.568 14.164C2.672 14.164 0.592 12.1 0.592 9.252C0.592 6.404 2.672 4.34 5.568 4.34C8.016 4.34 9.856 5.908 10.192 7.908H7.312C7.088 7.268 6.464 6.82 5.568 6.82C4.24 6.82 3.376 7.844 3.376 9.252C3.376 10.66 4.24 11.684 5.568 11.684C6.448 11.684 7.104 11.236 7.36 10.564H10.24ZM15.8551 14.164C13.1671 14.164 11.2951 12.1 11.2951 9.252C11.2951 6.404 13.1671 4.34 15.8551 4.34C17.0871 4.34 17.9831 4.772 18.5431 5.524V4.564H21.3911V13.94H18.5431V12.98C17.9831 13.732 17.0871 14.164 15.8551 14.164ZM16.3031 11.732C17.6951 11.732 18.5911 10.692 18.5911 9.252C18.5911 7.812 17.6951 6.772 16.3031 6.772C14.9431 6.772 14.0791 7.812 14.0791 9.252C14.0791 10.692 14.9431 11.732 16.3031 11.732ZM23.5408 13.94V4.564H26.3888V5.524C26.9488 4.772 27.8128 4.34 29.0128 4.34C29.5408 4.34 29.8768 4.372 30.2448 4.5L30.2768 7.172C29.8768 6.964 29.3808 6.852 28.8208 6.852C27.3008 6.852 26.3888 7.716 26.3888 9.14V13.94H23.5408ZM35.6908 14.164C32.8268 14.164 30.8108 12.116 30.8108 9.252C30.8108 6.404 32.8268 4.34 35.6908 4.34C38.5548 4.34 40.5708 6.388 40.5708 9.252C40.5708 9.524 40.5548 9.828 40.5068 10.164H33.6428C33.8668 11.252 34.6188 11.876 35.6908 11.876C36.5068 11.876 37.1788 11.588 37.4188 11.14H40.2828C39.8028 12.932 37.9628 14.164 35.6908 14.164ZM33.6268 8.324H37.7868C37.5468 7.204 36.8108 6.596 35.6908 6.596C34.5708 6.596 33.8668 7.204 33.6268 8.324ZM47.3639 14.052C45.6999 14.052 44.5799 13.252 44.1159 12.468V17.716H42.4679V4.676H44.1159V6.036C44.5799 5.252 45.6999 4.452 47.3639 4.452C49.9559 4.452 51.8919 6.516 51.8919 9.252C51.8919 11.988 49.9559 14.052 47.3639 14.052ZM47.2199 12.596C49.0599 12.596 50.2759 11.156 50.2759 9.252C50.2759 7.348 49.0599 5.908 47.2199 5.908C45.3639 5.908 44.0839 7.348 44.0839 9.252C44.0839 11.156 45.3639 12.596 47.2199 12.596ZM55.6471 13.828H53.9991V0.612H55.6471V13.828ZM66.4575 13.828H64.8095V12.436C64.4255 13.108 63.3855 14.052 61.7055 14.052C59.5455 14.052 58.0255 12.5 58.0255 10.036V4.676H59.6735V9.748C59.6735 11.604 60.5695 12.612 62.0575 12.612C63.6575 12.612 64.8095 11.108 64.8095 9.412V4.676H66.4575V13.828ZM72.646 4.452C74.886 4.452 76.566 5.556 76.646 7.108H75.03C74.966 6.34 73.926 5.796 72.598 5.796C71.27 5.796 70.31 6.324 70.31 7.012C70.31 7.764 70.886 8.228 73.126 8.532C75.878 8.9 76.854 9.796 76.854 11.22C76.854 12.996 74.982 14.052 72.71 14.052C70.262 14.052 68.694 12.868 68.582 11.268H70.198C70.294 11.988 71.126 12.708 72.758 12.708C74.166 12.708 75.238 12.132 75.238 11.316C75.238 10.564 74.534 10.132 72.342 9.844C69.846 9.508 68.694 8.708 68.694 7.108C68.694 5.492 70.406 4.452 72.646 4.452Z" fill="#B4B8BE"/>
</svg>
