<svg width="179" height="116" viewBox="0 0 179 116" fill="none" xmlns="http://www.w3.org/2000/svg">
<path d="M135.226 11.6656C121.321 5.82913 104.644 2.87445 89.4688 2.87445C74.2941 2.87445 57.6092 5.82913 43.7112 11.6656C42.8065 12.1179 42.3688 12.5119 42.3688 13.5405V60.626C42.3688 61.6546 42.8065 62.0486 43.7112 62.5009C57.6165 68.3374 74.2941 71.2994 89.4688 71.2994C104.644 71.2994 121.321 68.3374 135.226 62.5009C136.131 62.0486 136.569 61.6546 136.569 60.626V13.5405C136.569 12.5119 136.131 12.1106 135.226 11.6656ZM121.504 12.417C121.97 10.7391 123.379 9.87087 124.932 10.3013C125.363 10.418 125.706 10.6004 125.99 10.8558L126.012 10.8704L125.713 11.6948L125.669 11.6437C125.421 11.3592 125.115 11.1695 124.757 11.0673C124.261 10.9287 123.78 10.9798 123.357 11.2205C122.868 11.4978 122.496 12.0085 122.313 12.6578C122.131 13.2998 122.189 13.9272 122.474 14.4233C122.707 14.8391 123.094 15.1383 123.554 15.2623C123.875 15.3498 124.378 15.3936 124.677 15.2915L124.735 15.2696L124.546 16.1305H124.524C124.196 16.1888 123.809 16.1523 123.335 16.021C121.73 15.576 121.015 14.1534 121.504 12.4024V12.417ZM114.85 8.0178V7.98133L115.645 8.14183L114.514 13.7813L113.719 13.6281L114.85 8.0178ZM105.497 6.52222V6.48575L106.3 6.58787C106.3 6.58787 105.658 11.4394 105.65 11.5124C105.723 11.5197 107.773 11.7896 107.773 11.7896L107.671 12.5702L104.753 12.1836L105.504 6.51491L105.497 6.52222ZM93.5981 8.43365C93.6492 7.47063 93.9848 6.66813 94.5465 6.15744C94.9988 5.74889 95.5898 5.5519 96.2537 5.58109C97.742 5.66134 98.6831 6.90158 98.5956 8.68169C98.5445 9.652 98.2162 10.4618 97.6617 10.9579C97.2094 11.3665 96.6185 11.5634 95.9473 11.527C95.2761 11.4905 94.707 11.2351 94.2985 10.7828C93.8024 10.2284 93.5543 9.39667 93.6054 8.42637L93.5981 8.43365ZM83.6835 5.61758C83.6835 5.61758 83.7564 7.92295 83.7637 7.99591C83.8367 7.99591 86.0618 7.91567 86.1348 7.91567C86.1348 7.84271 86.0545 5.53731 86.0545 5.53731L86.8278 5.50815H86.8643L87.054 11.257L86.2442 11.2862C86.2442 11.2862 86.1639 8.76925 86.1639 8.6963C86.091 8.6963 83.8658 8.77654 83.7929 8.77654C83.7929 8.84949 83.8804 11.3665 83.8804 11.3665L83.0706 11.3956L82.881 5.63946L83.6908 5.61027L83.6835 5.61758ZM82.1441 13.577C84.7267 13.4238 87.2072 13.3436 89.4907 13.3436C100.398 13.3436 115.908 15.0945 125.48 18.4796H82.1441V13.5697V13.577ZM82.1441 21.1133H127.719C127.719 21.2227 127.734 21.3249 127.734 21.4197V22.7183H87.1343V33.8222H105.818V35.4345H82.1441V21.1133ZM89.7534 31.1958V29.5834H127.734V31.1958H89.7534ZM127.734 33.8222V35.4345H108.445V33.8222H127.734ZM89.7534 26.9643V25.352H127.734V26.9643H89.7534ZM105.818 38.0609V48.1433H73.4624V46.531H100.208V39.6659H73.4624V18.4577H53.5602C60.4617 16.0283 70.4202 14.4452 79.5177 13.7448V38.0536H105.818V38.0609ZM76.3368 6.12097H76.3733L76.4609 6.90158C76.4609 6.90158 74.9507 7.06938 74.885 7.08397C74.8923 7.15692 75.4395 12.0158 75.4395 12.0158L74.637 12.1033C74.637 12.1033 74.0898 7.23718 74.0825 7.16423C74.0096 7.16423 72.4994 7.34662 72.4994 7.34662L72.4118 6.55869L76.3368 6.11367V6.12097ZM64.1533 7.90837L64.9339 7.76247H64.9558L68.1877 13.0007L67.3269 13.1685C67.3269 13.1685 66.5681 11.9063 66.5462 11.8626C66.4952 11.8699 64.1825 12.3149 64.1314 12.3222C64.1241 12.3733 63.8907 13.8251 63.8907 13.8251L63.059 13.9856L64.146 7.91567L64.1533 7.90837ZM53.2683 11.2205C53.6112 10.6077 54.1803 10.1773 54.9025 9.97302C55.333 9.84899 55.7196 9.8271 56.0917 9.89276H56.1209L56.296 10.7609L56.2376 10.739C55.8801 10.6223 55.5154 10.6223 55.1579 10.7172C54.6691 10.8558 54.2824 11.1549 54.0417 11.5707C53.7644 12.0668 53.7134 12.6943 53.8958 13.3436C54.2386 14.5619 55.2527 15.2331 56.3106 14.934C56.6316 14.8464 57.0839 14.6203 57.2882 14.3795L57.332 14.3285L57.6165 15.1601L57.5946 15.1747C57.3466 15.3863 56.9818 15.5614 56.5149 15.6927C55.778 15.9043 55.0703 15.8386 54.4794 15.4957C53.8155 15.1237 53.3267 14.4452 53.0714 13.5405C52.8306 12.6942 52.9036 11.8626 53.2756 11.206L53.2683 11.2205ZM51.2475 21.4197C51.2475 21.3176 51.2475 21.2081 51.2621 21.0841H70.8287V39.6659H51.2402V21.4124L51.2475 21.4197ZM51.2475 42.2996H97.5742V43.9119H70.836V50.777H108.445V38.0681H127.734V51.492C127.719 52.0318 127.654 52.8635 127.282 53.345C126.975 53.7536 126.545 54.0016 126.268 54.1329C121.489 55.9276 115.069 57.2846 108.445 58.1966V52.382H51.3277C51.2694 52.061 51.2548 51.74 51.2475 51.4847V42.2923V42.2996ZM105.818 55.0084V58.5322C100.084 59.2179 94.335 59.5608 89.4907 59.5608C79.2332 59.5608 64.9412 58.0069 55.2892 55.0084H105.818ZM50.9119 62.4717C50.3647 62.2821 49.9853 61.9683 49.7738 61.5306C49.5111 60.9907 49.5184 60.2904 49.803 59.4587L50.8827 56.3143L50.8973 56.2778L51.6633 56.5405L50.6055 59.6265C50.3647 60.3196 50.3355 60.8302 50.5179 61.195C50.6419 61.4431 50.8535 61.6182 51.1745 61.7276C51.4882 61.837 51.7728 61.8297 52.0135 61.713C52.3783 61.5379 52.6701 61.1148 52.9036 60.4217L53.9614 57.3357L54.7202 57.5983L53.6258 60.7865C53.1078 62.3039 52.1375 62.9022 50.9046 62.479L50.9119 62.4717ZM57.3101 64.3686C57.3101 64.3686 56.4492 59.5608 56.4054 59.3347C56.3398 59.5681 55.1287 63.7412 55.1287 63.7412L54.3554 63.515L55.9531 58.0215L55.9677 57.985L56.9818 58.2841C56.9818 58.2841 57.8135 62.9678 57.8572 63.2013C57.9229 62.9678 59.1121 58.8969 59.1121 58.8969L59.8854 59.1231L58.2804 64.6531L57.3247 64.3759L57.3101 64.3686ZM60.6514 65.2513L59.8708 65.0544L61.2716 59.5098V59.4733L62.0595 59.6703L60.6441 65.2513H60.6514ZM63.5186 65.9298L62.8474 59.9402V59.8891L63.7229 60.0788C63.7229 60.0788 64.1752 65.0325 64.1971 65.2076C64.2846 65.0544 66.8089 60.7573 66.8089 60.7573L67.6406 60.9397L64.4743 66.1414L63.5259 65.9371L63.5186 65.9298ZM71.1716 62.355C71.1716 62.355 69.1434 61.9975 69.0705 61.9902C69.0559 62.0559 68.8078 63.4858 68.7933 63.5515C68.8662 63.5661 70.7047 63.8871 70.7047 63.8871L70.5661 64.6677C70.5661 64.6677 68.7203 64.3394 68.6546 64.3321C68.64 64.4051 68.3555 66.0393 68.3409 66.1049C68.4139 66.1195 70.442 66.477 70.442 66.477L70.3034 67.2576L67.4071 66.7469L68.3993 61.1148V61.0783L71.2956 61.589L71.157 62.3696L71.1716 62.355ZM75.4979 63.763C75.4103 64.4051 74.9361 64.8574 74.3087 64.9158C74.4911 65.0398 74.5859 65.193 74.6881 65.5359L75.3592 67.9653L74.4546 67.8413L73.9366 65.762C73.7907 65.2076 73.5791 65.1784 73.1925 65.1273C73.1925 65.1273 72.8569 65.0836 72.7912 65.0763C72.7839 65.1492 72.4483 67.5786 72.4483 67.5786L71.6458 67.4692L72.4191 61.8005V61.7641L73.7032 61.9392C74.2868 62.0194 74.9215 62.158 75.2644 62.6104C75.4322 62.8292 75.5125 63.1064 75.5125 63.442C75.5125 63.5442 75.5052 63.6536 75.4906 63.7703L75.4979 63.763ZM78.1534 64.7917C78.7444 65.1857 79.4156 65.638 79.3061 66.7178C79.1967 67.8121 78.4453 68.3666 77.2415 68.2498C76.8694 68.2133 76.5265 68.0601 76.2055 67.9069L76.1836 67.8923L76.3514 67.0679L76.3952 67.0898C76.5265 67.1701 76.9934 67.4254 77.4093 67.4692C77.6209 67.4911 77.9346 67.4473 78.1607 67.2576C78.3358 67.119 78.4307 66.922 78.4599 66.6813C78.5182 66.1195 78.1024 65.8496 77.6209 65.5359C77.0664 65.1711 76.439 64.7625 76.5338 63.7849C76.6287 62.8292 77.3436 62.2748 78.3577 62.3769C78.7225 62.4134 79.1165 62.5301 79.4375 62.6906L79.4666 62.7052L79.2697 63.515L79.2259 63.4931C78.8757 63.2961 78.6787 63.2013 78.3066 63.1648C78.1388 63.1502 77.8324 63.1429 77.6136 63.3253C77.4822 63.4348 77.402 63.5953 77.3874 63.7995C77.3436 64.2446 77.7157 64.4999 78.1534 64.7917ZM81.1738 68.4979L80.3713 68.4395L80.7871 62.7344V62.6979L81.5969 62.7563L81.1738 68.4979ZM86.4412 63.7995C86.4412 63.7995 84.9237 63.7339 84.8507 63.7266C84.8507 63.7995 84.6246 68.6875 84.6246 68.6875L83.8221 68.6511C83.8221 68.6511 84.0409 63.7631 84.0409 63.6901C83.968 63.6901 82.4505 63.6171 82.4505 63.6171L82.487 62.8657V62.8292L86.4704 63.0043L86.4339 63.7922L86.4412 63.7995ZM91.8691 63.0919C91.8691 63.0919 89.8774 66.3822 89.8774 66.3749V68.7897H89.0676C89.0676 68.7897 89.0676 66.404 89.0676 66.3821C89.053 66.3676 87.0759 63.0846 87.0759 63.0846L87.0394 63.0262H87.9805C87.9805 63.0262 89.4178 65.441 89.4761 65.5432C89.5345 65.441 90.9498 63.0335 90.9498 63.0335H91.8909L91.8618 63.0919H91.8691ZM98.5883 67.9142C98.187 68.3665 97.6179 68.6292 96.9468 68.673C95.4293 68.7678 94.386 67.6589 94.2766 65.8496C94.1745 64.0695 95.101 62.8146 96.5966 62.7271C98.0849 62.6395 99.1646 63.7703 99.2667 65.5505C99.3251 66.5208 99.0844 67.3598 98.5883 67.9142ZM101.463 68.2206L100.66 68.3009L100.084 62.5739L102.827 62.2967H102.863L102.944 63.0773C102.944 63.0773 101.04 63.2669 100.967 63.2815C100.974 63.3472 101.12 64.7917 101.127 64.8574C101.2 64.8501 103.017 64.6677 103.017 64.6677L103.097 65.4483C103.097 65.4483 101.28 65.6307 101.207 65.638C101.215 65.711 101.47 68.2133 101.47 68.2133L101.463 68.2206ZM110.582 67.0023C110.582 67.0023 109.524 67.1701 109.495 67.1555C109.495 67.1555 107.036 64.9522 106.891 64.8209C106.92 65.0106 107.306 67.5057 107.306 67.5057L106.511 67.6297L105.628 61.9392L106.424 61.8151C106.424 61.8151 106.767 64.0403 106.796 64.2227C107.051 63.8214 108.517 61.5014 108.539 61.4796L109.502 61.3336L109.583 61.3191C109.583 61.3191 107.627 64.3321 107.591 64.3832C107.635 64.4269 110.655 66.9804 110.655 66.9804H110.575L110.582 67.0023ZM113.354 66.5573C111.866 66.8564 110.677 65.9006 110.319 64.1278C109.969 62.3842 110.721 61.0126 112.187 60.7208C113.654 60.429 114.872 61.4066 115.222 63.1502C115.58 64.923 114.843 66.2581 113.354 66.5573ZM119.745 64.996L118.498 63.2524C118.162 62.7928 117.951 62.8438 117.571 62.9387C117.571 62.9387 117.243 63.0189 117.177 63.0335C117.199 63.1064 117.79 65.4848 117.79 65.4848L117.002 65.6818L115.616 60.0934L116.871 59.7797C117.44 59.6411 118.089 59.5316 118.571 59.8235C118.884 60.0131 119.089 60.3342 119.213 60.8157C119.242 60.9324 119.257 61.0564 119.257 61.1658C119.257 61.6546 118.987 62.0924 118.542 62.3258C118.753 62.3769 118.899 62.479 119.118 62.7563L120.635 64.7626L119.745 64.9814V64.996ZM121.744 64.4634L120.139 58.9334L122.926 58.1236H122.963L123.182 58.875C123.182 58.875 121.204 59.4514 121.131 59.4733C121.153 59.5389 121.555 60.9324 121.577 60.9981C121.642 60.9762 123.444 60.4582 123.444 60.4582L123.663 61.2169C123.663 61.2169 121.868 61.7349 121.795 61.7568C121.817 61.8224 122.277 63.4202 122.299 63.4858C122.364 63.4639 124.349 62.8949 124.349 62.8949L124.568 63.6536L121.744 64.4707V64.4634ZM129.412 62.0486C129.412 62.0486 128.493 60.8959 128.464 60.8594C128.42 60.874 126.187 61.6255 126.136 61.64C126.136 61.6911 126.1 63.1648 126.1 63.1648L125.297 63.4348L125.56 57.27L126.311 57.0147H126.333L130.244 61.7641L129.412 62.0413V62.0486ZM95.9837 10.739C96.3996 10.7609 96.7644 10.6369 97.0489 10.3816C97.4502 10.0168 97.6982 9.38207 97.7347 8.64522C97.7712 7.90837 97.5815 7.25177 97.2094 6.84322C96.9468 6.5514 96.6039 6.39818 96.2026 6.3763C95.8014 6.35441 95.4439 6.47116 95.1521 6.73379C94.7362 7.10587 94.4809 7.73327 94.4444 8.47742C94.3933 9.4842 94.7654 10.6807 95.9764 10.7463L95.9837 10.739ZM126.151 60.8594C126.246 60.8303 127.887 60.2758 127.982 60.2393C127.924 60.1664 126.333 58.1674 126.216 58.0142C126.216 58.2039 126.158 60.7573 126.158 60.8594H126.151ZM138.889 10.7026C138.437 10.0168 137.802 9.63013 137.444 9.44774C123.349 3.37785 105.811 0 89.4834 0C73.156 0 55.6175 3.37785 41.5225 9.44774C41.165 9.63013 40.523 10.0241 40.078 10.7026C39.5892 11.4394 39.5017 12.7088 39.4871 13.5259V60.6406C39.5017 61.4577 39.5892 62.7198 40.078 63.4639C40.4865 64.084 41.0483 64.4634 41.4204 64.6677C55.5446 70.7741 73.1195 74.1665 89.4907 74.1665C105.862 74.1665 123.43 70.7741 137.554 64.6677C137.919 64.4634 138.488 64.084 138.896 63.4639C139.385 62.7198 139.472 61.4577 139.487 60.6406V13.5259C139.472 12.7088 139.385 11.4394 138.896 10.7026H138.889ZM137.568 60.6624C137.568 61.6619 137.452 61.9246 137.306 62.2748C137.087 62.7855 136.481 63.1065 136.481 63.1065C122.532 69.2566 105.11 72.3134 89.4761 72.3134C73.8418 72.3134 56.42 69.2493 42.4709 63.1065C42.4709 63.1065 41.8654 62.7855 41.6465 62.2748C41.5006 61.9246 41.3839 61.6619 41.3839 60.6624V13.5551C41.3839 12.5556 41.5006 12.293 41.6465 11.9428C41.8654 11.4321 42.4709 11.1184 42.4709 11.1184C56.42 4.96826 73.8418 1.90415 89.4761 1.90415C105.11 1.90415 122.525 4.96826 136.481 11.1184C136.481 11.1184 137.087 11.4321 137.306 11.9428C137.459 12.293 137.568 12.5556 137.568 13.5551V60.6624ZM97.6982 63.8652C97.4064 63.6026 97.0489 63.4931 96.6403 63.515C96.2391 63.5369 95.8962 63.6974 95.6409 63.9892C95.2761 64.4051 95.0864 65.0617 95.1302 65.7985C95.1739 66.5427 95.4293 67.1701 95.8378 67.5275C96.1297 67.7829 96.4871 67.8996 96.9103 67.8777C97.3261 67.8486 97.669 67.6954 97.9317 67.4035C98.2891 67.0023 98.4715 66.3457 98.4278 65.6015C98.384 64.8647 98.1213 64.23 97.7055 63.8652H97.6982ZM73.7761 62.7344C73.7761 62.7344 73.1852 62.6541 73.1195 62.6468C73.1122 62.7198 72.9079 64.2154 72.8934 64.2883C72.959 64.2883 73.477 64.3686 73.477 64.3686C73.8418 64.4197 74.1482 64.3613 74.3598 64.2008C74.5203 64.0768 74.6224 63.9017 74.6516 63.6682C74.6516 63.6245 74.6589 63.5807 74.6589 63.5369C74.6589 63.1064 74.3452 62.8146 73.7761 62.7417V62.7344ZM113.435 61.6984C113.106 61.4868 112.742 61.4139 112.34 61.5014C111.939 61.5744 111.633 61.7787 111.414 62.107C111.107 62.5666 111.013 63.2451 111.158 63.9673C111.355 64.9522 112.012 66.0247 113.209 65.7839C113.617 65.6964 113.938 65.4921 114.15 65.1711C114.449 64.7188 114.536 64.0476 114.39 63.318C114.244 62.5958 113.902 62.0048 113.435 61.6984ZM117.236 60.5019C117.236 60.5019 116.652 60.6479 116.586 60.6624C116.601 60.7281 116.966 62.2018 116.988 62.2675C117.082 62.2456 117.557 62.1289 117.557 62.1289C118.111 61.9902 118.418 61.6765 118.418 61.268C118.418 61.195 118.41 61.1221 118.388 61.0491C118.264 60.553 117.841 60.356 117.236 60.5092V60.5019ZM64.7078 8.73277C64.6786 8.92245 64.2773 11.4394 64.2627 11.5343C64.3576 11.5124 66.0647 11.1914 66.1596 11.1695C66.1085 11.0819 64.8026 8.89326 64.7078 8.72546V8.73277Z" fill="white"/>
<path d="M52.2813 98.5823H52.4219L52.3954 98.4442C51.7708 95.1886 48.9315 92.6436 44.7162 92.6436C39.9887 92.6436 36.4959 96.0578 36.4959 100.715C36.4959 105.373 39.9887 108.787 44.7162 108.787C48.969 108.787 52.0707 105.888 52.5448 102.777L52.5652 102.644H52.43H49.0099H48.9137L48.8958 102.738C48.7729 103.388 48.2852 104.066 47.5512 104.584C46.8192 105.101 45.8526 105.45 44.7906 105.45C42.1047 105.45 40.1112 103.459 40.1112 100.715C40.1112 97.9535 42.1044 95.98 44.7906 95.98C46.9275 95.98 48.4112 97.1097 48.7483 98.4936L48.7699 98.5823H48.8612H52.2813Z" fill="white" stroke="white" stroke-width="0.232343"/>
<path d="M18.6546 108.299V108.415H18.7708H22.1537H22.2698V108.299V100.408L25.5673 105.869L25.6011 105.925H25.6667H27.7113H27.7769L27.8108 105.869L31.1082 100.408V108.299V108.415H31.2244H34.6073H34.7235V108.299V93.1504V93.0342H34.6073H31.9121H31.8472L31.8132 93.0894L26.689 101.405L21.5648 93.0894L21.5308 93.0342H21.4659H18.7708H18.6546V93.1504V108.299Z" fill="white" stroke="white" stroke-width="0.232343"/>
<path d="M16.6692 98.5823H16.8098L16.7833 98.4442C16.1587 95.1886 13.3194 92.6436 9.10414 92.6436C4.37667 92.6436 0.883828 96.0578 0.883828 100.715C0.883828 105.373 4.37667 108.787 9.10414 108.787C13.357 108.787 16.4587 105.888 16.9328 102.777L16.9532 102.644H16.8179H13.3978H13.3016L13.2837 102.738C13.1608 103.388 12.6732 104.066 11.9391 104.584C11.2072 105.101 10.2406 105.45 9.17849 105.45C6.49259 105.45 4.49909 103.459 4.49909 100.715C4.49909 97.9535 6.4923 95.98 9.17849 95.98C11.3154 95.98 12.7992 97.1097 13.1363 98.4936L13.1579 98.5823H13.2491H16.6692Z" fill="white" stroke="white" stroke-width="0.232343"/>
<path d="M177.575 97.0931H177.737L177.731 96.9307C177.689 95.7866 176.983 94.7735 175.849 94.0526C174.714 93.3316 173.14 92.8936 171.32 92.8936C169.529 92.8936 167.973 93.2905 166.859 94.0065C165.742 94.7248 165.067 95.7685 165.067 97.043C165.067 98.176 165.451 99.1368 166.423 99.8792C167.385 100.613 168.908 101.123 171.167 101.404C173.388 101.683 174.776 102.053 175.608 102.551C176.02 102.798 176.29 103.073 176.458 103.379C176.627 103.686 176.7 104.036 176.7 104.443C176.7 105.33 176.172 106.098 175.252 106.651C174.33 107.205 173.029 107.534 171.533 107.534C167.846 107.534 166.378 105.882 166.231 104.585L166.216 104.446H166.076H164.931H164.756L164.776 104.62C165.027 106.887 167.31 108.859 171.453 108.859C173.296 108.859 174.958 108.455 176.164 107.697C177.375 106.935 178.131 105.812 178.131 104.39C178.131 103.291 177.716 102.351 176.708 101.624C175.711 100.905 174.142 100.402 171.843 100.135C169.559 99.8693 168.222 99.4466 167.457 98.9049C167.079 98.6367 166.842 98.3402 166.698 98.0181C166.553 97.6943 166.499 97.3353 166.499 96.9365C166.499 96.1991 166.969 95.5238 167.812 95.0249C168.655 94.5267 169.85 94.2183 171.24 94.2183C172.67 94.2183 173.927 94.5269 174.831 95.0272C175.737 95.5291 176.264 96.208 176.301 96.9442L176.308 97.0931H176.457H177.575Z" fill="white" stroke="white" stroke-width="0.31316"/>
<path d="M147.783 93.266H147.626V93.4226V102.233C147.626 104.222 148.242 105.879 149.304 107.041C150.367 108.203 151.868 108.858 153.612 108.858C155.503 108.858 156.988 108.157 158.041 107.285C158.749 106.699 159.265 106.032 159.578 105.443V108.329V108.486H159.734H160.852H161.009V108.329V93.4226V93.266H160.852H159.734H159.578V93.4226V101.195C159.578 102.711 158.948 104.293 157.912 105.495C156.877 106.697 155.447 107.507 153.852 107.507C152.37 107.507 151.178 107.027 150.354 106.118C149.529 105.206 149.057 103.844 149.057 102.047V93.4226V93.266H148.901H147.783Z" fill="white" stroke="white" stroke-width="0.31316"/>
<path d="M143.476 86.6595V86.503H143.32H142.202H142.045V86.6595V108.327V108.484H142.202H143.32H143.476V108.327V86.6595Z" fill="white" stroke="white" stroke-width="0.31316"/>
<path d="M123.173 114.771V114.928H123.33H124.448H124.604V114.771V105.48C125.507 107.088 127.702 108.859 130.863 108.859C135.141 108.859 138.26 105.368 138.26 100.876C138.26 96.3839 135.141 92.8936 130.863 92.8936C127.702 92.8936 125.507 94.6637 124.604 96.2721V93.4228V93.2663H124.448H123.33H123.173V93.4228V114.771ZM136.828 100.876C136.828 104.64 134.406 107.507 130.783 107.507C127.154 107.507 124.578 104.635 124.578 100.876C124.578 97.1175 127.154 94.2449 130.783 94.2449C134.406 94.2449 136.828 97.1119 136.828 100.876Z" fill="white" stroke="white" stroke-width="0.31316"/>
<path d="M119.284 101.538H119.412L119.437 101.413C119.467 101.264 119.467 101.039 119.467 100.886V100.876C119.467 96.3569 116.348 92.8936 112.07 92.8936C107.792 92.8936 104.673 96.3569 104.673 100.876C104.673 105.395 107.792 108.859 112.07 108.859C115.373 108.859 117.942 107.07 118.793 104.628L118.865 104.419H118.645H117.42H117.312L117.274 104.521C116.637 106.202 114.684 107.507 112.07 107.507C108.761 107.507 106.414 104.981 106.142 101.538H119.284ZM117.998 100.187H106.142C106.414 96.7461 108.76 94.2449 112.07 94.2449C115.38 94.2449 117.725 96.7461 117.998 100.187Z" fill="white" stroke="white" stroke-width="0.31316"/>
<path d="M93.9308 108.329V108.486H94.0874H95.2054H95.362V108.329V100.557C95.362 97.5164 98.0188 94.2449 101.541 94.2449C102.436 94.2449 103.105 94.3507 103.583 94.552L103.8 94.6435V94.4077V93.3164V93.2056L103.696 93.1687C103.221 93.0011 102.589 92.8936 101.594 92.8936C98.3069 92.8936 96.1927 94.8735 95.362 96.3797V93.4228V93.2663H95.2054H94.0874H93.9308V93.4228V108.329Z" fill="white" stroke="white" stroke-width="0.31316"/>
<path d="M88.0709 93.2663H87.9143V93.4228V96.2721C87.0111 94.6637 84.8169 92.8936 81.6558 92.8936C77.3777 92.8936 74.2589 96.3839 74.2589 100.876C74.2589 105.368 77.3777 108.859 81.6558 108.859C84.8169 108.859 87.0111 107.088 87.9143 105.48V108.329V108.486H88.0709H89.1889H89.3454V108.329V93.4228V93.2663H89.1889H88.0709ZM87.9409 100.876C87.9409 104.635 85.3643 107.507 81.7356 107.507C78.1121 107.507 75.6901 104.64 75.6901 100.876C75.6901 97.1119 78.1121 94.2449 81.7356 94.2449C85.3643 94.2449 87.9409 97.1175 87.9409 100.876Z" fill="white" stroke="white" stroke-width="0.31316"/>
<path d="M71.336 103.579L71.3892 103.381H71.1848H70.0402H69.9245L69.8905 103.492C69.1646 105.851 67.0939 107.507 64.4503 107.507C60.8508 107.507 58.3515 104.664 58.3515 100.876C58.3515 97.0881 60.8508 94.2449 64.4503 94.2449C67.0669 94.2449 69.0861 95.8477 69.8649 98.21L69.9003 98.3175H70.0136H71.1582H71.3665L71.3086 98.1174C70.4117 95.0191 67.7441 92.8936 64.4503 92.8936C60.1222 92.8936 56.9203 96.3538 56.9203 100.876C56.9203 105.4 60.1502 108.859 64.5301 108.859C67.8247 108.859 70.4932 106.705 71.336 103.579Z" fill="white" stroke="white" stroke-width="0.31316"/>
</svg>
