<svg width="24" height="24" viewBox="0 0 24 24" fill="none" xmlns="http://www.w3.org/2000/svg">
<path d="M20.4306 15.9483L18.9106 14.7683C18.8006 14.6783 18.7306 14.5483 18.7206 14.4083L18.3506 9.33828C18.1206 6.17828 15.4906 3.73828 12.3306 3.73828C9.17055 3.73828 6.54055 6.17828 6.31055 9.33828L5.94055 14.4083C5.93055 14.5483 5.86055 14.6783 5.75055 14.7683L4.23055 15.9483C3.29055 16.6783 3.81055 18.1783 5.00055 18.1783H19.6706C20.8606 18.1783 21.3706 16.6783 20.4406 15.9483H20.4306Z" stroke="#3284FF" stroke-width="1.5" stroke-linecap="round" stroke-linejoin="round"/>
<path d="M9.26953 18.1797C9.26953 19.8397 10.6795 21.2497 12.3395 21.2497C13.9995 21.2497 15.4095 19.8397 15.4095 18.1797" stroke="#3284FF" stroke-width="1.5" stroke-linecap="round" stroke-linejoin="round"/>
</svg>
