<svg width="16" height="16" viewBox="0 0 16 16" fill="none" xmlns="http://www.w3.org/2000/svg">
<rect x="3.44531" y="2" width="9.10487" height="7.44953" rx="1.03465" fill="#DCE0E6"/>
<path d="M5.35681 3.75964H10.7139" stroke="#4C5258" stroke-width="0.504392" stroke-linecap="square" stroke-linejoin="round"/>
<path d="M7.45569 5.00122H10.7138" stroke="#4C5258" stroke-width="0.504392" stroke-linecap="square" stroke-linejoin="round"/>
<path d="M6.72901 6.41563L6.32329 5.72425C6.14527 5.42617 5.82236 5.23987 5.4746 5.23987H2.69669C2.19989 5.23987 1.79004 5.64559 1.79004 6.14653V12.9196C1.79004 13.5157 2.27441 14.0001 2.87057 14.0001H13.1252C13.7214 14.0001 14.2058 13.5157 14.2058 12.9196V7.72387C14.2058 7.12771 13.7173 6.64333 13.1252 6.64333H7.13058C6.96085 6.64333 6.80767 6.55639 6.72487 6.40735V6.41563H6.72901Z" fill="#FFBF3C"/>
</svg>
