<svg width="16" height="16" viewBox="0 0 16 16" fill="none" xmlns="http://www.w3.org/2000/svg">
<path fill-rule="evenodd" clip-rule="evenodd" d="M4.80669 1.50061C5.06311 1.50061 5.27098 1.70847 5.27098 1.96488V3.63627C5.27098 3.89268 5.06311 4.10054 4.80669 4.10054C4.55027 4.10054 4.34241 3.89268 4.34241 3.63627V1.96488C4.34241 1.70847 4.55027 1.50061 4.80669 1.50061Z" fill="#10141A"/>
<path fill-rule="evenodd" clip-rule="evenodd" d="M11.1927 1.50061C11.4491 1.50061 11.657 1.70847 11.657 1.96488V3.63627C11.657 3.89268 11.4491 4.10054 11.1927 4.10054C10.9363 4.10054 10.7284 3.89268 10.7284 3.63627V1.96488C10.7284 1.70847 10.9363 1.50061 11.1927 1.50061Z" fill="#10141A"/>
<path d="M12.8339 2.5791H3.16609C2.24593 2.5791 1.5 3.38525 1.5 4.37967V11.9211C1.5 12.9155 2.24593 13.7217 3.16609 13.7217H12.8339C13.7541 13.7217 14.5 12.9155 14.5 11.9211V4.37967C14.5 3.38525 13.7541 2.5791 12.8339 2.5791Z" fill="#DCE0E6"/>
<path d="M3.16609 2.5791H12.8339C13.7529 2.5791 14.5 3.38653 14.5 4.37967V5.36474H1.5V4.37967C1.5 3.38653 2.24713 2.5791 3.16609 2.5791Z" fill="#00A1A9"/>
<path fill-rule="evenodd" clip-rule="evenodd" d="M4.80657 1.49976C5.06299 1.49976 5.27086 1.70762 5.27086 1.96403V3.63541C5.27086 3.89182 5.06299 4.09969 4.80657 4.09969C4.55015 4.09969 4.34229 3.89182 4.34229 3.63541V1.96403C4.34229 1.70762 4.55015 1.49976 4.80657 1.49976Z" fill="#2E3238"/>
<path fill-rule="evenodd" clip-rule="evenodd" d="M11.1927 1.49988C11.4491 1.49988 11.657 1.70774 11.657 1.96415V3.63554C11.657 3.89195 11.4491 4.09981 11.1927 4.09981C10.9363 4.09981 10.7284 3.89195 10.7284 3.63554V1.96415C10.7284 1.70774 10.9363 1.49988 11.1927 1.49988Z" fill="#2E3238"/>
<rect x="3.82117" y="7.07153" width="1.85714" height="1.85709" rx="0.464279" fill="#C4C8CE"/>
<rect x="7.07153" y="7.07153" width="1.85714" height="1.85709" rx="0.464279" fill="#C4C8CE"/>
<rect x="10.3219" y="7.07153" width="1.85714" height="1.85709" rx="0.464279" fill="#C4C8CE"/>
<rect x="3.82104" y="9.85718" width="1.85714" height="1.85709" rx="0.464279" fill="#C4C8CE"/>
<rect x="7.07104" y="9.85718" width="1.85714" height="1.85709" rx="0.464279" fill="#C4C8CE"/>
<rect x="10.3215" y="9.85742" width="1.85714" height="1.85709" rx="0.464279" fill="#C4C8CE"/>
</svg>
