<svg width="24" height="24" viewBox="0 0 24 24" fill="none" xmlns="http://www.w3.org/2000/svg">
<path d="M18.2174 14.66C18.0099 14.4054 17.8968 14.0943 17.878 13.7644L17.7177 9.22044C17.6234 6.45826 15.6154 4.05432 12.872 3.69609C9.53467 3.26243 6.64987 5.78893 6.53674 9.04132L6.36705 13.7738C6.35762 14.1037 6.23507 14.4148 6.02766 14.6694L4.72667 16.2626C4.359 16.7057 4.67954 17.3844 5.25461 17.3844H9.49696C9.49696 18.7985 10.6942 20.0052 12.1178 20.0052C13.5413 20.0052 14.7386 18.8079 14.7386 17.3844H18.981C19.5561 17.3844 19.8766 16.7151 19.5089 16.2626L18.2079 14.6694L18.2174 14.66Z" fill="#C4C8CE"/>
<path d="M21.0003 7.02036C21.0236 6.85567 21.0422 6.69098 21.0422 6.51661C21.0422 6.34223 21.0236 6.17755 21.0003 6.01286L21.7963 5.39286C22.0011 5.23302 22.0569 4.93755 21.9313 4.70505L21.4518 3.84287C21.3215 3.61037 21.0515 3.51834 20.8141 3.62006L19.9018 4.02693C19.6505 3.81381 19.3712 3.64912 19.064 3.52318L18.9429 2.49631C18.9104 2.2299 18.6962 2.03131 18.4402 2.03131H17.486C17.23 2.03131 17.0112 2.2299 16.9833 2.49631L16.8623 3.52318C16.5551 3.64427 16.2758 3.81381 16.0245 4.02693L15.1121 3.62006C14.8747 3.51349 14.6001 3.61037 14.4744 3.84287L13.995 4.70505C13.8647 4.93755 13.9252 5.22818 14.13 5.39286L14.9259 6.01286C14.9027 6.17755 14.8841 6.34223 14.8841 6.51661C14.8841 6.69098 14.9027 6.85567 14.9259 7.02036L14.13 7.64035C13.9252 7.8002 13.8693 8.09566 13.995 8.32816L14.4744 9.19035C14.6048 9.42285 14.8747 9.51488 15.1121 9.41316L16.0245 9.00629C16.2758 9.21941 16.5551 9.3841 16.8623 9.51004L16.9833 10.5369C17.0159 10.8033 17.23 11.0019 17.486 11.0019H18.4402C18.6962 11.0019 18.915 10.8033 18.9429 10.5369L19.064 9.51004C19.3712 9.38894 19.6505 9.21941 19.9018 9.00629L20.8141 9.41316C21.0515 9.51972 21.3261 9.42285 21.4518 9.19035L21.9313 8.32816C22.0616 8.09566 22.0011 7.80504 21.7963 7.64035L21.0003 7.02036ZM17.9608 7.88738C17.2347 7.88738 16.6435 7.27223 16.6435 6.51661C16.6435 5.76099 17.2347 5.14583 17.9608 5.14583C18.6869 5.14583 19.2781 5.76099 19.2781 6.51661C19.2781 7.27223 18.6869 7.88738 17.9608 7.88738Z" fill="#3284FF"/>
</svg>
