<svg width="24" height="24" viewBox="0 0 24 24" fill="none" xmlns="http://www.w3.org/2000/svg">
<path d="M19.1475 6.62207H16.1544L15.6137 5.69517C15.3627 5.26069 14.8992 5 14.4068 5H10.8537C10.3516 5 9.89784 5.26069 9.6468 5.69517L9.10612 6.62207H6.11301C4.7806 6.62207 3.69922 7.70345 3.69922 9.03586V16.5862C3.69922 17.9186 4.7806 19 6.11301 19H19.1475C20.4799 19 21.5613 17.9186 21.5613 16.5862V9.03586C21.5613 7.70345 20.4799 6.62207 19.1475 6.62207Z" stroke="#3284FF" stroke-width="1.5" stroke-linecap="round" stroke-linejoin="round"/>
<path d="M12.6321 16.0923C14.5518 16.0923 16.108 14.5362 16.108 12.6165C16.108 10.6968 14.5518 9.14062 12.6321 9.14062C10.7124 9.14062 9.15625 10.6968 9.15625 12.6165C9.15625 14.5362 10.7124 16.0923 12.6321 16.0923Z" fill="#3284FF" stroke="#3284FF" stroke-width="1.5" stroke-linecap="round" stroke-linejoin="round"/>
<path d="M18.6859 10.3483C19.2351 10.3483 19.6804 9.9031 19.6804 9.35386C19.6804 8.80462 19.2351 8.35938 18.6859 8.35938C18.1367 8.35938 17.6914 8.80462 17.6914 9.35386C17.6914 9.9031 18.1367 10.3483 18.6859 10.3483Z" fill="#3284FF"/>
<path d="M7.97776 5.51172H5.86328V6.63172H7.97776V5.51172Z" fill="#3284FF" stroke="#3284FF" stroke-width="1.5" stroke-linecap="round" stroke-linejoin="round"/>
</svg>
