<svg width="24" height="24" viewBox="0 0 24 24" fill="none" xmlns="http://www.w3.org/2000/svg">
<path d="M11.84 2.75C7.92 2.75 4.75 5.92 4.75 9.84C4.75 11.32 5.2 12.69 5.98 13.83C5.98 13.83 7.4 16 11.84 20.75C16.28 16 17.7 13.83 17.7 13.83C18.48 12.69 18.93 11.32 18.93 9.84C18.93 5.92 15.76 2.75 11.84 2.75Z" stroke="#3284FF" stroke-width="1.5" stroke-linecap="round" stroke-linejoin="round"/>
<path d="M11.8413 13.2606C10.0154 13.2606 8.53125 11.7764 8.53125 9.95063C8.53125 8.12482 10.0154 6.64062 11.8413 6.64062C13.6671 6.64062 15.1512 8.12482 15.1512 9.95063C15.1512 11.7764 13.6671 13.2606 11.8413 13.2606Z" fill="#3284FF"/>
</svg>
