<svg width="32" height="32" viewBox="0 0 32 32" fill="none" xmlns="http://www.w3.org/2000/svg">
<rect width="32" height="32" rx="16" fill="#ADCEFF"/>
<path d="M16 25.171C13.6049 25.171 11.2097 24.8016 8.92421 24.0843C7.17493 23.5361 6 21.8965 6 20.0638V12.1229C6 10.2902 7.17493 8.64813 8.92421 8.10237C11.2097 7.38502 13.6049 7.01562 16 7.01562C18.3951 7.01562 20.7903 7.38502 23.0758 8.10237C24.8251 8.65052 26 10.2902 26 12.1229V20.0661C26 21.8988 24.8251 23.5409 23.0758 24.0866C20.7903 24.8016 18.3951 25.1734 16 25.1734V25.171Z" fill="white"/>
<path d="M7.125 19.5765C7.125 20.6895 7.84712 21.6833 8.9148 21.9979C11.217 22.6771 13.6312 23.0346 16.0001 23.0346C18.369 23.0346 20.7832 22.6771 23.0854 21.9979C24.1531 21.6833 24.8752 20.6895 24.8752 19.5765V14.3096C24.8752 13.1967 24.1531 12.2028 23.0854 11.8883C20.7832 11.209 18.369 10.8516 16.0001 10.8516C13.6312 10.8516 11.217 11.209 8.9148 11.8883C7.84712 12.2028 7.125 13.1967 7.125 14.3096V19.5765Z" fill="#5196FF"/>
<path d="M20.8883 17.7496C20.4808 18.1666 19.7825 18.169 19.3654 17.771C18.8054 17.2848 18.7673 16.1147 19.2725 15.5522C19.7634 14.9564 20.7453 15.0827 21.0909 15.7763C21.4007 16.3387 21.3626 17.261 20.9122 17.7257L20.8883 17.7496Z" fill="#10141A"/>
<path d="M11.1112 17.7496C11.5187 18.1666 12.217 18.169 12.634 17.771C13.1941 17.2848 13.2322 16.1147 12.727 15.5522C12.236 14.9564 11.2541 15.0827 10.9086 15.7763C10.5988 16.3387 10.6369 17.261 11.0873 17.7257L11.1112 17.7496Z" fill="#10141A"/>
<path d="M14.4529 17.7631C15.3537 17.8251 15.9805 17.9252 16.8122 17.8298C17.0649 17.8084 17.2579 17.7655 17.5534 17.7583C17.6416 17.7512 17.7226 17.8179 17.7226 17.9085C17.4843 19.8198 14.5291 19.8317 14.2741 17.9204C14.2646 17.8203 14.3575 17.7464 14.4529 17.7631Z" fill="#10141A"/>
</svg>
