<svg width="84" height="90" viewBox="0 0 84 90" fill="none" xmlns="http://www.w3.org/2000/svg">
<path d="M24.9028 12.644L1.43384 74.4074C1.43384 74.4074 19.639 86.6691 61.1295 89.9651C62.9949 90.1138 65.0202 89.8052 66.387 88.6932C67.5178 87.7736 68.12 86.2144 68.5098 84.7176L83.0017 29.1C83.3466 27.7781 83.7039 26.0002 82.7806 24.7695C81.9422 23.6513 80.3792 23.68 78.9574 23.6125C68.656 23.1303 45.4719 21.1087 24.9016 12.6452L24.9028 12.644Z" fill="#5A97F2"/>
<path d="M24.9028 10.3777L1.43384 72.1412C1.43384 72.1412 21.9429 81.6154 60.6485 78.6156C64.0444 78.352 66.8968 75.9569 67.7552 72.6609L82.2109 17.1857C82.5882 15.7389 82.8868 13.5462 81.7111 12.5129C80.6341 11.5659 79.2473 11.847 77.8867 11.9307C67.7727 12.5579 45.9854 13.3388 24.9028 10.3789V10.3777Z" fill="#84B5FF"/>
<path d="M14.1427 45.8109C13.2768 45.8109 12.4035 45.6522 11.5639 45.3336C8.03554 43.9967 6.18016 40.2323 7.42582 36.9426C8.67274 33.6528 12.5572 32.0636 16.0855 33.4017C17.7635 34.0377 19.1228 35.2396 19.91 36.7851C20.7271 38.3894 20.8383 40.1673 20.2236 41.7928C19.6076 43.417 18.3457 44.6752 16.6702 45.3349C15.8631 45.6522 15.0073 45.8109 14.1427 45.8109ZM13.5042 36.549C12.296 36.549 11.2128 37.1749 10.8142 38.2269C10.2757 39.6488 11.1878 41.3167 12.847 41.9452C13.6816 42.2613 14.5675 42.2675 15.3421 41.9627C16.0555 41.6816 16.5853 41.1656 16.8339 40.5084C17.0825 39.8512 17.0288 39.1128 16.6802 38.4306C16.3029 37.6897 15.6345 37.1062 14.7999 36.7901C14.3688 36.6264 13.9278 36.549 13.503 36.549H13.5042Z" fill="#1C5BBA"/>
<path d="M20.9273 27.7533C20.1277 27.7533 19.3093 27.6096 18.5097 27.3072C15.1825 26.0466 13.4333 22.492 14.6103 19.3847C15.1925 17.8479 16.3857 16.6585 17.9687 16.035C19.4905 15.4366 21.1997 15.4366 22.7814 16.035C24.3632 16.6348 25.6426 17.7667 26.386 19.2248C27.1581 20.7403 27.2631 22.422 26.6808 23.9588C25.7863 26.3202 23.4548 27.7545 20.9285 27.7545L20.9273 27.7533ZM20.3513 19.2098C19.9865 19.2098 19.6291 19.276 19.2956 19.4072C18.6746 19.6521 18.2136 20.0994 17.9987 20.6691C17.5289 21.9085 18.3348 23.3666 19.7941 23.9201C21.2534 24.4736 22.8226 23.9151 23.2924 22.6757C23.5086 22.1059 23.4598 21.465 23.1575 20.8715C22.8251 20.2181 22.2354 19.7046 21.4983 19.4259C21.1222 19.2835 20.7336 19.2123 20.3538 19.2123L20.3513 19.2098Z" fill="#1C5BBA"/>
<path d="M7.09629 63.3377C6.24794 63.3377 5.37835 63.1853 4.53 62.8642C2.85203 62.2282 1.49267 61.0263 0.705544 59.4808C-0.111572 57.8765 -0.22277 56.0986 0.391941 54.4731C1.0079 52.8489 2.26981 51.5907 3.94527 50.931C5.55951 50.2963 7.37241 50.2963 9.05162 50.931C12.58 52.2679 14.4353 56.0324 13.1897 59.3221C12.2426 61.8197 9.77503 63.3377 7.09754 63.3377H7.09629ZM6.47283 54.0783C6.05928 54.0783 5.65197 54.1533 5.27215 54.302C4.55873 54.5831 4.02898 55.0991 3.78035 55.7563C3.53172 56.4135 3.58544 57.1519 3.93403 57.834C4.31135 58.5749 4.97978 59.1584 5.81439 59.4745C7.47361 60.103 9.26277 59.4583 9.80127 58.0377C10.3398 56.6159 9.42769 54.9479 7.76847 54.3194C7.34367 54.1583 6.90388 54.0771 6.47408 54.0771L6.47283 54.0783Z" fill="#1C5BBA"/>
<path d="M24.9028 8.04005L1.43384 69.8035C1.43384 69.8035 34.161 73.8941 60.3299 64.8683C63.7046 63.7039 66.2746 60.9327 67.1792 57.4793L80.2718 7.45032C81.2101 3.7833 81.2713 1.62806 79.5484 0.477353C78.4776 -0.237312 76.9883 -0.191083 73.39 0.899654C63.5159 3.99695 46.4939 8.04005 24.9028 8.04005Z" fill="#C3DCFF"/>
<path d="M25.0252 22.4695C24.2656 22.4695 23.5584 21.9885 23.3061 21.2276C23.0399 20.4267 22.364 19.7521 21.4969 19.4235C20.7598 19.1436 19.9776 19.1374 19.2954 19.406C18.6745 19.6509 18.2134 20.0982 17.9985 20.6679C17.6437 21.6037 16.598 22.0747 15.6621 21.7199C14.7263 21.3651 14.2553 20.3193 14.6101 19.3835C15.1924 17.8467 16.3856 16.6573 17.9686 16.0338C19.4903 15.4353 21.1995 15.4353 22.7813 16.0338C24.6867 16.756 26.131 18.2328 26.7457 20.0857C27.0605 21.0352 26.5458 22.061 25.5962 22.3758C25.4063 22.4383 25.2152 22.4683 25.0252 22.4683V22.4695Z" fill="#1C5BBA"/>
<path d="M18.5721 40.0811C17.8124 40.0811 17.1053 39.6001 16.8529 38.8392C16.5505 37.9283 15.7834 37.1624 14.8013 36.7901C13.1409 36.1604 11.353 36.8051 10.8145 38.2269C10.4596 39.1628 9.41388 39.6338 8.47807 39.279C7.54226 38.9241 7.07123 37.8784 7.42606 36.9426C8.67297 33.6528 12.5574 32.0636 16.0857 33.4017C18.1073 34.1676 19.6403 35.7344 20.2925 37.6984C20.6074 38.648 20.0926 39.6738 19.1431 39.9886C18.9544 40.0511 18.762 40.0811 18.5721 40.0811Z" fill="#1C5BBA"/>
<path d="M11.5376 57.6116C10.778 57.6116 10.0708 57.1306 9.81845 56.3697C9.5161 55.4589 8.74896 54.693 7.76692 54.3207C6.93231 54.0046 6.04648 53.9983 5.27184 54.3032C4.55843 54.5843 4.02868 55.1003 3.78004 55.7575C3.42521 56.6933 2.37945 57.1644 1.44364 56.8095C0.507833 56.4547 0.0368041 55.4089 0.391637 54.4731C1.0076 52.8489 2.2695 51.5907 3.94497 50.931C5.55921 50.2963 7.37211 50.2963 9.05132 50.931C11.0729 51.6969 12.6059 53.2637 13.2581 55.2278C13.5729 56.1773 13.0582 57.2031 12.1086 57.5179C11.92 57.5804 11.7276 57.6104 11.5376 57.6104V57.6116Z" fill="#1C5BBA"/>
<path d="M32.3928 35.0705L29.7166 42.1122C29.7166 42.1122 45.5978 42.1972 56.6451 38.7575L58.6092 30.8438C58.6092 30.8438 47.0259 34.7582 32.3928 35.0718V35.0705Z" fill="#2469D1"/>
<path d="M35.6013 49.926C38.7473 49.8373 41.3299 49.6649 44.5921 49.1039L51.9611 25.3988C49.1375 26.0547 45.2343 26.7307 43.129 26.9093L35.6013 49.9273V49.926Z" fill="#2469D1"/>
</svg>
