<svg width="100" height="60" viewBox="0 0 100 60" fill="none" xmlns="http://www.w3.org/2000/svg">
<path d="M36 36.0009H13V44.0009H36V36.0009Z" fill="#383E44"/>
<path d="M10.9902 30.0009H12.4792C13.3647 30.0009 14.0827 30.719 14.0827 31.6044V48.1639C14.0827 49.0494 13.3647 49.7674 12.4792 49.7674H10.9902V30.0009Z" fill="#5196FF"/>
<path d="M6.62555 30.0009H10.9868V49.7674H6.62555C5.17621 49.7674 4 48.5912 4 47.1419V32.6308C4 31.1815 5.17621 30.0053 6.62555 30.0053V30.0009Z" fill="#3284FF"/>
<path d="M38.7891 49.7665H37.3001C36.4146 49.7665 35.6965 49.0485 35.6965 48.163V31.6035C35.6965 30.7181 36.4146 30 37.3001 30H38.7891V49.7665Z" fill="#5196FF"/>
<path d="M43.1498 49.7665H38.7886V30H43.1498C44.5992 30 45.7754 31.1762 45.7754 32.6255V47.1366C45.7754 48.5859 44.5992 49.7621 43.1498 49.7621V49.7665Z" fill="#3284FF"/>
<path d="M62.3467 13.6934H50.8848V20.1735H62.3467V13.6934Z" fill="#84B5FF"/>
<path d="M51.8359 16.3145H61.3961C66.1969 16.3145 70.0933 20.2108 70.0933 25.0115V47.7232C70.0933 50.431 67.8971 52.6273 65.1892 52.6273H48.0428C45.3349 52.6273 43.1387 50.431 43.1387 47.7284V25.0115C43.1387 20.2108 47.0351 16.3145 51.8359 16.3145Z" fill="#84B5FF"/>
<path d="M70.0933 25.4434H43.1387V45.1061H70.0933V25.4434Z" fill="#D6E6FF"/>
<path d="M63.2514 8.5H49.9808C49.1189 8.5 48.4202 9.19871 48.4202 10.0606V13.8175C48.4202 14.6794 49.1189 15.3781 49.9808 15.3781H63.2514C64.1133 15.3781 64.8121 14.6794 64.8121 13.8175V10.0606C64.8121 9.19871 64.1133 8.5 63.2514 8.5Z" fill="#383E44"/>
<path d="M63.0133 33.0762H50.2129V37.479H63.0133V33.0762Z" fill="#3284FF"/>
<path d="M54.4141 28.8815V41.6816H58.8169V28.8815H54.4141Z" fill="#3284FF"/>
<path d="M70.8042 41.6213C69.583 39.918 69.9755 37.5471 71.6799 36.327C73.3864 35.1047 75.7575 35.5004 76.9745 37.2026L79.9727 41.3888L78.2714 45.0364L73.8035 45.8086L70.8042 41.6213Z" fill="#ADCEFF"/>
<path d="M76.7998 49.9975L73.8016 45.8103L79.9719 41.3905H79.9729L82.9711 45.5777C84.1924 47.2821 83.7999 49.653 82.0965 50.8732C80.3974 52.0901 78.0243 51.7029 76.8009 49.9975H76.7998Z" fill="#3284FF"/>
<path d="M67.1501 47.4102C65.0542 47.4102 63.3552 49.1092 63.3552 51.2049C63.3552 53.3007 65.0553 54.9997 67.1501 54.9997H72.5716L74.8125 51.2049L72.5716 47.4102H67.1501Z" fill="#3284FF"/>
<path d="M72.5726 47.4102V54.9997H77.9941C80.09 54.9997 81.7891 53.3007 81.7891 51.2049C81.7891 49.1092 80.0889 47.4102 77.9941 47.4102H72.5726Z" fill="#ADCEFF"/>
</svg>
