<svg width="99" height="93" viewBox="0 0 99 93" fill="none" xmlns="http://www.w3.org/2000/svg">
<path d="M21.4347 2.37735L23.4151 0.970169C24.321 0.326004 25.5773 0.538728 26.2215 1.44456C26.9835 2.48521 26.5191 4.02821 25.3167 4.48362L23.0556 5.37147C21.1481 6.06557 19.8248 3.5758 21.4357 2.37735H21.4347Z" fill="#2469D1"/>
<path d="M54.3744 15.2059C54.3744 15.2059 29.183 7.66171 26.3886 7.36309C22.8242 6.98259 19.12 7.86844 16.1519 12.2298" stroke="#87B1F0" stroke-width="1.59793" stroke-miterlimit="10" stroke-linecap="round"/>
<path d="M42.9801 23.5666C42.9801 23.5666 25.3679 15.4072 22.4297 13.5077C16.9578 9.96925 18.8423 6.04034 21.7316 4.30759" stroke="#A2C8FF" stroke-width="1.59793" stroke-miterlimit="10" stroke-linecap="round"/>
<path d="M21.5528 68.6211C17.8536 68.6211 14.1834 67.5355 10.9396 65.4832C6.74802 62.8306 3.74191 58.8717 2.47455 54.3346C1.21918 49.8404 1.82439 45.3163 4.17934 41.5951C7.05362 37.053 12.2389 34.3405 18.0484 34.3405C21.7476 34.3405 25.4178 35.4261 28.6616 37.4785C32.8532 40.131 35.8593 44.0899 37.1267 48.627C38.382 53.1212 37.7768 57.6453 35.4219 61.3665C32.5476 65.9086 27.3623 68.6211 21.5528 68.6211Z" fill="#C3DCFF"/>
<path d="M18.0486 35.4902C21.5301 35.4902 24.9877 36.5138 28.0477 38.4503C31.9986 40.9501 34.8299 44.6753 36.0204 48.9378C37.1869 53.1143 36.6296 57.3109 34.4514 60.7535C33.1031 62.8837 31.2575 64.5605 28.9675 65.735C26.7504 66.8725 24.1867 67.4738 21.5531 67.4738C18.0716 67.4738 14.6141 66.4501 11.554 64.5136C7.60317 62.0138 4.77183 58.2887 3.58137 54.0262C2.41489 49.8496 2.97216 45.653 5.15034 42.2105C6.4986 40.0802 8.34421 38.4034 10.6342 37.2289C12.8514 36.0914 15.415 35.4902 18.0486 35.4902ZM18.0486 33.1931C12.0564 33.1931 6.4207 35.9076 3.20986 40.9821C-2.02337 49.2514 1.16251 60.6556 10.3256 66.4541C13.8661 68.6942 17.78 69.7708 21.5531 69.7708C27.5453 69.7708 33.181 67.0563 36.3919 61.9819C41.6251 53.7126 38.4392 42.3083 29.2761 36.5099C25.7357 34.2698 21.8218 33.1931 18.0486 33.1931Z" fill="#87B1F0"/>
<path d="M31.9431 54.056C34.9433 49.3157 33.117 42.7777 27.864 39.453C22.611 36.1283 15.9204 37.2759 12.9202 42.0163C9.91994 46.7567 11.7462 53.2947 16.9993 56.6194C22.2523 59.9441 28.9429 58.7964 31.9431 54.056Z" fill="#A2C8FF"/>
<path d="M34.1276 50.439C39.3409 52.785 44.4303 55.4745 49.247 58.5555C50.5354 59.3794 51.8037 60.2363 53.0391 61.1381C53.3337 61.3529 53.6264 61.5706 53.916 61.7903C53.9779 61.8372 54.0388 61.8842 54.1007 61.9311C54.3454 62.1149 53.7712 61.6734 54.0109 61.8612C54.1707 61.987 54.3305 62.1119 54.4892 62.2377C55.0295 62.6682 55.5609 63.1106 56.0792 63.567C56.6594 64.0773 57.2117 64.6176 57.733 65.1879C57.9857 65.4645 58.2314 65.7482 58.4701 66.0378C58.543 66.1267 58.6708 66.3684 58.7727 66.4143C58.5869 66.3324 58.555 66.1257 58.7158 66.3424C58.7797 66.4283 58.8446 66.5142 58.9075 66.6011C59.8283 67.8624 60.6173 69.2187 61.2635 70.6408C61.2994 70.7197 61.5391 71.27 61.4093 70.9644C61.2904 70.6858 61.3993 70.9424 61.4203 70.9944C61.4592 71.0942 61.5002 71.1941 61.5391 71.295C61.6759 71.6465 61.8038 72.0001 61.9236 72.3576C62.1703 73.0957 62.38 73.8467 62.5498 74.6067C62.6317 74.9722 62.7046 75.3398 62.7675 75.7093C62.7975 75.883 62.7985 76.0988 62.8554 76.2636C62.8554 76.2636 62.8025 75.8081 62.8284 76.0588C62.8414 76.1847 62.8574 76.3105 62.8684 76.4363C62.9303 77.1334 62.9263 77.8365 62.8594 78.5336C62.8504 78.6295 62.8274 78.7344 62.8274 78.8292C62.8274 78.8352 62.9034 78.3489 62.8564 78.6005C62.8245 78.7713 62.8005 78.9421 62.7665 79.1129C62.6936 79.4764 62.6047 79.8369 62.4999 80.1935C62.409 80.5021 62.3061 80.8067 62.1913 81.1073C62.1913 81.1053 62.1064 81.3739 62.0824 81.3839C62.0744 81.3869 62.2712 80.9605 62.1633 81.1892C62.0784 81.3689 61.9995 81.5507 61.9116 81.7285C61.5921 82.3746 61.2205 82.9948 60.8021 83.5821C60.7521 83.652 60.4096 84.1154 60.6203 83.8338C60.831 83.5521 60.4655 84.0175 60.4196 84.0714C60.1939 84.3381 59.9582 84.5958 59.7135 84.8454C59.4688 85.0951 59.2141 85.3348 58.9525 85.5645C58.8216 85.6794 58.6878 85.7922 58.552 85.9021C58.4951 85.948 58.4291 85.991 58.3772 86.0419C58.7607 85.6694 58.537 85.9171 58.4142 86.0059C57.8629 86.4074 57.2816 86.771 56.6734 87.0805C56.5476 87.1445 56.4207 87.2054 56.2929 87.2643C56.1151 87.3462 55.7017 87.4351 56.3269 87.2563C56.0532 87.3342 55.7896 87.4641 55.5179 87.5519C54.9437 87.7397 54.3564 87.8855 53.7622 87.9904C53.6184 88.0153 53.4696 88.0283 53.3277 88.0603C53.2998 88.0663 53.8611 88.0033 53.6124 88.0203C53.5285 88.0263 53.4456 88.0393 53.3617 88.0473C53.0481 88.0783 52.7335 88.0972 52.4189 88.1042C51.8297 88.1182 51.2514 88.0293 50.6662 88.0193C50.6912 88.0193 51.2584 88.1132 50.8929 88.0473C50.832 88.0363 50.7701 88.0273 50.7091 88.0163C50.5663 87.9914 50.4245 87.9644 50.2827 87.9334C49.9811 87.8685 49.6825 87.7896 49.3879 87.6978C49.1362 87.6189 48.8915 87.5 48.6378 87.4291C49.254 87.5989 48.8545 87.521 48.6718 87.4341C48.525 87.3642 48.3802 87.2903 48.2383 87.2124C47.9897 87.0756 47.747 86.9267 47.5133 86.766C47.4633 86.731 47.4144 86.695 47.3635 86.6611C47.0689 86.4623 47.5053 86.7689 47.5263 86.7909C47.4184 86.6741 47.2706 86.5812 47.1517 86.4743C46.937 86.2806 46.7333 86.0748 46.5415 85.8591C46.4626 85.7702 46.3897 85.6464 46.2989 85.5715C46.6294 85.8461 46.5316 85.8881 46.4197 85.7233C46.3718 85.6524 46.3208 85.5845 46.2729 85.5136C46.0911 85.2439 45.9243 84.9633 45.7785 84.6727C45.7446 84.6048 45.6876 84.422 45.6417 84.38C45.6607 84.397 45.7845 84.7765 45.7186 84.5438C45.6607 84.3381 45.5798 84.1394 45.5249 83.9326C45.4769 83.7519 45.443 83.5671 45.401 83.3853C45.3091 82.9829 45.436 83.8447 45.384 83.2655C45.3481 82.862 45.3421 82.4565 45.3651 82.0521C45.3701 81.9592 45.444 81.357 45.387 81.7015C45.3351 82.0161 45.382 81.7355 45.393 81.6765C45.413 81.5697 45.431 81.4618 45.452 81.355C45.5279 80.9804 45.6257 80.6099 45.7456 80.2464C45.8055 80.0646 45.8774 79.8879 45.9403 79.7071C46.0452 79.4105 45.7635 80.0736 45.9044 79.793C45.9403 79.7201 45.9723 79.6452 46.0072 79.5713C46.163 79.2477 46.3348 78.9321 46.5176 78.6235C46.6824 78.3439 46.8571 78.0712 47.0419 77.8046C47.1338 77.6717 47.2286 77.5419 47.3235 77.4121C47.3625 77.3581 47.5143 77.1614 47.3145 77.4201C47.0818 77.7217 47.3665 77.3591 47.3954 77.3242C47.8009 76.8298 48.2393 76.3614 48.7037 75.922C48.9364 75.7013 49.1751 75.4886 49.4198 75.2818C49.5427 75.178 49.6665 75.0771 49.7923 74.9762C50.1958 74.6546 49.4578 75.2229 49.8842 74.9083C50.4055 74.5238 50.9458 74.1663 51.5011 73.8337C52.0824 73.4852 52.6786 73.1636 53.2868 72.867C53.5824 72.7221 53.88 72.5833 54.1806 72.4495C54.3095 72.3926 54.4413 72.3396 54.5691 72.2797C53.9719 72.5584 54.5362 72.2957 54.686 72.2358C57.1578 71.2471 59.7464 70.5689 62.3571 70.0646C63.2189 69.8978 64.0848 69.752 64.9537 69.6222C65.1435 69.5942 65.3332 69.5662 65.524 69.5393C65.6508 69.5213 65.7776 69.5013 65.9045 69.4863C65.8775 69.4893 65.518 69.5363 65.7826 69.5023C66.259 69.4414 66.7354 69.3805 67.2118 69.3245C69.0254 69.1108 70.8431 68.937 72.6587 68.7493C76.3919 68.3628 80.154 67.9383 83.7973 67.0075C87.2009 66.1377 90.4816 64.7475 93.1951 62.4824C95.625 60.454 97.5285 57.4509 98.0458 54.304C99.0086 48.4556 96.6157 42.735 92.8566 38.3487C89.3651 34.2739 84.6652 31.1969 79.8115 28.9838C78.5661 28.4155 77.2997 27.8912 76.0154 27.4178C74.9108 27.0103 73.5046 27.8722 73.2509 28.9868C72.9613 30.2581 73.6375 31.3148 74.8199 31.7512C75.4052 31.9669 75.9844 32.1946 76.5617 32.4303C77.065 32.636 76.2091 32.2765 76.5707 32.4333C76.7125 32.4952 76.8543 32.5562 76.9961 32.6181C77.3017 32.7529 77.6063 32.8907 77.9089 33.0315C79.1263 33.5988 80.3188 34.22 81.4803 34.8941C82.6418 35.5683 83.7693 36.2963 84.8559 37.0843C84.9868 37.1792 85.1176 37.275 85.2474 37.3719C85.3293 37.4328 85.7398 37.7474 85.4621 37.5317C85.1845 37.316 85.592 37.6346 85.6719 37.6975C85.8167 37.8123 85.9595 37.9282 86.1023 38.046C86.6166 38.4695 87.118 38.9089 87.6044 39.3643C88.5801 40.2782 89.4879 41.2599 90.3209 42.3055C90.5735 42.6231 90.0562 41.95 90.2969 42.2766C90.4027 42.4204 90.5096 42.5632 90.6135 42.708C90.8072 42.9787 90.995 43.2543 91.1757 43.5339C91.5233 44.0712 91.8459 44.6245 92.1405 45.1928C92.2823 45.4664 92.4171 45.7431 92.545 46.0227C92.5819 46.1046 92.7976 46.602 92.6428 46.2374C92.497 45.8919 92.7098 46.4112 92.7507 46.5191C92.9794 47.1163 93.1742 47.7255 93.3339 48.3437C93.4118 48.6443 93.4808 48.9479 93.5407 49.2525C93.5706 49.4063 93.5996 49.5601 93.6246 49.7139C93.6445 49.8318 93.7304 50.401 93.6735 50.0155C93.6136 49.6091 93.6855 50.1624 93.6955 50.2562C93.7105 50.415 93.7234 50.5738 93.7344 50.7326C93.7574 51.0782 93.7694 51.4237 93.7714 51.7693C93.7734 52.1148 93.7654 52.4454 93.7424 52.782C93.7374 52.8569 93.6675 53.4641 93.7184 53.0996C93.7664 52.756 93.7155 53.0976 93.7015 53.1824C93.6795 53.3093 93.6555 53.4351 93.6286 53.561C93.5547 53.9125 93.4618 54.261 93.3519 54.6036C93.305 54.7504 93.255 54.8962 93.2011 55.041C93.1911 55.068 93.1292 55.2977 93.0903 55.3297C93.2231 55.2188 93.261 54.9452 93.1042 55.2907C92.7936 55.9738 92.4171 56.626 91.9857 57.2402C91.9368 57.3101 91.5912 57.7855 91.7899 57.5128C91.9887 57.2402 91.6182 57.7146 91.5712 57.7695C91.3176 58.0651 91.0499 58.3498 90.7703 58.6224C90.5096 58.8761 90.239 59.1198 89.9583 59.3515C89.9244 59.3794 89.7905 59.4583 89.7766 59.4983C89.8285 59.3395 90.0772 59.2756 89.8365 59.4503C89.6517 59.5842 89.468 59.718 89.2792 59.8448C88.5971 60.3072 87.881 60.7167 87.142 61.0802C86.9632 61.1681 86.7834 61.254 86.6027 61.3359C86.4988 61.3828 86.3949 61.4288 86.2911 61.4757C86.2451 61.4957 85.9825 61.6195 86.2451 61.4967C86.5078 61.3738 85.9635 61.6065 85.8786 61.6395C85.6649 61.7214 85.4511 61.8013 85.2354 61.8772C84.4255 62.1638 83.6015 62.4105 82.7696 62.6272C81.0339 63.0796 79.2662 63.4062 77.4935 63.6719C77.2717 63.7048 77.051 63.7368 76.8293 63.7677C76.7344 63.7807 76.6396 63.7977 76.5447 63.8077C76.6276 63.7987 77.0081 63.7478 76.5717 63.8037C76.0953 63.8646 75.6199 63.9245 75.1425 63.9795C74.2197 64.0873 73.2969 64.1852 72.3731 64.2801C68.604 64.6676 64.8209 65.0151 61.0977 65.7382C55.5569 66.8158 49.8323 68.7273 45.6257 72.6442C43.3856 74.7305 41.5061 77.5709 41.0337 80.6379C40.7221 82.6603 40.8879 84.6058 41.6978 86.4953C42.2611 87.8086 43.1919 89.024 44.3004 89.9259C48.7327 93.5322 55.451 93.3305 60.1289 90.2644C62.9423 88.4198 65.0735 85.8112 66.3579 82.7112C67.6422 79.6112 67.5803 76.3165 66.8103 73.0937C66.0403 69.8708 64.6381 66.8238 62.6926 64.1972C61.6829 62.8349 60.5824 61.5556 59.311 60.4311C58.1136 59.3714 56.8472 58.3857 55.5609 57.4369C50.6312 53.8006 45.2213 50.7915 39.7224 48.111C38.6218 47.5747 37.5132 47.0534 36.3967 46.551C35.2801 46.0487 33.9299 46.2065 33.3227 47.357C32.8043 48.3387 32.9841 49.9167 34.1286 50.431L34.1276 50.439Z" fill="#2469D1"/>
<path d="M26.7053 53.6579C24.4083 53.6579 22.1272 52.9827 20.1088 51.7044C14.7787 48.3308 12.8842 41.7293 15.8843 36.9874C17.642 34.21 20.8239 32.5522 24.3963 32.5522C26.6933 32.5522 28.9743 33.2273 30.9927 34.5057C36.3228 37.8793 38.2174 44.4807 35.2173 49.2226C33.4595 52 30.2777 53.6579 26.7053 53.6579Z" fill="#94BFFF"/>
<path d="M24.3959 34.0509C26.4083 34.0509 28.4127 34.6461 30.1914 35.7717C32.4835 37.2228 34.1243 39.373 34.8094 41.8278C35.4636 44.1708 35.159 46.5128 33.9506 48.4223C33.2055 49.5998 32.1838 50.5266 30.9135 51.1787C29.6611 51.8209 28.206 52.1604 26.7049 52.1604C24.6925 52.1604 22.6881 51.5652 20.9094 50.4397C18.6174 48.9886 16.9765 46.8383 16.2914 44.3835C15.6373 42.0406 15.9419 39.6986 17.1503 37.7901C17.8954 36.6126 18.917 35.6858 20.1874 35.0336C21.4398 34.3915 22.8949 34.0519 24.3959 34.0519M24.3959 31.0548C20.447 31.0548 16.7339 32.8435 14.6186 36.1871C11.1701 41.6361 13.2693 49.1503 19.3075 52.9714C21.6405 54.4475 24.2192 55.1566 26.7059 55.1566C30.6548 55.1566 34.368 53.3679 36.4833 50.0242C39.9318 44.5753 37.8325 37.061 31.7944 33.2399C29.4614 31.7639 26.8827 31.0548 24.3959 31.0548Z" fill="#1A488F"/>
<path d="M25.2675 44.0337C25.2085 44.0337 25.1177 44.0197 25.0138 43.9538C24.8181 43.8299 24.7931 43.6542 24.8101 43.6272C24.8181 43.6152 24.863 43.5923 24.9389 43.5923C24.9978 43.5923 25.0887 43.6062 25.1926 43.6721C25.3883 43.796 25.4133 43.9718 25.3963 43.9987C25.3883 44.0107 25.3434 44.0337 25.2675 44.0337Z" fill="#B5B5B6"/>
<path d="M24.9374 42.0948C24.3741 42.0948 23.8448 42.3495 23.5432 42.8269C23.0518 43.6039 23.3504 44.6755 24.2123 45.2208C24.5449 45.4315 24.9124 45.5324 25.267 45.5324C25.8302 45.5324 26.3595 45.2777 26.6611 44.8003C27.1525 44.0234 26.8539 42.9517 25.992 42.4064C25.6594 42.1957 25.2919 42.0948 24.9374 42.0948Z" fill="#1A488F"/>
<path d="M42.4402 25.8063C46.7875 28.0085 51.2847 29.954 55.8158 31.7406C57.8722 32.5516 59.9515 33.3396 62.0807 33.9418C64.5485 34.6399 67.242 35.0623 69.8087 34.8916C72.1537 34.7358 74.6335 34.0666 76.2654 32.261C78.1399 30.1867 78.822 27.1116 77.7494 24.487C76.6389 21.7696 74.3828 19.5964 71.7682 18.2941C69.9206 17.3742 67.9072 16.7481 65.9447 16.1259C61.5095 14.7197 57.0133 13.5003 52.5131 12.3168C52.1196 12.2129 51.7261 12.1101 51.3326 12.0082C50.1961 11.7126 48.8409 12.3827 48.5682 13.5772C48.2956 14.7716 48.9208 16.025 50.1372 16.3416C54.2579 17.4142 58.3705 18.5268 62.4493 19.7512C64.4257 20.3444 66.4041 20.9526 68.3346 21.6827C68.5184 21.7526 68.7022 21.8235 68.8839 21.8964C68.9628 21.9284 69.0407 21.9603 69.1196 21.9923C69.5021 22.1461 68.6442 21.7825 68.9139 21.9054C69.3793 22.1161 69.8337 22.3378 70.2731 22.5995C70.5208 22.7463 70.7625 22.9021 70.9992 23.0659C71.111 23.1438 71.2209 23.2237 71.3307 23.3036C71.6284 23.5193 70.9762 23.0149 71.3647 23.3345C71.8491 23.734 72.3045 24.1714 72.713 24.6488C72.7579 24.7018 72.8008 24.7577 72.8468 24.8096C73.0086 24.9894 72.707 24.6219 72.711 24.6279C72.7829 24.7447 72.8757 24.8516 72.9526 24.9654C73.1324 25.2291 73.2972 25.5047 73.441 25.7894C73.472 25.8493 73.4969 25.9132 73.5299 25.9721C73.6458 26.1828 73.437 25.7364 73.439 25.7444C73.476 25.8722 73.5369 25.9961 73.5788 26.1229C73.6278 26.2717 73.6707 26.4225 73.7067 26.5743C73.7226 26.6393 73.7346 26.7052 73.7506 26.7711C73.8235 27.0737 73.7356 26.6622 73.7336 26.5723C73.7386 26.869 73.7786 27.1586 73.7606 27.4572C73.7566 27.5201 73.7366 27.603 73.7446 27.6649C73.7446 27.6679 73.8335 27.1766 73.7766 27.4172C73.7316 27.606 73.6997 27.7958 73.6458 27.9835C73.6158 28.0854 73.5838 28.1872 73.5489 28.2871C73.5159 28.382 73.3731 28.7255 73.5419 28.3331C73.7107 27.9406 73.5419 28.3241 73.4999 28.408C73.452 28.5048 73.4001 28.5997 73.3461 28.6936C73.2483 28.8644 73.1144 29.0182 73.0206 29.1889C73.0965 29.0501 73.3881 28.7525 73.1444 29.0162C73.0725 29.0941 73.0036 29.173 72.9287 29.2479C72.7899 29.3877 72.6261 29.5035 72.4873 29.6424C72.6051 29.5235 72.9457 29.3168 72.6441 29.5105C72.5382 29.5784 72.4343 29.6484 72.3255 29.7123C72.1577 29.8111 71.9819 29.891 71.8091 29.9809C71.5045 30.1397 72.3824 29.7672 71.929 29.929C71.8151 29.9699 71.7023 30.0119 71.5874 30.0498C71.125 30.1996 70.6456 30.2496 70.1812 30.3744C70.1463 30.3834 70.7305 30.3125 70.4838 30.3345C70.403 30.3415 70.3231 30.3534 70.2422 30.3614C70.1183 30.3744 69.9945 30.3844 69.8696 30.3934C69.566 30.4154 69.2614 30.4263 68.9568 30.4283C68.3356 30.4323 67.7154 30.4004 67.0972 30.3425C66.9434 30.3285 66.7906 30.3125 66.6378 30.2945C66.4521 30.2735 65.9817 30.1147 66.524 30.2835C66.1914 30.1797 65.7959 30.1717 65.4514 30.1088C64.947 30.0179 64.4447 29.916 63.9483 29.7902C62.0158 29.3018 60.1312 28.6067 58.2707 27.8976C57.1321 27.4632 56.0006 27.0108 54.8741 26.5464C54.6124 26.4385 54.3517 26.3297 54.0901 26.2208C54.0092 26.1868 53.4879 25.9681 53.8364 26.1149C54.165 26.2538 53.6716 26.044 53.5837 26.0071C53.0235 25.7684 52.4642 25.5267 51.9069 25.283C49.8725 24.3932 47.8502 23.4734 45.8557 22.4986C45.4712 22.3109 45.0887 22.1211 44.7072 21.9274C43.6596 21.397 42.2224 21.6168 41.6332 22.7333C41.0929 23.757 41.3196 25.2411 42.4392 25.8073L42.4402 25.8063Z" fill="#2469D1"/>
<path d="M17.0449 13.9695L15.9922 16.1587C15.5109 17.1604 14.3084 17.5818 13.3067 17.1004C12.1362 16.5581 11.7967 14.9832 12.6286 14.0035L14.1776 12.1329C15.5119 10.6029 17.8738 12.1419 17.0439 13.9695H17.0449Z" fill="#2469D1"/>
</svg>
