<svg width="60" height="56" viewBox="0 0 60 56" fill="none" xmlns="http://www.w3.org/2000/svg">
<rect x="23.8047" y="4.10742" width="36.3641" height="45.7913" rx="5.72395" transform="rotate(10.3505 23.8047 4.10742)" fill="#84B5FF"/>
<rect x="13.793" y="38.6836" width="3.27081" height="8.5042" rx="1.6354" transform="rotate(-79.6495 13.793 38.6836)" fill="#383E44"/>
<rect x="15.8499" y="27.422" width="3.27081" height="8.5042" rx="1.6354" transform="rotate(-79.6495 15.8499 27.422)" fill="#383E44"/>
<rect x="17.9067" y="16.1604" width="3.27081" height="8.5042" rx="1.6354" transform="rotate(-79.6495 17.9067 16.1604)" fill="#383E44"/>
<rect x="4.33984" y="2.98438" width="36.3641" height="45.7913" rx="5.72395" transform="rotate(-3.31544 4.33984 2.98438)" fill="#3284FF"/>
<rect x="2.78101" y="38.9471" width="3.27081" height="8.5042" rx="1.6354" transform="rotate(-93.3154 2.78101 38.9471)" fill="#383E44"/>
<rect x="2.1189" y="27.5184" width="3.27081" height="8.5042" rx="1.6354" transform="rotate(-93.3154 2.1189 27.5184)" fill="#383E44"/>
<rect x="1.45679" y="16.0897" width="3.27081" height="8.5042" rx="1.6354" transform="rotate(-93.3154 1.45679 16.0897)" fill="#383E44"/>
<rect x="16.4141" y="22.4531" width="16.5762" height="5.52535" transform="rotate(-3.31544 16.4141 22.4531)" fill="#EAF3FF"/>
<rect x="27.127" y="16.2969" width="16.576" height="5.52541" transform="rotate(86.6846 27.127 16.2969)" fill="#EAF3FF"/>
</svg>
