<svg width="63" height="58" viewBox="0 0 63 58" fill="none" xmlns="http://www.w3.org/2000/svg">
<path d="M39.7775 34.3229L36.9609 37.7715L50.228 48.6726L53.0446 45.224L39.7775 34.3229Z" fill="#383E44"/>
<path d="M43.972 37.6362L40.9469 41.3402C40.4229 41.9818 40.5169 42.9283 41.157 43.4542L55.9733 55.6283C56.6133 56.1543 57.557 56.0605 58.0811 55.4189L61.1062 51.7149C61.6302 51.0733 61.5362 50.1268 60.8961 49.6009L46.0798 37.4268C45.4397 36.9008 44.4961 36.9946 43.972 37.6362Z" fill="#3284FF"/>
<mask id="mask0_1_4974" style="mask-type:alpha" maskUnits="userSpaceOnUse" x="40" y="37" width="22" height="19">
<path d="M43.972 37.6323L40.9469 41.3363C40.4229 41.9779 40.5169 42.9244 41.157 43.4503L55.9733 55.6244C56.6133 56.1504 57.557 56.0566 58.0811 55.4149L61.1062 51.711C61.6302 51.0694 61.5362 50.1229 60.8961 49.597L46.0798 37.4229C45.4397 36.8969 44.4961 36.9907 43.972 37.6323Z" fill="#125BC7"/>
</mask>
<g mask="url(#mask0_1_4974)">
<path d="M59.2373 48.2323L54.3145 54.2598L57.1341 56.5766L62.0569 50.5491L59.2373 48.2323Z" fill="#84B5FF"/>
<path d="M44.9161 36.4695L39.9922 42.4961L42.7018 44.7233L47.6257 38.6967L44.9161 36.4695Z" fill="#84B5FF"/>
</g>
<path opacity="0.5" d="M33.3015 10.1966C40.4548 16.0742 41.5098 26.6498 35.6543 33.8192C29.7989 40.9887 19.2539 42.035 12.1011 36.1613C4.94784 30.2838 3.89673 19.7077 9.74826 12.5388C15.6037 5.36929 26.1487 4.32299 33.3015 10.1966Z" fill="#84B5FF"/>
<mask id="mask1_1_4974" style="mask-type:alpha" maskUnits="userSpaceOnUse" x="5" y="6" width="35" height="34">
<path d="M33.3015 10.1966C40.4548 16.0742 41.5098 26.6498 35.6543 33.8192C29.7989 40.9887 19.2539 42.035 12.1011 36.1614C4.94784 30.2838 3.89673 19.7077 9.74826 12.5388C15.6037 5.36929 26.1487 4.32299 33.3015 10.1966Z" fill="#ADCEFF"/>
</mask>
<g mask="url(#mask1_1_4974)">
<path d="M22.834 9.59766L30.8073 15.1688" stroke="#84B5FF" stroke-width="0.967982" stroke-miterlimit="10" stroke-linecap="round"/>
<path d="M21.3945 10.9258L30.0518 16.9739" stroke="#84B5FF" stroke-width="0.967982" stroke-miterlimit="10" stroke-linecap="round"/>
<path d="M20.6016 12.707L28.6576 18.3365" stroke="#84B5FF" stroke-width="0.967982" stroke-miterlimit="10" stroke-linecap="round"/>
<path d="M20.5156 14.9766L26.5589 19.1993" stroke="#84B5FF" stroke-width="0.967982" stroke-miterlimit="10" stroke-linecap="round"/>
<path d="M20.8984 17.5762L23.987 19.735" stroke="#84B5FF" stroke-width="0.967982" stroke-miterlimit="10" stroke-linecap="round"/>
<path d="M19.1914 20.1055L22.1948 22.2035" stroke="#84B5FF" stroke-width="0.967982" stroke-miterlimit="10" stroke-linecap="round"/>
<path d="M16.5742 20.6133L22.6151 24.836" stroke="#84B5FF" stroke-width="0.967982" stroke-miterlimit="10" stroke-linecap="round"/>
<path d="M14.5137 21.5059L22.487 27.0745" stroke="#84B5FF" stroke-width="0.967982" stroke-miterlimit="10" stroke-linecap="round"/>
<path d="M13.0801 22.834L21.7373 28.8846" stroke="#84B5FF" stroke-width="0.967982" stroke-miterlimit="10" stroke-linecap="round"/>
<path d="M12.3711 24.6699L20.2544 30.1777" stroke="#84B5FF" stroke-width="0.967982" stroke-miterlimit="10" stroke-linecap="round"/>
<path d="M12.1934 26.8789L18.2366 31.1016" stroke="#84B5FF" stroke-width="0.967982" stroke-miterlimit="10" stroke-linecap="round"/>
<path d="M12.7168 29.5801L15.523 31.5393" stroke="#84B5FF" stroke-width="0.967982" stroke-miterlimit="10" stroke-linecap="round"/>
<path d="M10.8848 31.9766L13.8881 34.0745" stroke="#84B5FF" stroke-width="0.967982" stroke-miterlimit="10" stroke-linecap="round"/>
<path d="M8.27344 32.4785L14.3143 36.7013" stroke="#84B5FF" stroke-width="0.967982" stroke-miterlimit="10" stroke-linecap="round"/>
<path d="M6.21094 33.373L14.1843 38.9441" stroke="#84B5FF" stroke-width="0.967982" stroke-miterlimit="10" stroke-linecap="round"/>
<path d="M4.77148 34.7012L13.4287 40.7493" stroke="#84B5FF" stroke-width="0.967982" stroke-miterlimit="10" stroke-linecap="round"/>
<path d="M4.13477 36.5879L11.8769 41.9984" stroke="#84B5FF" stroke-width="0.967982" stroke-miterlimit="10" stroke-linecap="round"/>
<path d="M10.9453 42.6524C13.3694 41.6351 14.7908 39.688 14.2846 35.9983C13.7077 31.6514 10.6143 26.55 13.0822 22.8311C15.7327 19.2509 21.5642 20.3948 25.8381 19.4456C29.484 18.6546 30.8299 16.654 30.9516 14.0254" stroke="#5196FF" stroke-width="0.967982" stroke-miterlimit="10" stroke-linecap="round"/>
<path d="M23.9849 9.01953C21.4902 10.0223 20.0153 11.9742 20.5313 15.7199C21.1081 20.0668 24.2016 25.1682 21.7336 28.8871C19.0832 32.4673 13.2516 31.3234 8.97778 32.2726C5.30022 33.0709 3.96403 35.1007 3.85937 37.7634" stroke="#5196FF" stroke-width="0.967982" stroke-miterlimit="10" stroke-linecap="round"/>
<path d="M31.4726 35.2134L27.2247 35.2134C27.0894 35.2134 26.9639 35.142 26.895 35.0239L24.7686 31.3421C24.7021 31.224 24.7021 31.0812 24.7686 30.9631L26.895 27.2813C26.9614 27.1632 27.0869 27.0918 27.2247 27.0918L31.475 27.0918C31.6104 27.0918 31.7359 27.1632 31.8024 27.2813L33.9263 30.9631C33.9952 31.0812 33.9952 31.224 33.9263 31.3421L31.8024 35.0239C31.7335 35.142 31.6079 35.2134 31.475 35.2134L31.4726 35.2134ZM27.4413 34.4554L31.256 34.4554L33.1633 31.155L31.256 27.8523L27.4413 27.8523L25.534 31.155L27.4413 34.4554Z" fill="#84B5FF"/>
<path d="M37.8626 31.5339L33.6123 31.5339C33.4769 31.5339 33.3514 31.4625 33.285 31.3444L31.1611 27.6626C31.0921 27.5445 31.0921 27.4017 31.1611 27.2836L33.285 23.6018C33.3539 23.4837 33.4794 23.4123 33.6123 23.4123L37.8626 23.4123C37.998 23.4123 38.1235 23.4837 38.1899 23.6018L40.3138 27.2836C40.3803 27.4017 40.3803 27.5445 40.3138 27.6626L38.1899 31.3444C38.1235 31.4625 37.9955 31.5339 37.8626 31.5339ZM33.8313 30.7759L37.646 30.7759L39.5509 27.4731L37.646 24.1703L33.8313 24.1703L31.924 27.4731L33.8313 30.7759Z" fill="#5196FF"/>
<path d="M27.2058 27.8516C27.0753 27.8516 26.9498 27.7852 26.876 27.6621L25.8177 25.8286C25.7144 25.6489 25.7759 25.4176 25.9555 25.3118C26.1377 25.2084 26.369 25.2699 26.4724 25.4521L27.5306 27.2831C27.634 27.4652 27.5725 27.6966 27.3928 27.7999C27.3337 27.8319 27.2673 27.8516 27.2033 27.8516L27.2058 27.8516Z" fill="#84B5FF"/>
<path d="M33.6678 24.2438C33.5374 24.2438 33.4094 24.1749 33.3405 24.0543L32.2822 22.2232C32.1764 22.0436 32.2379 21.8098 32.4201 21.7064C32.6022 21.603 32.8335 21.6646 32.9369 21.8442L33.9952 23.6753C34.101 23.8574 34.037 24.0887 33.8573 24.1921C33.7983 24.2265 33.7318 24.2438 33.6678 24.2438Z" fill="#5196FF"/>
<path d="M39.0725 33.5216C38.942 33.5216 38.814 33.4552 38.7451 33.3321L37.6869 31.4986C37.5835 31.319 37.645 31.0876 37.8247 30.9818C38.0043 30.8784 38.2357 30.9399 38.3415 31.1196L39.3998 32.9531C39.5031 33.1328 39.4416 33.3666 39.262 33.4699C39.2029 33.5044 39.1389 33.5216 39.0725 33.5216Z" fill="#5196FF"/>
<path d="M38.3615 27.5274C38.2311 27.5274 38.1031 27.4609 38.0342 27.3379L36.9759 25.5044C36.8726 25.3247 36.9341 25.0934 37.1137 24.9876C37.2959 24.8842 37.5272 24.9457 37.6306 25.1278L38.6913 26.9613C38.7947 27.141 38.7331 27.3748 38.551 27.4782C38.492 27.5126 38.4255 27.5274 38.3615 27.5274Z" fill="#5196FF"/>
<path d="M33.32 27.5274C33.256 27.5274 33.192 27.5126 33.1305 27.4782C32.9508 27.3748 32.8868 27.1435 32.9926 26.9613L34.0509 25.1278C34.1543 24.9457 34.3856 24.8842 34.5677 24.9876C34.7474 25.0934 34.8114 25.3247 34.7056 25.5044L33.6473 27.3379C33.5784 27.4585 33.4479 27.5274 33.32 27.5274Z" fill="#5196FF"/>
<path d="M26.9162 31.293C26.8522 31.293 26.7858 31.2783 26.7267 31.2413C26.5446 31.138 26.4831 30.9066 26.5889 30.7245L27.6472 28.8935C27.7505 28.7113 27.9819 28.6498 28.164 28.7532C28.3461 28.859 28.4076 29.0903 28.3018 29.2725L27.2435 31.106C27.1746 31.2266 27.0466 31.2955 26.9162 31.2955L26.9162 31.293Z" fill="#84B5FF"/>
<path d="M37.8306 24.2435C37.7666 24.2435 37.7002 24.2262 37.6411 24.1918C37.4614 24.0884 37.3999 23.8571 37.5033 23.6749L38.5615 21.8439C38.6649 21.6618 38.8987 21.6002 39.0784 21.7061C39.2605 21.8094 39.322 22.0432 39.2162 22.2229L38.1579 24.0539C38.089 24.1745 37.961 24.2435 37.8306 24.2435Z" fill="#5196FF"/>
<path d="M35.1097 15.9949C35.2037 16.7335 34.6822 17.4089 33.9458 17.5025C33.2094 17.5962 32.5355 17.0727 32.4416 16.3341C32.3477 15.5955 32.8691 14.9201 33.6056 14.8265C34.342 14.7329 35.0158 15.2563 35.1097 15.9949Z" fill="#84B5FF"/>
<path d="M8.01795 20.2722C8.11186 21.0108 7.5904 21.6863 6.854 21.7799C6.11759 21.8735 5.44371 21.3501 5.34981 20.6115C5.2559 19.8729 5.77735 19.1975 6.51376 19.1038C7.25017 19.0102 7.92405 19.5336 8.01795 20.2722Z" fill="#84B5FF"/>
<path d="M25.1273 37.3836C25.2212 38.1222 24.6998 38.7976 23.9634 38.8912C23.227 38.9848 22.5531 38.4614 22.4592 37.7228C22.3653 36.9842 22.8867 36.3088 23.6231 36.2152C24.3595 36.1215 25.0334 36.645 25.1273 37.3836Z" fill="#84B5FF"/>
<path d="M10.8051 22.6013C10.8497 22.9522 10.602 23.273 10.2523 23.3174C9.9025 23.3619 9.58243 23.1133 9.53783 22.7625C9.49323 22.4117 9.7409 22.0909 10.0907 22.0464C10.4404 22.0019 10.7605 22.2505 10.8051 22.6013Z" fill="#84B5FF"/>
</g>
<path d="M6.77899 10.0965C-0.418537 18.9086 0.873836 31.9126 9.66994 39.1368C18.4621 46.3615 31.4279 45.0751 38.625 36.2591C45.822 27.4431 44.5262 14.4435 35.734 7.21879C26.9418 -0.00593197 13.976 1.28052 6.77899 10.0965ZM36.5742 34.5744C30.3037 42.2542 19.0107 43.3757 11.3522 37.081C3.68976 30.7868 2.56309 19.4605 8.8297 11.7812C15.1007 4.10536 26.3933 2.97993 34.0557 9.27415C41.7142 15.5689 42.8409 26.8952 36.5738 34.5705L36.5742 34.5744Z" fill="#383E44"/>
<path d="M8.83102 11.7817C2.5644 19.461 3.69107 30.7873 11.3496 37.082C19.012 43.3762 30.3011 42.2552 36.5717 34.5755C42.8383 26.8962 41.7116 15.5699 34.0536 9.2791C26.3946 2.98047 15.102 4.1059 8.83102 11.7817ZM35.6541 33.8169C29.7987 40.9863 19.2537 42.0326 12.1009 36.159C4.94763 30.2814 3.89651 19.7054 9.74805 12.5364C15.6035 5.36693 26.1485 4.32064 33.3013 10.1943C40.4546 16.0719 41.5096 26.6474 35.6541 33.8169Z" fill="#383E44"/>
</svg>
