<svg width="111" height="84" viewBox="0 0 111 84" fill="none" xmlns="http://www.w3.org/2000/svg">
<path d="M73.4346 80.704C53.9904 75.022 34.4983 69.5153 14.9544 64.1874C10.1934 62.9473 8.62631 58.0458 11.2635 54.0383C20.0606 40.1862 27.2626 26.1908 32.985 10.8051C34.6212 6.5168 39.7569 3.94904 44.1851 4.39916C63.2316 6.32665 82.2605 8.40484 101.325 10.1477C106.061 10.6765 111.683 14.6865 109.848 20.1549C104.319 38.623 98.1032 56.668 89.9684 74.1697C87.2009 79.9949 79.3953 82.5802 73.4346 80.704Z" fill="#D9E9FF"/>
<path d="M41.1292 32.938C38.9566 32.5666 36.782 32.1968 34.6093 31.8272C33.6465 31.6635 33.2167 30.8309 33.6362 29.9665C34.7492 27.8742 35.4663 25.563 36.3208 23.3579C36.6891 22.4095 37.7461 21.8111 38.7076 21.9658C40.8782 22.3156 43.0488 22.6655 45.2191 23.0188C46.2089 23.179 46.7298 24.0644 46.3569 25.0537C45.5191 27.276 44.7092 29.4824 43.6855 31.6274C43.2709 32.5226 42.1202 33.1072 41.1292 32.938Z" fill="#C3DCFF"/>
<path d="M56.5689 35.6036C54.259 35.2011 51.9491 34.7987 49.6408 34.3999C48.6182 34.2231 48.1324 33.3456 48.5443 32.4377C49.5245 30.2753 50.3804 28.1025 51.2042 25.8757C51.5783 24.8686 52.6897 24.2347 53.7093 24.4024C56.0085 24.7791 58.3094 25.1559 60.6086 25.5325C61.6584 25.7041 62.2204 26.6406 61.8403 27.6829C61.0402 29.9025 60.1542 32.0715 59.2202 34.2388C58.8151 35.1775 57.6232 35.7879 56.5688 35.6053L56.5689 35.6036Z" fill="#C3DCFF"/>
<path d="M72.9954 38.5029C70.5361 38.065 68.0766 37.6288 65.6189 37.1929C64.5313 37.0008 63.9847 36.0725 64.3855 35.1192C65.2967 32.9467 66.1761 30.7684 66.9778 28.5524C67.3573 27.4939 68.5227 26.8281 69.6025 27.0035C72.0414 27.4025 74.4803 27.7996 76.9193 28.1967C78.0327 28.3781 78.6454 29.3575 78.2672 30.4482C77.4685 32.6733 76.6193 34.8805 75.7491 37.0791C75.3585 38.0671 74.1182 38.7045 72.9953 38.5046L72.9954 38.5029Z" fill="#C3DCFF"/>
<path d="M90.5119 41.6626C87.8891 41.1847 85.2644 40.7085 82.6413 40.2341C81.4816 40.0245 80.8656 39.0414 81.2521 38.037C82.1077 35.8159 82.9338 33.582 83.732 31.3391C84.0878 30.3379 85.3221 29.5553 86.471 29.7409C89.0659 30.1579 91.6592 30.5712 94.2543 30.9846C95.4405 31.1728 96.1256 32.1912 95.7797 33.2288C95.0063 35.5521 94.2049 37.8681 93.3757 40.1715C93.0009 41.2142 91.7121 41.8804 90.5138 41.661L90.5119 41.6626Z" fill="#C3DCFF"/>
<path d="M34.3983 46.1208C32.2072 45.6552 30.0159 45.1931 27.8262 44.7329C26.8555 44.5293 26.469 43.664 26.9495 42.7985C28.0123 40.8868 29.0545 38.9629 30.0708 37.0265C30.5243 36.1627 31.6664 35.6006 32.6318 35.777C34.8116 36.174 36.9895 36.5726 39.1691 36.9713C40.1645 37.1533 40.6165 38.0285 40.1663 38.9212C39.1616 40.9228 38.131 42.91 37.0797 44.8869C36.6044 45.7814 35.3988 46.3318 34.3983 46.1208Z" fill="#C3DCFF"/>
<path d="M49.974 49.4576C47.6426 48.9536 45.3111 48.4513 42.9794 47.9508C41.9475 47.7287 41.5036 46.8147 41.9763 45.9057C43.0228 43.8964 44.0449 41.8764 45.0428 39.844C45.4886 38.9367 46.6716 38.3525 47.6967 38.5437C50.0137 38.9735 52.3303 39.4068 54.647 39.8401C55.7056 40.0391 56.2167 40.9631 55.7777 41.9012C54.7944 44.0044 53.787 46.0951 52.7555 48.1734C52.2894 49.1151 51.0376 49.6873 49.9722 49.4575L49.974 49.4576Z" fill="#C3DCFF"/>
<path d="M66.5762 53.0915C64.0907 52.5427 61.605 51.9957 59.1173 51.4504C58.017 51.2092 57.5108 50.2408 57.9743 49.2847C58.9977 47.1701 59.9985 45.0449 60.9733 42.909C61.4081 41.9545 62.6356 41.3466 63.7276 41.5533C66.1955 42.0221 68.6635 42.491 71.1311 42.9634C72.2582 43.1797 72.837 44.1585 72.4105 45.1476C71.4553 47.3617 70.474 49.5651 69.4667 51.7559C69.0115 52.7466 67.7114 53.3458 66.5743 53.0931L66.5762 53.0915Z" fill="#C3DCFF"/>
<path d="M84.3028 57.0515C81.6474 56.4516 78.9917 55.8553 76.3342 55.2605C75.1603 54.9981 74.585 53.9695 75.0361 52.9607C76.0335 50.7316 77.0066 48.4919 77.952 46.2396C78.3742 45.2341 79.6501 44.5992 80.814 44.8252C83.4488 45.3361 86.0835 45.8488 88.7162 46.3631C89.9206 46.5991 90.5738 47.6385 90.1613 48.6821C89.2317 51.016 88.2814 53.3395 87.3118 55.6563C86.8688 56.7033 85.5151 57.3274 84.3009 57.0532L84.3028 57.0515Z" fill="#C3DCFF"/>
<path d="M26.8289 59.2961C24.6264 58.7367 22.4221 58.1789 20.2177 57.623C19.2427 57.378 18.8925 56.4795 19.4282 55.616C20.6089 53.7054 21.7673 51.7825 22.9085 49.8494C23.4173 48.9859 24.6106 48.4578 25.5821 48.6757C27.7787 49.165 29.975 49.6578 32.1696 50.1505C33.1727 50.376 33.5847 51.286 33.0792 52.1784C31.9493 54.1801 30.7971 56.1678 29.6226 58.1432C29.0919 59.0375 27.8352 59.5522 26.8289 59.2961Z" fill="#C3DCFF"/>
<path d="M42.506 63.3202C40.1587 62.7114 37.8129 62.1063 35.4634 61.5026C34.4257 61.2354 34.0219 60.2849 34.5518 59.3763C35.7232 57.3686 36.8705 55.3483 37.9955 53.3141C38.4986 52.4054 39.7343 51.8589 40.7689 52.0937C43.1074 52.625 45.4455 53.1599 47.7818 53.6965C48.8498 53.9408 49.3223 54.905 48.8242 55.8444C47.7104 57.9492 46.5706 60.0414 45.4085 62.1213C44.8817 63.0623 43.5771 63.5969 42.5043 63.3201L42.506 63.3202Z" fill="#C3DCFF"/>
<path d="M59.2277 67.7034C56.7233 67.0407 54.2186 66.3816 51.7121 65.7224C50.6045 65.4324 50.1422 64.4242 50.6665 63.467C51.8239 61.3527 52.959 59.2244 54.0665 57.0835C54.5621 56.1278 55.8477 55.5579 56.9488 55.8135C59.443 56.3932 61.9352 56.9746 64.4273 57.5578C65.5669 57.825 66.1051 58.8474 65.6159 59.8393C64.5208 62.0597 63.3912 64.2617 62.2514 66.4576C61.7317 67.4509 60.372 68.0067 59.2277 67.7034Z" fill="#C3DCFF"/>
<path d="M77.0983 72.4874C74.4212 71.7626 71.7421 71.0413 69.0628 70.3235C67.8783 70.0067 67.3491 68.9331 67.8664 67.9235C69.0018 65.688 70.1165 63.4439 71.2121 61.1895C71.6989 60.1814 73.0363 59.5865 74.2143 59.8671C76.8782 60.4998 79.5436 61.1344 82.2071 61.7724C83.4254 62.0647 84.0359 63.153 83.5571 64.1992C82.4768 66.5404 81.3758 68.8713 80.2558 71.1937C79.7446 72.243 78.3262 72.8215 77.0999 72.4893L77.0983 72.4874Z" fill="#C3DCFF"/>
<path d="M107.807 26.8497C82.2068 23.2442 56.6346 19.4172 31.0098 15.9851C31.6908 14.2684 32.3547 12.5416 32.9852 10.8053C34.6214 6.517 39.7571 3.94924 44.1853 4.39936C63.2318 6.32685 82.2607 8.40504 101.325 10.1479C106.061 10.6767 111.683 14.6867 109.849 20.1551C109.187 22.3933 108.499 24.6225 107.807 26.8497Z" fill="#84B5FF"/>
<path d="M34.9654 38.8391C31.1612 42.1782 25.3623 41.8006 22.0232 37.9964L13.9965 28.8516L27.7814 16.752L35.8081 25.8969C39.1473 29.7011 38.7697 35.5 34.9654 38.8391Z" fill="#7DB1FF"/>
<path d="M8.75551 8.97807C12.5591 5.63955 18.358 6.01714 21.6971 9.82137L27.9348 16.928L14.1506 29.027L7.9128 21.9203C4.5737 18.1161 4.95128 12.3172 8.75551 8.97807Z" fill="#1A488F"/>
<path d="M24.861 27.3243C28.6676 23.9831 30.0451 19.3283 27.9378 16.9274C25.8305 14.5266 21.0364 15.2889 17.2298 18.6301C13.4231 21.9713 12.0456 26.6261 14.1529 29.027C16.2602 31.4278 21.0544 30.6655 24.861 27.3243Z" fill="#1A488F"/>
<path d="M30.9322 74.5237C28.2289 71.2499 28.692 66.3978 31.9657 63.6945L39.8354 57.1962L49.631 69.0589L41.7613 75.5572C38.4876 78.2605 33.6355 77.7974 30.9322 74.5237Z" fill="#84B5FF"/>
<path d="M56.6289 53.3019C59.3317 56.5751 58.8686 61.4272 55.5948 64.1305L49.4791 69.1805L39.684 57.3183L45.7997 52.2683C49.0735 49.565 53.9256 50.0282 56.6289 53.3019Z" fill="#2469D1"/>
<path d="M40.839 66.3393C43.544 69.6151 47.4117 70.8876 49.4777 69.1816C51.5438 67.4755 51.0259 63.437 48.3209 60.1612C45.6159 56.8854 41.7482 55.6128 39.6822 57.3189C37.6161 59.0249 38.134 63.0635 40.839 66.3393Z" fill="#2469D1"/>
</svg>
