<svg width="32" height="32" viewBox="0 0 32 32" fill="none" xmlns="http://www.w3.org/2000/svg">
<g clip-path="url(#clip0_157_20541)">
<path d="M29.3334 12.2165C29.3334 7.6772 25.8515 4 21.5549 4C19.376 4 17.4118 4.94859 16.0001 6.47193C14.5883 4.94859 12.6214 4 10.4452 4C6.14865 4 2.66675 7.67999 2.66675 12.2165C2.66675 13.5808 2.9876 14.867 3.5428 15.9997H3.53722C3.53722 15.9997 5.78595 21.4067 15.9973 28.3817C26.2114 21.4067 28.4574 15.9997 28.4574 15.9997H28.4518C29.0098 14.867 29.3278 13.5808 29.3278 12.2165H29.3334Z" fill="#DC5050"/>
<path d="M8.72656 15.2007H11.5427L13.9742 10.4648L17.9943 19.96L20.5529 15.2007H23.272" stroke="#F9BCBC" stroke-width="1.67228" stroke-linecap="round" stroke-linejoin="round"/>
</g>
<defs>
<clipPath id="clip0_157_20541">
<rect width="32" height="32" fill="white"/>
</clipPath>
</defs>
</svg>
