<svg width="33" height="32" viewBox="0 0 33 32" fill="none" xmlns="http://www.w3.org/2000/svg">
<path d="M23.9084 2H9.09156C5.45114 2 2.5 4.95114 2.5 8.59156V23.4084C2.5 27.0489 5.45114 30 9.09156 30H23.9084C27.5489 30 30.5 27.0489 30.5 23.4084V8.59156C30.5 4.95114 27.5489 2 23.9084 2Z" fill="#ADCEFF"/>
<path d="M28.0972 8.59208V23.4096C28.0972 25.7215 26.2201 27.5985 23.9082 27.5985H9.09133C6.77942 27.5985 4.90239 25.7215 4.90239 23.4096V8.59208C4.90239 6.28017 6.77942 4.40314 9.09133 4.40314L23.9082 4.40314C26.2201 4.40314 28.0972 6.28017 28.0972 8.59208Z" fill="#5196FF"/>
<path d="M16.5002 7.54999C13.6736 7.54999 11.1058 8.65158 9.19749 10.4463C8.99507 10.6367 8.98967 10.9575 9.18668 11.1539L12.0578 14.025C12.2428 14.21 12.5401 14.2184 12.7341 14.043C13.7312 13.1409 15.0502 12.5889 16.5002 12.5889C17.9502 12.5889 19.2698 13.1409 20.2663 14.043C20.4603 14.2184 20.7576 14.21 20.9426 14.025L23.8138 11.1539C24.0102 10.9575 24.0054 10.6367 23.8029 10.4463C21.8947 8.65098 19.3269 7.54999 16.5002 7.54999Z" fill="white"/>
<path d="M16.4997 9.02814C16.1501 9.02814 15.866 9.31165 15.866 9.66183V12.623C16.0654 12.6014 16.2678 12.5894 16.4732 12.5894C16.6967 12.5894 16.9165 12.6038 17.1327 12.629V9.66183C17.1327 9.31225 16.8492 9.02814 16.4991 9.02814H16.4997Z" fill="#383E44"/>
</svg>
