<svg width="21" height="20" viewBox="0 0 21 20" fill="none" xmlns="http://www.w3.org/2000/svg">
<path d="M10.5007 4.32495C6.90161 4.32495 3.65195 5.81641 1.33398 8.21327L5.59799 12.4773C6.82647 11.1699 8.56588 10.3472 10.5007 10.3472C12.4354 10.3472 14.1748 11.1699 15.4033 12.4773L19.6673 8.21327C17.3456 5.81641 14.0959 4.32495 10.5007 4.32495Z" fill="#84B5FF"/>
<path d="M11.0161 13.285L10.6142 6.33108C10.6067 6.18456 10.3925 6.18456 10.3812 6.33108L9.97926 13.285C9.5848 13.4766 9.31055 13.8786 9.31055 14.3444C9.31055 14.9981 9.84026 15.5278 10.4939 15.5278C11.1476 15.5278 11.6774 14.9981 11.6774 14.3444C11.6774 13.8748 11.4031 13.4766 11.0086 13.285H11.0161Z" fill="#10141A"/>
</svg>
