<svg width="21" height="20" viewBox="0 0 21 20" fill="none" xmlns="http://www.w3.org/2000/svg">
<path d="M2.99902 15.3517H11.4266C12.8936 15.3517 14.0831 14.1621 14.0831 12.6951C14.0831 11.2281 12.8936 10.0385 11.4266 10.0385H9.56764C8.10063 10.0385 6.91106 8.84894 6.91106 7.38192C6.91106 5.91491 8.10063 4.72534 9.56764 4.72534H17.9952" stroke="#4C5258" stroke-width="3.81493" stroke-miterlimit="10"/>
<path d="M3.86605 15.1814H2.99902V15.5282H3.86605V15.1814Z" fill="#FFBF3C"/>
<path d="M10.9343 15.5264H9.25224V15.1796H10.9343V15.5264ZM8.57942 15.5264H6.89738V15.1796H8.57942V15.5264ZM6.2211 15.5264H4.53906V15.1796H6.2211V15.5264ZM11.621 15.5195L11.5967 15.1727C12.1273 15.138 12.6233 14.9368 13.029 14.5935L13.2544 14.8571C12.7897 15.249 12.2244 15.4779 11.621 15.516V15.5195ZM13.7365 14.3334L13.4521 14.1322C13.7504 13.7091 13.9099 13.2132 13.9099 12.6964V12.6548L14.2567 12.6513V12.6964C14.2567 13.2895 14.0764 13.8548 13.7365 14.3334ZM13.8232 12.034C13.6845 11.5311 13.3793 11.0733 12.9666 10.7439L13.1816 10.4734C13.6533 10.8444 13.9966 11.3681 14.1562 11.9404L13.8232 12.034ZM12.429 10.4213C12.1134 10.2826 11.777 10.2098 11.4267 10.2098H10.8476V9.86296H11.4267C11.8256 9.86296 12.2071 9.94273 12.5678 10.1023L12.429 10.4213ZM10.1748 10.2098H9.56784C9.17941 10.2098 8.80485 10.1335 8.4511 9.98088L8.58636 9.66181C8.89502 9.7936 9.22449 9.86296 9.56437 9.86296H10.1713V10.2098H10.1748ZM7.83724 9.6202C7.36211 9.25258 7.01183 8.73583 6.84883 8.16012L7.18177 8.06301C7.32743 8.56589 7.63263 9.02021 8.0488 9.34275L7.83724 9.61673V9.6202ZM6.74132 7.45262V7.37979C6.74132 6.80061 6.91473 6.24225 7.24766 5.76711L7.53205 5.9648C7.24073 6.38097 7.08813 6.86998 7.08813 7.38326V7.44915L6.74132 7.45609V7.45262ZM7.95169 5.4966L7.72627 5.23302C8.18753 4.83766 8.74936 4.60183 9.35281 4.55674L9.38056 4.90355C8.84994 4.94517 8.35746 5.14979 7.95169 5.4966ZM16.4347 4.89662H14.7527V4.5498H16.4347V4.89662ZM14.0764 4.89662H12.3944V4.5498H14.0764V4.89662ZM11.7215 4.89662H10.0395V4.5498H11.7215V4.89662Z" fill="#FFBF3C"/>
<path d="M17.9989 4.5498H17.1318V4.89662H17.9989V4.5498Z" fill="#FFBF3C"/>
</svg>
