<svg width="32" height="32" viewBox="0 0 32 32" fill="none" xmlns="http://www.w3.org/2000/svg">
<path d="M24.1597 22.3467C27.7536 22.3467 30.667 19.4333 30.667 15.8394C30.667 12.2455 27.7536 9.33203 24.1597 9.33203C20.5658 9.33203 17.6523 12.2455 17.6523 15.8394C17.6523 19.4333 20.5658 22.3467 24.1597 22.3467Z" fill="#DC5050"/>
<path d="M24.1585 9.33203H7.83984V22.3467H24.1585V9.33203Z" fill="#DC5050"/>
<path d="M7.83935 22.3467C11.4333 22.3467 14.3467 19.4333 14.3467 15.8394C14.3467 12.2455 11.4333 9.33203 7.83935 9.33203C4.24546 9.33203 1.33203 12.2455 1.33203 15.8394C1.33203 19.4333 4.24546 22.3467 7.83935 22.3467Z" fill="#F09797"/>
<path d="M7.84088 20.6193C10.4799 20.6193 12.6193 18.4799 12.6193 15.8409C12.6193 13.2019 10.4799 11.0625 7.84088 11.0625C5.20185 11.0625 3.0625 13.2019 3.0625 15.8409C3.0625 18.4799 5.20185 20.6193 7.84088 20.6193Z" fill="#DC5050"/>
<path d="M7.84088 11.9018C10.0119 11.9018 11.78 13.6699 11.78 15.8409C11.78 18.0119 10.0119 19.78 7.84088 19.78C5.66991 19.78 3.90179 18.0119 3.90179 15.8409C3.90179 13.6699 5.66991 11.9018 7.84088 11.9018ZM7.84088 11.0625C5.2027 11.0625 3.0625 13.2027 3.0625 15.8409C3.0625 18.4791 5.2027 20.6193 7.84088 20.6193C10.4791 20.6193 12.6193 18.4791 12.6193 15.8409C12.6193 13.2027 10.4791 11.0625 7.84088 11.0625Z" fill="#FFD09C"/>
<path d="M7.83758 11.9046C10.0086 11.9046 11.7767 13.6727 11.7767 15.8437C11.7767 16.4424 11.6452 17.0159 11.3878 17.553C11.2311 17.8748 10.9038 18.0762 10.5261 18.0762C10.3387 18.0762 10.1568 18.023 9.99736 17.9251L9.26717 17.4747C8.83634 17.2089 8.34395 17.069 7.83758 17.069C7.3312 17.069 6.83882 17.2089 6.40798 17.4747L5.6778 17.9251C5.51833 18.023 5.33648 18.0762 5.15184 18.0762C4.77416 18.0762 4.44124 17.872 4.28457 17.5446C3.96004 16.8676 3.83974 16.1095 3.93206 15.3485C4.14748 13.5692 5.59946 12.134 7.38156 11.9354C7.53263 11.9186 7.6865 11.9102 7.83758 11.9102M7.83758 11.0653C7.65573 11.0653 7.47388 11.0765 7.28644 11.0961C5.11827 11.3395 3.35855 13.0768 3.09557 15.2422C2.97807 16.2018 3.14593 17.111 3.52361 17.9027C3.83415 18.549 4.4804 18.9127 5.14904 18.9127C5.47916 18.9127 5.81488 18.8232 6.11703 18.6357L6.84721 18.1853C7.14936 17.9979 7.49347 17.9055 7.83478 17.9055C8.17609 17.9055 8.5202 17.9979 8.82235 18.1853L9.55253 18.6357C9.85468 18.8232 10.1932 18.9127 10.5233 18.9127C11.1864 18.9127 11.8298 18.5574 12.1404 17.9139C12.4425 17.2873 12.6132 16.5851 12.6132 15.8409C12.6132 13.2027 10.473 11.0625 7.83478 11.0625L7.83758 11.0653Z" fill="#FFD09C"/>
<path d="M10.9794 18.5947L10.0114 18.4436L7.7761 17.3945L5.59673 18.4436L4.6875 18.6507C4.6875 18.6507 5.76459 20.1362 7.68378 20.2062C9.60296 20.2761 10.9794 18.5919 10.9794 18.5919V18.5947Z" fill="#FFD09C"/>
<path d="M8.78678 13.972C9.00773 13.972 9.18685 13.7929 9.18685 13.5719C9.18685 13.351 9.00773 13.1719 8.78678 13.1719C8.56583 13.1719 8.38672 13.351 8.38672 13.5719C8.38672 13.7929 8.56583 13.972 8.78678 13.972Z" fill="#FFD09C"/>
<path d="M5.612 15.6927C5.92411 15.6927 6.17712 15.4397 6.17712 15.1276C6.17712 14.8155 5.92411 14.5625 5.612 14.5625C5.29989 14.5625 5.04688 14.8155 5.04688 15.1276C5.04688 15.4397 5.29989 15.6927 5.612 15.6927Z" fill="#FFD09C"/>
<path d="M9.60715 16.558C9.83891 16.558 10.0268 16.3702 10.0268 16.1384C10.0268 15.9066 9.83891 15.7188 9.60715 15.7188C9.37538 15.7188 9.1875 15.9066 9.1875 16.1384C9.1875 16.3702 9.37538 16.558 9.60715 16.558Z" fill="#FFD09C"/>
<path d="M10.5047 15.2789C10.6669 15.2789 10.7984 15.1474 10.7984 14.9852C10.7984 14.8229 10.6669 14.6914 10.5047 14.6914C10.3425 14.6914 10.2109 14.8229 10.2109 14.9852C10.2109 15.1474 10.3425 15.2789 10.5047 15.2789Z" fill="#FFD09C"/>
<path d="M7.39532 15.9859C7.55755 15.9859 7.68907 15.8544 7.68907 15.6922C7.68907 15.53 7.55755 15.3984 7.39532 15.3984C7.23308 15.3984 7.10156 15.53 7.10156 15.6922C7.10156 15.8544 7.23308 15.9859 7.39532 15.9859Z" fill="#FFD09C"/>
<path d="M5.17303 17.0023C5.29664 17.0023 5.39684 16.9021 5.39684 16.7785C5.39684 16.6549 5.29664 16.5547 5.17303 16.5547C5.04942 16.5547 4.94922 16.6549 4.94922 16.7785C4.94922 16.9021 5.04942 17.0023 5.17303 17.0023Z" fill="#FFD09C"/>
<path d="M6.37225 13.8461C6.49586 13.8461 6.59606 13.7459 6.59606 13.6222C6.59606 13.4986 6.49586 13.3984 6.37225 13.3984C6.24864 13.3984 6.14844 13.4986 6.14844 13.6222C6.14844 13.7459 6.24864 13.8461 6.37225 13.8461Z" fill="#FFD09C"/>
</svg>
