<svg width="32" height="32" viewBox="0 0 32 32" fill="none" xmlns="http://www.w3.org/2000/svg">
<g clip-path="url(#clip0_116_940)">
<rect width="28" height="28" rx="14" transform="matrix(-1 0 0 1 30 2)" fill="#EAF3FF"/>
<path d="M18.2854 23.2225C17.3462 22.4499 16.569 20.8329 16.1526 18.7671C15.3776 21.6726 15.0052 23.7176 13.032 24.0229C12.9626 24.0345 12.8932 24.0437 12.8261 24.053C11.6394 24.2265 11.0718 27.0073 9.95445 26.4984C9.01988 26.0728 7.72719 25.2252 7.09088 23.3166C6.77264 22.3621 6.75499 20.453 7.21637 18.6491C7.49859 17.5457 8.00751 16.4862 8.31981 15.3782C9.12252 12.5212 8.71538 9.15542 10.9847 6.90228C11.4219 6.46738 11.9216 6.09726 12.4536 5.78265C14.1238 4.79257 15.8866 4.75787 16.953 5.01927C17.7927 5.22746 18.2438 5.52356 18.2438 5.52356C18.2438 5.52356 19.028 5.49118 19.9302 5.94689C20.7815 6.37717 21.4917 7.01101 21.9798 7.83454C22.8496 9.29653 22.838 10.932 23.1179 12.556C23.2891 13.5483 23.6363 14.7257 23.9545 15.9984C24.2727 17.2712 24.6321 18.5011 24.9091 19.8166C25.1477 20.9503 25.1 22.3621 24.5909 23.6348C24.0818 24.9075 21.7304 26.6408 20.7727 26.8166C19.5675 27.0387 19.2732 24.0252 18.3109 23.2456C18.3016 23.2387 18.2924 23.2318 18.2831 23.2225H18.2854Z" fill="#35302E"/>
<path d="M21.7136 17.1447C21.1699 17.6443 20.351 17.6166 19.8791 17.0545C19.1528 16.2864 19.1181 14.4937 19.8606 13.7256C20.3557 13.1959 21.2255 13.0478 21.857 13.4018C23.0807 14.1096 22.6481 16.3165 21.7344 17.1239L21.7113 17.1447H21.7136Z" fill="#F3C6BD"/>
<path d="M21.2786 16.1335C20.9594 16.4273 20.4782 16.4111 20.2006 16.0803C19.775 15.6292 19.7541 14.5766 20.1914 14.1232C20.4828 13.8133 20.9941 13.7254 21.3642 13.9336C22.0836 14.3499 21.8292 15.6454 21.2925 16.1219L21.2786 16.1335Z" fill="#EBAAA0"/>
<path d="M10.2863 17.1447C10.8299 17.6443 11.6488 17.6166 12.1207 17.0545C12.8471 16.2864 12.8818 14.4937 12.1392 13.7256C11.6442 13.1959 10.7744 13.0478 10.1429 13.4018C8.91914 14.1096 9.35173 16.3165 10.2655 17.1239L10.2886 17.1447H10.2863Z" fill="#F3C6BD"/>
<path d="M10.7229 16.1335C11.0421 16.4273 11.5233 16.4111 11.8009 16.0803C12.2265 15.6292 12.2473 14.5766 11.8101 14.1232C11.5186 13.8133 11.0074 13.7254 10.6373 13.9336C9.91785 14.3499 10.1723 15.6454 10.709 16.1219L10.7229 16.1335Z" fill="#EBAAA0"/>
<path d="M22.1995 24.7016L21.7808 24.5698C20.9873 24.3176 20.2286 23.9706 19.5207 23.5334C18.6486 22.9967 18.1165 22.046 18.1165 21.0212V16.8457H13.8855V21.0212C13.8855 22.046 13.3535 22.9967 12.4814 23.5334C11.7735 23.9683 11.0148 24.3176 10.2213 24.5698L9.8026 24.7016C8.38918 25.1504 7.34589 26.3533 7.10068 27.8176L6.5293 31.2297H25.4705L24.8991 27.8176C24.6539 26.3556 23.6106 25.1527 22.1972 24.7016H22.1995Z" fill="#F3C6BD"/>
<mask id="mask0_116_940" style="mask-type:luminance" maskUnits="userSpaceOnUse" x="6" y="16" width="20" height="16">
<path d="M22.1997 24.7016L21.781 24.5698C20.9876 24.3176 20.2288 23.9706 19.521 23.5334C18.6488 22.9967 18.1168 22.046 18.1168 21.0212V16.8457H13.8858V21.0212C13.8858 22.046 13.3537 22.9967 12.4816 23.5334C11.7738 23.9683 11.015 24.3176 10.2215 24.5698L9.80284 24.7016C8.38942 25.1504 7.34613 26.3533 7.10092 27.8176L6.52954 31.2297H25.4707L24.8993 27.8176C24.6541 26.3556 23.6108 25.1527 22.1974 24.7016H22.1997Z" fill="white"/>
</mask>
<g mask="url(#mask0_116_940)">
<path d="M20.8933 19.7447C20.7916 19.7447 13.0166 19.4393 13.0166 19.4393L13.0675 20.9638C13.0675 20.9638 16.3709 23.4251 19.6742 22.7681C22.0592 22.2939 20.8933 19.7447 20.8933 19.7447Z" fill="#EBAAA0"/>
<path d="M16.0255 26.7808C17.236 26.7801 18.3751 26.2918 19.1145 25.3333C19.4707 24.8716 19.9181 24.2729 20.4723 23.5018L23.9283 24.8735L26.4452 30.2866L26.5215 32.6508L5.53076 32.4472L5.75978 27.6449L8.60512 24.4363L11.5461 23.4277C11.5461 23.4277 12.0946 24.3405 12.8315 25.3173C13.5783 26.3073 14.7854 26.7816 16.0255 26.7808V26.7808Z" fill="#3284FF"/>
<path d="M19.5005 30.9551L20.455 23.9551L25.2278 24.5914L24.9096 28.4096L19.5005 30.9551Z" fill="white"/>
<path d="M12.5005 30.9551L11.5459 23.9551L6.77322 24.5914L7.0914 28.4096L12.5005 30.9551Z" fill="white"/>
</g>
<path d="M16.4185 6.88086H15.5811C12.6803 6.88086 10.4156 9.39309 10.7163 12.2778L11.135 16.3006C11.3686 18.556 12.7312 20.6079 15.1879 21.3852C15.7153 21.5517 16.2844 21.5517 16.8095 21.3852C19.2662 20.6079 20.6287 18.5537 20.8624 16.3006L21.2811 12.2778C21.5818 9.39309 19.3171 6.88086 16.4162 6.88086H16.4185Z" fill="#F3C6BD"/>
<path d="M16.1156 15.4111C16.1202 15.7673 16.148 16.0264 16.3839 16.3225C16.6523 16.6788 16.421 17.2039 16.0948 17.4075C16.0416 17.4491 15.9652 17.4375 15.9236 17.3843C15.9005 17.3543 15.8935 17.3149 15.9028 17.2779C15.949 17.1021 16.0161 16.9517 16.0277 16.8338C16.0208 16.5284 15.9143 16.2647 15.8773 15.9362C15.8635 15.7511 15.8796 15.573 15.8843 15.4088C15.8866 15.2607 16.111 15.2584 16.1156 15.4088V15.4111Z" fill="#E69489"/>
<path d="M18.7806 15.6862C18.5863 15.8875 18.2509 15.8875 18.0496 15.6978C17.7813 15.4642 17.7628 14.902 18.0057 14.6337C18.2416 14.3469 18.7112 14.4093 18.8778 14.7424C19.0258 15.0131 19.0073 15.4549 18.7922 15.677L18.7806 15.6886V15.6862Z" fill="#35302E"/>
<path d="M17.4735 13.2294C18.1536 12.6996 19.2293 12.8754 19.7613 13.5324C19.796 13.574 19.7914 13.6365 19.7498 13.6712C19.7197 13.6966 19.6781 13.7013 19.6434 13.6851C19.4676 13.6018 19.3079 13.5139 19.1344 13.4607C18.6278 13.2756 18.0888 13.3149 17.5637 13.4005C17.4619 13.4306 17.3902 13.2918 17.4735 13.227V13.2294Z" fill="#35302E"/>
<path d="M13.22 15.6862C13.4143 15.8875 13.7497 15.8875 13.951 15.6978C14.2193 15.4642 14.2378 14.902 13.9949 14.6337C13.759 14.3469 13.2894 14.4093 13.1228 14.7424C12.9748 15.0131 12.9933 15.4549 13.2084 15.677L13.22 15.6886V15.6862Z" fill="#35302E"/>
<path d="M14.4388 13.4033C13.724 13.2622 12.9999 13.3154 12.3592 13.6878C12.2666 13.7364 12.1718 13.6092 12.2412 13.5352C12.6414 13.0424 13.3423 12.818 13.9576 12.9638C14.0941 13.0008 14.6678 13.1743 14.5429 13.3709C14.5174 13.4033 14.4758 13.4125 14.4365 13.4056L14.4388 13.4033Z" fill="#35302E"/>
<path d="M14.6584 17.9743C15.4009 18.0298 15.8474 18.1177 16.5414 18.0552C16.8259 18.039 17.0387 17.9812 17.3487 17.9696C17.4343 17.9604 17.513 18.0251 17.513 18.1131C17.2932 19.7717 14.7208 19.7856 14.4849 18.1292C14.4733 18.0321 14.5658 17.9581 14.6584 17.9766V17.9743Z" fill="#DB7A73"/>
<path d="M17.0896 7.78711C17.0896 7.78711 20.1364 11.2247 21.0909 14.7247C21.0909 14.7247 24.2053 8.24514 17.0896 7.78711Z" fill="#35302E"/>
<path d="M10.909 14.407C10.909 14.407 16.5297 6.07348 21.9474 11.7156C22.1926 10.3507 22.609 6.64024 16.7795 5.81902C6.77259 5.49798 10.909 14.407 10.909 14.407Z" fill="#35302E"/>
</g>
<defs>
<clipPath id="clip0_116_940">
<rect width="28" height="28" rx="14" transform="matrix(-1 0 0 1 30 2)" fill="white"/>
</clipPath>
</defs>
</svg>
