<svg width="32" height="32" viewBox="0 0 32 32" fill="none" xmlns="http://www.w3.org/2000/svg">
<path d="M24.8664 18.7476C24.8664 18.7476 22.1301 16.6159 19.2108 16.2261C16.2994 15.8364 15.4801 16.6079 13.2927 16.3216C12.1313 16.25 11.0972 15.8841 9.93586 15.8125C8.92564 15.8761 7.94723 16.3773 8.02678 17.5227C8.08246 18.3897 8.84609 19.0578 9.72904 19.2885C11.3358 19.6146 13.237 19.9248 13.237 19.9248L3.59613 20.5453C2.88022 20.593 2.33932 21.2055 2.38705 21.9213L2.10068 21.9373C1.38478 21.985 0.843875 22.5975 0.891602 23.3133C0.939329 24.0292 1.55182 24.5701 2.26773 24.5224L2.58591 24.4985C2.70523 25.1428 3.26204 25.6121 3.93022 25.5644L14.1438 24.9042L14.1199 24.5224H24.8744V18.7476H24.8664Z" fill="#EEB9AE"/>
<path d="M23.1008 21.7539C23.1008 21.7539 21.9792 20.0914 19.2588 20.4096C16.5304 20.7278 13.8497 22.6368 11.4236 23.0822C9.70543 23.3368 7.27136 23.639 5.98273 23.8697C5.41001 23.9095 5.01228 24.514 5.05205 25.0867C5.09183 25.6594 5.56114 26.2082 6.13386 26.1764L25.7894 26.2082" fill="#F3C6BD"/>
<rect x="23.1562" y="16.4434" width="7.95449" height="11.1359" rx="1.59087" fill="#4C5258"/>
<path d="M14.6664 15.1102C17.8574 15.1102 20.4442 12.5234 20.4442 9.33246C20.4442 6.14149 17.8574 3.55469 14.6664 3.55469C11.4755 3.55469 8.88867 6.14149 8.88867 9.33246C8.88867 12.5234 11.4755 15.1102 14.6664 15.1102Z" fill="#FFAF17"/>
<path d="M14.6663 14.2809C17.3985 14.2809 19.6134 12.066 19.6134 9.33379C19.6134 6.6016 17.3985 4.38672 14.6663 4.38672C11.9341 4.38672 9.71924 6.6016 9.71924 9.33379C9.71924 12.066 11.9341 14.2809 14.6663 14.2809Z" fill="#FFBF3C"/>
<path d="M17.8909 8.7649H17.0681L17.3627 7.4432L17.384 7.34766H16.3303L16.0543 8.7649H15.3696L15.0935 7.34766H14.231L13.9337 8.7649H13.2172L12.9411 7.34766H11.8848L12.2007 8.7649H11.3779V9.7628H12.4236L12.9173 11.9656H14.3053L14.6583 10.0176L15.0139 11.9656H16.3489L16.8425 9.7628H17.8882V8.7649H17.8909ZM15.8605 9.7628L15.7119 10.5298L15.5633 9.7628H15.8605ZM13.7267 9.7628L13.5622 10.5431L13.4109 9.7628H13.7267Z" fill="#E87E00"/>
</svg>
