<svg width="32" height="32" viewBox="0 0 32 32" fill="none" xmlns="http://www.w3.org/2000/svg">
<path d="M20.9106 5.19141C19.0944 5.19141 17.3724 5.86408 16.0001 7.1018C14.6279 5.86408 12.9193 5.19141 11.0896 5.19141C6.93248 5.19141 3.55566 8.74312 3.55566 13.1155C3.55566 14.3667 3.82473 15.564 4.36287 16.6807C4.36287 16.6807 4.36287 16.7076 4.37632 16.721C4.45705 16.9228 6.54233 21.7526 15.6234 27.9547C15.731 28.0354 15.8656 28.0757 16.0001 28.0757C16.1346 28.0757 16.2692 28.0354 16.3768 27.9547C25.4579 21.7526 27.5297 16.9228 27.6239 16.721C27.6239 16.721 27.6239 16.6941 27.6373 16.6807C28.1755 15.564 28.4446 14.3667 28.4446 13.1155C28.4446 8.74312 25.0677 5.19141 20.9106 5.19141Z" fill="#F5BABA"/>
<path d="M20.8891 14.3164H11.1113V17.6796H20.8891V14.3164Z" fill="#E55151"/>
<path d="M14.3203 11.1109V20.8887H17.6835V11.1109H14.3203Z" fill="#E55151"/>
</svg>
