<svg width="40" height="40" viewBox="0 0 40 40" fill="none" xmlns="http://www.w3.org/2000/svg">
<g clip-path="url(#clip0_1429_78184)">
<rect width="40" height="40" rx="20" fill="#F4F6FA"/>
<path d="M29.1653 22.5637C28.2899 23.3681 26.9718 23.3242 26.2113 22.4184C25.0419 21.1814 24.9844 18.295 26.1809 17.058C26.9785 16.2063 28.3778 15.9664 29.3951 16.5375C31.3655 17.6765 30.6693 21.2321 29.1991 22.5299L29.1619 22.5637H29.1653Z" fill="#F3C6BD"/>
<path d="M28.4616 20.9455C27.9479 21.4187 27.1739 21.3917 26.7244 20.861C26.0383 20.1344 26.0045 18.4411 26.7109 17.7111C27.1807 17.2108 28.002 17.0689 28.6002 17.4069C29.7595 18.0761 29.3505 20.1648 28.4853 20.932L28.4616 20.9523V20.9455Z" fill="#EBAAA0"/>
<path d="M10.7636 22.5637C11.6389 23.3681 12.9571 23.3242 13.7175 22.4184C14.8869 21.1814 14.9444 18.295 13.7479 17.058C12.9503 16.2063 11.5511 15.9664 10.5337 16.5375C8.56331 17.6765 9.25956 21.2321 10.7298 22.5299L10.767 22.5637H10.7636Z" fill="#F3C6BD"/>
<path d="M11.4621 20.9455C11.9758 21.4187 12.7498 21.3917 13.1993 20.861C13.8854 20.1344 13.9192 18.4411 13.2128 17.7111C12.743 17.2108 11.9218 17.0689 11.3235 17.4069C10.1643 18.0761 10.5732 20.1648 11.4384 20.932L11.4621 20.9523V20.9455Z" fill="#EBAAA0"/>
<path d="M32.3748 35.2136L31.5366 34.9499C29.9481 34.443 28.4305 33.7501 27.011 32.8747L25.8822 32.1819C24.8344 31.5363 24.199 30.3973 24.199 29.1671V20.0078H15.7258V29.1671C15.7258 30.3973 15.0904 31.5363 14.0427 32.1819L12.9138 32.8747C11.4943 33.7467 9.97339 34.443 8.38826 34.9499L7.55007 35.2136C4.71779 36.116 2.62907 38.5224 2.14238 41.4527L1 48.2833H38.9384L37.796 41.4527C37.3025 38.5224 35.2138 36.116 32.3883 35.2136H32.3849H32.3748Z" fill="#F3C6BD"/>
<mask id="mask0_1429_78184" style="mask-type:alpha" maskUnits="userSpaceOnUse" x="1" y="20" width="38" height="29">
<path d="M32.3748 35.2253L31.5366 34.9617C29.9481 34.4547 28.4305 33.7618 27.011 32.8865L25.8822 32.1936C24.8344 31.5481 24.199 30.4091 24.199 29.1788V20.0195H15.7258V29.1788C15.7258 30.4091 15.0904 31.5481 14.0427 32.1936L12.9138 32.8865C11.4943 33.7585 9.97339 34.4547 8.38826 34.9617L7.55007 35.2253C4.71779 36.1277 2.62907 38.5341 2.14238 41.4644L1 48.295H38.9384L37.796 41.4644C37.3025 38.5341 35.2138 36.1277 32.3883 35.2253H32.3849H32.3748Z" fill="#EBC7BD"/>
</mask>
<g mask="url(#mask0_1429_78184)">
<path d="M29.7613 25.8227C29.5552 25.8227 13.9844 25.2109 13.9844 25.2109L14.0858 28.2663C14.0858 28.2663 20.7034 33.194 27.3177 31.8793C32.0934 30.9296 29.7613 25.8227 29.7613 25.8227Z" fill="#EBAAA0"/>
<path d="M25.8415 33.5574C26.2302 33.1788 26.6223 32.7631 27.0109 32.317L32.4524 34.4767L38.6003 36.9676L42.3857 50.5747H-0.605469V38.2655L8.32061 33.7872L12.444 32.1953C12.444 32.1953 13.3869 33.047 14.6915 34.0846C18.0139 36.731 22.8098 36.5282 25.8483 33.5608H25.8449L25.8415 33.5574Z" fill="#5196FF"/>
</g>
<path d="M20.6401 6.04297H19.2915C14.6206 6.04297 10.9738 10.0886 11.4571 14.7325L12.1297 21.2115C12.5049 24.8448 14.7017 28.1469 18.6561 29.4008C19.5044 29.6678 20.4204 29.6678 21.2687 29.4008C25.2265 28.1503 27.42 24.8415 27.7951 21.2115L28.4677 14.7325C28.951 10.0886 25.3042 6.04297 20.6333 6.04297H20.6367H20.6401Z" fill="#F3C6BD"/>
<path d="M20.1448 19.7739C20.1516 20.3485 20.1955 20.7642 20.5774 21.2408C21.0101 21.8153 20.6383 22.6603 20.111 22.9881C20.0265 23.0557 19.9015 23.0355 19.8339 22.951C19.7967 22.9036 19.7866 22.8394 19.8001 22.7786C19.8744 22.4947 19.9826 22.2547 20.0029 22.0621C19.9927 21.572 19.8204 21.1461 19.7595 20.6155C19.7359 20.3181 19.7629 20.0308 19.7697 19.7672C19.773 19.5272 20.1347 19.5238 20.1414 19.7672L20.1448 19.7739Z" fill="#E69489"/>
<path d="M24.444 20.226C24.1296 20.5505 23.5922 20.5505 23.2678 20.2463C22.8352 19.8711 22.8048 18.9653 23.1968 18.5327C23.5753 18.0697 24.3324 18.1711 24.6028 18.7085C24.8428 19.1445 24.8124 19.8542 24.4642 20.2125L24.4473 20.2328L24.444 20.226Z" fill="#35302E"/>
<path d="M22.316 16.2329C23.4009 15.3102 25.2058 15.6144 26.0372 16.723C26.1048 16.8075 26.0879 16.9325 26.0034 17.0001C25.9392 17.0475 25.8581 17.0508 25.7905 17.0204C25.2531 16.7771 24.7495 16.5777 24.1783 16.5236C23.6071 16.4594 23.0393 16.5236 22.4614 16.5743C22.2788 16.5946 22.1741 16.3478 22.316 16.2329Z" fill="#35302E"/>
<path d="M15.4865 20.226C15.8009 20.5505 16.3383 20.5505 16.6627 20.2463C17.0953 19.8711 17.1257 18.9653 16.7337 18.5327C16.3552 18.0697 15.5981 18.1711 15.3277 18.7085C15.0877 19.1445 15.1181 19.8542 15.4663 20.2125L15.4865 20.2328V20.226Z" fill="#35302E"/>
<path d="M17.4274 16.5769C16.2749 16.4214 15.1596 16.4823 14.1119 17.0298C13.9327 17.1109 13.757 16.8777 13.882 16.729C14.5073 15.8942 15.6733 15.5156 16.6805 15.7691C16.9306 15.8401 17.8736 16.1477 17.6201 16.5127C17.5694 16.5735 17.4984 16.587 17.4274 16.5769Z" fill="#35302E"/>
<path d="M17.7487 24.0693C19.1682 24.6202 20.7736 24.6033 22.1965 24.0626C22.4061 23.9882 22.5379 24.3059 22.3419 24.4039C21.2569 25.0157 19.9321 25.1745 18.7255 24.867C18.3233 24.7622 17.938 24.6236 17.5662 24.3972C17.4783 24.3465 17.4513 24.2282 17.502 24.1403C17.5527 24.0558 17.6574 24.0288 17.7453 24.0693H17.7487Z" fill="#E69489"/>
<path d="M24.1623 11.3192C24.1623 11.3192 23.0436 13.3335 19.9139 13.4991C19.5286 13.5194 19.1703 13.7087 18.9405 14.0196C18.0786 15.1789 17.2776 15.838 13.2759 16.2233C12.894 16.2604 12.5831 16.5545 12.5256 16.933L12.0355 20.2858C12.0355 20.2858 11.5691 17.3285 11.1771 14.9998C10.6093 11.4341 10.954 7.44591 15.7668 5.26255C21.0258 2.78515 24.8653 5.83712 24.8653 5.83712C24.8653 5.83712 28.0626 6.34071 28.9819 10.6195C29.5429 13.9419 27.8936 20.2858 27.8936 20.2858L27.4475 16.8384C27.4001 16.4801 27.194 16.1658 26.8898 15.9732C24.3178 14.3441 24.1589 11.3158 24.1589 11.3158L24.1623 11.3192Z" fill="#35302E"/>
</g>
<defs>
<clipPath id="clip0_1429_78184">
<rect width="40" height="40" rx="20" fill="white"/>
</clipPath>
</defs>
</svg>
