<svg width="40" height="40" viewBox="0 0 40 40" fill="none" xmlns="http://www.w3.org/2000/svg">
<g clip-path="url(#clip0_1429_78246)">
<rect width="40" height="40" rx="20" fill="#F4F6FA"/>
<path d="M32.4862 21.8551C32.4862 20.9615 32.2558 20.0435 31.8684 19.2652C31.7811 19.0732 31.7148 18.8707 31.7287 18.6613C32.1511 17.2337 32.3396 15.635 31.7287 14.2109C31.5856 13.7886 31.2994 13.4151 31.1738 12.9892C31.0586 12.4761 31.2471 11.8723 31.1738 11.3173C31.0027 8.35035 28.6047 5.97331 25.6553 5.78831C24.8978 5.76737 24.5767 4.97852 24.0077 4.59107C21.6656 2.68525 18.5556 2.99591 16.2623 4.79352C15.9412 4.92965 15.5572 4.88078 15.2047 4.9122C12.0213 5.11814 9.8293 7.79885 9.66176 10.874C9.59195 11.0729 9.4628 11.2475 9.32318 11.408C8.15037 12.7309 7.63727 14.738 8.03518 16.5216C8.09103 16.8462 8.0282 17.1394 7.86415 17.4326C7.43133 18.1831 7.15209 19.0278 7.08227 19.9039C6.82747 22.6859 8.65649 25.2828 11.2395 26.0507C11.4594 26.124 11.6513 26.2252 11.7945 26.3788C12.9673 28.6058 15.2745 30.2184 17.9692 29.8589C18.5626 29.81 19.1036 29.5761 19.6656 29.44C20.1019 29.3597 20.5068 29.6075 20.9221 29.7053C23.3201 30.344 25.2678 29.4435 27.0305 27.8623C30.0393 27.3457 32.4757 25.1222 32.4827 21.9145V21.8481L32.4862 21.8551Z" fill="#878787"/>
<path d="M28.8946 22.0323C28.0744 22.7862 26.8387 22.7444 26.1267 21.8962C25.0306 20.7373 24.9783 18.0322 26.0987 16.8733C26.8457 16.074 28.1581 15.8506 29.111 16.3847C30.9575 17.4528 30.3048 20.7827 28.926 22.0009L28.8911 22.0323H28.8946Z" fill="#F3C6BD"/>
<path d="M28.2391 20.5079C27.7574 20.9512 27.0314 20.9268 26.6126 20.4276C25.9703 19.747 25.9389 18.1588 26.5986 17.4747C27.0384 17.0069 27.8098 16.8743 28.3683 17.1884C29.4538 17.8167 29.0699 19.7714 28.2601 20.4905L28.2391 20.5079Z" fill="#EBAAA0"/>
<path d="M11.6502 22.0323C12.4705 22.7862 13.7061 22.7444 14.4182 21.8962C15.5142 20.7373 15.5665 18.0322 14.4461 16.8733C13.6991 16.074 12.3867 15.8506 11.4338 16.3847C9.5873 17.4528 10.24 20.7827 11.6188 22.0009L11.6537 22.0323H11.6502Z" fill="#F3C6BD"/>
<path d="M12.3092 20.5079C12.7909 20.9512 13.5169 20.9268 13.9358 20.4276C14.5781 19.747 14.6095 18.1588 13.9498 17.4747C13.51 17.0069 12.7386 16.8743 12.1801 17.1884C11.0945 17.8167 11.4785 19.7714 12.2883 20.4905L12.3092 20.5079Z" fill="#EBAAA0"/>
<path d="M29.6252 33.4436L28.9934 33.2446C27.7961 32.8642 26.6513 32.3406 25.5832 31.6809C24.2672 30.8711 23.4644 29.4365 23.4644 27.8902V21.5898H17.0803V27.8902C17.0803 29.4365 16.2775 30.8711 14.9615 31.6809C13.8934 32.3371 12.7486 32.8642 11.5513 33.2446L10.9195 33.4436C8.78684 34.1208 7.21262 35.9358 6.84262 38.1453L5.98047 43.2938H34.5607L33.6986 38.1453C33.3286 35.9393 31.7544 34.1243 29.6217 33.4436H29.6252Z" fill="#F3C6BD"/>
<mask id="mask0_1429_78246" style="mask-type:luminance" maskUnits="userSpaceOnUse" x="5" y="21" width="30" height="23">
<path d="M29.6252 33.4436L28.9934 33.2446C27.7961 32.8642 26.6513 32.3406 25.5832 31.6809C24.2672 30.8711 23.4644 29.4365 23.4644 27.8902V21.5898H17.0803V27.8902C17.0803 29.4365 16.2775 30.8711 14.9615 31.6809C13.8934 32.3371 12.7486 32.8642 11.5513 33.2446L10.9195 33.4436C8.78684 34.1208 7.21262 35.9358 6.84262 38.1453L5.98047 43.2938H34.5607L33.6986 38.1453C33.3286 35.9393 31.7544 34.1243 29.6217 33.4436H29.6252Z" fill="white"/>
</mask>
<g mask="url(#mask0_1429_78246)">
<path d="M27.6547 25.9627C27.5011 25.9627 15.7695 25.502 15.7695 25.502L15.8463 27.8022C15.8463 27.8022 20.8308 31.5161 25.8152 30.5248C29.4139 29.8092 27.6547 25.9627 27.6547 25.9627Z" fill="#EBAAA0"/>
<path d="M20.2707 36.5812C20.2707 36.5812 23.7577 35.3909 27.0178 31.6351L32.2327 33.705L36.0303 41.8728L36.1455 45.4401L4.47266 45.1329L4.81822 37.8866L9.11154 33.0453L13.0593 31.5234C13.0593 31.5234 17.4748 35.5096 20.2707 36.5847V36.5812Z" fill="#DF7878"/>
</g>
<path d="M20.9024 6.55664H19.6388C15.2618 6.55664 11.8445 10.3473 12.2983 14.7L12.9301 20.77C13.2826 24.1732 15.3385 27.2693 19.0455 28.4421C19.8413 28.6934 20.7 28.6934 21.4923 28.4421C25.1992 27.2693 27.2551 24.1697 27.6077 20.77L28.2395 14.7C28.6932 10.3473 25.276 6.55664 20.8989 6.55664H20.9024Z" fill="#F3C6BD"/>
<path d="M20.446 19.4223C20.4529 19.9599 20.4948 20.3508 20.8509 20.7976C21.2557 21.3351 20.9067 22.1275 20.4145 22.4347C20.3343 22.4975 20.2191 22.48 20.1562 22.3997C20.1213 22.3544 20.1109 22.295 20.1248 22.2392C20.1946 21.9739 20.2959 21.747 20.3133 21.569C20.3028 21.1083 20.1423 20.7103 20.0864 20.2147C20.0655 19.9355 20.0899 19.6667 20.0969 19.4189C20.1004 19.1955 20.439 19.192 20.446 19.4189V19.4223Z" fill="#E69489"/>
<path d="M24.4695 19.8323C24.1763 20.136 23.6702 20.136 23.3665 19.8498C22.9616 19.4973 22.9337 18.6491 23.3002 18.2442C23.6562 17.8113 24.3648 17.9056 24.6161 18.4082C24.8395 18.8166 24.8116 19.4833 24.4869 19.8184L24.4695 19.8358V19.8323Z" fill="#34302E"/>
<path d="M22.5076 16.0645C23.6202 15.679 24.9515 15.6716 25.9664 16.3468C26.0329 16.3938 26.0495 16.4867 25.999 16.5537C25.9574 16.6089 25.8863 16.6294 25.8231 16.6066C24.773 16.2572 23.665 16.3741 22.5662 16.3558C22.4018 16.3648 22.3535 16.1214 22.5081 16.0679L22.5076 16.0645Z" fill="#707070"/>
<path d="M16.0769 19.8323C16.3701 20.136 16.8762 20.136 17.1799 19.8498C17.5848 19.4973 17.6127 18.6491 17.2462 18.2442C16.8902 17.8113 16.1816 17.9056 15.9303 18.4082C15.7069 18.8166 15.7349 19.4833 16.0595 19.8184L16.0769 19.8358V19.8323Z" fill="#34302E"/>
<path d="M17.984 16.3525C16.8813 16.3738 15.7738 16.2534 14.7197 16.6058C14.5638 16.6614 14.4512 16.4341 14.5873 16.344C15.3492 15.813 16.3033 15.7462 17.1842 15.8489C17.478 15.8902 17.7615 15.9547 18.0455 16.0651C18.1226 16.0936 18.1598 16.1799 18.1309 16.2604C18.1083 16.3207 18.0467 16.3578 17.987 16.3565L17.984 16.3525Z" fill="#707070"/>
<path d="M18.1312 24.2501C19.5007 24.5 21.0007 24.5992 22.4141 24.2501C22.6305 24.2431 22.6584 24.5712 22.442 24.5992C21.0007 25 19.5007 25 18.0963 24.5992C17.8799 24.5677 17.9113 24.2396 18.1312 24.2536V24.2501Z" fill="#E69489"/>
<path d="M21.892 8.7113C21.892 8.7113 22.5587 15.975 9.71017 17.9786C9.71017 17.9786 7.60888 3.18932 21.892 8.7113Z" fill="#878787"/>
<path d="M20.4688 8.51964C20.4688 8.51964 21.2227 14.7607 27.8931 18.0557C27.8931 18.0557 28.3468 17.3157 28.3852 15.3226C30.0083 12.621 26.0256 7.96116 20.4688 8.51615V8.51964Z" fill="#878787"/>
<path d="M11.1172 13.0826C11.1172 13.0826 21.0686 5.33365 29.2434 13.847C29.6134 11.7876 30.2417 6.18882 21.4456 4.94969C12.2795 3.65821 11.1172 13.0826 11.1172 13.0826Z" fill="#878787"/>
<path d="M17.604 22.9141C17.604 22.9141 16.6895 23.9542 16.6406 25.5319" stroke="#E69489" stroke-width="0.443294" stroke-linecap="round" stroke-linejoin="round"/>
<path d="M22.8398 22.9141C22.8398 22.9141 23.7544 23.9542 23.8032 25.5319" stroke="#E69489" stroke-width="0.443294" stroke-linecap="round" stroke-linejoin="round"/>
</g>
<defs>
<clipPath id="clip0_1429_78246">
<rect width="40" height="40" rx="20" fill="white"/>
</clipPath>
</defs>
</svg>
