<svg width="40" height="40" viewBox="0 0 40 40" fill="none" xmlns="http://www.w3.org/2000/svg">
<g clip-path="url(#clip0_1429_78210)">
<rect width="40" height="40" rx="20" transform="matrix(-1 0 0 1 40 0)" fill="#F4F6FA"/>
<path d="M23.2652 30.3195C21.9235 29.2158 20.8131 26.9058 20.2183 23.9547C19.1112 28.1054 18.5792 31.0267 15.7603 31.463C15.6611 31.4795 15.562 31.4927 15.4661 31.5059C13.7708 31.7538 12.0921 31.8265 10.4959 31.0994C9.16079 30.4914 8.03389 29.3876 7.51506 28.0162C7.00944 26.6778 7.09536 25.1741 7.45227 23.7862C7.85544 22.2098 8.58247 20.6963 9.0286 19.1133C10.1753 15.032 9.59371 10.2237 12.8356 7.00493C13.4602 6.38365 14.174 5.8549 14.9341 5.40546C17.3201 3.99105 19.8383 3.94148 21.3617 4.31491C22.5613 4.61234 23.2057 5.03534 23.2057 5.03534C23.2057 5.03534 24.326 4.98907 25.6149 5.64009C26.831 6.25477 27.8455 7.16025 28.5428 8.33672C29.7854 10.4253 29.7689 12.7617 30.1687 15.0816C30.4133 16.4993 30.7966 17.8972 31.332 19.2323C31.8971 20.6368 32.5151 22.038 32.829 23.5251C33.252 25.5343 33.1099 27.7848 31.8673 29.4207C31.0279 30.5277 29.7358 31.2614 28.3677 31.5125C26.6459 31.8298 24.6763 31.4663 23.3016 30.3526C23.2884 30.3427 23.2751 30.3328 23.2619 30.3195H23.2652Z" fill="#35302E"/>
<path d="M28.1632 21.638C27.3866 22.3519 26.2168 22.3122 25.5426 21.5092C24.5049 20.412 24.4554 17.8509 25.5162 16.7537C26.2234 15.9969 27.4659 15.7854 28.3681 16.291C30.1163 17.3023 29.4983 20.455 28.193 21.6083L28.1599 21.638H28.1632Z" fill="#F3C6BD"/>
<path d="M27.5402 20.1932C27.0842 20.6129 26.3968 20.5898 26.0002 20.1172C25.3922 19.4728 25.3624 17.9691 25.987 17.3214C26.4034 16.8786 27.1338 16.753 27.6625 17.0504C28.6903 17.6453 28.3267 19.4959 27.5601 20.1767L27.5402 20.1932Z" fill="#EBAAA0"/>
<path d="M11.836 21.638C12.6126 22.3519 13.7824 22.3122 14.4566 21.5092C15.4943 20.412 15.5438 17.8509 14.483 16.7537C13.7758 15.9969 12.5332 15.7854 11.6311 16.291C9.88288 17.3023 10.5009 20.455 11.8062 21.6083L11.8393 21.638H11.836Z" fill="#F3C6BD"/>
<path d="M12.4621 20.1932C12.9181 20.6129 13.6055 20.5898 14.0021 20.1172C14.6101 19.4728 14.6399 17.9691 14.0153 17.3214C13.5989 16.8786 12.8686 16.753 12.3398 17.0504C11.3121 17.6453 11.6756 19.4959 12.4423 20.1767L12.4621 20.1932Z" fill="#EBAAA0"/>
<path d="M28.8547 32.4298L28.2566 32.2414C27.1231 31.8812 26.0391 31.3855 25.0279 30.7609C23.782 29.9942 23.022 28.636 23.022 27.172V21.207H16.9777V27.172C16.9777 28.636 16.2176 29.9942 14.9717 30.7609C13.9605 31.3822 12.8765 31.8812 11.743 32.2414L11.1449 32.4298C9.12572 33.0709 7.63531 34.7893 7.28501 36.8812L6.46875 41.7556H33.5276L32.7113 36.8812C32.361 34.7926 30.8706 33.0742 28.8514 32.4298H28.8547Z" fill="#F3C6BD"/>
<mask id="mask0_1429_78210" style="mask-type:luminance" maskUnits="userSpaceOnUse" x="6" y="21" width="28" height="21">
<path d="M28.8547 32.4298L28.2566 32.2414C27.1231 31.8812 26.0391 31.3855 25.0279 30.7609C23.782 29.9942 23.022 28.636 23.022 27.172V21.207H16.9777V27.172C16.9777 28.636 16.2176 29.9942 14.9717 30.7609C13.9605 31.3822 12.8765 31.8812 11.743 32.2414L11.1449 32.4298C9.12572 33.0709 7.63531 34.7893 7.28501 36.8812L6.46875 41.7556H33.5276L32.7113 36.8812C32.361 34.7926 30.8706 33.0742 28.8514 32.4298H28.8547Z" fill="white"/>
</mask>
<g mask="url(#mask0_1429_78210)">
<path d="M26.9869 25.3503C26.8414 25.3503 15.7344 24.9141 15.7344 24.9141L15.8071 27.0919C15.8071 27.0919 20.5262 30.608 25.2453 29.6695C28.6524 28.9921 26.9869 25.3503 26.9869 25.3503Z" fill="#EBAAA0"/>
<path d="M19.9961 35.3979C19.9961 35.3979 23.2975 34.271 26.3841 30.7151L31.3213 32.6748L34.9168 40.4078L35.0258 43.7852L5.03906 43.4944L5.36623 36.6338L9.431 32.0502L13.5255 30.6094C13.5255 30.6094 17.349 34.3833 19.9961 35.4012V35.3979Z" fill="#E96B6B"/>
</g>
<path d="M20.5985 6.97461H19.4022C15.2581 6.97461 12.0228 10.5635 12.4524 14.6845L13.0506 20.4313C13.3843 23.6534 15.3308 26.5847 18.8404 27.695C19.5938 27.933 20.4068 27.933 21.157 27.695C24.6666 26.5847 26.613 23.6501 26.9468 20.4313L27.5449 14.6845C27.9745 10.5635 24.7393 6.97461 20.5952 6.97461H20.5985Z" fill="#F3C6BD"/>
<path d="M20.1647 19.1593C20.1713 19.6682 20.2109 20.0383 20.548 20.4613C20.9313 20.9702 20.6009 21.7204 20.1349 22.0112C20.0589 22.0707 19.9498 22.0542 19.8904 21.9782C19.8573 21.9352 19.8474 21.879 19.8606 21.8262C19.9267 21.575 20.0225 21.3602 20.0391 21.1917C20.0292 20.7554 19.8771 20.3787 19.8243 19.9094C19.8044 19.6451 19.8276 19.3906 19.8342 19.156C19.8375 18.9445 20.158 18.9412 20.1647 19.156V19.1593Z" fill="#E69489"/>
<path d="M23.9717 19.5574C23.6941 19.8449 23.2149 19.8449 22.9274 19.5739C22.544 19.2401 22.5176 18.4371 22.8646 18.0537C23.2017 17.6439 23.8725 17.7332 24.1105 18.209C24.322 18.5957 24.2955 19.2269 23.9882 19.5441L23.9717 19.5607V19.5574Z" fill="#35302E"/>
<path d="M22.1029 16.0464C23.0745 15.2896 24.6112 15.5408 25.3713 16.4793C25.4208 16.5388 25.4142 16.628 25.3547 16.6776C25.3118 16.714 25.2523 16.7206 25.2027 16.6974C24.9516 16.5785 24.7235 16.4529 24.4757 16.3769C23.752 16.1125 22.982 16.1687 22.2318 16.291C22.0864 16.3339 21.9839 16.1356 22.1029 16.0431V16.0464Z" fill="#35302E"/>
<path d="M16.0262 19.5593C16.3038 19.8468 16.783 19.8468 17.0705 19.5758C17.4539 19.2421 17.4803 18.439 17.1333 18.0557C16.7962 17.6459 16.1254 17.7351 15.8874 18.211C15.6759 18.5976 15.7024 19.2288 16.0097 19.5461L16.0262 19.5626V19.5593Z" fill="#35302E"/>
<path d="M17.7673 16.296C16.7462 16.0944 15.7118 16.1704 14.7964 16.7025C14.6642 16.7719 14.5287 16.5901 14.6279 16.4844C15.1996 15.7805 16.2009 15.4599 17.08 15.6681C17.2749 15.721 18.0945 15.9688 17.916 16.2497C17.8797 16.296 17.8202 16.3092 17.764 16.2993L17.7673 16.296Z" fill="#35302E"/>
<path d="M18.0813 22.8204C19.1421 22.8997 19.7799 23.0253 20.7713 22.936C21.1778 22.9129 21.4818 22.8303 21.9246 22.8138C22.0469 22.8005 22.1593 22.8931 22.1593 23.0186C21.8453 25.3881 18.1705 25.4079 17.8334 23.0418C17.8169 22.903 17.9491 22.7972 18.0813 22.8237V22.8204Z" fill="#DB7A73"/>
<path d="M24.3225 9.11226C24.3225 9.11226 17.9874 17.5921 10 19.3866C10 19.3866 10.7997 3.88424 24.3225 9.11226Z" fill="#35302E"/>
<path d="M21.5547 8.27148C21.5547 8.27148 23.4417 15.8227 29.7602 18.9456C29.7602 18.9456 31.7199 8.92581 21.5547 8.27148Z" fill="#35302E"/>
<path d="M11.332 13.1588C11.332 13.1588 20.7537 5.82236 28.4933 13.8825C28.8436 11.9327 29.4384 6.63201 21.1106 5.45885C12.4325 4.23611 11.332 13.1588 11.332 13.1588Z" fill="#35302E"/>
</g>
<defs>
<clipPath id="clip0_1429_78210">
<rect width="40" height="40" rx="20" transform="matrix(-1 0 0 1 40 0)" fill="white"/>
</clipPath>
</defs>
</svg>
