<svg width="33" height="32" viewBox="0 0 33 32" fill="none" xmlns="http://www.w3.org/2000/svg">
<path d="M16.7501 3.34961C11.0046 3.34961 6.3501 8.00416 6.3501 13.7496C6.3501 15.921 7.01503 17.9366 8.15789 19.599C8.15789 19.599 10.2462 22.7782 16.7501 29.7496C23.2644 22.7886 25.3423 19.599 25.3423 19.599C26.4852 17.9366 27.1501 15.9107 27.1501 13.7496C27.1501 8.00416 22.4956 3.34961 16.7501 3.34961ZM16.7501 18.0301C14.4748 18.0301 12.6254 16.1808 12.6254 13.9055C12.6254 11.6301 14.4748 9.78078 16.7501 9.78078C19.0254 9.78078 20.8748 11.6301 20.8748 13.9055C20.8748 16.1808 19.0254 18.0301 16.7501 18.0301Z" fill="#ADCEFF"/>
<ellipse cx="16.74" cy="13.7342" rx="5.2" ry="5.2" fill="#ADCEFF"/>
<ellipse cx="16.7398" cy="10.5626" rx="1.79111" ry="1.79113" fill="#3284FF"/>
<rect x="15.3967" y="14.1455" width="2.68667" height="6.26895" fill="#3284FF"/>
</svg>
