<svg width="60" height="60" viewBox="0 0 60 60" fill="none" xmlns="http://www.w3.org/2000/svg">
<g clip-path="url(#clip0_1016_50705)">
<rect width="60" height="60" rx="30" fill="#EAF3FF"/>
<g clip-path="url(#clip1_1016_50705)">
<path d="M43.2863 33.4148C42.0382 34.5586 40.1641 34.4968 39.0821 33.2061C37.4167 31.4441 37.3355 27.3365 39.0396 25.5744C40.1757 24.3611 42.1696 24.0211 43.6148 24.8325C46.4202 26.4555 45.4271 31.5136 43.3327 33.3646L43.2786 33.4109H43.2825L43.2863 33.4148Z" fill="#F3C6BD"/>
<path d="M42.281 31.1017C41.5507 31.7741 40.4455 31.7393 39.8079 30.9781C38.8303 29.9425 38.7839 27.5313 39.7886 26.4918C40.4571 25.7808 41.6279 25.5799 42.478 26.0551C44.128 27.0096 43.5446 29.9811 42.3119 31.0708L42.281 31.0979V31.1017Z" fill="#EBAAA0"/>
<path d="M17.0865 33.4148C18.3346 34.5586 20.2087 34.4968 21.2907 33.2061C22.9561 31.4441 23.0373 27.3365 21.3332 25.5744C20.1971 24.3611 18.2032 24.0211 16.758 24.8325C13.9526 26.4555 14.9457 31.5136 17.0401 33.3646L17.0942 33.4109H17.0903L17.0865 33.4148Z" fill="#F3C6BD"/>
<path d="M18.0839 31.1017C18.8143 31.7741 19.9194 31.7393 20.557 30.9781C21.5346 29.9425 21.581 27.5313 20.5763 26.4918C19.9078 25.7808 18.737 25.5799 17.8869 26.0551C16.2369 27.0096 16.8204 29.9811 18.053 31.0708L18.0839 31.0979V31.1017Z" fill="#EBAAA0"/>
<path d="M47.857 51.4244L46.663 51.0495C44.4025 50.3269 42.2385 49.3416 40.2176 48.0973L38.6101 47.112C37.1185 46.1962 36.2143 44.5732 36.2143 42.8228V29.7812H24.1504V42.8228C24.1504 44.5732 23.2424 46.1962 21.7547 47.112L20.1472 48.0973C18.1262 49.3377 15.9623 50.3308 13.7018 51.0495L12.5078 51.4244C8.47744 52.7073 5.50204 56.1348 4.8065 60.3081L3.17969 70.0341H57.1889L55.5621 60.3081C54.8627 56.1348 51.8873 52.7073 47.8609 51.4244H47.857Z" fill="#F3C6BD"/>
<mask id="mask0_1016_50705" style="mask-type:alpha" maskUnits="userSpaceOnUse" x="3" y="29" width="55" height="42">
<path d="M47.8531 51.4244L46.6591 51.0495C44.3986 50.3269 42.2346 49.3416 40.2137 48.0973L38.6062 47.112C37.1146 46.1962 36.2104 44.5732 36.2104 42.8228V29.7812H24.1465V42.8228C24.1465 44.5732 23.2385 46.1962 21.7508 47.112L20.1433 48.0973C18.1223 49.3377 15.9584 50.3308 13.6979 51.0495L12.5038 51.4244C8.47353 52.7073 5.49814 56.1348 4.80259 60.3081L3.17578 70.0341H57.185L55.5582 60.3081C54.8588 56.1348 51.8834 52.7073 47.857 51.4244H47.8531Z" fill="#EBC7BD"/>
</mask>
<g mask="url(#mask0_1016_50705)">
<path d="M44.1303 38.0413C43.8367 38.0413 21.6719 37.1719 21.6719 37.1719L21.8148 41.519C21.8148 41.519 31.2357 48.5363 40.6526 46.6622C47.4535 45.3098 44.1303 38.0374 44.1303 38.0374V38.0413Z" fill="#EBAAA0"/>
<path d="M38.5516 49.0493C39.1041 48.5083 39.6644 47.9209 40.217 47.2833L47.9646 50.3592L53.6063 62.5004L53.7763 72.4776H6.71094L7.22487 56.5766L13.6046 49.3816L19.4742 47.1172C19.4742 47.1172 20.8151 48.3305 22.6738 49.8066C27.4035 53.5703 34.2314 53.2844 38.5593 49.0609H38.5554L38.5516 49.0493Z" fill="#5196FF"/>
<path d="M18.7265 47.1289L24.6657 75.5304C24.6657 75.5304 1.51172 77.4972 1.51172 75.5304V47.2564L18.7265 47.125V47.1289Z" fill="white"/>
<path d="M41.2751 47.1289L35.3359 75.5304C35.3359 75.5304 58.4899 77.4972 58.4899 75.5304V47.2564L41.2751 47.125V47.1289Z" fill="white"/>
</g>
<path d="M31.146 9.89062H29.2256C22.5754 9.89062 17.3819 15.6521 18.0736 22.2636L19.0319 31.4874C19.569 36.6576 22.6913 41.3641 28.3252 43.1455C29.5347 43.5281 30.8408 43.5281 32.0425 43.1455C37.6765 41.3641 40.7987 36.6537 41.3358 31.4874L42.2941 22.2636C42.9819 15.6521 37.7924 9.89062 31.1422 9.89062H31.146Z" fill="#F3C6BD"/>
<path d="M30.444 29.4478C30.4556 30.2632 30.5174 30.8583 31.0584 31.5384C31.6728 32.3537 31.1434 33.5593 30.3938 34.0269C30.2701 34.1235 30.0962 34.0964 29.9996 33.9728C29.9455 33.9032 29.9301 33.8143 29.9533 33.7293C30.0576 33.3275 30.2122 32.9835 30.2392 32.7131C30.2238 32.0136 29.9803 31.407 29.8953 30.6535C29.8644 30.2284 29.8992 29.8227 29.9108 29.444C29.9146 29.1039 30.4324 29.1001 30.4401 29.444L30.444 29.4478Z" fill="#E69489"/>
<path d="M36.5586 30.0869C36.1142 30.5467 35.3453 30.5467 34.8816 30.1139C34.2672 29.5768 34.2247 28.2901 34.7811 27.6757C35.3221 27.0188 36.4002 27.1617 36.7789 27.9268C37.1189 28.549 37.0764 29.5614 36.5818 30.0676L36.5547 30.0946L36.5586 30.0869Z" fill="#35302E"/>
<path d="M33.5343 24.4016C35.0761 23.0878 37.6496 23.5206 38.832 25.101C38.9286 25.2247 38.9054 25.3986 38.7856 25.4952C38.6968 25.5647 38.577 25.5686 38.4842 25.5222C37.7191 25.1783 37.0043 24.8924 36.1889 24.8151C35.3775 24.7262 34.566 24.8151 33.7429 24.8885C33.484 24.9155 33.3333 24.5639 33.5343 24.4016Z" fill="#35302E"/>
<path d="M23.8084 30.0869C24.2528 30.5467 25.0217 30.5467 25.4854 30.1139C26.0998 29.5768 26.1423 28.2901 25.5859 27.6757C25.0449 27.0188 23.9668 27.1617 23.5881 27.9268C23.2481 28.549 23.2906 29.5614 23.7852 30.0676L23.8122 30.0946L23.8084 30.0869Z" fill="#35302E"/>
<path d="M26.5774 24.8862C24.939 24.6621 23.3469 24.7548 21.8554 25.5315C21.6003 25.6475 21.353 25.3151 21.5269 25.1026C22.4195 23.9163 24.0773 23.3753 25.5109 23.7347C25.8664 23.8352 27.2072 24.2757 26.8479 24.7935C26.7744 24.8785 26.674 24.8978 26.5735 24.8824H26.5774V24.8862Z" fill="#35302E"/>
<path d="M27.032 35.5624C29.053 36.3468 31.3367 36.3198 33.3654 35.5508C33.6629 35.4465 33.8522 35.8947 33.574 36.0377C32.0322 36.9071 30.1427 37.1351 28.4231 36.6946C27.8512 36.5478 27.3025 36.3507 26.7731 36.0261C26.6456 35.9527 26.607 35.7865 26.6842 35.659C26.7577 35.5354 26.9084 35.5006 27.0281 35.5585H27.032V35.5624Z" fill="#E69489"/>
<path d="M20.7176 23.1469C20.1882 23.3981 19.8172 23.8965 19.7322 24.4723L18.9014 30.1719C18.9014 30.1719 17.9431 25.5311 17.4331 22.6639C16.7336 18.707 15.7637 10.9864 24.2146 7.00633C31.7034 3.47836 37.1673 7.82167 37.1673 7.82167C37.1673 7.82167 42.1907 8.19263 43.5006 14.2864C44.8106 20.3802 41.4797 30.1719 41.4797 30.1719L40.7378 24.4221C40.6759 23.9275 40.4441 23.4715 40.0809 23.1314C39.1303 22.235 37.1866 20.1715 36.1665 17.397C36.1665 17.397 34.0914 20.0633 29.2303 21.551C26.0617 22.4939 21.2277 23.0348 20.7215 23.1392L20.7176 23.1469Z" fill="#35302E"/>
</g>
</g>
<defs>
<clipPath id="clip0_1016_50705">
<rect width="60" height="60" rx="30" fill="white"/>
</clipPath>
<clipPath id="clip1_1016_50705">
<rect width="60" height="60" rx="10" transform="matrix(-1 0 0 1 60 0)" fill="white"/>
</clipPath>
</defs>
</svg>
