<svg width="60" height="60" viewBox="0 0 60 60" fill="none" xmlns="http://www.w3.org/2000/svg">
<g clip-path="url(#clip0_1016_50711)">
<rect width="60" height="60" rx="30" fill="#EAF3FF"/>
<path d="M15.8991 33.4688H3.75V64.5757H15.8991V33.4688Z" fill="#C4C8CE"/>
<path d="M44.1007 24.8594H15.8984V64.572H44.1007V24.8594Z" fill="#E2E6EC"/>
<path d="M30 4.6875C26.3746 4.6875 23.4375 7.62456 23.4375 11.25C23.4375 12.6202 23.8571 13.892 24.5782 14.941C24.5782 14.941 25.896 16.9471 30 21.3462C34.1106 16.9537 35.4218 14.941 35.4218 14.941C36.1429 13.892 36.5625 12.6136 36.5625 11.25C36.5625 7.62456 33.6254 4.6875 30 4.6875ZM30 13.951C28.5642 13.951 27.3973 12.7841 27.3973 11.3483C27.3973 9.91259 28.5642 8.74563 30 8.74563C31.4358 8.74563 32.6027 9.91259 32.6027 11.3483C32.6027 12.7841 31.4358 13.951 30 13.951Z" fill="#3284FF"/>
<path d="M22.8179 36.8281H19.4297V40.2163H22.8179V36.8281Z" fill="#2E4A46"/>
<path d="M28.6421 36.8281H25.2539V40.2163H28.6421V36.8281Z" fill="#2E4A46"/>
<path d="M34.4663 36.8281H31.0781V40.2163H34.4663V36.8281Z" fill="#2E4A46"/>
<path d="M40.2944 36.8281H36.9062V40.2163H40.2944V36.8281Z" fill="#2E4A46"/>
<path d="M22.8179 42.6562H19.4297V46.0444H22.8179V42.6562Z" fill="#2E4A46"/>
<path d="M28.6421 42.6562H25.2539V46.0444H28.6421V42.6562Z" fill="#2E4A46"/>
<path d="M34.4663 42.6562H31.0781V46.0444H34.4663V42.6562Z" fill="#2E4A46"/>
<path d="M40.2944 42.6562H36.9062V46.0444H40.2944V42.6562Z" fill="#2E4A46"/>
<path d="M22.8179 48.4844H19.4297V51.8725H22.8179V48.4844Z" fill="#2E4A46"/>
<path d="M28.6421 48.4844H25.2539V51.8725H28.6421V48.4844Z" fill="#2E4A46"/>
<path d="M34.4663 48.4844H31.0781V51.8725H34.4663V48.4844Z" fill="#2E4A46"/>
<path d="M40.2944 48.4844H36.9062V51.8725H40.2944V48.4844Z" fill="#2E4A46"/>
<path d="M34.4694 55.4688H25.2539V64.6843H34.4694V55.4688Z" fill="#2E4A46"/>
<path d="M33.8725 29.5312H25.8516V32.2895H33.8725V29.5312Z" fill="#00A1A9"/>
<path d="M28.4844 26.901V34.9219H31.2426V26.901H28.4844Z" fill="#00A1A9"/>
<path d="M12.9659 38.4219H6.6875V40.7492H12.9659V38.4219Z" fill="#2E4A46"/>
<path d="M12.9659 43.7109H6.6875V46.0383H12.9659V43.7109Z" fill="#2E4A46"/>
<path d="M12.9659 49H6.6875V51.3273H12.9659V49Z" fill="#2E4A46"/>
<path d="M12.9659 54.2969H6.6875V56.6242H12.9659V54.2969Z" fill="#2E4A46"/>
<path d="M56.2506 33.4688H44.1016V64.5757H56.2506V33.4688Z" fill="#C4C8CE"/>
<path d="M53.3096 38.4219H47.0312V40.7492H53.3096V38.4219Z" fill="#2E4A46"/>
<path d="M53.3096 43.7109H47.0312V46.0383H53.3096V43.7109Z" fill="#2E4A46"/>
<path d="M53.3096 49H47.0312V51.3273H53.3096V49Z" fill="#2E4A46"/>
<path d="M53.3096 54.2969H47.0312V56.6242H53.3096V54.2969Z" fill="#2E4A46"/>
</g>
<defs>
<clipPath id="clip0_1016_50711">
<rect width="60" height="60" rx="30" fill="white"/>
</clipPath>
</defs>
</svg>
