<svg width="33" height="32" viewBox="0 0 33 32" fill="none" xmlns="http://www.w3.org/2000/svg">
<path d="M7.11974 11.5996H4.62127C4.03653 11.5996 3.5625 12.0724 3.5625 12.6556C3.5625 13.2388 4.03653 13.7115 4.62127 13.7115H7.11974C7.70448 13.7115 8.1785 13.2388 8.1785 12.6556C8.1785 12.0724 7.70448 11.5996 7.11974 11.5996Z" fill="#2E3238"/>
<path d="M28.2836 11.5996H25.7851C25.2003 11.5996 24.7263 12.0724 24.7263 12.6556C24.7263 13.2388 25.2003 13.7115 25.7851 13.7115H28.2836C28.8683 13.7115 29.3423 13.2388 29.3423 12.6556C29.3423 12.0724 28.8683 11.5996 28.2836 11.5996Z" fill="#2E3238"/>
<path d="M7.30491 16.0713H4.49273C3.99462 16.0713 3.59082 16.4751 3.59082 16.9732V23.6675C3.59082 24.1656 3.99462 24.5694 4.49273 24.5694H7.30491C7.80302 24.5694 8.20682 24.1656 8.20682 23.6675V16.9732C8.20682 16.4751 7.80302 16.0713 7.30491 16.0713Z" fill="#2E3238"/>
<path d="M28.4131 16.0713H25.6009C25.1028 16.0713 24.699 16.4751 24.699 16.9732V23.6675C24.699 24.1656 25.1028 24.5694 25.6009 24.5694H28.4131C28.9112 24.5694 29.315 24.1656 29.315 23.6675V16.9732C29.315 16.4751 28.9112 16.0713 28.4131 16.0713Z" fill="#2E3238"/>
<path d="M29.2814 14.6453C28.3122 13.5473 26.9397 13.0151 26.9397 13.0151C26.5196 11.2505 25.9146 9.67073 25.4664 8.63998C25.0967 7.78848 24.3741 7.22268 23.545 7.14426C22.363 7.03222 20.6264 6.92578 16.4585 6.92578C12.2907 6.92578 10.5485 7.03222 9.37204 7.14426C8.54856 7.22268 7.8203 7.78848 7.45058 8.63998C7.00242 9.67073 6.39741 11.2505 5.97726 13.0151C5.97726 13.0151 4.59919 13.5473 3.63565 14.6453C3.51241 14.7853 3.45079 14.9758 3.46199 15.1662C3.50681 16.0514 3.82612 19.5134 4.24066 22.1967C4.26867 22.3703 4.38631 22.5048 4.54317 22.5328C5.48429 22.6785 8.9519 23.149 16.4585 23.149C23.9651 23.149 27.4327 22.6785 28.3738 22.5328C28.5307 22.5104 28.6483 22.3759 28.6763 22.1967C29.0909 19.5134 29.4102 16.0514 29.455 15.1662C29.4662 14.9702 29.4046 14.7797 29.2814 14.6453Z" fill="#E0E4EA"/>
<path d="M17.1702 12.6286C21.5453 12.6286 24.2118 12.7126 26.0324 12.819C25.6347 11.1272 24.7776 8.84725 24.3855 7.8557C24.2902 7.62042 24.167 7.41315 24.0157 7.25069C23.8645 7.20028 23.702 7.16106 23.5396 7.14426C22.3576 7.03222 20.621 6.92578 16.4531 6.92578C12.2853 6.92578 10.5431 7.03222 9.36665 7.14426C9.21539 7.16106 9.06974 7.19467 8.92969 7.23949C8.77844 7.40755 8.6496 7.61482 8.54876 7.8557C8.14542 8.86405 7.27712 11.1889 6.87378 12.9199C8.67761 12.763 11.4786 12.623 17.1702 12.623V12.6286Z" fill="#4C5056"/>
<path d="M29.4328 15.0303C29.4384 15.0751 29.4552 15.1199 29.4496 15.1647C29.4048 16.0498 29.0854 19.5118 28.6709 22.1952C28.6429 22.3688 28.5253 22.5033 28.3684 22.5313C27.4273 22.6769 23.9597 23.1475 16.4531 23.1475C8.94645 23.1475 5.47885 22.6769 4.53772 22.5313C4.38086 22.5089 4.26322 22.3744 4.23521 22.1952C3.82067 19.5174 3.50136 16.0498 3.45654 15.1703C3.45654 15.1255 3.46775 15.0807 3.47335 15.0359L4.02234 15.0639L5.99422 15.7977C7.0698 15.8314 8.78399 16.5036 10.5094 16.5316C13.8538 16.582 16.2962 16.6828 22.4023 16.5316C23.6628 16.498 25.5842 15.8201 27.3264 15.3888L28.8894 15.0639L29.4328 15.0359V15.0303Z" fill="#C1C5CB"/>
<path d="M9.04156 15.4639C8.18446 15.2174 4.02222 15.0605 4.02222 15.0605L4.16787 15.4079C4.40875 15.9681 4.94654 16.3098 5.55155 16.3714C6.11734 16.4274 10.5093 16.5283 10.5093 16.5283C10.5093 16.5283 9.99949 15.7384 9.03596 15.4583L9.04156 15.4639Z" fill="white"/>
<path d="M23.8759 15.4639C24.733 15.2174 28.8953 15.0605 28.8953 15.0605L28.7496 15.4079C28.5087 15.9681 27.9709 16.3098 27.3659 16.3714C26.8001 16.4274 22.4082 16.5283 22.4082 16.5283C22.4082 16.5283 22.918 15.7384 23.8815 15.4583L23.8759 15.4639Z" fill="white"/>
<path d="M16.453 23.1476C19.5341 23.1476 21.9541 23.0691 23.8083 22.9627L22.8056 21.5118C22.5535 21.1477 22.139 20.9404 21.6964 20.9516C20.1727 20.9964 18.4305 21.0188 16.4474 21.0188C14.4643 21.0188 12.7277 20.9908 11.1984 20.9516C10.7558 20.9404 10.3413 21.1477 10.0892 21.5118L9.08643 22.9627C10.9407 23.0691 13.3607 23.1476 16.4418 23.1476H16.453Z" fill="#2E3238"/>
</svg>
