<svg width="60" height="60" viewBox="0 0 60 60" fill="none" xmlns="http://www.w3.org/2000/svg">
<path d="M15.4971 18.2837H3.00098V50.2792H15.4971V18.2837Z" fill="#C4C8CE"/>
<path d="M44.5055 9.42871H15.4976V50.2758H44.5055V9.42871Z" fill="#E2E6EC"/>
<path d="M22.6109 21.7378H19.126V25.2227H22.6109V21.7378Z" fill="#2E4A46"/>
<path d="M28.6007 21.7378H25.1157V25.2227H28.6007V21.7378Z" fill="#2E4A46"/>
<path d="M34.5948 21.7378H31.1099V25.2227H34.5948V21.7378Z" fill="#2E4A46"/>
<path d="M40.589 21.7378H37.104V25.2227H40.589V21.7378Z" fill="#2E4A46"/>
<path d="M22.6109 27.729H19.126V31.214H22.6109V27.729Z" fill="#2E4A46"/>
<path d="M28.6007 27.729H25.1157V31.214H28.6007V27.729Z" fill="#2E4A46"/>
<path d="M34.5948 27.729H31.1099V31.214H34.5948V27.729Z" fill="#2E4A46"/>
<path d="M40.589 27.729H37.104V31.214H40.589V27.729Z" fill="#2E4A46"/>
<path d="M22.6109 33.7231H19.126V37.2081H22.6109V33.7231Z" fill="#2E4A46"/>
<path d="M28.6007 33.7231H25.1157V37.2081H28.6007V33.7231Z" fill="#2E4A46"/>
<path d="M34.5948 33.7231H31.1099V37.2081H34.5948V33.7231Z" fill="#2E4A46"/>
<path d="M40.589 33.7231H37.104V37.2081H40.589V33.7231Z" fill="#2E4A46"/>
<path d="M34.5945 40.9009H25.1157V50.3797H34.5945V40.9009Z" fill="#2E4A46"/>
<path d="M33.9849 14.2295H25.7349V17.0665H33.9849V14.2295Z" fill="#00A1A9"/>
<path d="M28.439 11.5239V19.7739H31.276V11.5239H28.439Z" fill="#00A1A9"/>
<path d="M12.4763 23.374H6.01855V25.7678H12.4763V23.374Z" fill="#2E4A46"/>
<path d="M12.4763 28.8159H6.01855V31.2097H12.4763V28.8159Z" fill="#2E4A46"/>
<path d="M12.4763 34.2622H6.01855V36.656H12.4763V34.2622Z" fill="#2E4A46"/>
<path d="M12.4763 39.7026H6.01855V42.0965H12.4763V39.7026Z" fill="#2E4A46"/>
<path d="M57.0005 18.2837H44.5044V50.2792H57.0005V18.2837Z" fill="#C4C8CE"/>
<path d="M53.9797 23.374H47.522V25.7678H53.9797V23.374Z" fill="#2E4A46"/>
<path d="M53.9797 28.8159H47.522V31.2097H53.9797V28.8159Z" fill="#2E4A46"/>
<path d="M53.9797 34.2622H47.522V36.656H53.9797V34.2622Z" fill="#2E4A46"/>
<path d="M53.9797 39.7026H47.522V42.0965H53.9797V39.7026Z" fill="#2E4A46"/>
</svg>
