<svg width="36" height="36" viewBox="0 0 36 36" fill="none" xmlns="http://www.w3.org/2000/svg">
<path d="M9.29784 10.97H1.80017V30.1673H9.29784V10.97Z" fill="#C4C8CE"/>
<path d="M26.7027 5.65698H9.29791V30.1652H26.7027V5.65698Z" fill="#E2E6EC"/>
<path d="M13.5666 13.0433H11.4756V15.1343H13.5666V13.0433Z" fill="#2E4A46"/>
<path d="M17.1606 13.0433H15.0696V15.1343H17.1606V13.0433Z" fill="#2E4A46"/>
<path d="M20.7569 13.0433H18.666V15.1343H20.7569V13.0433Z" fill="#2E4A46"/>
<path d="M24.3532 13.0433H22.2622V15.1343H24.3532V13.0433Z" fill="#2E4A46"/>
<path d="M13.5666 16.6372H11.4756V18.7282H13.5666V16.6372Z" fill="#2E4A46"/>
<path d="M17.1606 16.6372H15.0696V18.7282H17.1606V16.6372Z" fill="#2E4A46"/>
<path d="M20.7569 16.6372H18.666V18.7282H20.7569V16.6372Z" fill="#2E4A46"/>
<path d="M24.3532 16.6372H22.2622V18.7282H24.3532V16.6372Z" fill="#2E4A46"/>
<path d="M13.5666 20.2336H11.4756V22.3246H13.5666V20.2336Z" fill="#2E4A46"/>
<path d="M17.1606 20.2336H15.0696V22.3246H17.1606V20.2336Z" fill="#2E4A46"/>
<path d="M20.7569 20.2336H18.666V22.3246H20.7569V20.2336Z" fill="#2E4A46"/>
<path d="M24.3532 20.2336H22.2622V22.3246H24.3532V20.2336Z" fill="#2E4A46"/>
<path d="M20.7569 24.5403H15.0696V30.2276H20.7569V24.5403Z" fill="#2E4A46"/>
<path d="M20.3906 8.53955H15.4406V10.2418H20.3906V8.53955Z" fill="#00A1A9"/>
<path d="M17.0633 6.91437V11.8644H18.7655V6.91437H17.0633Z" fill="#00A1A9"/>
<path d="M7.48512 14.025H3.61047V15.4613H7.48512V14.025Z" fill="#2E4A46"/>
<path d="M7.48512 17.2898H3.61047V18.7261H7.48512V17.2898Z" fill="#2E4A46"/>
<path d="M7.48512 20.5566H3.61047V21.9929H7.48512V20.5566Z" fill="#2E4A46"/>
<path d="M7.48512 23.8214H3.61047V25.2577H7.48512V23.8214Z" fill="#2E4A46"/>
<path d="M34.2001 10.97H26.7025V30.1673H34.2001V10.97Z" fill="#C4C8CE"/>
<path d="M32.3876 14.025H28.513V15.4613H32.3876V14.025Z" fill="#2E4A46"/>
<path d="M32.3876 17.2898H28.513V18.7261H32.3876V17.2898Z" fill="#2E4A46"/>
<path d="M32.3876 20.5566H28.513V21.9929H32.3876V20.5566Z" fill="#2E4A46"/>
<path d="M32.3876 23.8214H28.513V25.2577H32.3876V23.8214Z" fill="#2E4A46"/>
</svg>
