<svg width="32" height="32" viewBox="0 0 32 32" fill="none" xmlns="http://www.w3.org/2000/svg">
<path d="M16.0002 28.0154C22.6311 28.0154 28.0002 22.6462 28.0002 16.0154C28.0002 9.3845 22.6311 4.00195 16.0002 4.00195C9.36937 4.00195 4.00024 9.37108 4.00024 16.002C4.00024 22.6328 9.36937 28.0019 16.0002 28.0019V28.0154Z" fill="#ADCEFF"/>
<path d="M19.0736 19.7601C20.6038 18.5923 21.4629 16.6057 20.926 14.4447C20.483 12.646 19.0065 11.2098 17.2078 10.7937C13.8656 10.0151 10.8991 12.5386 10.8991 15.7467C10.8991 17.3977 11.6911 18.8473 12.8991 19.7735C13.1005 19.9346 13.0199 20.2433 12.7783 20.3239C11.5837 20.6997 10.5099 21.2903 9.61053 22.042C9.16758 22.4178 9.16758 23.089 9.61053 23.4782C11.3152 24.9816 13.5568 25.9077 16.0132 25.9077C18.4696 25.9077 20.6978 24.995 22.4025 23.4916C22.832 23.1158 22.832 22.4312 22.4025 22.0554C21.5031 21.3037 20.4159 20.6997 19.2078 20.3239C18.9662 20.2433 18.8857 19.9346 19.087 19.7735L19.0736 19.7601Z" fill="#3284FF"/>
</svg>
