<svg width="33" height="32" viewBox="0 0 33 32" fill="none" xmlns="http://www.w3.org/2000/svg">
<path fill-rule="evenodd" clip-rule="evenodd" d="M14.8966 11.0445C14.2956 11.0445 13.8079 11.5321 13.8079 12.1332C13.8079 12.7342 14.2956 13.2219 14.8966 13.2219H17.5983C21.2615 13.2219 24.2315 16.1919 24.2315 19.8551C24.2315 23.5182 21.2615 26.4883 17.5983 26.4883H5.3501V20.9438H17.5983C18.1993 20.9438 18.687 20.4561 18.687 19.8551C18.687 19.2541 18.1993 18.7664 17.5983 18.7664H14.8966C11.2335 18.7664 8.26346 15.7963 8.26346 12.1332C8.26346 8.47003 11.2335 5.5 14.8966 5.5H27.1448V11.0445H14.8966Z" fill="#42464C"/>
<path d="M6.6102 23.4609H5.3501V23.965H6.6102V23.4609Z" fill="#FFBF3C"/>
<path d="M16.8824 23.9646H14.4378V23.4606H16.8824V23.9646ZM13.46 23.9646H11.0154V23.4606H13.46V23.9646ZM10.0325 23.9646H7.58789V23.4606H10.0325V23.9646ZM17.8804 23.9545L17.8451 23.4505C18.6163 23.4001 19.3371 23.1078 19.9268 22.6088L20.2544 22.9918C19.579 23.5614 18.7574 23.8941 17.8804 23.9495V23.9545ZM20.9551 22.2307L20.5418 21.9384C20.9752 21.3235 21.2071 20.6027 21.2071 19.8517V19.7912L21.7111 19.7861V19.8517C21.7111 20.7136 21.449 21.5351 20.9551 22.2307ZM21.0811 18.8889C20.8795 18.1581 20.4359 17.4927 19.8361 17.0139L20.1486 16.6207C20.8341 17.1601 21.3331 17.9212 21.565 18.7528L21.0811 18.8889ZM19.0548 16.5451C18.5962 16.3435 18.1072 16.2377 17.5982 16.2377H16.7564V15.7336H17.5982C18.1778 15.7336 18.7322 15.8496 19.2564 16.0814L19.0548 16.5451ZM15.7786 16.2377H14.8965C14.332 16.2377 13.7876 16.1268 13.2735 15.905L13.4701 15.4413C13.9187 15.6328 14.3975 15.7336 14.8914 15.7336H15.7735V16.2377H15.7786ZM12.3813 15.3808C11.6908 14.8465 11.1817 14.0955 10.9448 13.2588L11.4287 13.1177C11.6404 13.8485 12.0839 14.5088 12.6888 14.9776L12.3813 15.3758V15.3808ZM10.7886 12.2305V12.1247C10.7886 11.2829 11.0406 10.4714 11.5245 9.7809L11.9378 10.0682C11.5144 10.6731 11.2926 11.3838 11.2926 12.1297V12.2255L10.7886 12.2356V12.2305ZM12.5477 9.38775L12.22 9.00468C12.8904 8.43007 13.707 8.08732 14.584 8.0218L14.6243 8.52584C13.8531 8.58633 13.1374 8.88371 12.5477 9.38775ZM24.8765 8.51576H22.4319V8.01172H24.8765V8.51576ZM21.449 8.51576H19.0044V8.01172H21.449V8.51576ZM18.0266 8.51576H15.582V8.01172H18.0266V8.51576Z" fill="#FFBF3C"/>
<path d="M27.1498 8.01172H25.8896V8.51576H27.1498V8.01172Z" fill="#FFBF3C"/>
</svg>
