<svg width="16" height="16" viewBox="0 0 16 16" fill="none" xmlns="http://www.w3.org/2000/svg">
<path d="M12.9998 1.49805H2.99976V14.498H12.9998V1.49805Z" fill="#E2E6EC"/>
<path d="M6.49976 5.58008H5.49976V6.58008H6.49976V5.58008Z" fill="#2E4A46"/>
<path d="M8.49976 5.58008H7.49976V6.58008H8.49976V5.58008Z" fill="#2E4A46"/>
<path d="M10.4998 5.58008H9.49976V6.58008H10.4998V5.58008Z" fill="#2E4A46"/>
<path d="M6.49976 7.58008H5.49976V8.58008H6.49976V7.58008Z" fill="#2E4A46"/>
<path d="M8.49976 7.58008H7.49976V8.58008H8.49976V7.58008Z" fill="#2E4A46"/>
<path d="M10.4998 7.58008H9.49976V8.58008H10.4998V7.58008Z" fill="#2E4A46"/>
<path d="M6.49976 9.58008H5.49976V10.5801H6.49976V9.58008Z" fill="#2E4A46"/>
<path d="M8.49976 9.58008H7.49976V10.5801H8.49976V9.58008Z" fill="#2E4A46"/>
<path d="M10.4998 9.58008H9.49976V10.5801H10.4998V9.58008Z" fill="#2E4A46"/>
<path d="M9.49976 11.998H6.49976V14.498H9.49976V11.998Z" fill="#2E4A46"/>
<path d="M9.16826 3.09473H6.75073V3.92607H9.16826V3.09473Z" fill="#00A1A9"/>
<path d="M7.54321 2.29829V4.71582H8.37455V2.29829H7.54321Z" fill="#00A1A9"/>
</svg>
