<svg width="60" height="60" viewBox="0 0 60 60" fill="none" xmlns="http://www.w3.org/2000/svg">
<rect width="60" height="60" rx="30" fill="#EAF3FF"/>
<path d="M40.9261 39.3933C40.7677 39.2172 40.0811 38.4427 39.9227 38.2666C39.2714 37.5801 39.2361 37.5273 38.4968 36.8055C37.5638 35.8902 36.1555 35.6965 35.0817 36.4359L33.7966 37.3161C33.2861 37.6681 32.5996 37.6505 32.1243 37.2632C30.3111 35.7845 28.7268 33.9714 27.3009 31.5245C25.8926 29.0776 25.118 26.7891 24.7308 24.483C24.6251 23.8669 24.9596 23.2684 25.5229 23.0043L26.9312 22.3354C27.8818 21.8777 28.4803 20.8743 28.4275 19.818C28.3923 19.2019 28.0578 18.1281 27.8818 17.5472C27.653 16.8078 27.5649 16.5438 27.3009 15.7692C26.8784 14.5722 25.7518 13.78 24.4843 13.9032C23.4281 14.0088 22.8472 14.0793 21.8614 14.2729C21.1572 14.4137 20.3123 14.6074 19.7137 15.2235C16.5451 18.4978 17.3724 26.7011 21.9318 34.6051C26.4735 42.4739 33.1277 47.2973 37.5462 46.2411C38.1623 46.1003 38.708 45.7306 39.1305 45.2729C39.6234 44.7272 39.9403 44.3751 40.398 43.7942C40.8029 43.2837 41.3486 42.5443 41.5246 41.893C41.6654 41.3473 41.6478 40.7664 41.4366 40.2383C41.3134 39.9214 41.1197 39.6397 40.8909 39.3933H40.9261Z" fill="#3284FF"/>
</svg>
