<svg width="32" height="32" viewBox="0 0 32 32" fill="none" xmlns="http://www.w3.org/2000/svg">
<path d="M4.39837 14.6894L5.25064 13.528C5.49295 13.1937 5.58487 12.7843 5.50967 12.3749L5.24229 10.9544C5.12531 10.3194 5.43447 9.67604 6.00264 9.37524L7.28105 8.69844C7.64034 8.50626 7.90771 8.17204 8.01634 7.77933L8.39234 6.38395C8.55945 5.75728 9.11927 5.31444 9.76265 5.28937L11.2082 5.23088C11.6176 5.21417 12.0019 5.03035 12.2693 4.72119L13.2135 3.62661C13.6396 3.13363 14.3248 2.97488 14.9264 3.2339L16.2549 3.81043C16.6309 3.97754 17.0571 3.97754 17.4331 3.81043L18.7616 3.2339C19.3548 2.97488 20.0484 3.13363 20.4745 3.62661L21.4187 4.72119C21.686 5.03035 22.0704 5.21417 22.4798 5.23088L23.9253 5.28937C24.5687 5.31444 25.1285 5.75728 25.2957 6.38395L25.6717 7.77933C25.7803 8.17204 26.0477 8.50626 26.4069 8.69844L27.6853 9.37524C28.2535 9.67604 28.5627 10.3194 28.4457 10.9544L28.1783 12.3749C28.1031 12.776 28.195 13.1937 28.4373 13.528L29.2896 14.6894C29.674 15.2074 29.674 15.9177 29.2896 16.4441L28.4373 17.6055C28.195 17.9397 28.1031 18.3491 28.1783 18.7585L28.4457 20.179C28.5627 20.814 28.2535 21.4574 27.6853 21.7582L26.4069 22.435C26.0477 22.6272 25.7803 22.9614 25.6717 23.3541L25.2957 24.7495C25.1285 25.3762 24.5687 25.819 23.9253 25.8441L22.4798 25.9026C22.0704 25.9193 21.686 26.1031 21.4187 26.4123L20.4745 27.5068C20.0484 27.9998 19.3632 28.1586 18.7616 27.8995L17.4331 27.323C17.0571 27.1559 16.6309 27.1559 16.2549 27.323L14.9264 27.8995C14.3331 28.1586 13.6396 27.9998 13.2135 27.5068L12.2693 26.4123C12.0019 26.1031 11.6176 25.9193 11.2082 25.9026L9.76265 25.8441C9.11927 25.819 8.55945 25.3762 8.39234 24.7495L8.01634 23.3541C7.90771 22.9614 7.64034 22.6272 7.28105 22.435L6.00264 21.7582C5.43447 21.4574 5.12531 20.814 5.24229 20.179L5.50967 18.7585C5.58487 18.3575 5.49295 17.9397 5.25064 17.6055L4.39837 16.4441C4.01402 15.926 4.01402 15.2158 4.39837 14.6894Z" fill="#E96B6B"/>
<path d="M13.1969 12.3121C14.0806 12.3121 14.7969 11.5957 14.7969 10.7121C14.7969 9.8284 14.0806 9.11206 13.1969 9.11206C12.3133 9.11206 11.5969 9.8284 11.5969 10.7121C11.5969 11.5957 12.3133 12.3121 13.1969 12.3121Z" fill="#C72828"/>
<path d="M22.1039 16.5775C23.3314 16.5775 24.3265 15.5824 24.3265 14.3549C24.3265 13.1274 23.3314 12.1323 22.1039 12.1323C20.8764 12.1323 19.8813 13.1274 19.8813 14.3549C19.8813 15.5824 20.8764 16.5775 22.1039 16.5775Z" fill="#F09797"/>
<path d="M14.5004 23.2039C16.0971 23.2039 17.3914 21.9096 17.3914 20.3129C17.3914 18.7162 16.0971 17.4219 14.5004 17.4219C12.9037 17.4219 11.6094 18.7162 11.6094 20.3129C11.6094 21.9096 12.9037 23.2039 14.5004 23.2039Z" fill="#D83B3B"/>
</svg>
