<svg width="32" height="32" viewBox="0 0 32 32" fill="none" xmlns="http://www.w3.org/2000/svg">
<path d="M24.1398 23.8701H15.3651C14.8563 23.8701 14.4439 24.2826 14.4439 24.7914V25.6603C14.4439 26.1691 14.8563 26.5816 15.3651 26.5816H24.1398C24.6486 26.5816 25.0611 26.1691 25.0611 25.6603V24.7914C25.0611 24.2826 24.6486 23.8701 24.1398 23.8701Z" fill="#2E3238"/>
<path d="M15.9531 23.9319C15.6865 23.9724 15.4151 23.9962 15.139 23.9962C12.1776 23.9962 9.76848 21.5871 9.76848 18.6257C9.76848 15.6643 12.1776 13.2552 15.139 13.2552V10.908C10.8826 10.908 7.42126 14.3693 7.42126 18.6233C7.42126 22.8774 10.8826 26.3411 15.139 26.3411C15.4127 26.3411 15.6841 26.322 15.9531 26.2958V23.9319Z" fill="#A8ACB2"/>
<path d="M13.9135 2.85794L9.89163 5.09375L13.778 12.0848L17.7999 9.84895L13.9135 2.85794Z" fill="#B6BAC0"/>
<path d="M22.8471 16.1312L19.5477 17.9666L16.4459 19.6901L10.2207 8.48964L16.622 4.93311L22.8471 16.1312Z" fill="#70747A"/>
<path d="M22.0077 14.7265L15.697 18.2346C15.2902 18.4607 15.1438 18.9738 15.3699 19.3806L15.8488 20.242C16.0749 20.6488 16.588 20.7952 16.9948 20.5691L23.3054 17.061C23.7122 16.8348 23.8587 16.3217 23.6325 15.9149L23.1537 15.0536C22.9275 14.6468 22.4145 14.5003 22.0077 14.7265Z" fill="#A8ACB2"/>
<path d="M13.1772 1.53335L9.15111 3.77147C8.62137 4.06596 8.43065 4.73413 8.72514 5.26387C9.01963 5.79361 9.6878 5.98433 10.2175 5.68984L14.2436 3.45171C14.7734 3.15723 14.9641 2.48906 14.6696 1.95931C14.3751 1.42957 13.7069 1.23886 13.1772 1.53335Z" fill="#2E3238"/>
<path d="M12.4442 15.6812C14.1467 15.6812 15.527 14.301 15.527 12.5984C15.527 10.8958 14.1467 9.51562 12.4442 9.51562C10.7416 9.51562 9.36136 10.8958 9.36136 12.5984C9.36136 14.301 10.7416 15.6812 12.4442 15.6812Z" fill="#50545A"/>
<path d="M12.4443 14.2909C13.3791 14.2909 14.1369 13.5331 14.1369 12.5983C14.1369 11.6635 13.3791 10.9058 12.4443 10.9058C11.5095 10.9058 10.7517 11.6635 10.7517 12.5983C10.7517 13.5331 11.5095 14.2909 12.4443 14.2909Z" fill="#C8CCD2"/>
<path d="M8.61151 28.0742H24.4516C25.342 28.0742 26.0633 28.7955 26.0633 29.6858V30.2596C26.0633 30.6666 25.7324 30.9999 25.3229 30.9999H7.74023C7.33077 30.9975 6.99988 30.6666 6.99988 30.2572V29.6835C6.99988 28.7955 7.72118 28.0742 8.61151 28.0742Z" fill="#50545A"/>
<path d="M13.6867 22.4326C15.2079 22.4326 16.441 23.6681 16.441 25.1869V29.4957H10.9301V25.1869C10.9301 23.6657 12.1656 22.4326 13.6843 22.4326H13.6867Z" fill="#50545A"/>
<path d="M13.6868 26.2318C14.2679 26.2318 14.739 25.7608 14.739 25.1796C14.739 24.5985 14.2679 24.1274 13.6868 24.1274C13.1056 24.1274 12.6346 24.5985 12.6346 25.1796C12.6346 25.7608 13.1056 26.2318 13.6868 26.2318Z" fill="#B6BAC0"/>
</svg>
