<svg width="32" height="32" viewBox="0 0 32 32" fill="none" xmlns="http://www.w3.org/2000/svg">
<path d="M5 8.85073V26.8931C5 28.5787 6.3663 29.945 8.05195 29.945H23.9481C25.6337 29.945 27 28.5787 27 26.8931V5.12031C27 3.43466 25.6337 2.06836 23.9481 2.06836H11.7824L5 8.85073Z" fill="#ECF0F6"/>
<path d="M5.00108 8.84975H9.54917C10.7833 8.84975 11.7834 7.84959 11.7834 6.61548V2.06738L5.00108 8.84975Z" fill="#D2D6DC"/>
<path d="M23.9248 22.4707H17.3003V24.7493H23.9248V22.4707Z" fill="#3284FF"/>
<path d="M19.4746 20.2993V26.9238H21.7532V20.2993H19.4746Z" fill="#3284FF"/>
<path d="M8.86938 11.2002H23.1236" stroke="#4C5258" stroke-width="1.29584"/>
<path d="M8.86938 14.4395H23.1236" stroke="#4C5258" stroke-width="1.29584"/>
<path d="M8.86938 17.6797H17.9403" stroke="#4C5258" stroke-width="1.29584"/>
</svg>
