<svg width="32" height="32" viewBox="0 0 32 32" fill="none" xmlns="http://www.w3.org/2000/svg">
<g clip-path="url(#clip0_9_384)">
<path d="M11.6127 21.134C12.0751 20.9742 12.3862 20.5417 12.3883 20.0516L12.4075 16.4122C12.4117 15.5748 12.1006 14.7736 11.5658 14.1279C10.4067 12.728 9.75037 10.8955 9.88035 8.90749C10.1211 5.24678 13.0808 2.27432 16.7415 2.01862C21.0734 1.71605 24.683 5.14024 24.683 9.40823C24.683 9.63196 24.6723 9.8557 24.6532 10.0752C24.6148 10.4822 24.6851 10.8913 24.8726 11.2535L25.7399 12.924C25.938 13.3033 25.7463 13.77 25.3393 13.9042L24.7128 14.1109C24.4614 14.194 24.2867 14.422 24.2718 14.6862L24.1567 16.7105C24.1119 17.4989 23.4429 18.104 22.6545 18.0699L20.9435 17.9975C20.3788 17.974 19.9079 18.4258 19.9079 18.9904V20.0921C19.9079 20.5779 20.2126 21.0104 20.6707 21.1745L24.7789 22.649C26.6242 23.2968 27.9389 24.9396 28.1669 26.8808L29 33.938H3L3.83314 26.8808C4.06327 24.9396 5.37797 23.2968 7.22111 22.649L11.6127 21.1361V21.134Z" fill="#F3C6BD"/>
<path d="M15.5568 30.5585V16.3546C15.5568 14.243 16.9461 12.5192 19.128 12.1591C20.3404 11.9588 21.8725 12.0355 23.1851 12.9091C23.5792 13.1712 23.7433 13.6677 23.6048 14.1215C23.5132 14.422 23.4322 14.8396 23.4152 15.3872C23.3768 16.7318 21.9492 16.5442 20.2573 16.5059C19.5456 16.491 18.7594 16.4867 18.0861 16.491C17.1783 16.4952 16.4453 17.2304 16.4453 18.1381V30.5585H15.5568Z" fill="#EBAAA0"/>
<path d="M14.159 28.5151C14.159 28.5151 14.4808 27.52 15.6378 27.3751C16.7948 27.2302 17.6003 28.1699 17.6471 29.0627C17.6471 29.0627 18.3503 29.0137 18.8532 29.8341C19.6288 31.104 19.5947 34.7669 18.1436 35.3464C16.5029 36.0027 12.3755 34.0935 13.0851 31.1999C12.5673 30.6587 12.4736 28.8539 14.1611 28.5172L14.159 28.5151Z" fill="#E69489"/>
<path d="M15.9851 3.08612C17.7046 2.7111 19.8248 2.91778 21.6253 4.57981C23.4258 6.24183 23.1914 8.12972 22.1644 8.90959C21.4506 9.45081 20.4108 9.50408 19.8802 9.4913C19.6969 9.48703 19.5286 9.59357 19.4625 9.76404C19.3432 10.0709 19.047 10.5375 18.3332 10.7634C17.6194 10.9892 17.0611 10.8486 16.6946 10.7016C16.4624 10.6078 16.1982 10.7293 16.1151 10.9658L15.9595 11.4069C15.9105 11.5475 15.7443 11.6093 15.6143 11.5369L14.9026 11.132C14.7918 11.0681 14.6555 11.0553 14.5361 11.1C14.2485 11.2087 13.654 11.3408 13.181 10.8465C13.0851 10.7442 12.9487 10.6888 12.8102 10.7037C12.3329 10.757 11.2419 10.725 10.9521 9.4018C10.5771 7.6929 11.7704 4.00236 15.9851 3.08612Z" fill="#EBAAA0"/>
<path d="M12.3648 24.4112C10.8733 24.9204 9.60332 25.9304 8.77231 27.2686L8.68708 27.405C8.08619 28.3702 7.69413 29.4505 7.53645 30.5777L7.04849 34.036C6.85459 35.404 7.91573 36.6249 9.29649 36.6249H12.9508C13.8756 36.6249 14.6427 35.9068 14.7023 34.9821L14.8749 32.2866C14.9772 30.6949 14.9729 29.0968 14.8621 27.5051L14.7577 25.9986C14.6746 24.8096 13.4899 24.0234 12.3627 24.4091L12.3648 24.4112Z" fill="#EBAAA0"/>
<path d="M19.633 24.4112C21.1246 24.9204 22.3945 25.9304 23.2255 27.2686L23.3108 27.405C23.9117 28.3702 24.3037 29.4505 24.4614 30.5777L24.9493 34.036C25.1433 35.404 24.0821 36.6249 22.7014 36.6249H19.047C18.1223 36.6249 17.3552 35.9068 17.2955 34.9821L17.1229 32.2866C17.0206 30.6949 17.0249 29.0968 17.1357 27.5051L17.2401 25.9986C17.3232 24.8096 18.5079 24.0234 19.6351 24.4091L19.633 24.4112Z" fill="#EBAAA0"/>
</g>
<defs>
<clipPath id="clip0_9_384">
<rect width="32" height="32" fill="white"/>
</clipPath>
</defs>
</svg>
