<svg width="32" height="32" viewBox="0 0 32 32" fill="none" xmlns="http://www.w3.org/2000/svg">
<path d="M16.3409 11.8903V8.92835C16.3409 6.67782 18.1646 4.85411 20.4151 4.85411" stroke="#B4B8BE" stroke-width="1.03704" stroke-linecap="round" stroke-linejoin="round"/>
<path d="M29.1284 11.8903V8.92835C29.1284 6.67782 27.3047 4.85411 25.0541 4.85411" stroke="#B4B8BE" stroke-width="1.03704" stroke-linecap="round" stroke-linejoin="round"/>
<path d="M16.3409 11.3209V15.7616C16.3409 19.2926 19.2036 22.1554 22.7346 22.1554C26.2656 22.1554 29.1284 19.2926 29.1284 15.7616V11.3209" stroke="#4C5258" stroke-width="1.86667" stroke-linecap="round" stroke-linejoin="round"/>
<path d="M19.5442 3.82797L20.5875 3.64258C22.588 3.41408 22.5837 6.40185 20.5875 6.17335L19.5442 5.98796C18.35 5.77239 18.3672 4.03923 19.5442 3.83228V3.82797Z" fill="#4C5258"/>
<path d="M25.826 5.98406L24.7826 6.16944C22.7821 6.39795 22.7865 3.41017 24.7826 3.63867L25.826 3.82406C27.0202 4.03963 27.003 5.7728 25.826 5.97974V5.98406Z" fill="#4C5258"/>
<path d="M22.7349 22.1549V23.8191C22.7349 26.5698 20.5059 28.7988 17.7553 28.7988C15.0046 28.7988 12.7756 26.5698 12.7756 23.8191V19.275C12.7756 17.5289 11.3615 16.119 9.61971 16.119H4.7608" stroke="#4C5258" stroke-width="1.86667" stroke-linecap="round" stroke-linejoin="round"/>
<path d="M5.79756 20.7887C8.37629 20.7887 10.4668 18.6982 10.4668 16.1195C10.4668 13.5408 8.37629 11.4503 5.79756 11.4503C3.21883 11.4503 1.12836 13.5408 1.12836 16.1195C1.12836 18.6982 3.21883 20.7887 5.79756 20.7887Z" fill="#A2A6AC"/>
<path d="M5.79759 19.0796C7.43276 19.0796 8.75833 17.754 8.75833 16.1188C8.75833 14.4837 7.43276 13.1581 5.79759 13.1581C4.16242 13.1581 2.83685 14.4837 2.83685 16.1188C2.83685 17.754 4.16242 19.0796 5.79759 19.0796Z" fill="#D2D6DC"/>
<path d="M5.79786 16.8965C6.22741 16.8965 6.57563 16.5483 6.57563 16.1187C6.57563 15.6891 6.22741 15.3409 5.79786 15.3409C5.3683 15.3409 5.02008 15.6891 5.02008 16.1187C5.02008 16.5483 5.3683 16.8965 5.79786 16.8965Z" fill="#4C5258"/>
</svg>
