<svg width="20" height="20" viewBox="0 0 20 20" fill="none" xmlns="http://www.w3.org/2000/svg">
<path d="M9.9998 3.59961C7.12708 3.59961 4.7998 5.92688 4.7998 8.79961C4.7998 9.88532 5.13227 10.8931 5.7037 11.7243C5.7037 11.7243 6.74786 13.3139 9.9998 16.7996C13.2569 13.3191 14.2959 11.7243 14.2959 11.7243C14.8673 10.8931 15.1998 9.88013 15.1998 8.79961C15.1998 5.92688 12.8725 3.59961 9.9998 3.59961ZM9.9998 10.9399C8.86214 10.9399 7.93747 10.0152 7.93747 8.87753C7.93747 7.73987 8.86214 6.81519 9.9998 6.81519C11.1375 6.81519 12.0621 7.73987 12.0621 8.87753C12.0621 10.0152 11.1375 10.9399 9.9998 10.9399Z" fill="#3284FF"/>
</svg>
