<svg width="37" height="36" viewBox="0 0 37 36" fill="none" xmlns="http://www.w3.org/2000/svg">
<path d="M27.824 26.8539H17.9524C17.38 26.8539 16.916 27.3179 16.916 27.8903V28.8678C16.916 29.4402 17.38 29.9043 17.9524 29.9043H27.824C28.3964 29.9043 28.8604 29.4402 28.8604 28.8678V27.8903C28.8604 27.3179 28.3964 26.8539 27.824 26.8539Z" fill="#2E3238"/>
<path d="M18.614 26.9234C18.314 26.969 18.0087 26.9957 17.6981 26.9957C14.3665 26.9957 11.6562 24.2855 11.6562 20.9539C11.6562 17.6224 14.3665 14.9121 17.6981 14.9121V12.2715C12.9096 12.2715 9.01562 16.1655 9.01562 20.9512C9.01562 25.737 12.9096 29.6337 17.6981 29.6337C18.006 29.6337 18.3114 29.6123 18.614 29.5828V26.9234Z" fill="#A8ACB2"/>
<path d="M16.3195 3.21518L11.7948 5.73047L16.1669 13.5954L20.6916 11.0801L16.3195 3.21518Z" fill="#B6BAC0"/>
<path d="M26.3697 18.1476L22.6579 20.2124L19.1683 22.1514L12.165 9.55084L19.3665 5.54974L26.3697 18.1476Z" fill="#70747A"/>
<path d="M25.4253 16.5673L18.3258 20.5139C17.8682 20.7683 17.7034 21.3455 17.9578 21.8032L18.4965 22.7722C18.7509 23.2299 19.3282 23.3946 19.7858 23.1402L26.8853 19.1936C27.3429 18.9392 27.5077 18.362 27.2533 17.9043L26.7145 16.9353C26.4601 16.4776 25.8829 16.3129 25.4253 16.5673Z" fill="#A8ACB2"/>
<path d="M15.491 1.72501L10.9617 4.2429C10.3657 4.5742 10.1511 5.32589 10.4824 5.92186C10.8137 6.51782 11.5654 6.73237 12.1614 6.40107L16.6907 3.88318C17.2867 3.55188 17.5012 2.80019 17.1699 2.20423C16.8386 1.60827 16.0869 1.39372 15.491 1.72501Z" fill="#2E3238"/>
<path d="M14.6664 17.6414C16.5818 17.6414 18.1346 16.0886 18.1346 14.1732C18.1346 12.2578 16.5818 10.7051 14.6664 10.7051C12.751 10.7051 11.1982 12.2578 11.1982 14.1732C11.1982 16.0886 12.751 17.6414 14.6664 17.6414Z" fill="#50545A"/>
<path d="M14.6665 16.0773C15.7182 16.0773 16.5707 15.2247 16.5707 14.1731C16.5707 13.1215 15.7182 12.269 14.6665 12.269C13.6149 12.269 12.7624 13.1215 12.7624 14.1731C12.7624 15.2247 13.6149 16.0773 14.6665 16.0773Z" fill="#C8CCD2"/>
<path d="M10.3546 31.5835H28.1748C29.1764 31.5835 29.9879 32.395 29.9879 33.3966V34.042C29.9879 34.5 29.6156 34.8749 29.155 34.8749H9.37446C8.91382 34.8722 8.54156 34.5 8.54156 34.0393V33.3939C8.54156 32.395 9.35303 31.5835 10.3546 31.5835Z" fill="#50545A"/>
<path d="M16.0643 25.2367C17.7756 25.2367 19.1628 26.6266 19.1628 28.3353V33.1827H12.963V28.3353C12.963 26.624 14.353 25.2367 16.0616 25.2367H16.0643Z" fill="#50545A"/>
<path d="M16.0643 29.5108C16.718 29.5108 17.248 28.9809 17.248 28.3271C17.248 27.6733 16.718 27.1434 16.0643 27.1434C15.4105 27.1434 14.8806 27.6733 14.8806 28.3271C14.8806 28.9809 15.4105 29.5108 16.0643 29.5108Z" fill="#B6BAC0"/>
</svg>
