<svg width="36" height="36" viewBox="0 0 36 36" fill="none" xmlns="http://www.w3.org/2000/svg">
<path d="M18.3834 13.3765V10.0444C18.3834 7.51255 20.4351 5.46088 22.9669 5.46088" stroke="#B4B8BE" stroke-width="1.16667" stroke-linecap="round" stroke-linejoin="round"/>
<path d="M32.7694 13.3765V10.0444C32.7694 7.51255 30.7177 5.46088 28.1859 5.46088" stroke="#B4B8BE" stroke-width="1.16667" stroke-linecap="round" stroke-linejoin="round"/>
<path d="M18.3834 12.736V17.7318C18.3834 21.7042 21.604 24.9248 25.5764 24.9248C29.5488 24.9248 32.7694 21.7042 32.7694 17.7318V12.736" stroke="#4C5258" stroke-width="2.1" stroke-linecap="round" stroke-linejoin="round"/>
<path d="M21.9872 4.30646L23.161 4.0979C25.4115 3.84084 25.4067 7.20208 23.161 6.94502L21.9872 6.73646C20.6437 6.49394 20.6631 4.54413 21.9872 4.31132V4.30646Z" fill="#4C5258"/>
<path d="M29.0542 6.73206L27.8804 6.94062C25.6299 7.19769 25.6347 3.83644 27.8804 4.09351L29.0542 4.30207C30.3977 4.54458 30.3783 6.4944 29.0542 6.72721V6.73206Z" fill="#4C5258"/>
<path d="M25.5767 24.9243V26.7965C25.5767 29.891 23.0691 32.3986 19.9746 32.3986C16.8801 32.3986 14.3725 29.891 14.3725 26.7965V21.6843C14.3725 19.72 12.7816 18.1339 10.8221 18.1339H5.35583" stroke="#4C5258" stroke-width="2.1" stroke-linecap="round" stroke-linejoin="round"/>
<path d="M6.5222 23.3873C9.42328 23.3873 11.7751 21.0355 11.7751 18.1344C11.7751 15.2334 9.42328 12.8816 6.5222 12.8816C3.62113 12.8816 1.26935 15.2334 1.26935 18.1344C1.26935 21.0355 3.62113 23.3873 6.5222 23.3873Z" fill="#A2A6AC"/>
<path d="M6.52224 21.4645C8.3618 21.4645 9.85307 19.9733 9.85307 18.1337C9.85307 16.2941 8.3618 14.8029 6.52224 14.8029C4.68267 14.8029 3.19141 16.2941 3.19141 18.1337C3.19141 19.9733 4.68267 21.4645 6.52224 21.4645Z" fill="#D2D6DC"/>
<path d="M6.52252 19.0085C7.00577 19.0085 7.39752 18.6168 7.39752 18.1335C7.39752 17.6503 7.00577 17.2585 6.52252 17.2585C6.03927 17.2585 5.64752 17.6503 5.64752 18.1335C5.64752 18.6168 6.03927 19.0085 6.52252 19.0085Z" fill="#4C5258"/>
</svg>
