<svg width="33" height="32" viewBox="0 0 33 32" fill="none" xmlns="http://www.w3.org/2000/svg">
<path d="M14.289 17.1004C14.5 16.3665 14.7936 15.7794 15.1881 15.3298C15.5734 14.8895 16.0963 14.4583 16.7477 14.0547C17.4633 13.5776 18.0229 13.1006 18.4083 12.6235C18.7936 12.1373 18.9954 11.5869 18.9954 10.9539C18.9954 10.4677 18.8853 10.0457 18.656 9.66952C18.4266 9.30257 18.1147 9.009 17.7202 8.80718C17.3257 8.59618 16.8945 8.49526 16.4174 8.49526C15.9404 8.49526 15.5 8.59618 15.0963 8.80718C14.6835 9.01818 14.3532 9.32092 14.1055 9.71539C13.8578 10.119 13.7202 10.5961 13.7018 11.1557H9.5C9.52752 9.81631 9.84862 8.67874 10.4725 7.76135C11.0872 6.84396 11.9128 6.14674 12.9587 5.68804C13.9954 5.22935 15.1697 5 16.4541 5C17.8211 5 19.0413 5.22935 20.1055 5.69722C21.1697 6.16509 22.0046 6.82561 22.6009 7.70631C23.1972 8.57783 23.5 9.61448 23.5 10.8071C23.5 11.9997 23.2248 12.963 22.6743 13.7978C22.1239 14.6234 21.3349 15.3482 20.2982 15.9537C19.7202 16.3114 19.2523 16.66 18.9128 17.0087C18.5734 17.3573 18.3165 17.7701 18.1422 18.2471C17.9679 18.7242 17.8761 19.3021 17.867 19.981V20.3021H13.9587V19.981C13.9679 18.7976 14.078 17.8343 14.2798 17.1004H14.289ZM14.7477 26.6504C14.3624 26.4211 14.0596 26.1184 13.8394 25.7422C13.6193 25.3661 13.5092 24.9533 13.5183 24.5037C13.5092 24.0634 13.6101 23.6506 13.8394 23.2744C14.0596 22.8983 14.3624 22.6047 14.7477 22.3754C15.133 22.1552 15.555 22.0451 16.0046 22.0451C16.4266 22.0451 16.8303 22.1552 17.2064 22.3754C17.5826 22.5956 17.8853 22.8983 18.1147 23.2744C18.344 23.6506 18.4541 24.0542 18.4541 24.5037C18.4541 24.9533 18.344 25.3569 18.1147 25.7422C17.8853 26.1184 17.5826 26.4211 17.2064 26.6504C16.8303 26.8798 16.4266 26.9899 16.0046 26.9899C15.555 26.9899 15.133 26.8798 14.7477 26.6504Z" fill="#5196FF"/>
</svg>
