<svg width="17" height="17" viewBox="0 0 17 17" fill="none" xmlns="http://www.w3.org/2000/svg">
<g filter="url(#filter0_d_1433_74872)">
<path d="M13.2588 6.3594H11.3765C11.3765 6.3594 11.3724 6.3594 11.3724 6.35116C11.8378 5.48212 12.0932 4.53482 12.2497 3.5175C12.3362 2.94088 12.0479 2.33955 11.5001 2.13773C10.8699 1.90709 10.1656 2.22423 9.92264 2.85027C9.32955 4.38243 8.3493 5.71688 7.06014 6.75891C6.83773 6.94014 6.64827 7.15843 6.5 7.39731V12.5169C6.91599 13.7607 8.18043 14.049 9.52313 14.049H12.8716C13.8766 14.049 14.7415 13.2294 14.7909 12.2244L14.9969 8.17575C15.0463 7.17078 14.2679 6.35116 13.2629 6.35116L13.2588 6.3594Z" fill="white"/>
<path d="M5.65656 6.51562H3.84433C3.37802 6.51562 3 6.89365 3 7.35996V13.2085C3 13.6748 3.37802 14.0528 3.84433 14.0528H5.65656C6.12287 14.0528 6.50089 13.6748 6.50089 13.2085V7.35996C6.50089 6.89365 6.12287 6.51562 5.65656 6.51562Z" fill="#3284FF" stroke="#3284FF" stroke-miterlimit="10"/>
</g>
<defs>
<filter id="filter0_d_1433_74872" x="0.5" y="0.0625" width="16.5" height="16.4922" filterUnits="userSpaceOnUse" color-interpolation-filters="sRGB">
<feFlood flood-opacity="0" result="BackgroundImageFix"/>
<feColorMatrix in="SourceAlpha" type="matrix" values="0 0 0 0 0 0 0 0 0 0 0 0 0 0 0 0 0 0 127 0" result="hardAlpha"/>
<feOffset/>
<feGaussianBlur stdDeviation="1"/>
<feComposite in2="hardAlpha" operator="out"/>
<feColorMatrix type="matrix" values="0 0 0 0 0 0 0 0 0 0 0 0 0 0 0 0 0 0 0.1 0"/>
<feBlend mode="normal" in2="BackgroundImageFix" result="effect1_dropShadow_1433_74872"/>
<feBlend mode="normal" in="SourceGraphic" in2="effect1_dropShadow_1433_74872" result="shape"/>
</filter>
</defs>
</svg>
