<svg width="17" height="18" viewBox="0 0 17 18" fill="none" xmlns="http://www.w3.org/2000/svg">
<g filter="url(#filter0_d_1433_74876)">
<path d="M13.2588 10.7578H11.3765C11.3765 10.7578 11.3724 10.7578 11.3724 10.766C11.8378 11.6351 12.0932 12.5824 12.2497 13.5997C12.3362 14.1763 12.0479 14.7776 11.5001 14.9795C10.8699 15.2101 10.1656 14.893 9.92264 14.2669C9.32955 12.7348 8.3493 11.4003 7.06014 10.3583C6.83773 10.1771 6.64827 9.95876 6.5 9.71987V4.60033C6.91599 3.35648 8.18043 3.06818 9.52313 3.06818H12.8716C13.8766 3.06818 14.7415 3.8878 14.7909 4.89276L14.9969 8.94144C15.0463 9.9464 14.2679 10.766 13.2629 10.766L13.2588 10.7578Z" fill="white"/>
<path d="M5.65656 10.6016H3.84433C3.37802 10.6016 3 10.2235 3 9.75723V3.90868C3 3.44236 3.37802 3.06434 3.84433 3.06434H5.65656C6.12287 3.06434 6.50089 3.44236 6.50089 3.90868V9.75723C6.50089 10.2235 6.12287 10.6016 5.65656 10.6016Z" fill="#E55151" stroke="#E55151" stroke-miterlimit="10"/>
</g>
<defs>
<filter id="filter0_d_1433_74876" x="0.5" y="0.5625" width="16.5" height="16.4922" filterUnits="userSpaceOnUse" color-interpolation-filters="sRGB">
<feFlood flood-opacity="0" result="BackgroundImageFix"/>
<feColorMatrix in="SourceAlpha" type="matrix" values="0 0 0 0 0 0 0 0 0 0 0 0 0 0 0 0 0 0 127 0" result="hardAlpha"/>
<feOffset/>
<feGaussianBlur stdDeviation="1"/>
<feComposite in2="hardAlpha" operator="out"/>
<feColorMatrix type="matrix" values="0 0 0 0 0 0 0 0 0 0 0 0 0 0 0 0 0 0 0.1 0"/>
<feBlend mode="normal" in2="BackgroundImageFix" result="effect1_dropShadow_1433_74876"/>
<feBlend mode="normal" in="SourceGraphic" in2="effect1_dropShadow_1433_74876" result="shape"/>
</filter>
</defs>
</svg>
