<svg width="33" height="32" viewBox="0 0 33 32" fill="none" xmlns="http://www.w3.org/2000/svg">
<path d="M25.9526 7.23848C27.1481 8.70502 29.3001 12.0419 30.7241 15.1078L12.8653 25.0867L1.78125 24.9432L1.99379 22.4777C2.1532 20.6446 3.33281 19.0611 5.04377 18.3863L7.77493 17.313C9.34242 16.6966 10.6708 15.5861 11.5529 14.1461L14.3212 9.64551C14.571 9.24168 15.0545 9.03977 15.5114 9.15667C17.0896 9.56581 17.8866 10.0812 18.843 10.5276C20.554 11.3299 23.7262 11.2449 23.8431 7.97175C23.859 7.53072 24.0981 7.12689 24.4913 6.92498C24.9908 6.66993 25.6019 6.79745 25.9579 7.23316L25.9526 7.23848Z" fill="#3284FF"/>
<path d="M11.2075 26.4191H1.60066C1.12775 26.4191 0.750488 26.0365 0.750488 25.5689V24.6178C0.750488 24.1449 1.13306 23.7677 1.60066 23.7677H11.2022C12.3128 23.7677 13.4127 23.5073 14.401 23.0078L30.586 14.8409C31.0058 14.6284 31.5212 14.7984 31.7285 15.2182L32.1589 16.0683C32.3714 16.4881 32.2014 17.0035 31.7816 17.2107L15.5965 25.3777C14.231 26.0684 12.7272 26.4244 11.1969 26.4244L11.2075 26.4191Z" fill="#ADCEFF"/>
<path d="M12.3982 12.4477L15.5544 14.0577" stroke="#383E44" stroke-width="1.59406" stroke-miterlimit="10" stroke-linecap="round"/>
<path d="M10.7935 15.2461L13.7106 16.7392" stroke="#383E44" stroke-width="1.59406" stroke-miterlimit="10" stroke-linecap="round"/>
</svg>
