<svg width="36" height="36" viewBox="0 0 36 36" fill="none" xmlns="http://www.w3.org/2000/svg">
<path d="M6 10.3994V30.082C6 31.9209 7.49051 33.4114 9.3294 33.4114H26.6706C28.5095 33.4114 30 31.9209 30 30.082V6.32989C30 4.491 28.5095 3.00049 26.6706 3.00049H13.3989L6 10.3994Z" fill="#ECF0F6"/>
<path d="M6.00095 10.3989H10.9625C12.3088 10.3989 13.3999 9.30786 13.3999 7.96156V3L6.00095 10.3989Z" fill="#D2D6DC"/>
<path d="M10 15.5391H12.2736L13.8092 12.6977L15.669 19.1667L17.8023 10.5L19.8115 18.0126L21.0414 15.5391H26" stroke="#4C5258" stroke-width="1.14943" stroke-linecap="square" stroke-linejoin="round"/>
<path d="M24.2757 22.0002C23.6189 22.0002 22.9962 22.2435 22.5 22.6911C22.0038 22.2435 21.3859 22.0002 20.7243 22.0002C19.2211 22.0002 18 23.2846 18 24.8656C18 25.3181 18.0973 25.7511 18.2919 26.1548C18.2919 26.1548 18.2919 26.1646 18.2968 26.1694C18.3259 26.2424 19.08 27.9889 22.3638 30.2316C22.4027 30.2608 22.4514 30.2754 22.5 30.2754C22.5486 30.2754 22.5973 30.2608 22.6362 30.2316C25.92 27.9889 26.6692 26.2424 26.7032 26.1694C26.7032 26.1694 26.7032 26.1597 26.7081 26.1548C26.9027 25.7511 27 25.3181 27 24.8656C27 23.2846 25.7789 22.0002 24.2757 22.0002Z" fill="#E55151"/>
</svg>
