<svg width="37" height="36" viewBox="0 0 37 36" fill="none" xmlns="http://www.w3.org/2000/svg">
<rect x="6.2334" y="4.05042" width="24.2" height="28.8" rx="3.15" fill="#A8CBFF"/>
<path d="M15.3232 24.3432L13.3098 24.6319C13.03 24.6708 12.791 24.4318 12.8317 24.1538L13.1203 22.1404C13.1434 21.9828 13.216 21.8358 13.3311 21.7207L19.4102 15.6416L21.822 18.0534L15.7429 24.1325C15.6295 24.2458 15.4826 24.3184 15.3232 24.3432Z" fill="#267DFF"/>
<path d="M22.5514 13.736L23.7289 14.9136C24.0689 15.2536 24.0689 15.8061 23.7272 16.1479L22.4185 17.4565L20.0067 15.0447L21.3153 13.736C21.6571 13.3943 22.2096 13.3943 22.5514 13.736Z" fill="#267DFF"/>
<rect x="11.1333" y="2.25037" width="1.8" height="5.4" rx="0.9" fill="#3A3C40"/>
<rect x="17.4333" y="2.25061" width="1.8" height="5.4" rx="0.9" fill="#3A3C40"/>
<rect x="23.7334" y="2.25061" width="1.8" height="5.4" rx="0.9" fill="#3A3C40"/>
</svg>
