<svg width="37" height="36" viewBox="0 0 37 36" fill="none" xmlns="http://www.w3.org/2000/svg">
<path d="M19.5644 6.46228H11.9231V10.7824H19.5644V6.46228Z" fill="#A8CBFF"/>
<path d="M12.5569 8.20898H18.9304C22.1309 8.20898 24.7286 10.8066 24.7286 14.007V29.1481C24.7286 30.9534 23.2644 32.4175 21.4591 32.4175H10.0282C8.22297 32.4175 6.75879 30.9534 6.75879 29.1516V14.007C6.75879 10.8066 9.35641 8.20898 12.5569 8.20898Z" fill="#A8CBFF"/>
<path d="M24.7286 14.296H6.75879V27.4045H24.7286V14.296Z" fill="#E9F2FF"/>
<path d="M20.1673 3H11.3202C10.7456 3 10.2798 3.46581 10.2798 4.04041V6.54498C10.2798 7.11959 10.7456 7.58539 11.3202 7.58539H20.1673C20.7419 7.58539 21.2077 7.11959 21.2077 6.54498V4.04041C21.2077 3.46581 20.7419 3 20.1673 3Z" fill="#10141A"/>
<path d="M20.0087 19.3844H11.4751V22.3196H20.0087V19.3844Z" fill="#267DFF"/>
<path d="M14.2759 16.5873V25.1207H17.2111V16.5873H14.2759Z" fill="#267DFF"/>
<path d="M25.2022 25.0814C24.388 23.9459 24.6497 22.3653 25.7859 21.5518C26.9236 20.737 28.5043 21.0008 29.3157 22.1356L31.3145 24.9264L30.1803 27.3581L27.2017 27.8729L25.2022 25.0814Z" fill="#A8CBFF"/>
<path d="M29.1992 30.6649L27.2004 27.8733L31.3139 24.9268H31.3146L33.3134 27.7183C34.1276 28.8546 33.8659 30.4352 32.7304 31.2486C31.5976 32.0599 30.0155 31.8018 29.1999 30.6649H29.1992Z" fill="#267DFF"/>
<path d="M22.766 28.9401C21.3688 28.9401 20.236 30.0727 20.236 31.4699C20.236 32.8671 21.3695 33.9998 22.766 33.9998H26.3803L27.8743 31.4699L26.3803 28.9401H22.766Z" fill="#E55151"/>
<path d="M26.3811 28.9401V33.9998H29.9954C31.3927 33.9998 32.5254 32.8671 32.5254 31.4699C32.5254 30.0727 31.392 28.9401 29.9954 28.9401H26.3811Z" fill="#F5BABA"/>
</svg>
