<svg width="20" height="20" viewBox="0 0 20 20" fill="none" xmlns="http://www.w3.org/2000/svg">
<path d="M15.6004 13.0305C15.41 12.7968 15.3061 12.5112 15.2888 12.2084L15.1417 8.03722C15.0552 5.50165 13.2119 3.29493 10.6936 2.96609C7.63004 2.56801 4.98191 4.88723 4.87806 7.8728L4.72229 12.217C4.71363 12.5199 4.60113 12.8055 4.41074 13.0391L3.21649 14.5016C2.87898 14.9083 3.17322 15.5314 3.70112 15.5314H7.59542C7.59542 16.8295 8.69448 17.9372 10.0012 17.9372C11.308 17.9372 12.407 16.8381 12.407 15.5314H16.3014C16.8292 15.5314 17.1235 14.917 16.786 14.5016L15.5917 13.0391L15.6004 13.0305Z" fill="#C4C8CE"/>
<path d="M18.1541 7.01968C18.1755 6.8685 18.1925 6.71733 18.1925 6.55726C18.1925 6.39719 18.1755 6.24602 18.1541 6.09484L18.8847 5.52571C19.0727 5.37898 19.124 5.10775 19.0087 4.89433L18.5686 4.10288C18.4489 3.88945 18.2011 3.80497 17.9832 3.89834L17.1457 4.27184C16.915 4.0762 16.6586 3.92502 16.3766 3.80942L16.2655 2.86679C16.2356 2.62224 16.039 2.43994 15.804 2.43994H14.9281C14.6931 2.43994 14.4923 2.62224 14.4666 2.86679L14.3556 3.80942C14.0735 3.92058 13.8172 4.0762 13.5864 4.27184L12.749 3.89834C12.5311 3.80052 12.279 3.88945 12.1636 4.10288L11.7235 4.89433C11.6039 5.10775 11.6594 5.37453 11.8474 5.52571L12.5781 6.09484C12.5567 6.24602 12.5396 6.39719 12.5396 6.55726C12.5396 6.71733 12.5567 6.8685 12.5781 7.01968L11.8474 7.58881C11.6594 7.73554 11.6081 8.00677 11.7235 8.22019L12.1636 9.01164C12.2832 9.22507 12.5311 9.30955 12.749 9.21618L13.5864 8.84268C13.8172 9.03832 14.0735 9.1895 14.3556 9.3051L14.4666 10.2477C14.4966 10.4923 14.6931 10.6746 14.9281 10.6746H15.804C16.039 10.6746 16.2399 10.4923 16.2655 10.2477L16.3766 9.3051C16.6586 9.19394 16.915 9.03832 17.1457 8.84268L17.9832 9.21618C18.2011 9.31399 18.4532 9.22507 18.5686 9.01164L19.0087 8.22019C19.1283 8.00677 19.0727 7.73999 18.8847 7.58881L18.1541 7.01968ZM15.3639 7.81558C14.6974 7.81558 14.1547 7.25089 14.1547 6.55726C14.1547 5.86363 14.6974 5.29894 15.3639 5.29894C16.0305 5.29894 16.5731 5.86363 16.5731 6.55726C16.5731 7.25089 16.0305 7.81558 15.3639 7.81558Z" fill="#82868C"/>
</svg>
