<svg width="20" height="20" viewBox="0 0 20 20" fill="none" xmlns="http://www.w3.org/2000/svg">
<path d="M15.5959 12.5379C15.4051 12.3038 15.3011 12.0177 15.2837 11.7143L15.1364 7.53535C15.0497 4.99505 13.203 2.78422 10.68 2.45476C7.61084 2.05594 4.95784 4.37949 4.8538 7.37062L4.69774 11.7229C4.68907 12.0264 4.57636 12.3125 4.38562 12.5466L3.18917 14.0118C2.85104 14.4193 3.14582 15.0435 3.67469 15.0435H7.57616C7.57616 16.344 8.67725 17.4538 9.98641 17.4538C11.2956 17.4538 12.3967 16.3527 12.3967 15.0435H16.2981C16.827 15.0435 17.1218 14.428 16.7836 14.0118L15.5872 12.5466L15.5959 12.5379Z" fill="#3284FF"/>
<path d="M3.38873 7.95977C3.73552 7.95977 4.02163 7.68233 4.03897 7.33553C4.08232 6.0177 4.5505 4.7779 5.38281 3.76351C5.60823 3.48607 5.57355 3.07859 5.29611 2.8445C5.01868 2.61908 4.61119 2.65376 4.3771 2.9312C3.36272 4.171 2.79917 5.67957 2.73848 7.28351C2.72981 7.63898 3.00725 7.94243 3.36272 7.95977C3.36272 7.95977 3.38006 7.95977 3.38873 7.95977Z" fill="#3284FF"/>
<path d="M15.5438 2.93125C15.3183 2.65382 14.9022 2.61047 14.6247 2.84455C14.3473 3.06997 14.3039 3.48613 14.538 3.76357C15.4137 4.8213 15.9166 6.15648 15.9599 7.50899C15.9686 7.85579 16.2634 8.13322 16.6102 8.13322C16.6102 8.13322 16.6275 8.13322 16.6362 8.13322C16.9916 8.12455 17.2777 7.82111 17.2604 7.45697C17.1997 5.81835 16.5928 4.21441 15.5438 2.93125Z" fill="#3284FF"/>
</svg>
