<svg width="24" height="24" viewBox="0 0 24 24" fill="none" xmlns="http://www.w3.org/2000/svg">
<path d="M12.1898 4.51783L14.5225 9.23829C14.5408 9.2689 14.5715 9.29339 14.6082 9.29951L19.8185 10.0587C19.9899 10.0832 20.0634 10.2975 19.9348 10.4199L16.1633 14.0934C16.1633 14.0934 16.1266 14.1547 16.1327 14.1914L17.0205 19.3833C17.0511 19.5547 16.8674 19.6894 16.7143 19.6037L12.0551 17.1547C12.0245 17.1363 11.9816 17.1363 11.951 17.1547L7.29178 19.6037C7.13872 19.6833 6.95504 19.5547 6.98566 19.3833L7.87342 14.1914C7.87954 14.1547 7.87342 14.1179 7.84281 14.0934L4.06521 10.4199C3.93664 10.2975 4.01011 10.0832 4.18154 10.0587L9.39181 9.29951C9.42854 9.29951 9.45915 9.2689 9.47752 9.23829L11.8102 4.51783C11.8898 4.35864 12.1102 4.35864 12.1898 4.51783Z" fill="#D2D6DC"/>
</svg>
