<svg width="34" height="34" viewBox="0 0 34 34" fill="none" xmlns="http://www.w3.org/2000/svg">
<g filter="url(#filter0_d_488_20171)">
<circle cx="17" cy="17" r="15" fill="#3284FF"/>
<circle cx="17" cy="17" r="15" stroke="white"/>
</g>
<path d="M22.7915 17.1883C24.4217 15.5581 24.4217 12.9151 22.7915 11.285C21.1613 9.65482 18.5183 9.65482 16.8882 11.285L11.1156 17.0576C9.48541 18.6878 9.48541 21.3308 11.1156 22.9609C12.7457 24.5911 15.3887 24.5911 17.0189 22.9609L22.7915 17.1883Z" stroke="white" stroke-width="0.7" stroke-miterlimit="10"/>
<path d="M14.0039 14.1715L11.1176 17.0578C9.48928 18.6861 9.48928 21.3328 11.1176 22.9611C12.7459 24.5895 15.3926 24.5895 17.0209 22.9611L19.9072 20.0748L14.0039 14.1715Z" fill="white" stroke="white" stroke-width="0.7" stroke-miterlimit="10"/>
<defs>
<filter id="filter0_d_488_20171" x="0.5" y="0.5" width="33" height="33" filterUnits="userSpaceOnUse" color-interpolation-filters="sRGB">
<feFlood flood-opacity="0" result="BackgroundImageFix"/>
<feColorMatrix in="SourceAlpha" type="matrix" values="0 0 0 0 0 0 0 0 0 0 0 0 0 0 0 0 0 0 127 0" result="hardAlpha"/>
<feOffset/>
<feGaussianBlur stdDeviation="0.5"/>
<feComposite in2="hardAlpha" operator="out"/>
<feColorMatrix type="matrix" values="0 0 0 0 0 0 0 0 0 0 0 0 0 0 0 0 0 0 0.3 0"/>
<feBlend mode="normal" in2="BackgroundImageFix" result="effect1_dropShadow_488_20171"/>
<feBlend mode="normal" in="SourceGraphic" in2="effect1_dropShadow_488_20171" result="shape"/>
</filter>
</defs>
</svg>
