<svg width="18" height="18" viewBox="0 0 18 18" fill="none" xmlns="http://www.w3.org/2000/svg">
<path d="M9.00085 15.2097C12.4304 15.2097 15.2107 12.4295 15.2107 8.99987C15.2107 5.57028 12.4304 2.79004 9.00085 2.79004C5.57125 2.79004 2.79102 5.57028 2.79102 8.99987C2.79102 12.4295 5.57125 15.2097 9.00085 15.2097Z" stroke="#10141A" stroke-width="1.29732" stroke-linecap="round" stroke-linejoin="round"/>
<path d="M9.0001 11.0412C10.1274 11.0412 11.0412 10.1274 11.0412 9.0001C11.0412 7.87282 10.1274 6.95898 9.0001 6.95898C7.87282 6.95898 6.95898 7.87282 6.95898 9.0001C6.95898 10.1274 7.87282 11.0412 9.0001 11.0412Z" fill="#10141A" stroke="#10141A" stroke-width="1.29732" stroke-linecap="round" stroke-linejoin="round"/>
<path d="M9 2.7903V1" stroke="#10141A" stroke-width="1.29732" stroke-linecap="round" stroke-linejoin="round"/>
<path d="M9 17.0003V15.21" stroke="#10141A" stroke-width="1.29732" stroke-linecap="round" stroke-linejoin="round"/>
<path d="M15.209 9H16.9993" stroke="#10141A" stroke-width="1.29732" stroke-linecap="round" stroke-linejoin="round"/>
<path d="M1 9H2.7903" stroke="#10141A" stroke-width="1.29732" stroke-linecap="round" stroke-linejoin="round"/>
</svg>
