<svg width="17" height="17" viewBox="0 0 17 17" fill="none" xmlns="http://www.w3.org/2000/svg">
<path fill-rule="evenodd" clip-rule="evenodd" d="M8.50118 3.82328C6.8173 3.82328 5.34208 4.70991 4.51828 6.04724C4.37924 6.27295 4.08356 6.34321 3.85785 6.20418C3.63214 6.06514 3.56188 5.76945 3.70091 5.54374C4.6927 3.9337 6.47137 2.86328 8.50118 2.86328C11.6134 2.86328 14.1391 5.38892 14.1391 8.50118C14.1391 11.6134 11.6134 14.1391 8.50118 14.1391C5.38892 14.1391 2.86328 11.6134 2.86328 8.50118C2.86328 8.23608 3.07818 8.02118 3.34328 8.02118C3.60838 8.02118 3.82328 8.23608 3.82328 8.50118C3.82328 11.0832 5.91911 13.1791 8.50118 13.1791C11.0832 13.1791 13.1791 11.0832 13.1791 8.50118C13.1791 5.91911 11.0832 3.82328 8.50118 3.82328Z" fill="white"/>
<path fill-rule="evenodd" clip-rule="evenodd" d="M4.10891 3.12891C4.374 3.12891 4.58891 3.34381 4.58891 3.60891V5.31585H6.29585C6.56095 5.31585 6.77585 5.53076 6.77585 5.79585C6.77585 6.06095 6.56095 6.27585 6.29585 6.27585H4.10891C3.84381 6.27585 3.62891 6.06095 3.62891 5.79585V3.60891C3.62891 3.34381 3.84381 3.12891 4.10891 3.12891Z" fill="white"/>
</svg>
