<svg width="10" height="8" viewBox="0 0 10 8" fill="none" xmlns="http://www.w3.org/2000/svg">
<path d="M0.648119 6.63788C1.34162 8.6211 4.20329 8.39248 4.47764 6.25304C4.61863 5.20142 3.81652 4.18219 2.77055 4.05264C2.40475 4.00311 2.29996 3.68876 2.36092 3.35537C2.56097 1.99512 3.24114 0.947305 3.77842 0.310998C3.83367 0.230983 4.00324 0.0557128 3.88511 0.000464557C3.78795 -0.00715589 3.626 0.0804793 3.51931 0.152874C2.78579 0.674874 2.06371 1.42358 1.60836 2.07894C0.77577 3.23725 0.202294 5.37098 0.642403 6.62073L0.650024 6.63978L0.648119 6.63788Z" fill="#C4C8CE"/>
<path d="M5.65342 6.63788C6.34692 8.6211 9.20858 8.39248 9.48294 6.25304C9.62392 5.20142 8.82182 4.18219 7.77585 4.05264C7.41004 4.00311 7.30525 3.68876 7.36622 3.35537C7.56627 1.99512 8.24644 0.947305 8.78372 0.310998C8.83897 0.230983 9.00853 0.0557128 8.89041 0.000464557C8.79324 -0.00715589 8.6313 0.0804793 8.5246 0.152874C7.79109 0.674874 7.06901 1.42358 6.61365 2.07894C5.77916 3.23916 5.20569 5.37288 5.6458 6.62073L5.65342 6.63978V6.63788Z" fill="#C4C8CE"/>
</svg>
